<svg xmlns="http://www.w3.org/2000/svg" width="490" height="250" viewBox="0 0 490 250"><style type="text/css">.st0{fill:#672373;} .st1{fill:#FFFFFF;} .st2{fill:#9D35AF;} .st3{fill:none;stroke:#A8A6AF;stroke-width:2;stroke-miterlimit:10;} .st4{fill:#C883D4;} .st5{fill:#669900;} .st6{fill:#63666A;} .st7{fill:#FF3333;} .st8{fill:#D9D8E3;} .st9{fill:#A8A6AF;} .st10{fill:none;stroke:#D9D8E3;stroke-width:2;stroke-linecap:round;stroke-linejoin:round;stroke-miterlimit:10;} .st11{fill:none;stroke:#9D35AF;stroke-width:2;stroke-miterlimit:10;}</style><path class="st3" d="M15.5 14.5h458.8v220.7h-458.8z"/><path class="st0" d="M210 25h252v198h-252z"/><path class="st1" d="M259 77.6v1.6c-.5-.3-.9-.5-1.4-.6s-.9-.2-1.4-.2c-.7 0-1.3.1-1.6.4-.4.2-.5.6-.5 1.1 0 .4.1.8.4 1 .3.2.9.4 2 .6l.6.1c.8.2 1.4.5 1.8.9.4.5.6 1 .6 1.8 0 1-.3 1.7-1 2.2s-1.6.8-2.8.8c-.5 0-1-.1-1.5-.2s-1.1-.3-1.7-.5v-1.6c.6.3 1.2.5 1.7.7.5.2 1.1.2 1.5.2.7 0 1.2-.1 1.6-.4.4-.3.6-.7.6-1.2 0-.7-.7-1.3-2.1-1.5h-.1l-.6-.1c-.9-.2-1.6-.5-2-.9-.4-.4-.6-1-.6-1.7 0-.9.3-1.6.9-2.2.6-.5 1.5-.8 2.7-.8.5 0 1 0 1.5.1.4.1.9.3 1.4.4zm7.5-3v2.8h3.6v1.2h-3.6v5.3c0 .7.1 1.2.4 1.5.3.3.7.4 1.4.4h1.8v1.2h-1.9c-1.2 0-2-.2-2.5-.7-.5-.5-.7-1.3-.7-2.5v-5.3h-2.6v-1.2h2.6v-2.8h1.5zm14.6 6.9v5.5h-1.6v-1.4c-.3.6-.8 1-1.3 1.3-.5.3-1.1.4-1.9.4-1 0-1.8-.3-2.4-.8-.6-.6-.9-1.3-.9-2.2 0-1.1.4-1.9 1.1-2.5.7-.6 1.8-.8 3.2-.8h2.1v-.3c0-.8-.2-1.3-.6-1.7-.4-.3-1-.5-1.9-.5-.5 0-1.1.1-1.6.2s-1.1.4-1.6.7v-1.6c.6-.2 1.2-.4 1.7-.5.5-.1 1.1-.2 1.6-.2.8 0 1.5.1 2.1.4s1 .6 1.4 1.1c.2.3.4.6.5 1.1 0 .3.1.9.1 1.8zm-3.1.6h-.5c-.9 0-1.6.2-2.1.5s-.7.8-.7 1.5c0 .6.2 1 .5 1.4.4.3.8.5 1.5.5.9 0 1.6-.3 2.1-.9s.8-1.5.8-2.5v-.4h-1.6zm9.9-7.5v2.8h3.6v1.2h-3.6v5.3c0 .7.1 1.2.4 1.5.3.3.7.4 1.4.4h1.8v1.2h-1.9c-1.2 0-2-.2-2.5-.7-.5-.5-.7-1.3-.7-2.5v-5.3h-2.6v-1.2h2.6v-2.8h1.5zm8.1 2.7h4.1v8.4h3.2v1.3h-7.9v-1.2h3.2v-7.2h-2.6v-1.3zm2.5-3.7h1.6v2h-1.6v-2zm14.6 12.9l-1.3.6s-.9.2-1.4.2c-1.5 0-2.7-.5-3.5-1.4s-1.3-2.1-1.3-3.7.4-2.8 1.3-3.7 2-1.4 3.5-1.4c.5 0 .9.1 1.4.2.4.1.9.3 1.3.6v1.7c-.4-.4-.8-.6-1.3-.8-.4-.2-.9-.3-1.4-.3-1 0-1.8.3-2.3 1s-.8 1.6-.8 2.8c0 1.2.3 2.1.8 2.8.5.6 1.3 1 2.3 1 .6 0 1.1-.1 1.5-.3.4-.2.8-.4 1.2-.8v1.5zm19.6-13.8c-.8 1.3-1.3 2.6-1.7 3.9-.4 1.3-.6 2.6-.6 4 0 1.3.2 2.6.6 4 .4 1.3 1 2.6 1.7 4h-1.4c-.9-1.4-1.5-2.7-1.9-4-.4-1.3-.6-2.6-.6-3.9 0-1.3.2-2.6.6-3.9.4-1.3 1.1-2.6 1.9-4h1.4zm10.7 5.8v-5h1.6v13.5h-1.6v-1.2c-.3.5-.6.8-1.1 1.1-.4.3-1 .4-1.5.4-1.2 0-2.1-.5-2.8-1.4-.7-.9-1-2.2-1-3.8 0-1.6.3-2.8 1-3.7s1.6-1.3 2.8-1.3c.6 0 1.1.1 1.5.4.5.2.9.6 1.1 1zm-4.7 3.7c0 1.2.2 2.2.6 2.8s1 .9 1.7.9c.8 0 1.4-.3 1.8-1s.6-1.6.6-2.8c0-1.2-.2-2.2-.6-2.8-.4-.6-1-.9-1.8-.9s-1.3.3-1.7.9-.6 1.6-.6 2.9zm17.7-.8v.8h-6.9v.1c0 1.3.2 2.3.8 2.9.6.6 1.3.9 2.3.9.5 0 1-.1 1.6-.2.6-.2 1.1-.4 1.8-.7v1.6l-1.8.6c-.6.1-1.1.2-1.6.2-1.5 0-2.7-.5-3.5-1.4s-1.3-2.1-1.3-3.7c0-1.5.4-2.8 1.2-3.7.8-.9 1.9-1.4 3.3-1.4 1.2 0 2.2.4 2.9 1.3.8.5 1.1 1.5 1.2 2.7zm-1.6-.5c-.1-.7-.3-1.2-.7-1.7-.4-.5-1-.7-1.8-.7s-1.4.3-1.9.8-.8 1.1-.8 1.7l5.2-.1zm11.8-7.4v1.3h-1.8c-.6 0-1 .1-1.2.4s-.3.6-.3 1.2v.9h3.3v1.2h-3.3v8.5h-1.6v-8.5h-2.6v-1.2h2.6v-.7c0-1.1.2-1.8.7-2.3.5-.5 1.2-.8 2.3-.8h1.9zm10.6 8v5.5h-1.6v-1.4c-.3.6-.8 1-1.3 1.3-.5.3-1.1.4-1.9.4-1 0-1.8-.3-2.4-.8-.6-.6-.9-1.3-.9-2.2 0-1.1.4-1.9 1.1-2.5.7-.6 1.8-.8 3.2-.8h2.1v-.3c0-.8-.2-1.3-.6-1.7-.4-.3-1-.5-1.9-.5-.5 0-1.1.1-1.6.2s-1.1.4-1.6.7v-1.6c.6-.2 1.2-.4 1.7-.5.5-.1 1.1-.2 1.6-.2.8 0 1.5.1 2.1.4.6.2 1 .6 1.4 1.1.2.3.4.6.5 1.1.1.3.1.9.1 1.8zm-3.1.6h-.5c-.9 0-1.6.2-2.1.5s-.7.8-.7 1.5c0 .6.2 1 .5 1.4.4.3.8.5 1.5.5.9 0 1.6-.3 2.1-.9.5-.6.8-1.5.8-2.5v-.4h-1.6zm6.3 1.2v-6h1.6v6c0 .9.2 1.5.5 1.9.3.4.8.6 1.4.6.8 0 1.3-.3 1.7-.8.4-.5.6-1.3.6-2.3v-5.5h1.6v9.8h-1.6v-1.5c-.3.6-.7 1-1.2 1.3-.5.3-1.1.4-1.7.4-1 0-1.7-.3-2.2-1-.4-.6-.7-1.5-.7-2.9zm15.2.2c0 .7.1 1.3.4 1.6s.7.5 1.2.5h1.9v1.4h-2c-1 0-1.7-.3-2.2-.9-.5-.6-.8-1.5-.8-2.6v-8.8h-2.6v-1.2h4.1v10zm9.8-8.9v2.8h3.6v1.2h-3.6v5.3c0 .7.1 1.2.4 1.5.3.3.7.4 1.4.4h1.8v1.2h-1.9c-1.2 0-2-.2-2.5-.7-.5-.5-.7-1.3-.7-2.5v-5.3h-2.6v-1.2h2.6v-2.8h1.5zm8.4-1.9h1.4c.9 1.4 1.5 2.7 1.9 4 .4 1.3.6 2.6.6 3.9 0 1.3-.2 2.6-.6 3.9-.4 1.3-1.1 2.6-1.9 4h-1.4c.8-1.3 1.3-2.7 1.7-4s.6-2.6.6-3.9c0-1.3-.2-2.6-.6-3.9-.4-1.4-.9-2.7-1.7-4z"/><path class="st2" d="M30 148h148v75h-148z"/><path class="st1" d="M70.4 184.3v5.5h-1.6v-1.4c-.3.6-.8 1-1.3 1.3-.5.3-1.1.4-1.9.4-1 0-1.8-.3-2.4-.8-.6-.6-.9-1.3-.9-2.2 0-1.1.4-1.9 1.1-2.5s1.8-.8 3.2-.8h2.1v-.3c0-.8-.2-1.3-.6-1.7s-1-.5-1.9-.5c-.5 0-1.1.1-1.6.2-.6.2-1.1.4-1.6.7v-1.6c.6-.2 1.2-.4 1.7-.5.5-.1 1.1-.2 1.6-.2.8 0 1.5.1 2.1.4.6.2 1 .6 1.4 1.1.2.3.4.6.5 1.1.1.3.1 1 .1 1.8zm-3 .7h-.5c-.9 0-1.6.2-2.1.5s-.7.8-.7 1.5c0 .6.2 1 .5 1.4.4.3.8.5 1.5.5.9 0 1.6-.3 2.1-.9.5-.6.8-1.5.8-2.5v-.5h-1.6zm7.8-3.6c.3-.5.6-.8 1.1-1.1s1-.4 1.6-.4c1.2 0 2.1.4 2.8 1.3.7.9 1 2.1 1 3.7s-.3 2.9-1 3.8c-.7.9-1.6 1.4-2.8 1.4-.6 0-1.1-.1-1.5-.4-.4-.3-.8-.6-1.1-1.1v1.2h-1.6v-13.5h1.6v5.1zm4.7 3.6c0-1.2-.2-2.2-.6-2.8-.4-.6-1-.9-1.7-.9-.8 0-1.4.3-1.8.9-.4.6-.6 1.6-.6 2.8 0 1.2.2 2.2.6 2.8.4.6 1 1 1.8 1s1.3-.3 1.7-.9c.4-.7.6-1.7.6-2.9zm11.2-4.5v1.6c-.5-.3-.9-.5-1.4-.6s-.9-.2-1.4-.2c-.7 0-1.3.1-1.6.4-.4.2-.5.6-.5 1.1 0 .4.1.8.4 1s.9.4 2 .6l.6.1c.8.2 1.4.5 1.8.9.4.5.6 1 .6 1.8 0 1-.3 1.7-1 2.2s-1.6.8-2.8.8c-.5 0-1-.1-1.5-.2s-1.1-.3-1.7-.5v-1.6c.6.3 1.2.5 1.7.7.5.2 1.1.2 1.5.2.7 0 1.2-.1 1.6-.4.4-.3.6-.7.6-1.2 0-.7-.7-1.3-2.1-1.5h-.1l-.6-.1c-.9-.2-1.6-.5-2-.9-.4-.4-.6-1-.6-1.7 0-.9.3-1.6.9-2.2.6-.5 1.5-.8 2.7-.8.5 0 1 0 1.5.1.4 0 .9.2 1.4.4zm7.6-.6c1.3 0 2.4.4 3.1 1.3.7.9 1.1 2.1 1.1 3.8 0 1.7-.4 2.9-1.1 3.8-.7.9-1.7 1.3-3.1 1.3-1.3 0-2.4-.4-3.1-1.3-.7-.9-1.1-2.1-1.1-3.8 0-1.7.4-2.9 1.1-3.8.7-.9 1.7-1.3 3.1-1.3zm0 1.4c-.8 0-1.4.3-1.8.9-.4.6-.6 1.6-.6 2.8 0 1.2.2 2.2.6 2.8.4.6 1 .9 1.8.9s1.4-.3 1.8-.9c.4-.6.6-1.6.6-2.8 0-1.2-.2-2.2-.6-2.8-.4-.6-1-.9-1.8-.9zm11.5 5c0 .7.1 1.3.4 1.6.3.4.7.5 1.2.5h1.9v1.3h-2c-1 0-1.7-.3-2.2-.9-.5-.6-.8-1.5-.8-2.6v-8.8h-2.6v-1.2h4.1v10.1zm6.2-.1v-6h1.6v6c0 .9.2 1.5.5 1.9.3.4.8.6 1.4.6.8 0 1.3-.3 1.7-.8.4-.5.6-1.3.6-2.3v-5.5h1.6v9.7h-1.6v-1.5c-.3.6-.7 1-1.2 1.3s-1.1.4-1.7.4c-1 0-1.7-.3-2.2-1-.5-.5-.7-1.5-.7-2.8zm14.3-8.8v2.8h3.6v1.2h-3.6v5.3c0 .7.1 1.2.4 1.5.3.3.7.4 1.4.4h1.8v1.3h-1.9c-1.2 0-2-.2-2.5-.7-.5-.5-.7-1.3-.7-2.5v-5.3h-2.6v-1.2h2.6v-2.8h1.5zm15 6.8v.8h-6.9v.1c0 1.3.2 2.3.8 2.9.6.6 1.3.9 2.3.9.5 0 1-.1 1.6-.2.6-.2 1.1-.4 1.8-.7v1.6l-1.8.6c-.6.1-1.1.2-1.6.2-1.5 0-2.7-.5-3.5-1.4-.8-.9-1.3-2.1-1.3-3.7 0-1.5.4-2.8 1.2-3.7.8-.9 1.9-1.4 3.3-1.4 1.2 0 2.2.4 2.9 1.3.8.5 1.2 1.5 1.2 2.7zm-1.5-.5c-.1-.7-.3-1.2-.7-1.7-.4-.5-1-.7-1.8-.7s-1.4.3-1.9.8-.8 1.1-.8 1.7l5.2-.1z"/></svg>