<svg xmlns="http://www.w3.org/2000/svg" width="490" height="255" viewBox="0 0 490 255"><style type="text/css">.st0{fill:none;stroke:#A8A6AF;stroke-width:2;stroke-miterlimit:10;} .st1{fill:#C883D4;} .st2{fill:#FFFFFF;} .st3{fill:#669900;} .st4{fill:#63666A;} .st5{fill:#FF3333;} .st6{fill:#672373;} .st7{fill:#D9D8E3;} .st8{fill:#A8A6AF;} .st9{fill:#9D35AF;}</style><path class="st3" d="M105.1 234.2c.2 0 .3.2.5.5.2.6.3.9.4.9.1 0 .1-.1.2-.2 1.4-2.1 2.7-3.6 3.9-4.5.5-.4 1-.6 1.5-.6.6 0 1 0 1.2.1.1 0 .1.1.1.2s-.1.2-.2.3c-3.3 3.7-5.2 6.2-5.8 7.3-.2.4-.7.6-1.5.6-.3 0-.5-.1-.8-.2-.1-.1-.3-.4-.6-1.2-.4-.9-.5-1.7-.5-2.4 0-.2.2-.5.5-.6.5-.1.9-.2 1.1-.2z"/><path class="st4" d="M127.4 238.6v4.9h-1.6v-13.4h1.6v1.2c.3-.5.6-.8 1.1-1.1.4-.3 1-.4 1.5-.4 1.2 0 2.1.5 2.8 1.4s1 2.2 1 3.8c0 1.6-.3 2.8-1 3.7s-1.6 1.3-2.8 1.3c-.6 0-1.1-.1-1.5-.4-.5-.1-.8-.5-1.1-1zm4.7-3.6c0-1.2-.2-2.2-.6-2.8-.4-.6-1-.9-1.7-.9-.8 0-1.4.3-1.8.9s-.6 1.6-.6 2.8c0 1.2.2 2.2.6 2.8.4.6 1 1 1.8 1s1.3-.3 1.7-.9c.4-.7.6-1.7.6-2.9zm11.9-.7v5.5h-1.6v-1.4c-.3.6-.8 1-1.3 1.3-.5.3-1.1.4-1.9.4-1 0-1.8-.3-2.4-.8-.6-.6-.9-1.3-.9-2.2 0-1.1.4-1.9 1.1-2.5.7-.6 1.8-.8 3.2-.8h2.1v-.3c0-.8-.2-1.3-.6-1.7-.4-.3-1-.5-1.9-.5-.5 0-1.1.1-1.6.2-.6.2-1.1.4-1.6.7v-1.6c.6-.2 1.2-.4 1.7-.5.5-.1 1.1-.2 1.6-.2.8 0 1.5.1 2.1.4s1 .6 1.4 1.1c.2.3.4.6.5 1.1.1.3.1 1 .1 1.8zm-3.1.7h-.5c-.9 0-1.6.2-2.1.5s-.7.8-.7 1.5c0 .6.2 1 .5 1.4.4.3.8.5 1.5.5.9 0 1.6-.3 2.1-.9s.8-1.5.8-2.5v-.5h-1.6zm12.1-3.6v-5h1.6v13.5h-1.6v-1.2c-.3.5-.6.8-1.1 1.1-.4.2-1 .4-1.5.4-1.2 0-2.1-.5-2.8-1.4s-1-2.2-1-3.8c0-1.6.3-2.8 1-3.7.7-.9 1.6-1.3 2.8-1.3.6 0 1.1.1 1.5.4.5.1.8.5 1.1 1zm-4.7 3.6c0 1.2.2 2.2.6 2.8.4.6 1 .9 1.7.9.8 0 1.4-.3 1.8-1 .4-.6.6-1.6.6-2.8 0-1.2-.2-2.2-.6-2.8s-1-.9-1.8-.9-1.3.3-1.7.9c-.4.7-.6 1.7-.6 2.9zm15.4-3.6v-5h1.6v13.5h-1.6v-1.2c-.3.5-.6.8-1.1 1.1-.4.2-1 .4-1.5.4-1.2 0-2.1-.5-2.8-1.4s-1-2.2-1-3.8c0-1.6.3-2.8 1-3.7.7-.9 1.6-1.3 2.8-1.3.6 0 1.1.1 1.5.4.5.1.8.5 1.1 1zm-4.7 3.6c0 1.2.2 2.2.6 2.8.4.6 1 .9 1.7.9.8 0 1.4-.3 1.8-1 .4-.6.6-1.6.6-2.8 0-1.2-.2-2.2-.6-2.8s-1-.9-1.8-.9-1.3.3-1.7.9c-.4.7-.6 1.7-.6 2.9zm10.6-4.8h4.1v8.4h3.2v1.2h-7.9v-1.2h3.2v-7.2h-2.5v-1.2zm2.5-3.8h1.6v2h-1.6v-2zm14.6 7.4v6h-1.6v-6c0-.9-.2-1.5-.5-1.9s-.8-.6-1.4-.6c-.7 0-1.3.3-1.7.8-.4.5-.6 1.3-.6 2.3v5.5h-1.6v-9.7h1.6v1.5c.3-.6.7-1 1.2-1.3.5-.3 1.1-.4 1.7-.4 1 0 1.7.3 2.2 1 .5.5.7 1.5.7 2.8zm10.6 5.4c0 1.5-.3 2.6-1 3.3-.7.8-1.7 1.1-3 1.1-.4 0-.9 0-1.4-.1s-1-.2-1.4-.4v-1.6c.6.3 1.1.5 1.5.6s.9.2 1.3.2c.9 0 1.5-.2 1.9-.7.4-.5.6-1.2.6-2.2v-1.2c-.3.5-.6.9-1 1.2s-1 .4-1.6.4c-1.1 0-2-.5-2.7-1.4-.7-.9-1-2.1-1-3.6s.3-2.7 1-3.6 1.6-1.4 2.7-1.4c.6 0 1.2.1 1.6.4.4.2.8.6 1.1 1.2v-1.3h1.6v9.1zm-1.6-4.3c0-1.2-.2-2.1-.6-2.7-.4-.6-1-.9-1.7-.9-.8 0-1.4.3-1.8.9-.4.6-.6 1.5-.6 2.7s.2 2.1.6 2.7c.4.6 1 .9 1.8.9.7 0 1.3-.3 1.7-.9.4-.6.6-1.5.6-2.7z"/><path class="st3" d="M215.2 234.2c.2 0 .3.2.5.5.2.6.3.9.4.9.1 0 .1-.1.2-.2 1.4-2.1 2.7-3.6 3.9-4.5.5-.4 1-.6 1.5-.6.6 0 1 0 1.2.1.1 0 .1.1.1.2s-.1.2-.2.3c-3.3 3.7-5.2 6.2-5.8 7.3-.2.4-.7.6-1.5.6-.3 0-.5-.1-.8-.2-.1-.1-.3-.5-.6-1.2-.4-.9-.5-1.7-.5-2.4 0-.2.2-.5.5-.6.5-.1.9-.2 1.1-.2z"/><path class="st4" d="M240.2 231.1c.2-.4.4-.7.7-.9s.7-.3 1.1-.3c.8 0 1.3.3 1.7.9.3.6.5 1.7.5 3.4v5.6h-1.5v-5.6c0-1.4-.1-2.2-.2-2.6s-.4-.5-.8-.5c-.5 0-.8.2-.9.5-.2.4-.3 1.2-.3 2.5v5.6h-1.5v-5.6c0-1.4-.1-2.2-.2-2.6s-.5-.5-.9-.5-.7.2-.9.5c-.2.4-.2 1.2-.2 2.5v5.6h-1.4v-9.7h1.4v.8c.2-.3.4-.6.7-.8.3-.2.6-.3 1-.3s.8.1 1.1.3c.2.5.4.8.6 1.2zm14 3.2v5.5h-1.6v-1.4c-.3.6-.8 1-1.3 1.3-.5.3-1.1.4-1.9.4-1 0-1.8-.3-2.4-.8-.6-.6-.9-1.3-.9-2.2 0-1.1.4-1.9 1.1-2.5.7-.6 1.8-.8 3.2-.8h2.1v-.3c0-.8-.2-1.3-.6-1.7-.4-.3-1-.5-1.9-.5-.5 0-1.1.1-1.6.2-.6.2-1.1.4-1.6.7v-1.6c.6-.2 1.2-.4 1.7-.5s1.1-.2 1.6-.2c.8 0 1.5.1 2.1.4.6.2 1 .6 1.4 1.1.2.3.4.6.5 1.1 0 .3.1 1 .1 1.8zm-3.1.7h-.5c-.9 0-1.6.2-2.1.5s-.7.8-.7 1.5c0 .6.2 1 .5 1.4s.8.5 1.5.5c.9 0 1.6-.3 2.1-.9.5-.6.8-1.5.8-2.5v-.5h-1.6zm14.6-2.9c-.3-.3-.7-.5-1-.6-.4-.1-.7-.2-1.2-.2-1 0-1.8.3-2.3.9s-.8 1.5-.8 2.7v4.8h-1.6v-9.7h1.6v1.9c.3-.7.7-1.2 1.2-1.6.6-.4 1.2-.5 2-.5.4 0 .8 0 1.1.1.3.1.7.3 1 .5v1.7zm9.7 7.1c0 1.5-.3 2.6-1 3.3-.7.8-1.7 1.1-3 1.1-.4 0-.9 0-1.4-.1-.5-.1-1-.2-1.4-.4v-1.6c.6.3 1.1.5 1.5.6s.9.2 1.3.2c.9 0 1.5-.2 1.9-.7s.6-1.2.6-2.2v-1.2c-.3.5-.6.9-1 1.2-.4.3-1 .4-1.6.4-1.1 0-2-.5-2.7-1.4-.7-.9-1-2.1-1-3.6s.3-2.7 1-3.6c.7-.9 1.6-1.4 2.7-1.4.6 0 1.2.1 1.6.4.4.2.8.6 1.1 1.2v-1.3h1.6v9.1zm-1.6-4.3c0-1.2-.2-2.1-.6-2.7-.4-.6-1-.9-1.7-.9-.8 0-1.4.3-1.8.9-.4.6-.6 1.5-.6 2.7s.2 2.1.6 2.7c.4.6 1 .9 1.8.9.7 0 1.3-.3 1.7-.9.4-.6.6-1.5.6-2.7zm6-4.7h4.1v8.4h3.2v1.2h-7.9v-1.2h3.2v-7.2h-2.5v-1.2zm2.5-3.8h1.6v2h-1.6v-2zm14.5 7.4v6h-1.6v-6c0-.9-.2-1.5-.5-1.9-.3-.4-.8-.6-1.4-.6-.7 0-1.3.3-1.7.8s-.6 1.3-.6 2.3v5.5h-1.6v-9.7h1.6v1.5c.3-.6.7-1 1.2-1.3.5-.3 1.1-.4 1.7-.4 1 0 1.7.3 2.2 1 .5.5.7 1.5.7 2.8z"/><path class="st3" d="M314.7 234.2c.2 0 .3.2.5.5.2.6.3.9.4.9.1 0 .1-.1.2-.2 1.4-2.1 2.7-3.6 3.9-4.5.5-.4 1-.6 1.5-.6.6 0 1 0 1.2.1.1 0 .1.1.1.2s-.1.2-.2.3c-3.3 3.7-5.2 6.2-5.8 7.3-.2.4-.7.6-1.5.6-.3 0-.5-.1-.8-.2-.1-.1-.3-.5-.6-1.2-.4-.9-.5-1.7-.5-2.4 0-.2.2-.5.5-.6.5-.1.8-.2 1.1-.2z"/><path class="st4" d="M333.8 230.1h1.6l1.7 7.8 1.4-5h1.4l1.4 5 1.7-7.8h1.6l-2.3 9.7h-1.5l-1.6-5.3-1.5 5.3h-1.7l-2.2-9.7zm13.4.1h4.1v8.4h3.2v1.2h-7.9v-1.2h3.2v-7.2h-2.5v-1.2zm2.5-3.8h1.6v2h-1.6v-2zm12.9 5v-5h1.6v13.5h-1.6v-1.2c-.3.5-.6.8-1.1 1.1-.4.3-1 .4-1.5.4-1.2 0-2.1-.5-2.8-1.4-.7-.9-1-2.2-1-3.8 0-1.6.3-2.8 1-3.7.7-.9 1.6-1.3 2.8-1.3.6 0 1.1.1 1.5.4.5.1.8.5 1.1 1zm-4.7 3.6c0 1.2.2 2.2.6 2.8.4.6 1 .9 1.7.9s1.4-.3 1.8-1c.4-.6.6-1.6.6-2.8 0-1.2-.2-2.2-.6-2.8s-1-.9-1.8-.9-1.3.3-1.7.9c-.4.7-.6 1.7-.6 2.9zm13.2-7.6v2.8h3.6v1.2h-3.6v5.3c0 .7.1 1.2.4 1.5s.7.4 1.4.4h1.8v1.3h-1.9c-1.2 0-2-.2-2.5-.7-.5-.5-.7-1.3-.7-2.5v-5.3h-2.6v-1.2h2.6v-2.8h1.5zm14.5 6.4v6h-1.6v-6c0-.9-.2-1.5-.5-1.9-.3-.4-.8-.6-1.4-.6-.7 0-1.3.3-1.7.8s-.6 1.3-.6 2.3v5.5h-1.6v-13.5h1.6v5.2c.3-.6.7-1 1.2-1.3s1.1-.4 1.7-.4c1 0 1.7.3 2.2 1s.7 1.6.7 2.9z"/><path class="st0" d="M15.6 14.5h458.8v201h-458.8z"/><path class="st8" d="M26 25h438v38h-438z"/><path class="st2" d="M43.3 40.8c.3-.5.6-.8 1.1-1.1s1-.4 1.6-.4c1.2 0 2.1.4 2.8 1.3.7.9 1 2.1 1 3.7s-.3 2.9-1 3.8c-.7.9-1.6 1.4-2.8 1.4-.6 0-1.1-.1-1.5-.4s-.8-.6-1.1-1.1v1.2h-1.6v-13.4h1.6v5zm4.7 3.7c0-1.2-.2-2.2-.6-2.8-.4-.6-1-.9-1.7-.9-.8 0-1.4.3-1.8.9s-.6 1.6-.6 2.8c0 1.2.2 2.2.6 2.8.4.6 1 1 1.8 1s1.3-.3 1.7-.9c.4-.8.6-1.7.6-2.9zm8.9 1.3c0 .7.1 1.3.4 1.6.3.4.7.5 1.2.5h1.9v1.3h-2c-1 0-1.7-.3-2.2-.9-.5-.6-.8-1.5-.8-2.6v-8.7h-2.6v-1.2h4.1v10zm9.8-6.4c1.3 0 2.4.4 3.1 1.3.7.9 1.1 2.1 1.1 3.8 0 1.7-.4 2.9-1.1 3.8-.7.9-1.7 1.3-3.1 1.3-1.3 0-2.4-.4-3.1-1.3-.7-.9-1.1-2.1-1.1-3.8 0-1.7.4-2.9 1.1-3.8.8-.9 1.8-1.3 3.1-1.3zm0 1.3c-.8 0-1.4.3-1.8.9-.4.6-.6 1.6-.6 2.8 0 1.2.2 2.2.6 2.8.4.6 1 .9 1.8.9s1.4-.3 1.8-.9c.4-.6.6-1.6.6-2.8 0-1.2-.2-2.2-.6-2.8-.3-.6-1-.9-1.8-.9zm14.6 8.1l-1.3.6s-.9.2-1.4.2c-1.5 0-2.7-.5-3.5-1.4-.8-.9-1.3-2.1-1.3-3.7s.4-2.8 1.3-3.7c.8-.9 2-1.4 3.5-1.4.5 0 .9.1 1.4.2s.9.3 1.3.6v1.7c-.4-.4-.8-.6-1.3-.8-.4-.2-.9-.3-1.4-.3-1 0-1.8.3-2.3 1-.5.6-.8 1.6-.8 2.8 0 1.2.3 2.1.8 2.8s1.3 1 2.3 1c.6 0 1.1-.1 1.5-.3.4-.2.8-.4 1.2-.8v1.5zm3.5-13h1.6v7.8l4.2-4h1.9l-3.8 3.7 4.4 6h-1.9l-3.6-5-1.2 1.1v3.9h-1.6v-13.5z"/><path class="st7" d="M144 121h148v38h-148z"/><path class="st4" d="M160.8 135.6h4.1v8.4h3.2v1.2h-7.9v-1.2h3.2v-7.2h-2.5v-1.2zm2.5-3.7h1.6v2h-1.6v-2zm14.5 7.4v6h-1.6v-6c0-.9-.2-1.5-.5-1.9-.3-.4-.8-.6-1.4-.6-.7 0-1.3.3-1.7.8-.4.5-.6 1.3-.6 2.3v5.5h-1.6v-9.7h1.6v1.5c.3-.6.7-1 1.2-1.3s1.1-.4 1.7-.4c1 0 1.7.3 2.2 1 .5.5.7 1.5.7 2.8zm7.8 2.5c0 .7.1 1.3.4 1.6.3.4.7.5 1.2.5h1.9v1.3h-2c-1 0-1.7-.3-2.2-.9-.5-.6-.8-1.5-.8-2.6v-8.7h-2.6v-1.2h4.1v10zm7.2-6.2h4.1v8.4h3.2v1.2h-7.9v-1.2h3.2v-7.2h-2.5v-1.2zm2.5-3.7h1.6v2h-1.6v-2zm14.6 7.4v6h-1.6v-6c0-.9-.2-1.5-.5-1.9-.3-.4-.8-.6-1.4-.6-.7 0-1.3.3-1.7.8-.4.5-.6 1.3-.6 2.3v5.5h-1.6v-9.7h1.6v1.5c.3-.6.7-1 1.2-1.3s1.1-.4 1.7-.4c1 0 1.7.3 2.2 1 .4.5.7 1.5.7 2.8zm11.3.4v.8h-6.9v.1c0 1.3.2 2.3.8 2.8.6.6 1.3.9 2.3.9.5 0 1-.1 1.6-.2.6-.2 1.1-.4 1.8-.7v1.6l-1.8.6c-.6.1-1.1.2-1.6.2-1.5 0-2.7-.5-3.5-1.4-.8-.9-1.3-2.2-1.3-3.7s.4-2.8 1.2-3.7c.8-.9 1.9-1.4 3.3-1.4 1.2 0 2.2.4 2.9 1.3.7.6 1.1 1.6 1.2 2.8zm-1.6-.5c-.1-.7-.3-1.2-.7-1.7-.4-.5-1-.7-1.8-.7s-1.4.3-1.9.8-.8 1.1-.8 1.7l5.2-.1z"/><path class="st9" d="M301 121h163v38h-163z"/><path class="st2" d="M315.8 135.6h4.1v8.4h3.2v1.2h-7.9v-1.2h3.2v-7.2h-2.5v-1.2zm2.5-3.7h1.6v2h-1.6v-2zm14.5 7.4v6h-1.6v-6c0-.9-.2-1.5-.5-1.9-.3-.4-.8-.6-1.4-.6-.7 0-1.3.3-1.7.8-.4.5-.6 1.3-.6 2.3v5.5h-1.6v-9.7h1.6v1.5c.3-.6.7-1 1.2-1.3s1.1-.4 1.7-.4c1 0 1.7.3 2.2 1 .5.5.7 1.5.7 2.8zm7.8 2.5c0 .7.1 1.3.4 1.6.3.4.7.5 1.2.5h1.9v1.3h-2c-1 0-1.7-.3-2.2-.9-.5-.6-.8-1.5-.8-2.6v-8.7h-2.6v-1.2h4.1v10zm7.2-6.2h4.1v8.4h3.2v1.2h-7.9v-1.2h3.2v-7.2h-2.5v-1.2zm2.5-3.7h1.6v2h-1.6v-2zm14.6 7.4v6h-1.6v-6c0-.9-.2-1.5-.5-1.9-.3-.4-.8-.6-1.4-.6-.7 0-1.3.3-1.7.8-.4.5-.6 1.3-.6 2.3v5.5h-1.6v-9.7h1.6v1.5c.3-.6.7-1 1.2-1.3s1.1-.4 1.7-.4c1 0 1.7.3 2.2 1 .4.5.7 1.5.7 2.8zm11.3.4v.8h-6.9v.1c0 1.3.2 2.3.8 2.8.6.6 1.3.9 2.3.9.5 0 1-.1 1.6-.2.6-.2 1.1-.4 1.8-.7v1.6l-1.8.6c-.6.1-1.1.2-1.6.2-1.5 0-2.7-.5-3.5-1.4-.8-.9-1.3-2.2-1.3-3.7s.4-2.8 1.2-3.7c.8-.9 1.9-1.4 3.3-1.4 1.2 0 2.2.4 2.9 1.3.7.6 1.1 1.6 1.2 2.8zm-1.6-.5c-.1-.7-.3-1.2-.7-1.7-.4-.5-1-.7-1.8-.7s-1.4.3-1.9.8-.8 1.1-.8 1.7l5.2-.1zm3.4-.2h9.2v1.5h-9.2v-1.5zm13.1-2.2c.3-.5.6-.8 1.1-1.1s1-.4 1.6-.4c1.2 0 2.1.4 2.8 1.3.7.9 1 2.1 1 3.7s-.3 2.9-1 3.8c-.7.9-1.6 1.4-2.8 1.4-.6 0-1.1-.1-1.5-.4s-.8-.6-1.1-1.1v1.2h-1.6v-13.5h1.6v5.1zm4.7 3.7c0-1.2-.2-2.2-.6-2.8-.4-.6-1-.9-1.7-.9-.8 0-1.4.3-1.8.9s-.6 1.6-.6 2.8c0 1.2.2 2.2.6 2.8.4.6 1 1 1.8 1s1.3-.3 1.7-.9c.4-.8.6-1.7.6-2.9zm8.9 1.3c0 .7.1 1.3.4 1.6.3.4.7.5 1.2.5h1.9v1.3h-2c-1 0-1.7-.3-2.2-.9-.5-.6-.8-1.5-.8-2.6v-8.7h-2.6v-1.2h4.1v10zm9.8-6.4c1.3 0 2.4.4 3.1 1.3.7.9 1.1 2.1 1.1 3.8 0 1.7-.4 2.9-1.1 3.8-.7.9-1.7 1.3-3.1 1.3-1.3 0-2.4-.4-3.1-1.3-.7-.9-1.1-2.1-1.1-3.8 0-1.7.4-2.9 1.1-3.8.7-.9 1.8-1.3 3.1-1.3zm0 1.3c-.8 0-1.4.3-1.8.9-.4.6-.6 1.6-.6 2.8 0 1.2.2 2.2.6 2.8.4.6 1 .9 1.8.9s1.4-.3 1.8-.9c.4-.6.6-1.6.6-2.8 0-1.2-.2-2.2-.6-2.8-.3-.6-1-.9-1.8-.9zm14.6 8.1l-1.3.6s-.9.2-1.4.2c-1.5 0-2.7-.5-3.5-1.4-.8-.9-1.3-2.1-1.3-3.7s.4-2.8 1.3-3.7c.8-.9 2-1.4 3.5-1.4.5 0 .9.1 1.4.2s.9.3 1.3.6v1.7c-.4-.4-.8-.6-1.3-.8-.4-.2-.9-.3-1.4-.3-1 0-1.8.3-2.3 1-.5.6-.8 1.6-.8 2.8 0 1.2.3 2.1.8 2.8s1.3 1 2.3 1c.6 0 1.1-.1 1.5-.3.4-.2.8-.4 1.2-.8v1.5zm3.5-13h1.6v7.8l4.2-4h1.9l-3.8 3.7 4.4 6h-1.9l-3.6-5-1.2 1.1v3.9h-1.6v-13.5z"/><path class="st8" d="M26 169h88v37h-88z"/><path class="st2" d="M43.3 184.2c.3-.5.6-.8 1.1-1.1s1-.4 1.6-.4c1.2 0 2.1.4 2.8 1.3.7.9 1 2.1 1 3.7s-.3 2.9-1 3.8c-.7.9-1.6 1.4-2.8 1.4-.6 0-1.1-.1-1.5-.4-.4-.3-.8-.6-1.1-1.1v1.2h-1.6v-13.5h1.6v5.1zm4.7 3.7c0-1.2-.2-2.2-.6-2.8-.4-.6-1-.9-1.7-.9-.8 0-1.4.3-1.8.9-.4.6-.6 1.6-.6 2.8 0 1.2.2 2.2.6 2.8.4.6 1 1 1.8 1s1.3-.3 1.7-.9c.4-.8.6-1.7.6-2.9zm9 1.3c0 .7.1 1.3.4 1.6.3.4.7.5 1.2.5h1.9v1.3h-2c-1 0-1.7-.3-2.2-.9-.5-.6-.8-1.5-.8-2.6v-8.8h-2.6v-1.2h4.1v10.1zm9.7-6.4c1.3 0 2.4.4 3.1 1.3.7.9 1.1 2.1 1.1 3.8 0 1.7-.4 2.9-1.1 3.8-.7.9-1.7 1.3-3.1 1.3-1.3 0-2.4-.4-3.1-1.3-.7-.9-1.1-2.1-1.1-3.8 0-1.7.4-2.9 1.1-3.8.8-.9 1.8-1.3 3.1-1.3zm0 1.3c-.8 0-1.4.3-1.8.9-.4.6-.6 1.6-.6 2.8 0 1.2.2 2.2.6 2.8.4.6 1 .9 1.8.9s1.4-.3 1.8-.9c.4-.6.6-1.6.6-2.8 0-1.2-.2-2.2-.6-2.8-.3-.6-.9-.9-1.8-.9zm14.6 8.1l-1.3.6s-1 .2-1.4.2c-1.5 0-2.7-.5-3.5-1.4-.8-.9-1.3-2.1-1.3-3.7s.4-2.8 1.3-3.7c.8-.9 2-1.4 3.5-1.4.5 0 .9.1 1.4.2.4.1.9.3 1.3.6v1.7c-.4-.4-.8-.6-1.3-.8-.4-.2-.9-.3-1.4-.3-1 0-1.8.3-2.3 1-.5.6-.8 1.6-.8 2.8 0 1.2.3 2.1.8 2.8.5.6 1.3 1 2.3 1 .6 0 1.1-.1 1.5-.3.4-.2.8-.4 1.2-.8v1.5zm3.5-13h1.6v7.8l4.2-4h1.9l-3.8 3.7 4.4 6h-1.9l-3.6-5-1.2 1.1v3.9h-1.6v-13.5z"/><path class="st7" d="M26 121h108v38h-108z"/><path class="st4" d="M42.8 135.3h4.1v8.4h3.1v1.2h-7.9v-1.2h3.2v-7.2h-2.5v-1.2zm2.5-3.7h1.6v2h-1.6v-2zm14.5 7.4v6h-1.6v-6c0-.9-.2-1.5-.5-1.9-.3-.4-.8-.6-1.4-.6-.7 0-1.3.3-1.7.8-.4.5-.6 1.3-.6 2.3v5.5h-1.6v-9.7h1.6v1.5c.3-.6.7-1 1.2-1.3s1.1-.4 1.7-.4c1 0 1.7.3 2.2 1 .5.5.7 1.5.7 2.8zm7.8 2.5c0 .7.1 1.3.4 1.6.3.4.7.5 1.2.5h1.9v1.3h-2c-1 0-1.7-.3-2.2-.9-.5-.6-.8-1.5-.8-2.6v-8.8h-2.6v-1.2h4.1v10.1zm7.2-6.2h4.1v8.4h3.2v1.2h-7.9v-1.2h3.2v-7.2h-2.5v-1.2zm2.5-3.7h1.6v2h-1.6v-2zm14.6 7.4v6h-1.6v-6c0-.9-.2-1.5-.5-1.9-.3-.4-.8-.6-1.4-.6-.7 0-1.3.3-1.7.8-.4.5-.6 1.3-.6 2.3v5.5h-1.6v-9.7h1.6v1.5c.3-.6.7-1 1.2-1.3s1.1-.4 1.7-.4c1 0 1.7.3 2.2 1 .4.5.7 1.5.7 2.8zm11.3.4v.8h-6.9v.1c0 1.3.2 2.3.8 2.8.6.6 1.3.9 2.3.9.5 0 1-.1 1.6-.2.6-.2 1.1-.4 1.8-.7v1.6l-1.8.6c-.6.1-1.1.2-1.6.2-1.5 0-2.7-.5-3.5-1.4-.8-.9-1.3-2.2-1.3-3.7s.4-2.8 1.2-3.7c.8-.9 1.9-1.4 3.3-1.4 1.2 0 2.2.4 2.9 1.3.7.6 1.1 1.6 1.2 2.8zm-1.6-.5c-.1-.7-.3-1.2-.7-1.7-.4-.5-1-.7-1.8-.7s-1.4.3-1.9.8-.8 1.1-.8 1.7l5.2-.1z"/><path class="st9" d="M26 73h210v38h-210z"/><path class="st2" d="M42.8 87.3h4.1v8.4h3.1v1.3h-7.9v-1.2h3.2v-7.2h-2.5v-1.3zm2.5-3.7h1.6v2h-1.6v-2zm14.5 7.4v6h-1.6v-6c0-.9-.2-1.5-.5-1.9-.3-.4-.8-.6-1.4-.6-.7 0-1.3.3-1.7.8-.4.5-.6 1.3-.6 2.3v5.4h-1.6v-9.7h1.6v1.5c.3-.6.7-1 1.2-1.3s1.1-.4 1.7-.4c1 0 1.7.3 2.2 1 .5.6.7 1.6.7 2.9zm7.8 2.5c0 .7.1 1.3.4 1.6.3.4.7.5 1.2.5h1.9v1.4h-2c-1 0-1.7-.3-2.2-.9-.5-.6-.8-1.5-.8-2.6v-8.8h-2.6v-1.2h4.1v10zm7.2-6.2h4.1v8.4h3.2v1.3h-7.9v-1.2h3.2v-7.2h-2.5v-1.3zm2.5-3.7h1.6v2h-1.6v-2zm14.6 7.4v6h-1.6v-6c0-.9-.2-1.5-.5-1.9-.3-.4-.8-.6-1.4-.6-.7 0-1.3.3-1.7.8-.4.5-.6 1.3-.6 2.3v5.4h-1.6v-9.7h1.6v1.5c.3-.6.7-1 1.2-1.3s1.1-.4 1.7-.4c1 0 1.7.3 2.2 1 .4.6.7 1.6.7 2.9zm11.3.4v.8h-6.9v.1c0 1.3.2 2.3.8 2.8.6.6 1.3.9 2.3.9.5 0 1-.1 1.6-.2.6-.2 1.1-.4 1.8-.7v1.6l-1.8.6c-.6.1-1.1.2-1.6.2-1.5 0-2.7-.5-3.5-1.4-.8-.9-1.3-2.2-1.3-3.7s.4-2.8 1.2-3.7c.8-.9 1.9-1.4 3.3-1.4 1.2 0 2.2.4 2.9 1.3.7.6 1.1 1.6 1.2 2.8zm-1.6-.5c-.1-.7-.3-1.2-.7-1.7-.4-.5-1-.7-1.8-.7s-1.4.3-1.9.8-.8 1.1-.8 1.7l5.2-.1zm3.4-.2h9.2v1.5h-9.2v-1.5zm13.1-2.2c.3-.5.6-.8 1.1-1.1s1-.4 1.6-.4c1.2 0 2.1.4 2.8 1.3.7.9 1 2.1 1 3.7s-.3 2.9-1 3.8c-.7.9-1.6 1.4-2.8 1.4-.6 0-1.1-.1-1.5-.4s-.8-.6-1.1-1.1v1.3h-1.6v-13.5h1.6v5zm4.7 3.7c0-1.2-.2-2.2-.6-2.8-.4-.6-1-.9-1.7-.9-.8 0-1.4.3-1.8.9s-.6 1.6-.6 2.8c0 1.2.2 2.2.6 2.8.4.6 1 1 1.8 1s1.3-.3 1.7-.9c.4-.8.6-1.7.6-2.9zm8.9 1.3c0 .7.1 1.3.4 1.6.3.4.7.5 1.2.5h1.9v1.4h-2c-1 0-1.7-.3-2.2-.9-.5-.6-.8-1.5-.8-2.6v-8.8h-2.6v-1.2h4.1v10zm9.8-6.4c1.3 0 2.4.4 3.1 1.3.7.9 1.1 2.1 1.1 3.8 0 1.7-.4 2.9-1.1 3.8-.7.9-1.7 1.3-3.1 1.3-1.3 0-2.4-.4-3.1-1.3-.7-.9-1.1-2.1-1.1-3.8 0-1.7.4-2.9 1.1-3.8.7-.9 1.8-1.3 3.1-1.3zm0 1.3c-.8 0-1.4.3-1.8.9-.4.6-.6 1.6-.6 2.8 0 1.2.2 2.2.6 2.8.4.6 1 .9 1.8.9s1.4-.3 1.8-.9c.4-.6.6-1.6.6-2.8 0-1.2-.2-2.2-.6-2.8-.4-.6-1-.9-1.8-.9zm14.5 8.1l-1.3.6s-.9.2-1.4.2c-1.5 0-2.7-.5-3.5-1.4-.8-.9-1.3-2.1-1.3-3.7s.4-2.8 1.3-3.7c.8-.9 2-1.4 3.5-1.4.5 0 .9.1 1.4.2s.9.3 1.3.6v1.7c-.4-.4-.8-.6-1.3-.8-.4-.2-.9-.3-1.4-.3-1 0-1.8.3-2.3 1-.5.6-.8 1.6-.8 2.8 0 1.2.3 2.1.8 2.8s1.3 1 2.3 1c.6 0 1.1-.1 1.5-.3.4-.2.8-.4 1.2-.8v1.5zm3.6-13h1.6v7.8l4.2-4h1.9l-3.8 3.7 4.4 6h-1.9l-3.6-5-1.2 1.1v3.9h-1.6v-13.5z"/><path class="st9" d="M254 73h210v38h-210z"/><path class="st2" d="M266.8 87.3h4.1v8.4h3.2v1.3h-7.9v-1.2h3.2v-7.2h-2.5v-1.3zm2.5-3.7h1.6v2h-1.6v-2zm14.5 7.4v6h-1.6v-6c0-.9-.2-1.5-.5-1.9-.3-.4-.8-.6-1.4-.6-.7 0-1.3.3-1.7.8-.4.5-.6 1.3-.6 2.3v5.4h-1.6v-9.7h1.6v1.5c.3-.6.7-1 1.2-1.3s1.1-.4 1.7-.4c1 0 1.7.3 2.2 1 .5.6.7 1.6.7 2.9zm7.8 2.5c0 .7.1 1.3.4 1.6.3.4.7.5 1.2.5h1.9v1.4h-2c-1 0-1.7-.3-2.2-.9-.5-.6-.8-1.5-.8-2.6v-8.8h-2.6v-1.2h4.1v10zm7.2-6.2h4.1v8.4h3.2v1.3h-7.9v-1.2h3.2v-7.2h-2.5v-1.3zm2.5-3.7h1.6v2h-1.6v-2zm14.6 7.4v6h-1.6v-6c0-.9-.2-1.5-.5-1.9-.3-.4-.8-.6-1.4-.6-.7 0-1.3.3-1.7.8-.4.5-.6 1.3-.6 2.3v5.4h-1.6v-9.7h1.6v1.5c.3-.6.7-1 1.2-1.3s1.1-.4 1.7-.4c1 0 1.7.3 2.2 1 .4.6.7 1.6.7 2.9zm11.3.4v.8h-6.9v.1c0 1.3.2 2.3.8 2.8.6.6 1.3.9 2.3.9.5 0 1-.1 1.6-.2.6-.2 1.1-.4 1.8-.7v1.6l-1.8.6c-.6.1-1.1.2-1.6.2-1.5 0-2.7-.5-3.5-1.4-.8-.9-1.3-2.2-1.3-3.7s.4-2.8 1.2-3.7c.8-.9 1.9-1.4 3.3-1.4 1.2 0 2.2.4 2.9 1.3.7.6 1.1 1.6 1.2 2.8zm-1.6-.5c-.1-.7-.3-1.2-.7-1.7-.4-.5-1-.7-1.8-.7s-1.4.3-1.9.8-.8 1.1-.8 1.7l5.2-.1zm3.4-.2h9.2v1.5h-9.2v-1.5zm13.1-2.2c.3-.5.6-.8 1.1-1.1s1-.4 1.6-.4c1.2 0 2.1.4 2.8 1.3.7.9 1 2.1 1 3.7s-.3 2.9-1 3.8c-.7.9-1.6 1.4-2.8 1.4-.6 0-1.1-.1-1.5-.4s-.8-.6-1.1-1.1v1.3h-1.6v-13.5h1.6v5zm4.7 3.7c0-1.2-.2-2.2-.6-2.8-.4-.6-1-.9-1.7-.9-.8 0-1.4.3-1.8.9s-.6 1.6-.6 2.8c0 1.2.2 2.2.6 2.8.4.6 1 1 1.8 1s1.3-.3 1.7-.9c.4-.8.6-1.7.6-2.9zm8.9 1.3c0 .7.1 1.3.4 1.6.3.4.7.5 1.2.5h1.9v1.4h-2c-1 0-1.7-.3-2.2-.9-.5-.6-.8-1.5-.8-2.6v-8.8h-2.6v-1.2h4.1v10zm9.8-6.4c1.3 0 2.4.4 3.1 1.3.7.9 1.1 2.1 1.1 3.8 0 1.7-.4 2.9-1.1 3.8-.7.9-1.7 1.3-3.1 1.3-1.3 0-2.4-.4-3.1-1.3-.7-.9-1.1-2.1-1.1-3.8 0-1.7.4-2.9 1.1-3.8.7-.9 1.8-1.3 3.1-1.3zm0 1.3c-.8 0-1.4.3-1.8.9-.4.6-.6 1.6-.6 2.8 0 1.2.2 2.2.6 2.8.4.6 1 .9 1.8.9s1.4-.3 1.8-.9c.4-.6.6-1.6.6-2.8 0-1.2-.2-2.2-.6-2.8-.4-.6-1-.9-1.8-.9zm14.5 8.1l-1.3.6s-.9.2-1.4.2c-1.5 0-2.7-.5-3.5-1.4-.8-.9-1.3-2.1-1.3-3.7s.4-2.8 1.3-3.7c.8-.9 2-1.4 3.5-1.4.5 0 .9.1 1.4.2s.9.3 1.3.6v1.7c-.4-.4-.8-.6-1.3-.8-.4-.2-.9-.3-1.4-.3-1 0-1.8.3-2.3 1-.5.6-.8 1.6-.8 2.8 0 1.2.3 2.1.8 2.8s1.3 1 2.3 1c.6 0 1.1-.1 1.5-.3.4-.2.8-.4 1.2-.8v1.5zm3.6-13h1.6v7.8l4.2-4h1.9l-3.8 3.7 4.4 6h-1.9l-3.6-5-1.2 1.1v3.9h-1.6v-13.5z"/></svg>