<svg xmlns="http://www.w3.org/2000/svg" width="490" height="250" viewBox="0 0 490 250"><style type="text/css">.st0{fill:none;stroke:#A8A6AF;stroke-width:6;stroke-linecap:round;stroke-linejoin:round;} .st1{fill:none;stroke:#A8A6AF;stroke-width:6;stroke-linecap:round;stroke-linejoin:round;stroke-dasharray:0,9;} .st2{fill:#A8A6AF;} .st3{fill:#9D35AF;} .st4{fill:#FFFFFF;} .st5{fill:#672373;} .st6{fill:none;stroke:#A8A6AF;stroke-width:2;stroke-miterlimit:10;} .st7{fill:#C883D4;} .st8{fill:#669900;} .st9{fill:#63666A;} .st10{fill:#FF3333;} .st11{fill:#D9D8E3;} .st12{fill:none;stroke:#D9D8E3;stroke-width:2;stroke-linecap:round;stroke-linejoin:round;stroke-miterlimit:10;} .st13{fill:none;stroke:#9D35AF;stroke-width:2;stroke-miterlimit:10;}</style><path class="st0" d="M442 208.1"/><path class="st1" d="M442 199v-129"/><path class="st0" d="M442 66"/><path class="st2" d="M452 196.2l-10 10.2-10-10.2v8.6l10 10.2 10-10.2z"/><path class="st3" d="M16 14h458v75h-458z"/><path class="st4" d="M227.5 42.4v1.3h-1.8c-.6 0-1 .1-1.2.4-.2.2-.3.6-.3 1.2v.9h3.3v1.2h-3.3v8.5h-1.6v-8.5h-2.6v-1.2h2.6v-.7c0-1.1.2-1.8.7-2.3.5-.5 1.2-.8 2.3-.8h1.9zM231.7 46.2h4.1v8.4h3.2v1.2h-8v-1.2h3.2v-7.2h-2.5v-1.2zm2.5-3.8h1.6v2h-1.6v-2zM249.3 46.1l-3.5 4.6 3.8 5.1h-1.8l-2.8-3.8-2.8 3.9h-1.8l3.8-5.1-3.5-4.6h1.8l2.6 3.5 2.6-3.5h1.6zM260 50.2v.8h-6.9c0 1.3.2 2.3.8 2.9.6.6 1.3.9 2.3.9.5 0 1-.1 1.6-.2.6-.2 1.1-.4 1.8-.7v1.6l-1.8.6s-1.1.2-1.6.2c-1.5 0-2.7-.5-3.5-1.4-.8-.9-1.3-2.1-1.3-3.7 0-1.5.4-2.8 1.2-3.7s1.9-1.4 3.3-1.4c1.2 0 2.2.4 2.9 1.3.8.6 1.2 1.6 1.2 2.8zm-1.6-.5c-.1-.7-.3-1.2-.7-1.7-.4-.5-1-.7-1.8-.7s-1.4.3-1.9.8-.8 1.1-.8 1.7l5.2-.1zM268.5 47.4v-5h1.6v13.5h-1.6v-1.2c-.3.5-.6.8-1.1 1.1-.4.3-1 .4-1.5.4-1.2 0-2.1-.5-2.8-1.4-.7-.9-1-2.2-1-3.8 0-1.6.3-2.8 1-3.7.7-.9 1.6-1.3 2.8-1.3.6 0 1.1.1 1.5.4.5.1.8.5 1.1 1zm-4.7 3.6c0 1.2.2 2.2.6 2.8.4.6 1 .9 1.7.9s1.4-.3 1.8-1c.4-.6.6-1.6.6-2.8 0-1.2-.2-2.2-.6-2.8-.4-.6-1-.9-1.8-.9s-1.3.3-1.7.9c-.4.7-.6 1.7-.6 2.9z"/><path class="st6" d="M15.5 14.5h458.8v220.7h-458.8z"/></svg>