<svg xmlns="http://www.w3.org/2000/svg" width="490" height="230" viewBox="0 0 490 230"><style type="text/css">.st0{fill:#9D35AF;} .st1{fill:#FFFFFF;} .st2{fill:none;stroke:#A8A6AF;stroke-width:2;stroke-miterlimit:10;} .st3{fill:#C883D4;} .st4{fill:#669900;} .st5{fill:#63666A;} .st6{fill:#FF3333;} .st7{fill:#672373;} .st8{fill:#D9D8E3;} .st9{fill:#A8A6AF;} .st10{fill:none;stroke:#D9D8E3;stroke-width:2;stroke-linecap:round;stroke-linejoin:round;stroke-miterlimit:10;} .st11{fill:none;stroke:#9D35AF;stroke-width:2;stroke-miterlimit:10;}</style><path class="st2" d="M15.5 14.5h458.8v201h-458.8z"/><path class="st0" d="M26 25h148v125h-148z"/><path class="st1" d="M50.5 78.4v1.3h-1.8c-.6 0-1 .1-1.2.4s-.3.6-.3 1.2v.9h3.3v1.2h-3.3v8.5h-1.6v-8.5h-2.6v-1.2h2.6v-.7c0-1.1.2-1.8.7-2.3.5-.5 1.2-.8 2.3-.8h1.9zm7.7 9.9c0 .7.1 1.3.4 1.6s.7.5 1.2.5h1.9v1.3h-2c-1 0-1.7-.3-2.2-.9-.5-.6-.8-1.5-.8-2.6v-8.8h-2.7v-1.2h4.1v10.1zm9.8-6.4c1.3 0 2.4.4 3.1 1.3.7.9 1.1 2.1 1.1 3.8 0 1.7-.4 2.9-1.1 3.8-.7.9-1.7 1.3-3.1 1.3-1.3 0-2.4-.4-3.1-1.3-.7-.9-1.1-2.1-1.1-3.8 0-1.7.4-2.9 1.1-3.8.7-.9 1.7-1.3 3.1-1.3zm0 1.4c-.8 0-1.4.3-1.8.9s-.6 1.6-.6 2.8c0 1.2.2 2.2.6 2.8s1 .9 1.8.9 1.4-.3 1.8-.9.6-1.6.6-2.8c0-1.2-.2-2.2-.6-2.8s-1-.9-1.8-.9zm14.5 3v5.5h-1.6v-1.4c-.3.6-.8 1-1.3 1.3-.5.3-1.1.4-1.9.4-1 0-1.8-.3-2.4-.8-.6-.6-.9-1.3-.9-2.2 0-1.1.4-1.9 1.1-2.5.7-.6 1.8-.8 3.2-.8h2.1v-.3c0-.8-.2-1.3-.6-1.7-.4-.3-1-.5-1.9-.5-.5 0-1.1.1-1.6.2s-1.1.4-1.6.7v-1.6c.6-.2 1.2-.4 1.7-.5.5-.1 1.1-.2 1.6-.2.8 0 1.5.1 2.1.4.6.2 1 .6 1.4 1.1.2.3.4.6.5 1.1 0 .3.1 1 .1 1.8zm-3.1.7h-.5c-.9 0-1.6.2-2.1.5s-.8.8-.8 1.4c0 .6.2 1 .5 1.4.4.3.8.5 1.5.5.9 0 1.6-.3 2.1-.9.5-.6.8-1.5.8-2.5v-.4h-1.5zm9.9-7.6v2.8h3.6v1.2h-3.6v5.3c0 .7.1 1.2.4 1.5.3.3.7.4 1.4.4h1.8v1.3h-1.9c-1.2 0-2-.2-2.5-.7-.5-.5-.7-1.3-.7-2.5v-5.3h-2.6v-1.2h2.6v-2.8h1.5zm9.1 2.8h2.7v3.1h-2.7v-3.1zm0 6.5h2.7v3.2h-2.7v-3.2zm23.8-.4c0 .7.1 1.3.4 1.6s.7.5 1.2.5h1.9v1.3h-2c-1 0-1.7-.3-2.2-.9-.5-.6-.8-1.5-.8-2.6v-8.8h-2.6v-1.2h4.1v10.1zm14.2-2.1v.8h-6.9c0 1.3.2 2.3.8 2.9.6.6 1.3.9 2.3.9.5 0 1-.1 1.6-.2.6-.2 1.1-.4 1.8-.7v1.6l-1.8.6c-.6.1-1.1.2-1.6.2-1.5 0-2.7-.5-3.5-1.4s-1.3-2.1-1.3-3.7c0-1.5.4-2.8 1.2-3.7.8-.9 1.9-1.4 3.3-1.4 1.2 0 2.2.4 2.9 1.3.8.6 1.2 1.6 1.2 2.8zm-1.6-.5c-.1-.7-.3-1.2-.7-1.7-.4-.5-1-.7-1.8-.7s-1.4.3-1.9.8-.8 1.1-.8 1.7l5.2-.1zm11.8-7.3v1.3h-1.8c-.6 0-1 .1-1.2.4s-.3.6-.3 1.2v.9h3.3v1.2h-3.3v8.5h-1.6v-8.5h-2.6v-1.2h2.6v-.7c0-1.1.2-1.8.7-2.3.5-.5 1.2-.8 2.3-.8h1.9zm6.8 1v2.8h3.6v1.2h-3.6v5.3c0 .7.1 1.2.4 1.5.3.3.7.4 1.4.4h1.8v1.3h-1.9c-1.2 0-2-.2-2.5-.7-.5-.5-.7-1.3-.7-2.5v-5.3h-2.6v-1.2h2.6v-2.8h1.5z"/><path class="st10" d="M463.7 66.5l-10.9-10.9-10.8 10.9-10.8-10.9-10.9 10.9-10.8-10.9-10.8 10.9-10.9-10.9-10.8 10.9-10.8-10.6-10.9 11.1h.4l-10.9-11.1-10.8 10.7-10.8-10.9-10.9 10.8-10.8-10.8-10.8 10.8-10.9-10.9-10.8 10.9-10.8-10.9-10.9 10.9-10.8-10.9-10.8 10.9-10.9-10.9-10.8 10.9-10.8-10.9-10.9 10.9m281.4 27.4l-10.9-10.8-10.8 10.8-10.8-10.8-10.9 10.8-10.8-10.8-10.8 10.8-10.9-10.8-10.8 10.8-10.8-10.3-10.9 11.4h.4l-10.9-11.4-10.8 10.6-10.8-11-10.9 10.8-10.8-10.9-10.8 10.8-10.9-10.8-10.8 10.8-10.8-10.8-10.9 10.8-10.8-10.8-10.8 10.8-10.9-10.8-10.8 10.8-10.8-10.8-10.9 10.8m281.4 27.5l-10.9-10.8-10.8 10.8-10.8-10.8-10.9 10.8-10.8-10.8-10.8 10.8-10.9-10.8-10.8 10.8-10.8-10.5-10.9 11.1h.4l-10.9-11.1-10.8 10.7-10.8-11-10.9 10.8-10.8-10.8-10.8 10.8-10.9-10.8-10.8 10.8-10.8-10.8-10.9 10.8-10.8-10.8-10.8 10.8-10.9-10.8-10.8 10.8-10.8-10.8-10.9 10.8m281.4 27.5l-10.9-10.9-10.8 10.9-10.8-10.9-10.9 10.9-10.8-10.9-10.8 10.9-10.9-10.9-10.8 10.9-10.8-10.3-10.9 11.4h.4l-10.9-11.4-10.8 10.5-10.8-10.9-10.9 10.7-10.8-10.8-10.8 10.8-10.9-10.9-10.8 10.9-10.8-10.9-10.9 10.9-10.8-10.9-10.8 10.9-10.9-10.9-10.8 10.9-10.8-10.9-10.9 10.9m-151.3 27.4l10.8-10.8 10.9 10.8 10.8-10.5 10.8 11.2h-.3l10.8-11.2 10.9 10.6 10.8-10.9 10.8 10.8 10.9-10.9 10.8 10.9 10.8-10.9 10.9 10.9 10.6-10.9 10.7 10.9 11-10.8 10.9 10.8 10.9-10.8 10.8 10.8 10.9-10.8 10.8 10.8 10.9-10.8 10.8 10.8 10.8-10.8 10.9 10.8 10.8-10.8 10.8 10.8 10.9-10.8 10.8 10.9 10.8-10.6 10.9 11.2h-.4l10.9-11.2 10.8 10.7 10.8-10.9 10.9 10.8 10.8-10.9 10.8 10.8 10.9-10.8 10.8 10.8 10.8-10.8 10.9 10.8m0 27.4l-10.9-10.8-10.8 10.9-10.8-10.8-10.9 10.8-10.8-10.8-10.8 10.8-10.9-10.8-10.8 10.8-10.8-10.2-10.9 11.4h.4l-10.9-11.4-10.8 10.5-10.8-11-10.9 10.8-10.8-10.9-10.8 10.8-10.9-10.8-10.8 10.8-10.8-10.8-10.9 10.8-10.8-10.8-10.8 10.8-10.8-10.8-10.9 10.8-11-10.8-11 10.8v-.1l-10.7-10.8-10.8 10.8-10.7-10.8-10.8 10.8-10.8-10.8-10.9 10.8-10.8-10.8-10.8 10.8-10.9-10.2-10.8 11.5h.3l-10.8-11.5-10.8 10.6-10.9-11-10.8 10.7m432.7-164.8l-10.9-10.8-10.8 10.8-10.8-10.8-10.9 10.8-10.8-10.8-10.8 10.8-10.9-10.8-10.8 10.8-10.8-10.3-10.9 11.3h.4l-10.9-11.3-10.8 10.5-10.8-10.9-10.9 10.8-10.8-10.9-10.8 10.8-10.9-10.8-10.8 10.8-10.8-10.8-10.9 10.8-10.8-10.8-10.8 10.8-10.9-10.8-10.8 10.8-10.8-10.8-10.9 10.8"/></svg>