<svg xmlns="http://www.w3.org/2000/svg" width="490" height="200" viewBox="0 0 490 200"><style type="text/css">.st0{fill:#9D35AF;} .st1{fill:#FFFFFF;} .st2{fill:none;stroke:#A8A6AF;stroke-width:2;stroke-miterlimit:10;} .st3{fill:#C883D4;} .st4{fill:#669900;} .st5{fill:#63666A;} .st6{fill:#FF3333;} .st7{fill:#672373;} .st8{fill:#D9D8E3;} .st9{fill:#A8A6AF;} .st10{fill:none;stroke:#D9D8E3;stroke-width:2;stroke-linecap:round;stroke-linejoin:round;stroke-miterlimit:10;} .st11{fill:none;stroke:#9D35AF;stroke-width:2;stroke-miterlimit:10;}</style><path class="st0" d="M164.8 176.9c1.3 0 2.4.4 3.1 1.3.7.9 1.1 2.1 1.1 3.8 0 1.7-.4 2.9-1.1 3.8-.7.9-1.7 1.3-3.1 1.3-1.3 0-2.4-.4-3.1-1.3-.7-.9-1.1-2.1-1.1-3.8 0-1.7.4-2.9 1.1-3.8.7-.9 1.8-1.3 3.1-1.3zm0 1.4c-.8 0-1.4.3-1.8.9-.4.6-.6 1.6-.6 2.8 0 1.2.2 2.2.6 2.8.4.6 1 .9 1.8.9s1.4-.3 1.8-.9.6-1.6.6-2.8c0-1.2-.2-2.2-.6-2.8s-1-.9-1.8-.9zm6.2-1.2h1.7l2.8 8.1 2.8-8.1h1.7l-3.4 9.7h-2.1l-3.5-9.7zm19.5 4.1v.8h-6.9v.1c0 1.3.2 2.3.8 2.8.6.6 1.3.9 2.3.9.5 0 1-.1 1.6-.2.6-.2 1.1-.4 1.8-.7v1.6l-1.8.6c-.6.1-1.1.2-1.6.2-1.5 0-2.7-.5-3.5-1.4-.8-.9-1.3-2.1-1.3-3.7 0-1.5.4-2.8 1.2-3.7.8-.9 1.9-1.4 3.3-1.4 1.2 0 2.2.4 2.9 1.3.8.6 1.2 1.6 1.2 2.8zm-1.6-.5c-.1-.7-.3-1.2-.7-1.7-.4-.5-1-.7-1.8-.7s-1.4.3-1.9.8-.8 1.1-.8 1.7l5.2-.1zm12.6-1.6c-.3-.3-.7-.5-1-.6-.4-.1-.7-.2-1.2-.2-1 0-1.8.3-2.3.9s-.8 1.5-.8 2.7v4.8h-1.6v-9.7h1.6v1.9c.3-.7.7-1.2 1.2-1.6.6-.4 1.2-.5 2-.5.4 0 .8 0 1.1.1s.7.3 1 .5v1.7zm9.9-5.7v1.3h-1.8c-.6 0-1 .1-1.2.4-.2.2-.3.6-.3 1.2v.9h3.3v1.2h-3.3v8.5h-1.6v-8.5h-2.6v-1.2h2.6v-.7c0-1.1.2-1.8.7-2.3.5-.5 1.2-.8 2.3-.8h1.9zm7.7 9.9c0 .7.1 1.3.4 1.6.3.4.7.5 1.2.5h1.9v1.3h-2c-1 0-1.7-.3-2.2-.9-.5-.6-.8-1.5-.8-2.6v-8.8h-2.6v-1.2h4.1v10.1zm9.8-6.4c1.3 0 2.4.4 3.1 1.3.7.9 1.1 2.1 1.1 3.8 0 1.7-.4 2.9-1.1 3.8-.7.9-1.7 1.3-3.1 1.3-1.3 0-2.4-.4-3.1-1.3-.7-.9-1.1-2.1-1.1-3.8 0-1.7.4-2.9 1.1-3.8.7-.9 1.7-1.3 3.1-1.3zm0 1.4c-.8 0-1.4.3-1.8.9s-.6 1.6-.6 2.8c0 1.2.2 2.2.6 2.8s1 .9 1.8.9 1.4-.3 1.8-.9.6-1.6.6-2.8c0-1.2-.2-2.2-.6-2.8s-1-.9-1.8-.9zm5.3-1.2h1.6l1.7 7.8 1.4-5h1.4l1.4 5 1.7-7.8h1.6l-2.3 9.7h-1.5l-1.6-5.3-1.5 5.3h-1.5l-2.4-9.7zm14.4 0h2.7v3.1h-2.7v-3.1zm0 6.6h2.7v3.2h-2.7v-3.2zm26.8-2.9v6h-1.6v-6c0-.9-.2-1.5-.5-1.9-.3-.4-.8-.6-1.4-.6-.7 0-1.3.3-1.7.8-.4.5-.6 1.3-.6 2.3v5.5h-1.6v-13.5h1.6v5.2c.3-.6.7-1 1.2-1.3.5-.3 1.1-.4 1.7-.4 1 0 1.7.3 2.2 1 .4.6.7 1.6.7 2.9zm4.3-3.6h4.1v8.4h3.2v1.2h-8v-1.2h3.2v-7.2h-2.5v-1.2zm2.5-3.8h1.6v2h-1.6v-2zm12.9 5v-5h1.6v13.5h-1.6v-1.2c-.3.5-.6.8-1.1 1.1-.4.2-1 .4-1.5.4-1.2 0-2.1-.5-2.8-1.4s-1-2.2-1-3.8c0-1.6.3-2.8 1-3.7.7-.9 1.6-1.3 2.8-1.3.6 0 1.1.1 1.5.4s.8.5 1.1 1zm-4.7 3.6c0 1.2.2 2.2.6 2.8.4.6 1 .9 1.7.9.8 0 1.4-.3 1.8-1 .4-.6.6-1.6.6-2.8 0-1.2-.2-2.2-.6-2.8s-1-.9-1.8-.9-1.3.3-1.7.9c-.4.7-.6 1.7-.6 2.9zm15.4-3.6v-5h1.6v13.5h-1.6v-1.2c-.3.5-.6.8-1.1 1.1-.4.2-1 .4-1.5.4-1.2 0-2.1-.5-2.8-1.4s-1-2.2-1-3.8c0-1.6.3-2.8 1-3.7.7-.9 1.6-1.3 2.8-1.3.6 0 1.1.1 1.5.4.5.1.8.5 1.1 1zm-4.7 3.6c0 1.2.2 2.2.6 2.8.4.6 1 .9 1.7.9s1.4-.3 1.8-1c.4-.6.6-1.6.6-2.8 0-1.2-.2-2.2-.6-2.8s-1-.9-1.8-.9-1.3.3-1.7.9-.6 1.7-.6 2.9zm17.6-.8v.8h-6.9v.1c0 1.3.2 2.3.8 2.8.6.6 1.3.9 2.3.9.5 0 1-.1 1.6-.2.6-.2 1.1-.4 1.8-.7v1.6l-1.8.6c-.6.1-1.1.2-1.6.2-1.5 0-2.7-.5-3.5-1.4s-1.3-2.1-1.3-3.7c0-1.5.4-2.8 1.2-3.7.8-.9 1.9-1.4 3.3-1.4 1.2 0 2.2.4 2.9 1.3.8.6 1.2 1.6 1.2 2.8zm-1.6-.5c-.1-.7-.3-1.2-.7-1.7-.4-.5-1-.7-1.8-.7s-1.4.3-1.9.8-.8 1.1-.8 1.7l5.2-.1zm11.7.1v6h-1.6v-6c0-.9-.2-1.5-.5-1.9-.3-.4-.8-.6-1.4-.6-.7 0-1.3.3-1.7.8-.4.5-.6 1.3-.6 2.3v5.5h-1.6v-9.7h1.6v1.5c.3-.6.7-1 1.2-1.3.5-.3 1.1-.4 1.7-.4 1 0 1.7.3 2.2 1 .4.5.7 1.5.7 2.8z"/><path class="st11" d="M15.5 14.5h458.8v147.3h-458.8z"/><path class="st8" d="M26 25h148v75h-148z"/><path class="st5" d="M50.5 56.9v1.3h-1.8c-.6 0-1 .1-1.2.4-.2.2-.3.6-.3 1.2v.9h3.3v1.2h-3.3v8.5h-1.6v-8.5h-2.6v-1.2h2.6v-.7c0-1.1.2-1.8.7-2.3.5-.5 1.2-.8 2.3-.8h1.9zm7.7 9.9c0 .7.1 1.3.4 1.6.3.4.7.5 1.2.5h1.9v1.3h-2c-1 0-1.7-.3-2.2-.9-.5-.6-.8-1.5-.8-2.6v-8.8h-2.7v-1.2h4.1v10.1zm9.8-6.4c1.3 0 2.4.4 3.1 1.3.7.9 1.1 2.1 1.1 3.8 0 1.7-.4 2.9-1.1 3.8-.7.9-1.7 1.3-3.1 1.3-1.3 0-2.4-.4-3.1-1.3-.7-.9-1.1-2.1-1.1-3.8 0-1.7.4-2.9 1.1-3.8.7-.9 1.7-1.3 3.1-1.3zm0 1.4c-.8 0-1.4.3-1.8.9-.4.6-.6 1.6-.6 2.8 0 1.2.2 2.2.6 2.8.4.6 1 .9 1.8.9s1.4-.3 1.8-.9c.4-.6.6-1.6.6-2.8 0-1.2-.2-2.2-.6-2.8-.4-.6-1-.9-1.8-.9zm14.5 3v5.5h-1.6v-1.4c-.3.6-.8 1-1.3 1.3-.5.3-1.1.4-1.9.4-1 0-1.8-.3-2.4-.8-.6-.6-.9-1.3-.9-2.2 0-1.1.4-1.9 1.1-2.5s1.8-.8 3.2-.8h2.1v-.3c0-.8-.2-1.3-.6-1.7s-1-.5-1.9-.5c-.5 0-1.1.1-1.6.2-.6.2-1.1.4-1.6.7v-1.6c.6-.2 1.2-.4 1.7-.5.5-.1 1.1-.2 1.6-.2.8 0 1.5.1 2.1.4.6.2 1 .6 1.4 1.1.2.3.4.6.5 1.1 0 .3.1 1 .1 1.8zm-3.1.7h-.5c-.9 0-1.6.2-2.1.5s-.8.8-.8 1.4c0 .6.2 1 .5 1.4.4.3.8.5 1.5.5.9 0 1.6-.3 2.1-.9.5-.6.8-1.5.8-2.5v-.4h-1.5zm9.9-7.6v2.8h3.6v1.2h-3.6v5.3c0 .7.1 1.2.4 1.5.3.3.7.4 1.4.4h1.8v1.3h-1.9c-1.2 0-2-.2-2.5-.7-.5-.5-.7-1.3-.7-2.5v-5.3h-2.6v-1.2h2.6v-2.8h1.5zm9.1 2.8h2.7v3.1h-2.7v-3.1zm0 6.5h2.7v3.2h-2.7v-3.2zm23.8-.4c0 .7.1 1.3.4 1.6.3.4.7.5 1.2.5h1.9v1.3h-2c-1 0-1.7-.3-2.2-.9-.5-.6-.8-1.5-.8-2.6v-8.8h-2.6v-1.2h4.1v10.1zm14.2-2.1v.8h-6.9v.1c0 1.3.2 2.3.8 2.9.6.6 1.3.9 2.3.9.5 0 1-.1 1.6-.2.6-.2 1.1-.4 1.8-.7v1.6l-1.8.6c-.6.1-1.1.2-1.6.2-1.5 0-2.7-.5-3.5-1.4-.8-.9-1.3-2.1-1.3-3.7 0-1.5.4-2.8 1.2-3.7.8-.9 1.9-1.4 3.3-1.4 1.2 0 2.2.4 2.9 1.3.8.5 1.2 1.5 1.2 2.7zm-1.6-.5c-.1-.7-.3-1.2-.7-1.7-.4-.5-1-.7-1.8-.7s-1.4.3-1.9.8-.8 1.1-.8 1.7l5.2-.1zm11.8-7.3v1.3h-1.8c-.6 0-1 .1-1.2.4-.2.2-.3.6-.3 1.2v.9h3.3v1.2h-3.3v8.5h-1.6v-8.5h-2.6v-1.2h2.6v-.7c0-1.1.2-1.8.7-2.3.5-.5 1.2-.8 2.3-.8h1.9zm6.8 1v2.8h3.6v1.2h-3.6v5.3c0 .7.1 1.2.4 1.5.3.3.7.4 1.4.4h1.8v1.3h-1.9c-1.2 0-2-.2-2.5-.7-.5-.5-.7-1.3-.7-2.5v-5.3h-2.6v-1.2h2.6v-2.8h1.5z"/><path class="st8" d="M314 25h148v125h-148z"/><path class="st5" d="M338.5 78.4v1.3h-1.8c-.6 0-1 .1-1.2.4-.2.2-.3.6-.3 1.2v.9h3.3v1.2h-3.3v8.5h-1.6v-8.5h-2.6v-1.2h2.6v-.7c0-1.1.2-1.8.7-2.3.5-.5 1.2-.8 2.3-.8h1.9zm7.7 9.9c0 .7.1 1.3.4 1.6.3.4.7.5 1.2.5h1.9v1.3h-2c-1 0-1.7-.3-2.2-.9-.5-.6-.8-1.5-.8-2.6v-8.8h-2.7v-1.2h4.1v10.1zm9.8-6.4c1.3 0 2.4.4 3.1 1.3.7.9 1.1 2.1 1.1 3.8 0 1.7-.4 2.9-1.1 3.8-.7.9-1.7 1.3-3.1 1.3-1.3 0-2.4-.4-3.1-1.3-.7-.9-1.1-2.1-1.1-3.8 0-1.7.4-2.9 1.1-3.8.7-.9 1.7-1.3 3.1-1.3zm0 1.4c-.8 0-1.4.3-1.8.9-.4.6-.6 1.6-.6 2.8 0 1.2.2 2.2.6 2.8.4.6 1 .9 1.8.9s1.4-.3 1.8-.9c.4-.6.6-1.6.6-2.8 0-1.2-.2-2.2-.6-2.8-.4-.6-1-.9-1.8-.9zm14.5 3v5.5h-1.6v-1.4c-.3.6-.8 1-1.3 1.3-.5.3-1.1.4-1.9.4-1 0-1.8-.3-2.4-.8-.6-.6-.9-1.3-.9-2.2 0-1.1.4-1.9 1.1-2.5s1.8-.8 3.2-.8h2.1v-.3c0-.8-.2-1.3-.6-1.7s-1-.5-1.9-.5c-.5 0-1.1.1-1.6.2-.6.2-1.1.4-1.6.7v-1.6c.6-.2 1.2-.4 1.7-.5.5-.1 1.1-.2 1.6-.2.8 0 1.5.1 2.1.4.6.2 1 .6 1.4 1.1.2.3.4.6.5 1.1 0 .3.1 1 .1 1.8zm-3.1.7h-.5c-.9 0-1.6.2-2.1.5s-.7.8-.7 1.5c0 .6.2 1 .5 1.4.4.3.8.5 1.5.5.9 0 1.6-.3 2.1-.9.5-.6.8-1.5.8-2.5v-.5h-1.6zm9.9-7.6v2.8h3.6v1.2h-3.6v5.3c0 .7.1 1.2.4 1.5.3.3.7.4 1.4.4h1.8v1.3h-1.9c-1.2 0-2-.2-2.5-.7-.5-.5-.7-1.3-.7-2.5v-5.3h-2.6v-1.2h2.6v-2.8h1.5zm9.1 2.8h2.7v3.1h-2.7v-3.1zm0 6.5h2.7v3.2h-2.7v-3.2zm23.8-.4c0 .7.1 1.3.4 1.6.3.4.7.5 1.2.5h1.9v1.3h-2c-1 0-1.7-.3-2.2-.9-.5-.6-.8-1.5-.8-2.6v-8.8h-2.6v-1.2h4.1v10.1zm14.2-2.1v.8h-6.9c0 1.3.2 2.3.8 2.9.6.6 1.3.9 2.3.9.5 0 1-.1 1.6-.2.6-.2 1.1-.4 1.8-.7v1.6l-1.8.6c-.6.1-1.1.2-1.6.2-1.5 0-2.7-.5-3.5-1.4-.8-.9-1.3-2.1-1.3-3.7 0-1.5.4-2.8 1.2-3.7.8-.9 1.9-1.4 3.3-1.4 1.2 0 2.2.4 2.9 1.3.8.6 1.2 1.6 1.2 2.8zm-1.6-.5c-.1-.7-.3-1.2-.7-1.7-.4-.5-1-.7-1.8-.7s-1.4.3-1.9.8-.8 1.1-.8 1.7l5.2-.1zm11.8-7.3v1.3h-1.8c-.6 0-1 .1-1.2.4-.2.2-.3.6-.3 1.2v.9h3.3v1.2h-3.3v8.5h-1.6v-8.5h-2.6v-1.2h2.6v-.7c0-1.1.2-1.8.7-2.3.5-.5 1.2-.8 2.3-.8h1.9zm6.8 1v2.8h3.6v1.2h-3.6v5.3c0 .7.1 1.2.4 1.5.3.3.7.4 1.4.4h1.8v1.3h-1.9c-1.2 0-2-.2-2.5-.7-.5-.5-.7-1.3-.7-2.5v-5.3h-2.6v-1.2h2.6v-2.8h1.5z"/></svg>