<svg xmlns="http://www.w3.org/2000/svg" width="490" height="205" viewBox="0 0 490 205"><style type="text/css">.st0{fill:#672373;} .st1{fill:#FFFFFF;} .st2{fill:#9D35AF;} .st3{fill:none;stroke:#A8A6AF;stroke-width:2;stroke-miterlimit:10;} .st4{fill:#C883D4;} .st5{fill:#669900;} .st6{fill:#63666A;} .st7{fill:#FF3333;} .st8{fill:#D9D8E3;} .st9{fill:#A8A6AF;} .st10{fill:none;stroke:#D9D8E3;stroke-width:2;stroke-linecap:round;stroke-linejoin:round;stroke-miterlimit:10;} .st11{fill:none;stroke:#9D35AF;stroke-width:2;stroke-miterlimit:10;}</style><path class="st0" d="M273 25h148v125h-148z"/><path class="st1" d="M344 90.4h2.7v-9.8l-3.3 1.6v-1.7l3.2-1.5h1.8v11.4h2.7v1.5h-7.1v-1.5z"/><path class="st2" d="M153 49h148v125h-148z"/><path class="st1" d="M224.9 114.4h5.9v1.5h-7.8v-1.5c1.1-1.1 2-2.1 2.8-3s1.4-1.5 1.7-1.8c.6-.7 1-1.3 1.2-1.7.2-.4.3-.9.3-1.3 0-.7-.2-1.3-.6-1.7-.4-.4-1-.6-1.7-.6-.5 0-1.1.1-1.7.3-.6.2-1.2.5-1.8.9v-1.8c.6-.3 1.2-.5 1.8-.6.6-.1 1.1-.2 1.7-.2 1.3 0 2.3.3 3.1 1 .8.7 1.2 1.6 1.2 2.6 0 .6-.1 1.1-.4 1.7-.3.6-.7 1.2-1.3 1.8-.3.4-.8.9-1.4 1.6-.8.5-1.8 1.5-3 2.8z"/><path class="st3" d="M15.5 14.5h458.8v175h-458.8z"/><path class="st4" d="M26 25h148v125h-148z"/><path class="st1" d="M43.2 82.1h7v1.5l-5.6 7h5.6v1.3h-7.2v-1.5l5.6-7h-5.4v-1.3zm9.6 3.5h9.2v1.4h-9.2v-1.4zm12.6-3.4h4.1v8.4h3.2v1.2h-7.9v-1.2h3.2v-7.2h-2.5v-1.2zm2.4-3.8h1.6v2h-1.6v-2zm14.6 7.4v6h-1.6v-6c0-.9-.2-1.5-.5-1.9-.3-.4-.8-.6-1.4-.6-.7 0-1.3.3-1.7.8-.4.5-.6 1.3-.6 2.3v5.5h-1.6v-9.7h1.6v1.5c.3-.6.7-1 1.2-1.3.5-.3 1.1-.4 1.7-.4 1 0 1.7.3 2.2 1 .5.5.7 1.5.7 2.8zm9-2.4v-5h1.6v13.5h-1.6v-1.2c-.3.5-.6.8-1.1 1.1-.4.3-1 .4-1.5.4-1.2 0-2.1-.5-2.8-1.4-.7-.9-1-2.2-1-3.8 0-1.6.3-2.8 1-3.7.7-.9 1.6-1.3 2.8-1.3.6 0 1.1.1 1.5.4.5.1.9.5 1.1 1zm-4.7 3.6c0 1.2.2 2.2.6 2.8.4.6 1 .9 1.7.9.8 0 1.4-.3 1.8-1 .4-.6.6-1.6.6-2.8 0-1.2-.2-2.2-.6-2.8-.4-.6-1-.9-1.8-.9s-1.3.3-1.7.9c-.4.7-.6 1.7-.6 2.9zm17.7-.8v.8h-6.9c0 1.3.2 2.3.8 2.9.6.6 1.3.9 2.3.9.5 0 1-.1 1.6-.2.6-.2 1.1-.4 1.8-.7v1.6l-1.8.6c-.6.1-1.1.2-1.6.2-1.5 0-2.7-.5-3.5-1.4-.8-.9-1.3-2.1-1.3-3.7 0-1.5.4-2.8 1.2-3.7.8-.9 1.9-1.4 3.3-1.4 1.2 0 2.2.4 2.9 1.3.7.6 1.1 1.6 1.2 2.8zm-1.6-.5c-.1-.7-.3-1.2-.7-1.7-.4-.5-1-.7-1.8-.7s-1.4.3-1.9.8-.8 1.1-.8 1.7l5.2-.1zm12.2-3.6l-3.5 4.6 3.8 5.1h-1.8l-2.8-3.9-2.8 3.9h-1.9l3.8-5.1-3.5-4.6h1.8l2.6 3.5 2.6-3.5h1.7zm4.7.1h2.7v3.1h-2.7v-3.1zm0 6.5h2.7v3.2h-2.7v-3.2zm24.4-3.8c.8.2 1.5.6 1.9 1.2.5.6.7 1.3.7 2.2 0 1.2-.4 2.1-1.2 2.8s-1.9 1-3.3 1c-.6 0-1.2-.1-1.8-.2s-1.2-.3-1.8-.5v-1.7c.6.3 1.2.5 1.7.7.6.2 1.1.2 1.7.2 1 0 1.7-.2 2.2-.6.5-.4.8-1.1.8-1.9 0-.8-.3-1.3-.8-1.8-.5-.4-1.2-.7-2.1-.7h-1.3v-1.4h1.3c.8 0 1.4-.2 1.9-.5s.7-.8.7-1.5-.2-1.2-.6-1.5-1-.5-1.8-.5c-.5 0-1 .1-1.6.2s-1.1.3-1.7.5v-1.6c.7-.2 1.3-.3 1.9-.4.5-.1 1-.1 1.5-.1 1.3 0 2.3.3 3 .9.8.6 1.1 1.5 1.1 2.5 0 .7-.2 1.3-.6 1.8-.5.4-1 .7-1.8.9z"/></svg>