<svg xmlns="http://www.w3.org/2000/svg" width="1000" height="373.5" viewBox="0 0 1000 373.5"><path fill="#672373" d="M679.2 68.5v198.2l-57.1 52.6H311.9V121.2L369 68.5h310.2m2.8-2.8H367.9L309 119.9v202.2h314.2l58.8-54.2V65.7z"/><path fill="#672373" d="M325 287.6h24.3v34.57H325zm35.5 0h24.3v34.57h-24.3zm7.4-221.9l-58.8 54.2.3 38.3 97.8-92.5h-39.3z"/><circle cx="650.3" cy="261.4" r="14.9" fill="#672373"/><circle cx="623.6" cy="288" r="14.9" fill="#672373"/><path fill="none" stroke="#e2e2e2" stroke-linecap="round" stroke-linejoin="round" stroke-width="2.8" d="M289.3 166.6h2.8"/><path fill="none" stroke="#e2e2e2" stroke-dasharray="5.61 5.61" stroke-linecap="round" stroke-linejoin="round" stroke-width="2.8" d="M297.8 166.6H710"/><path fill="none" stroke="#e2e2e2" stroke-linecap="round" stroke-linejoin="round" stroke-width="2.8" d="M712.8 166.6h2.8m-426.3 58.9h2.8"/><path fill="none" stroke="#e2e2e2" stroke-dasharray="5.61 5.61" stroke-linecap="round" stroke-linejoin="round" stroke-width="2.8" d="M297.8 225.5H710"/><path fill="none" stroke="#e2e2e2" stroke-linecap="round" stroke-linejoin="round" stroke-width="2.8" d="M712.8 225.5h2.8"/><path d="M512.2 121.5q-3.1 0-4.2-1.2a5.3 5.3 0 0 1-1.3-3.5l2-.2a3.9 3.9 0 0 0 .9 2.4 4 4 0 0 0 2.6.6 4.8 4.8 0 0 0 2.9-.6 2.6 2.6 0 0 0 .8-2.2v-.6a2.6 2.6 0 0 0-.8-2.2 4.4 4.4 0 0 0-2.7-.6h-2v-1.8h2a4.3 4.3 0 0 0 2.4-.5 1.9 1.9 0 0 0 .7-1.7v-.7a2.1 2.1 0 0 0-.7-1.8 4.5 4.5 0 0 0-2.5-.5 3.4 3.4 0 0 0-2.2.6 3.3 3.3 0 0 0-.8 2.2l-2-.2a4.4 4.4 0 0 1 1.4-3.3 5.8 5.8 0 0 1 3.7-1 6.9 6.9 0 0 1 3.9 1 3.5 3.5 0 0 1 1.4 3.2v.7a2.4 2.4 0 0 1-.8 1.9 4 4 0 0 1-2.4.8v.6a3.9 3.9 0 0 1 2.5 1.1 3.3 3.3 0 0 1 .9 2.3v.6a4.5 4.5 0 0 1-1.3 3.4q-1.2 1.2-4.4 1.2zm14.4 0a5.1 5.1 0 0 1-4.2-1.6 6.4 6.4 0 0 1-1.3-4.2v-5a6.2 6.2 0 0 1 1.4-4.4 5.3 5.3 0 0 1 4.1-1.5 6.2 6.2 0 0 1 3.6.9 4.5 4.5 0 0 1 1.6 2.9l-2.2.5a3.5 3.5 0 0 0-.9-1.8 3.3 3.3 0 0 0-2.2-.6 3.3 3.3 0 0 0-2.7.9 4.9 4.9 0 0 0-.8 3.1v2h.4a3.8 3.8 0 0 1 1.4-1.1 5.2 5.2 0 0 1 2.3-.4 4.7 4.7 0 0 1 3.7 1.3 5 5 0 0 1 1.2 3.5v.4a4.9 4.9 0 0 1-1.4 3.8 5.8 5.8 0 0 1-4 1.3zm0-1.8a3.7 3.7 0 0 0 2.6-.8 3.2 3.2 0 0 0 .8-2.4v-.3a3.2 3.2 0 0 0-.8-2.4 4.7 4.7 0 0 0-5.2 0 3.2 3.2 0 0 0-.8 2.4v.3a3.2 3.2 0 0 0 .8 2.4 3.7 3.7 0 0 0 2.6.8zm14 1.8l-1.5-.2-1.4-.4v4.4h-2v-16.2h2v2h.6a4 4 0 0 1 3.6-2.2 3.6 3.6 0 0 1 2.9 1.3 5.1 5.1 0 0 1 1.1 3.4v3.3a4.3 4.3 0 0 1-1.4 3.4 5.6 5.6 0 0 1-3.9 1.2zm0-1.8a3.6 3.6 0 0 0 2.5-.7 2.9 2.9 0 0 0 .8-2.2v-3.3a3 3 0 0 0-.6-2 2.4 2.4 0 0 0-1.9-.6 3.7 3.7 0 0 0-1.9.5 6.7 6.7 0 0 0-1.8 1.6v6l1.3.6zm16.7 1.6l-3.2-4.7-3 4.7h-2.3l4.3-6.1-4.1-6.1h2.3l3 4.5 3.1-4.5h2.3l-4.3 6 4.2 6.2zm52.5-11.2q-3.1 0-4.2-1.2a5.3 5.3 0 0 1-1.3-3.5l2-.2a3.9 3.9 0 0 0 .9 2.4 4 4 0 0 0 2.6.6 4.8 4.8 0 0 0 2.9-.6 2.6 2.6 0 0 0 .8-2.2v-.6a2.6 2.6 0 0 0-.8-2.2 4.4 4.4 0 0 0-2.7-.6h-2v-1.8h2a4.3 4.3 0 0 0 2.4-.5 1.9 1.9 0 0 0 .7-1.7v-.7a2.1 2.1 0 0 0-.7-1.8 4.5 4.5 0 0 0-2.5-.5 3.4 3.4 0 0 0-2.2.6 3.3 3.3 0 0 0-.8 2.2l-2-.2a4.4 4.4 0 0 1 1.4-3.3 5.8 5.8 0 0 1 3.7-1 6.9 6.9 0 0 1 3.9 1 3.5 3.5 0 0 1 1.4 3.2v.7a2.4 2.4 0 0 1-.8 1.9 4 4 0 0 1-2.4.8v.6a3.9 3.9 0 0 1 2.7 1.1 3.3 3.3 0 0 1 .9 2.3v.6a4.5 4.5 0 0 1-1.3 3.4q-1.5 1.2-4.6 1.2zm14.4 0a5.1 5.1 0 0 1-4.2-1.6 6.4 6.4 0 0 1-1.3-4.2v-5a6.2 6.2 0 0 1 1.4-4.4 5.3 5.3 0 0 1 4.1-1.5 6.2 6.2 0 0 1 3.6.9 4.5 4.5 0 0 1 1.6 2.9l-2.2.5a3.5 3.5 0 0 0-.9-1.8 3.3 3.3 0 0 0-2.2-.6 3.3 3.3 0 0 0-2.7.9 4.9 4.9 0 0 0-.8 3.1v2h.4a3.8 3.8 0 0 1 1.4-1.1 5.2 5.2 0 0 1 2.3-.4 4.7 4.7 0 0 1 3.7 1.3 5 5 0 0 1 1.2 3.5v.4a4.9 4.9 0 0 1-1.4 3.8 5.8 5.8 0 0 1-4 1.3zm0-1.8a3.7 3.7 0 0 0 2.6-.8 3.2 3.2 0 0 0 .8-2.4v-.3a3.2 3.2 0 0 0-.8-2.4 4.7 4.7 0 0 0-5.2 0 3.2 3.2 0 0 0-.8 2.4v.3a3.2 3.2 0 0 0 .8 2.4 3.7 3.7 0 0 0 2.5.7zm14 1.8l-1.5-.2-1.4-.4v4.5h-2V97.6h2v2h.6a4 4 0 0 1 3.6-2.2 3.6 3.6 0 0 1 2.9 1.3 5.1 5.1 0 0 1 1.1 3.4v3.3a4.3 4.3 0 0 1-1.4 3.4 5.6 5.6 0 0 1-3.9 1.3zm0-1.8a3.6 3.6 0 0 0 2.5-.7 2.9 2.9 0 0 0 .8-2.2v-3.3a3 3 0 0 0-.6-2 2.4 2.4 0 0 0-1.9-.6 3.7 3.7 0 0 0-1.9.5 6.7 6.7 0 0 0-1.8 1.6v6l1.3.6zm16.6 1.6l-3.2-4.7-3 4.7h-2.3l4.3-6.1-4.1-6.1h2.3l3 4.5 3.1-4.5h2.3l-4.3 6 4.2 6.2zM512.2 281.7q-3.1 0-4.2-1.2a5.3 5.3 0 0 1-1.3-3.5l2-.2a3.9 3.9 0 0 0 .9 2.4 4 4 0 0 0 2.6.6 4.8 4.8 0 0 0 2.9-.6 2.6 2.6 0 0 0 .8-2.2v-.6a2.6 2.6 0 0 0-.8-2.2 4.4 4.4 0 0 0-2.7-.6h-2v-1.8h2a4.3 4.3 0 0 0 2.4-.5 1.9 1.9 0 0 0 .7-1.7v-.7a2.1 2.1 0 0 0-.7-1.8 4.5 4.5 0 0 0-2.5-.5 3.4 3.4 0 0 0-2.2.6 3.3 3.3 0 0 0-.8 2.2l-2-.2a4.4 4.4 0 0 1 1.4-3.3 5.8 5.8 0 0 1 3.7-1 6.9 6.9 0 0 1 3.9 1 3.5 3.5 0 0 1 1.4 3.2v.7a2.4 2.4 0 0 1-.8 1.9 4 4 0 0 1-2.4.8v.6a3.9 3.9 0 0 1 2.7 1.1 3.3 3.3 0 0 1 .9 2.3v.6a4.5 4.5 0 0 1-1.3 3.4q-1.4 1.2-4.6 1.2zm14.4 0a5.1 5.1 0 0 1-4.2-1.6 6.4 6.4 0 0 1-1.3-4.2v-5a6.2 6.2 0 0 1 1.4-4.4 5.3 5.3 0 0 1 4.1-1.5 6.2 6.2 0 0 1 3.6.9 4.5 4.5 0 0 1 1.6 2.9l-2.2.5a3.5 3.5 0 0 0-.9-1.8 3.3 3.3 0 0 0-2.2-.6 3.3 3.3 0 0 0-2.7.9 4.9 4.9 0 0 0-.8 3.1v2h.4a3.8 3.8 0 0 1 1.4-1.1 5.2 5.2 0 0 1 2.3-.4 4.7 4.7 0 0 1 3.7 1.3 5 5 0 0 1 1.2 3.5v.4a4.9 4.9 0 0 1-1.4 3.8 5.8 5.8 0 0 1-4 1.3zm0-1.8a3.7 3.7 0 0 0 2.6-.8 3.2 3.2 0 0 0 .8-2.4v-.3a3.2 3.2 0 0 0-.8-2.4 4.7 4.7 0 0 0-5.2 0 3.2 3.2 0 0 0-.8 2.4v.3a3.2 3.2 0 0 0 .8 2.4 3.7 3.7 0 0 0 2.6.7zm14 1.8l-1.5-.2-1.4-.4v4.4h-2v-16.3h2v2h.6a4 4 0 0 1 3.6-2.2 3.6 3.6 0 0 1 2.9 1.3 5.1 5.1 0 0 1 1.1 3.4v3.3a4.3 4.3 0 0 1-1.4 3.4 5.6 5.6 0 0 1-3.9 1.3zm0-1.8a3.6 3.6 0 0 0 2.5-.7 2.9 2.9 0 0 0 .8-2.2v-3.3a3 3 0 0 0-.6-2 2.4 2.4 0 0 0-1.9-.6 3.7 3.7 0 0 0-1.9.5 6.7 6.7 0 0 0-1.8 1.6v6l1.3.6zm16.7 1.6l-3.2-4.7-3 4.7h-2.3l4.3-6.1-4.1-6.1h2.3l3 4.5 3.1-4.5h2.3l-4.3 6 4.2 6.2zm-218.4-13.6q-3.1 0-4.2-1.2a5.3 5.3 0 0 1-1.2-3.5l2-.2a3.9 3.9 0 0 0 .8 2.4 4 4 0 0 0 2.6.6 4.8 4.8 0 0 0 2.9-.6 2.6 2.6 0 0 0 .8-2.2v-.6a2.6 2.6 0 0 0-.7-2.2 4.4 4.4 0 0 0-2.7-.7h-2v-1.8h2a4.3 4.3 0 0 0 2.4-.4 1.9 1.9 0 0 0 .7-1.7v-.7a2.1 2.1 0 0 0-.7-1.8 4.5 4.5 0 0 0-2.5-.6 3.4 3.4 0 0 0-2.2.5 3.3 3.3 0 0 0-.8 2.1l-2-.2a4.4 4.4 0 0 1 1.4-3.3 5.8 5.8 0 0 1 3.7-1 6.9 6.9 0 0 1 3.9 1 3.5 3.5 0 0 1 1.4 3.2v.7a2.4 2.4 0 0 1-.9 1.9 4 4 0 0 1-2.4.8v.6a3.9 3.9 0 0 1 2.7 1.2 3.3 3.3 0 0 1 .9 2.3v.6a4.5 4.5 0 0 1-1.3 3.4q-1.5 1.5-4.6 1.4zm14.3.2a5.1 5.1 0 0 1-4.2-1.6 6.4 6.4 0 0 1-1.3-4.3v-5a6.2 6.2 0 0 1 1.5-4.4 5.3 5.3 0 0 1 4.1-1.5 6.2 6.2 0 0 1 3.6.9 4.5 4.5 0 0 1 1.6 2.9l-2.2.4a3.5 3.5 0 0 0-.8-1.8 3.3 3.3 0 0 0-2.2-.6 3.3 3.3 0 0 0-2.7.9 4.9 4.9 0 0 0-.8 3.1v2h.4a3.8 3.8 0 0 1 1.4-1.1 5.2 5.2 0 0 1 2.3-.4 4.7 4.7 0 0 1 3.7 1.4 5 5 0 0 1 1.2 3.5v.4a4.9 4.9 0 0 1-1.5 3.8 5.8 5.8 0 0 1-4.1 1.4zm0-1.8a3.7 3.7 0 0 0 2.6-.7 3.2 3.2 0 0 0 .9-2.4v-.3a3.2 3.2 0 0 0-.8-2.4 4.7 4.7 0 0 0-5.2-.1 3.2 3.2 0 0 0-.9 2.4v.3a3.2 3.2 0 0 0 .8 2.4 3.7 3.7 0 0 0 2.6.8zm14 2l-1.5-.2-1.4-.4v4.4h-2l.2-16.3h2v2h.6a4 4 0 0 1 3.6-2.2 3.6 3.6 0 0 1 2.9 1.3 5.1 5.1 0 0 1 1 3.4v3.3a4.3 4.3 0 0 1-1.5 3.4 5.6 5.6 0 0 1-3.9 1.3zm0-1.8a3.6 3.6 0 0 0 2.5-.7 2.9 2.9 0 0 0 .8-2.2v-3.3a3 3 0 0 0-.6-2.1 2.4 2.4 0 0 0-1.9-.7 3.7 3.7 0 0 0-1.9.5 6.7 6.7 0 0 0-1.8 1.6v6l1.3.6zm16.7 1.8l-3.1-4.7-3.1 4.6h-2.3l4.4-6.1-4.1-6.2h2.3l3 4.5 3.1-4.4h2.3l-4.4 5.9 4.2 6.3z"/><path fill="none" stroke="#000" stroke-linecap="round" stroke-linejoin="round" stroke-width="2.8" d="M495.6 65.7v97.7"/><path d="M490.8 157.8l4.8 4.8 4.7-4.8v4.1l-4.7 4.7-4.8-4.7v-4.1z"/><path fill="none" stroke="#000" stroke-linecap="round" stroke-linejoin="round" stroke-width="2.8" d="M495.6 326.8v-97.7"/><path d="M500.3 234.7l-4.7-4.8-4.8 4.8v-4l4.8-4.8 4.7 4.8v4z"/><path fill="none" stroke="#000" stroke-linecap="round" stroke-linejoin="round" stroke-width="2.8" d="M310 239.7h97.7"/><path d="M402.1 244.5l4.8-4.8-4.8-4.7h4.1l4.7 4.7-4.7 4.8h-4.1z"/><path fill="none" stroke="#000" stroke-linecap="round" stroke-linejoin="round" stroke-width="2.8" d="M681.8 121.3h-97.7"/><path d="M589.7 116.5l-4.7 4.8 4.7 4.7h-4l-4.8-4.7 4.8-4.8h4z"/><path fill="none" stroke="#e2e2e2" stroke-linecap="round" stroke-linejoin="round" stroke-width="2.8" d="M412.8 23v2.8"/><path fill="none" stroke="#e2e2e2" stroke-dasharray="5.51 5.51" stroke-linecap="round" stroke-linejoin="round" stroke-width="2.8" d="M412.8 31.3v305.6"/><path fill="none" stroke="#e2e2e2" stroke-linecap="round" stroke-linejoin="round" stroke-width="2.8" d="M412.8 339.7v2.8M580.9 23v2.8"/><path fill="none" stroke="#e2e2e2" stroke-dasharray="5.51 5.51" stroke-linecap="round" stroke-linejoin="round" stroke-width="2.8" d="M580.9 31.3v305.6"/><path fill="none" stroke="#e2e2e2" stroke-linecap="round" stroke-linejoin="round" stroke-width="2.8" d="M580.9 339.7v2.8"/></svg>