<svg xmlns="http://www.w3.org/2000/svg" width="470" height="400" viewBox="0 0 470 400"><path fill="#3c3670" d="M54.8 23.2h3.5c2.3 0 4 .8 4 3.2s-1.7 3.4-4 3.4h-1.6v3.8h-1.9zm3.4 5.1c1.5 0 2.3-.6 2.3-1.9s-.8-1.7-2.3-1.7h-1.5v3.6zm6.9-2.5h1.5l.2 1.7a4 4 0 0 1 3.4-1.9 3.7 3.7 0 0 1 1.5.3l-.4 1.6a3.2 3.2 0 0 0-1.4-.3 3.4 3.4 0 0 0-3 2.1v4.3h-1.8zm12.3-.2a3.9 3.9 0 0 1 4 4.1 4 4 0 1 1-8 0 3.9 3.9 0 0 1 4-4.1zm0 6.7c1.3 0 2.1-1 2.1-2.6s-.8-2.6-2.1-2.6-2 1-2 2.6.7 2.6 2 2.6zm6.1-6.5h5.3v7.7c0 1.9-.8 3.4-3.5 3.4a5.2 5.2 0 0 1-2.3-.5l.5-1.3a5.9 5.9 0 0 0 1.7.4c1.4 0 1.8-.7 1.8-1.9v-6.4h-3.5zm2.9-2.6a1.3 1.3 0 0 1 1.3-1.3 1.3 1.3 0 0 1 1.4 1.3 1.3 1.3 0 0 1-1.4 1.2 1.2 1.2 0 0 1-1.3-1.2zm10.4 2.4a3.4 3.4 0 0 1 3.7 3.7c0 .4-.1.7-.1.9h-5.7a2.4 2.4 0 0 0 2.6 2.2 4.3 4.3 0 0 0 2.2-.6l.7 1.1a6.6 6.6 0 0 1-3.1.9 4.1 4.1 0 1 1-.3-8.2zm2 3.4a1.8 1.8 0 0 0-1.9-2 2.2 2.2 0 0 0-2.2 2zm8.2-3.4a4.1 4.1 0 0 1 2.9 1.1l-.8 1.1a3.1 3.1 0 0 0-2-.7 2.5 2.5 0 0 0-2.6 2.6 2.4 2.4 0 0 0 2.6 2.6 3.9 3.9 0 0 0 2.2-.8l.8 1.1a4.9 4.9 0 0 1-3.2 1.2c-2.5 0-4.3-1.5-4.3-4.1s2-4.1 4.4-4.1zm7 1.6h-2.1v-1.3h2.2l.3-2.2h1.5v2.2h3.6v1.4h-3.6v3.3c0 1.3.5 1.9 1.8 1.9a4.3 4.3 0 0 0 1.7-.4l.4 1.4a9.5 9.5 0 0 1-2.6.4c-2.3 0-3.2-1.3-3.2-3.3zm19.2 0h-2.1v-1.3h2.2l.3-2.2h1.5v2.2h3.5v1.4h-3.5v3.3c0 1.3.5 1.9 1.8 1.9a4.3 4.3 0 0 0 1.7-.4l.4 1.4a9.5 9.5 0 0 1-2.6.4c-2.3 0-3.2-1.3-3.2-3.3zm13.2 1.4c-.1-.9-.6-1.5-1.9-1.5a6.1 6.1 0 0 0-2.6.8l-.7-1.2a7.3 7.3 0 0 1 3.6-1.1 3.1 3.1 0 0 1 3.4 3.4v4.6h-1.5v-.9h-.1a5.2 5.2 0 0 1-2.9 1.1c-1.6 0-2.7-.9-2.7-2.3s1.5-2.6 5.4-2.9zm-2.3 3.8a3.9 3.9 0 0 0 2.3-1v-1.6c-2.9.1-3.7.7-3.7 1.6s.6 1 1.4 1zm7.2-1a4.9 4.9 0 0 0 3 1c1.2 0 1.8-.4 1.8-.9s-.7-.9-2.3-1.3-2.9-1.1-2.9-2.3 1.2-2.3 3.4-2.3a6.4 6.4 0 0 1 3.3 1l-.8 1.2a4.1 4.1 0 0 0-2.4-.8c-1.3 0-1.7.3-1.7.8s1 .9 2.2 1.2 3 1.1 3 2.4-1.3 2.4-3.7 2.4a6.9 6.9 0 0 1-3.8-1.2zm9.1-9.1h1.9v7.1l3.6-3.6h2l-3 3.1 3.4 4.7h-2l-2.5-3.4-1.5 1.4v2h-1.9zm18.9 0h4.4v8.6a1.3 1.3 0 0 0 1.4 1.4l1.3-.3.4 1.4a7.2 7.2 0 0 1-2.2.4c-1.8 0-2.8-1.1-2.8-3v-7h-2.5zm9.8 3.5h5.3v7.8h-1.9v-6.4h-3.4zm2.9-2.6a1.3 1.3 0 0 1 1.3-1.3 1.2 1.2 0 0 1 1.3 1.3 1.2 1.2 0 0 1-1.3 1.2 1.2 1.2 0 0 1-1.3-1.2zm7.3 8.2a4.9 4.9 0 0 0 3 1c1.2 0 1.8-.4 1.8-.9s-.8-.9-2.3-1.3-2.9-1.1-2.9-2.3 1.2-2.3 3.4-2.3a6.4 6.4 0 0 1 3.3 1l-.8 1.2a4.1 4.1 0 0 0-2.4-.8c-1.3 0-1.7.3-1.7.8s1 .9 2.2 1.2 3 1.1 3 2.4-1.3 2.4-3.7 2.4a6.9 6.9 0 0 1-3.8-1.2zm10.7-4.2h-2.1v-1.3h2.2l.3-2.2h1.5v2.2h3.5v1.4h-3.5v3.3c0 1.3.5 1.9 1.8 1.9a4.3 4.3 0 0 0 1.7-.4l.4 1.4a9.5 9.5 0 0 1-2.6.4c-2.3 0-3.2-1.3-3.2-3.3zM83.6 126.9h3.5c2.3 0 4 .8 4 3.2s-1.7 3.4-4 3.4h-1.6v3.9h-1.9zM87 132c1.5 0 2.3-.6 2.3-1.9s-.8-1.7-2.3-1.7h-1.5v3.6zm5.9-5.9h4.4v8.5c0 1.1.6 1.5 1.4 1.5l1.3-.3.4 1.3a5.1 5.1 0 0 1-2.2.5c-1.8 0-2.8-1.2-2.8-3.1v-7h-2.5zm15.1 6.2a1.7 1.7 0 0 0-1.9-1.5 6.1 6.1 0 0 0-2.6.8l-.7-1.2a7.3 7.3 0 0 1 3.6-1.1 3.1 3.1 0 0 1 3.4 3.4v4.7h-1.5v-1h-.1a5.3 5.3 0 0 1-2.9 1.2 2.4 2.4 0 0 1-2.7-2.3c-.1-1.8 1.5-2.7 5.4-3zm-2.3 3.8a4.4 4.4 0 0 0 2.3-.9v-1.7c-2.9.2-3.7.8-3.7 1.6s.6 1 1.4 1zm6.6-6.6h1.5l.2 1.2a4 4 0 0 1 2.9-1.4c1.8 0 2.6 1.2 2.6 3.2v4.9h-1.8v-4.7c0-1.2-.4-1.8-1.5-1.8a2.7 2.7 0 0 0-2 1.1v5.4h-1.9zm19.8 5.7a4.9 4.9 0 0 0 3 1c1.2 0 1.8-.4 1.8-1s-.7-.9-2.3-1.3-2.9-1-2.9-2.2 1.2-2.4 3.4-2.4a5.7 5.7 0 0 1 3.3 1.1l-.8 1.1a4.1 4.1 0 0 0-2.4-.8c-1.3 0-1.7.4-1.7.9s1 .8 2.2 1.2 3 1 3 2.3-1.3 2.5-3.6 2.5a7 7 0 0 1-3.9-1.3zM143 138v2.5h-1.9v-11h1.5l.2.9a4.1 4.1 0 0 1 2.5-1.1c2.1 0 3.3 1.6 3.3 4s-1.7 4.3-3.5 4.3a3.2 3.2 0 0 1-2.2-1zm1.7-2c1.1 0 2-.9 2-2.7s-.6-2.5-1.9-2.5a2.4 2.4 0 0 0-1.8 1v3.5a2.5 2.5 0 0 0 1.7.7zm6.8-6.5h1.5l.2 1.8a3.9 3.9 0 0 1 3.4-2 3.7 3.7 0 0 1 1.5.3l-.4 1.6a3.2 3.2 0 0 0-1.4-.2 3.3 3.3 0 0 0-3 2v4.4h-1.8zm8.8 0h5.3v7.9h-1.8V131h-3.5zm2.9-2.6a1.2 1.2 0 0 1 1.3-1.2 1.2 1.2 0 1 1 0 2.4 1.2 1.2 0 0 1-1.3-1.2zm6.7 2.6h1.5l.2 1.2a4 4 0 0 1 2.9-1.4c1.8 0 2.6 1.2 2.6 3.2v4.9h-1.8v-4.7c0-1.2-.4-1.8-1.5-1.8a2.7 2.7 0 0 0-2 1.1v5.4h-1.9zm11.3 1.5h-2.1v-1.4h2.2l.3-2.1h1.5v2.1h3.6v1.4h-3.6v3.2c0 1.3.5 1.9 1.8 1.9a4.3 4.3 0 0 0 1.7-.3l.4 1.3a6.7 6.7 0 0 1-2.6.5c-2.3 0-3.2-1.4-3.2-3.4zM59 193.4a4.5 4.5 0 0 0 2.9 1.2c1.2 0 1.9-.5 1.9-1.3s-.7-1.2-1.7-1.6l-1.5-.6a2.9 2.9 0 0 1-2.2-2.8c0-1.6 1.5-2.9 3.6-2.9a5.1 5.1 0 0 1 3.4 1.3l-1 1.2a3.4 3.4 0 0 0-2.4-.9c-1.1 0-1.7.5-1.7 1.2s.8 1.1 1.8 1.5l1.3.6c1.4.5 2.3 1.3 2.3 2.8s-1.4 3.1-3.9 3.1a5.8 5.8 0 0 1-3.9-1.5zm10.8 3.3v2.4h-1.9v-10.9h1.5l.2.9a3.6 3.6 0 0 1 2.5-1.1c2.1 0 3.3 1.5 3.3 4s-1.7 4.2-3.5 4.2a3.1 3.1 0 0 1-2.2-.9zm1.7-2c1.1 0 2-.9 2-2.7s-.6-2.5-1.9-2.5a2.6 2.6 0 0 0-1.8.9v3.6a2.5 2.5 0 0 0 1.7.7zm6.8-6.5h1.5l.2 1.7a4 4 0 0 1 3.4-1.9 3.7 3.7 0 0 1 1.5.3l-.4 1.6a3.2 3.2 0 0 0-1.4-.3 3.4 3.4 0 0 0-3 2.1v4.3h-1.8zm8.8 0h5.3v7.8h-1.8v-6.4h-3.5zm2.9-2.6a1.3 1.3 0 0 1 1.3-1.3 1.2 1.2 0 0 1 1.3 1.3 1.2 1.2 0 0 1-1.3 1.2 1.2 1.2 0 0 1-1.3-1.2zm6.7 2.6h1.5l.2 1.2a4 4 0 0 1 2.9-1.4c1.8 0 2.6 1.1 2.6 3.2v4.8h-1.8v-4.6c0-1.3-.4-1.8-1.5-1.8a2.4 2.4 0 0 0-2 1.1v5.3h-1.9zm11.3 1.4h-2.1v-1.3h2.2l.3-2.2h1.5v2.2h3.5v1.4h-3.5v3.3c0 1.3.5 1.9 1.8 1.9a4.3 4.3 0 0 0 1.7-.4l.4 1.4a9.5 9.5 0 0 1-2.6.4c-2.3 0-3.2-1.3-3.2-3.3zm20.4 0h-2.1v-1.3h2.2l.3-2.2h1.5v2.2h3.5v1.4h-3.5v3.3c0 1.3.5 1.9 1.8 1.9a4.3 4.3 0 0 0 1.7-.4l.4 1.4a9.5 9.5 0 0 1-2.6.4c-2.3 0-3.2-1.3-3.2-3.3zm13.2 1.4c-.1-.9-.6-1.5-1.9-1.5a6.1 6.1 0 0 0-2.6.8l-.7-1.2a7.3 7.3 0 0 1 3.6-1.1 3.1 3.1 0 0 1 3.4 3.4v4.6h-1.5v-.9h-.1a5.2 5.2 0 0 1-2.9 1.1c-1.6 0-2.7-.9-2.7-2.3s1.5-2.6 5.4-2.9zm-2.3 3.8a3.9 3.9 0 0 0 2.3-1v-1.6c-2.9.1-3.7.7-3.7 1.6s.6 1 1.4 1zm7.2-1a4.9 4.9 0 0 0 3 1c1.2 0 1.8-.4 1.8-.9s-.7-.9-2.3-1.3-2.9-1.1-2.9-2.3 1.2-2.3 3.4-2.3a6.4 6.4 0 0 1 3.3 1l-.8 1.2a4.1 4.1 0 0 0-2.4-.8c-1.3 0-1.7.3-1.7.8s1 .9 2.2 1.2 3 1.1 3 2.4-1.3 2.4-3.7 2.4a6.9 6.9 0 0 1-3.8-1.2zm9.1-9.1h1.9v7.1l3.6-3.6h2l-3 3.1 3.4 4.7h-2l-2.5-3.4-1.5 1.4v2h-1.9zm20.1 0h4.4v8.6a1.3 1.3 0 0 0 1.4 1.4l1.3-.3.4 1.4a7.2 7.2 0 0 1-2.2.4c-1.8 0-2.8-1.1-2.8-3v-7h-2.5zm9.8 3.5h5.3v7.8H189v-6.4h-3.5zm2.9-2.6a1.3 1.3 0 0 1 1.3-1.3 1.2 1.2 0 0 1 1.3 1.3 1.2 1.2 0 0 1-1.3 1.2 1.2 1.2 0 0 1-1.3-1.2zm7.3 8.2a4.9 4.9 0 0 0 3 1c1.2 0 1.8-.4 1.8-.9s-.7-.9-2.3-1.3-2.9-1.1-2.9-2.3 1.2-2.3 3.4-2.3a6.4 6.4 0 0 1 3.3 1l-.8 1.2a4.1 4.1 0 0 0-2.4-.8c-1.3 0-1.7.3-1.7.8s1 .9 2.2 1.2 3 1.1 3 2.4-1.3 2.4-3.7 2.4a6.9 6.9 0 0 1-3.8-1.2zm10.7-4.2h-2.1v-1.3h2.2l.3-2.2h1.5v2.2h3.5v1.4h-3.5v3.3c0 1.3.5 1.9 1.8 1.9a4.3 4.3 0 0 0 1.7-.4l.4 1.4a9.5 9.5 0 0 1-2.6.4c-2.3 0-3.2-1.3-3.2-3.3zM40.2 258.8h2.7c3.1 0 4.9 1.7 4.9 5.2s-1.8 5.3-4.8 5.3h-2.8zm2.6 9c2 0 3.1-1.2 3.1-3.8s-1.1-3.7-3.1-3.7h-.7v7.5zm10.8-6.6a3.5 3.5 0 0 1 3.7 3.7c0 .4-.1.7-.1.9h-5.7a2.4 2.4 0 0 0 2.6 2.2 4.3 4.3 0 0 0 2.2-.6l.7 1.1a5.7 5.7 0 0 1-3.1 1 4.2 4.2 0 0 1-.3-8.3zm2 3.4a1.8 1.8 0 0 0-1.9-2 2.2 2.2 0 0 0-2.2 2zm4.5 2.5a4.9 4.9 0 0 0 3 1c1.2 0 1.8-.4 1.8-1s-.7-.9-2.3-1.3-2.9-1-2.9-2.2 1.2-2.4 3.4-2.4a5.7 5.7 0 0 1 3.3 1.1l-.8 1.1a4.1 4.1 0 0 0-2.4-.8c-1.3 0-1.7.4-1.7.9s1 .8 2.2 1.2 3 1 3 2.3-1.3 2.5-3.6 2.5a7 7 0 0 1-3.9-1.3zm9-5.7h5.3v7.9h-1.8v-6.4h-3.5zm2.9-2.6a1.2 1.2 0 0 1 1.3-1.2 1.2 1.2 0 1 1 0 2.4 1.2 1.2 0 0 1-1.3-1.2zm7.6 10.2a1.4 1.4 0 0 1-.8-1.3 2 2 0 0 1 1-1.5 2.3 2.3 0 0 1-1-2 2.9 2.9 0 0 1 3.2-2.9l1.2.2h3.3v1.4h-1.9a1.9 1.9 0 0 1 .5 1.3c0 1.8-1.3 2.7-3.1 2.7l-1.2-.2c-.3.2-.5.4-.5.7s.5.7 1.5.7h1.6c2.1 0 3.1.6 3.1 2s-1.8 2.7-4.5 2.7-3.6-.6-3.6-2.1a1.9 1.9 0 0 1 1.2-1.7zm2.6 2.5c1.5 0 2.5-.6 2.5-1.2s-.5-.8-1.6-.8h-2.4c-.6.3-.8.6-.8 1s.8 1 2.3 1zm1.3-7.4a1.5 1.5 0 1 0-3 0 1.5 1.5 0 0 0 3 0zm4.8-2.7h1.5l.2 1.2a4 4 0 0 1 2.9-1.4c1.8 0 2.6 1.2 2.6 3.2v4.9h-1.8v-4.7c0-1.2-.4-1.8-1.5-1.8a2.7 2.7 0 0 0-2 1.1v5.4h-1.9zm26.8 8.1a8 8 0 0 1-2.3-1.1 4.4 4.4 0 0 1-2.8 1.1 3 3 0 0 1-3.3-3 3.6 3.6 0 0 1 1.8-2.9 6.4 6.4 0 0 1-.7-2.4 2.5 2.5 0 0 1 2.5-2.6 2.1 2.1 0 0 1 2.3 2.2c0 1.4-1.1 2.2-2.2 3a13.1 13.1 0 0 0 2.3 2.4 13.8 13.8 0 0 0 1.1-2.7h1.7a14.6 14.6 0 0 1-1.6 3.6l1.6.9zm-4.9-1.5a2 2 0 0 0 1.4-.6 14.3 14.3 0 0 1-2.3-2.6 2.3 2.3 0 0 0-.8 1.6 1.6 1.6 0 0 0 1.7 1.6zm-.4-5.3a2.5 2.5 0 0 0 1.3-1.8c0-.6-.2-1-.8-1s-.9.5-.9 1.3a2.8 2.8 0 0 0 .4 1.5zm19.9-1.5a3.2 3.2 0 0 1 2.2.9V258h1.9v11.3h-1.5l-.2-.9a3.6 3.6 0 0 1-2.4 1.1c-2 0-3.4-1.6-3.4-4.2s1.6-4.1 3.4-4.1zm.4 6.7a2.2 2.2 0 0 0 1.7-.9v-3.5a2.1 2.1 0 0 0-1.6-.8c-1.1 0-2 1-2 2.6s.7 2.6 1.9 2.6zm9.9-6.7a3.5 3.5 0 0 1 3.7 3.7c0 .4-.1.7-.1.9h-5.7a2.4 2.4 0 0 0 2.6 2.2 4.3 4.3 0 0 0 2.2-.6l.7 1.1a5.7 5.7 0 0 1-3.1 1 4.2 4.2 0 0 1-.3-8.3zm2 3.4a1.8 1.8 0 0 0-1.9-2 2.2 2.2 0 0 0-2.2 2zm3.3-3.2h1.8l1.5 4.1a22.5 22.5 0 0 1 .8 2.4h.1a22.5 22.5 0 0 1 .8-2.4l1.5-4.1h1.7l-3 7.9h-2.1zm13.9-.2a3.5 3.5 0 0 1 3.7 3.7c0 .4-.1.7-.1.9h-5.7a2.4 2.4 0 0 0 2.6 2.2 4.3 4.3 0 0 0 2.2-.6l.7 1.1a5.7 5.7 0 0 1-3.1 1 4.2 4.2 0 0 1-.3-8.3zm2 3.4a1.8 1.8 0 0 0-1.9-2 2.2 2.2 0 0 0-2.2 2zm3.7-6.6h4.4v8.5c0 1.1.6 1.5 1.4 1.5l1.3-.3.4 1.3a5.1 5.1 0 0 1-2.2.5c-1.8 0-2.8-1.2-2.8-3.1v-7h-2.5zm13.3 3.2a4.2 4.2 0 1 1-4 4.1 3.9 3.9 0 0 1 4-4.1zm0 6.8c1.3 0 2-1.1 2-2.7s-.7-2.6-2-2.6-2 1.1-2 2.6.7 2.7 2 2.7zm8 1.9v2.5h-1.9v-11h1.5l.2.9a4.1 4.1 0 0 1 2.5-1.1c2.1 0 3.3 1.6 3.3 4s-1.7 4.3-3.5 4.3a3.2 3.2 0 0 1-2.2-1zm1.7-2c1.1 0 1.9-.9 1.9-2.7s-.5-2.5-1.8-2.5a2.4 2.4 0 0 0-1.8 1v3.5a2.5 2.5 0 0 0 1.7.7zm5.5-6.5h1.4v1h.1a1.7 1.7 0 0 1 1.7-1.2 1.5 1.5 0 0 1 1.4 1.3 2.1 2.1 0 0 1 1.8-1.3c1.1 0 1.7.9 1.7 2.5v5.6h-1.7v-5.5c0-.7-.2-1-.7-1s-.7.3-1 1v5.5h-1.4v-5.5c0-.7-.2-1-.7-1s-.7.3-1 1v5.5h-1.7zm13.8-.2a3.5 3.5 0 0 1 3.7 3.7c0 .4-.1.7-.1.9h-5.7a2.4 2.4 0 0 0 2.6 2.2 4.3 4.3 0 0 0 2.2-.6l.7 1.1a5.7 5.7 0 0 1-3.1 1 4.2 4.2 0 0 1-.3-8.3zm2 3.4a1.8 1.8 0 0 0-1.9-2 2.2 2.2 0 0 0-2.2 2zm3.9-3.2h1.5l.2 1.2a4 4 0 0 1 2.9-1.4c1.8 0 2.6 1.2 2.6 3.2v4.9h-1.8v-4.7c0-1.2-.4-1.8-1.5-1.8a2.7 2.7 0 0 0-2 1.1v5.4h-1.9zm11.3 1.5h-2.1v-1.4h2.2l.3-2.1h1.5v2.1h3.5v1.5h-3.5v3.2c0 1.3.5 1.9 1.8 1.9a4.3 4.3 0 0 0 1.7-.3l.4 1.3a6.7 6.7 0 0 1-2.6.5c-2.3 0-3.2-1.4-3.2-3.4zM74.6 325.3a4.5 4.5 0 0 0 2.9 1.2c1.2 0 1.9-.5 1.9-1.3s-.7-1.2-1.7-1.6l-1.5-.6a2.9 2.9 0 0 1-2.2-2.8c0-1.6 1.5-2.9 3.6-2.9a5.1 5.1 0 0 1 3.4 1.3l-1 1.2a3.4 3.4 0 0 0-2.4-.9c-1.1 0-1.7.5-1.7 1.2s.8 1.1 1.8 1.5l1.3.6c1.4.5 2.3 1.3 2.3 2.8s-1.4 3.1-3.9 3.1a5.8 5.8 0 0 1-3.9-1.5zm10.8 3.3v2.4h-1.9v-10.9H85l.2.9a3.6 3.6 0 0 1 2.5-1.1c2.1 0 3.3 1.5 3.3 4s-1.7 4.2-3.5 4.2a3.1 3.1 0 0 1-2.2-.9zm1.7-2c1.1 0 2-.9 2-2.7s-.6-2.5-1.9-2.5a2.6 2.6 0 0 0-1.8.9v3.6a2.5 2.5 0 0 0 1.7.7zm6.8-6.5h1.5l.2 1.7a4 4 0 0 1 3.4-1.9 3.7 3.7 0 0 1 1.5.3l-.4 1.6a3.2 3.2 0 0 0-1.4-.3 3.4 3.4 0 0 0-3 2.1v4.3h-1.8zm8.8 0h5.3v7.8h-1.8v-6.4h-3.5zm2.9-2.6a1.3 1.3 0 0 1 1.3-1.3 1.2 1.2 0 0 1 1.3 1.3 1.2 1.2 0 0 1-1.3 1.2 1.2 1.2 0 0 1-1.3-1.2zm6.7 2.6h1.5l.2 1.2a4 4 0 0 1 2.9-1.4c1.8 0 2.6 1.1 2.6 3.2v4.8h-1.8v-4.6c0-1.3-.4-1.8-1.5-1.8a2.4 2.4 0 0 0-2 1.1v5.3h-1.9zm11.3 1.4h-2.1v-1.3h2.2l.3-2.2h1.5v2.2h3.5v1.4h-3.5v3.3c0 1.3.5 1.9 1.8 1.9a4.3 4.3 0 0 0 1.7-.4l.4 1.4a9.5 9.5 0 0 1-2.6.4c-2.3 0-3.2-1.3-3.2-3.3zm18.3-1.4h1.5l.2 1.7a4 4 0 0 1 3.4-1.9 3.7 3.7 0 0 1 1.5.3l-.4 1.6a3.2 3.2 0 0 0-1.4-.3 3.4 3.4 0 0 0-3 2.1v4.3h-1.8zm12.5-.2a3.4 3.4 0 0 1 3.7 3.7c0 .4-.1.7-.1.9h-5.7a2.4 2.4 0 0 0 2.6 2.2 4.3 4.3 0 0 0 2.2-.6l.7 1.1a6.6 6.6 0 0 1-3.1.9 4.1 4.1 0 1 1-.3-8.2zm2 3.4a1.8 1.8 0 0 0-1.9-2 2.2 2.2 0 0 0-2.2 2zm3.3-3.2h1.8l1.5 4.1a15.5 15.5 0 0 1 .8 2.3h.1a15.5 15.5 0 0 1 .8-2.3l1.5-4.1h1.7l-3 7.8h-2.1zm10.2 0h5.3v7.8h-1.8v-6.4h-3.5zm2.9-2.6a1.3 1.3 0 0 1 1.3-1.3 1.2 1.2 0 0 1 1.3 1.3 1.2 1.2 0 0 1-1.3 1.2 1.2 1.2 0 0 1-1.3-1.2zm10.4 2.4a3.4 3.4 0 0 1 3.7 3.7c0 .4-.1.7-.1.9h-5.7a2.4 2.4 0 0 0 2.6 2.2 4.3 4.3 0 0 0 2.2-.6l.7 1.1a6.6 6.6 0 0 1-3.1.9 4.1 4.1 0 1 1-.3-8.2zm2 3.4a1.8 1.8 0 0 0-1.9-2 2.2 2.2 0 0 0-2.2 2zm2.7-3.2h1.8l.7 4.1c.2.7.2 1.4.4 2.2.1-.8.3-1.5.4-2.2l.8-3.4h1.3l.8 3.4c.1.7.3 1.4.4 2.2h.1l.3-2.2.7-4.1h1.7l-1.4 7.8h-2.2l-.7-3.2a18.5 18.5 0 0 0-.4-2.3h-.1a12 12 0 0 1-.3 2.3l-.7 3.2h-2.1z"/><path fill="#d9d8e3" stroke="#d9d8e3" stroke-linecap="round" stroke-linejoin="round" stroke-width="2" d="M135 151.7v20"/><path fill="#d9d8e3" stroke="#d9d8e3" stroke-miterlimit="10" d="M131 161.7l4 10 4-10-4 4-4-4z"/><path fill="#d9d8e3" stroke="#d9d8e3" stroke-linecap="round" stroke-linejoin="round" stroke-width="2" d="M135 210.9v33.5"/><path fill="#d9d8e3" stroke="#d9d8e3" stroke-miterlimit="10" d="M131 234.4l4 10 4-10-4 4-4-4z"/><path fill="#d9d8e3" stroke="#d9d8e3" stroke-linecap="round" stroke-linejoin="round" stroke-width="2" d="M135 283.6v20"/><path fill="#d9d8e3" stroke="#d9d8e3" stroke-miterlimit="10" d="M131 293.6l4 10 4-10-4 4-4-4z"/><path fill="#d9d8e3" stroke="#d9d8e3" stroke-linecap="round" stroke-linejoin="round" stroke-width="2" d="M135 92.5v20"/><path fill="#d9d8e3" stroke="#d9d8e3" stroke-miterlimit="10" d="M131 102.5l4 10 4-10-4 4-4-4z"/><path fill="#d9d8e3" stroke="#d9d8e3" stroke-linecap="round" stroke-linejoin="round" stroke-width="2" d="M135 342.8v48m0 0h123"/><path fill="#d9d8e3" stroke="#d9d8e3" stroke-miterlimit="10" d="M254 230.9l4-10 4 10-4-4-4 4z"/><path fill="#d9d8e3" stroke="#d9d8e3" stroke-linecap="round" stroke-linejoin="round" stroke-width="2" d="M258 80.5v310.3m0-310.3H147"/><path fill="#d9d8e3" stroke="#d9d8e3" stroke-miterlimit="10" d="M157 76.5l-10 4 10 4-4-4 4-4z"/><path fill="#d9d8e3" stroke="#d9d8e3" stroke-linecap="round" stroke-linejoin="round" stroke-width="2" d="M135 48.5v20"/><path fill="#d9d8e3" stroke="#d9d8e3" stroke-miterlimit="10" d="M131 58.5l4 10 4-10-4 4-4-4z"/><path fill="none" stroke="#63666a" stroke-width="2" d="M135 68.5l12 12-12 12-12-12 12-12z"/><rect width="176" height="39.2" x="47" y="9.3" fill="none" stroke="#63666a" stroke-width="2" rx="12.5" ry="12.5"/><rect width="123" height="39.2" x="73.5" y="112.5" fill="none" stroke="#63666a" stroke-width="2" rx="12.5" ry="12.5"/><rect width="168" height="39.2" x="51" y="171.7" fill="none" stroke="#63666a" stroke-width="2" rx="12.5" ry="12.5"/><rect width="222" height="39.2" x="24" y="244.4" fill="none" stroke="#63666a" stroke-width="2" rx="12.5" ry="12.5"/><rect width="144" height="39.2" x="63" y="303.6" fill="none" stroke="#63666a" stroke-width="2" rx="12.5" ry="12.5"/></svg>
