<svg xmlns="http://www.w3.org/2000/svg" width="714.1" height="125" viewBox="0 0 714.1 125"><path fill="#63666a" d="M64.7 20.9h-4.9v-2.3h12.7v2.3h-5v13.3h-2.8zm15.8 1.3a5.8 5.8 0 0 1 5.9 6.2 5.9 5.9 0 1 1-11.8 0 5.8 5.8 0 0 1 5.9-6.2zm0 10.1c1.9 0 3.1-1.6 3.1-3.9s-1.2-4-3.1-4-3.1 1.6-3.1 4 1.2 3.9 3.1 3.9zm28.1-10.1a4.5 4.5 0 0 1 3.3 1.4v-6.3h2.7v16.9h-2.2l-.2-1.3h-.2a5.4 5.4 0 0 1-3.6 1.6c-3 0-5-2.2-5-6.1s2.5-6.2 5.2-6.2zm.5 10.1a3.6 3.6 0 0 0 2.7-1.5v-5.3a3.6 3.6 0 0 0-2.6-1c-1.6 0-3 1.4-3 3.8s1.1 4 2.9 4zm14.6-10.1a5.8 5.8 0 0 1 5.9 6.2 5.9 5.9 0 1 1-11.8 0 5.8 5.8 0 0 1 5.9-6.2zm0 10.1c1.9 0 3.1-1.6 3.1-3.9s-1.2-4-3.1-4-3.1 1.6-3.1 4 1.2 3.9 3.1 3.9zm68.5-.4h3.8v-11h-3.8v-2.3h10.4v2.3h-3.8v11h3.8v2.3h-10.4zm14.4-9.4h2.3l.2 1.7h.1a5.8 5.8 0 0 1 4.2-2c2.7 0 4 1.7 4 4.8v7.2h-2.8v-6.9c0-1.9-.6-2.7-2.2-2.7a3.8 3.8 0 0 0-3 1.6v8h-2.8zm31.6 12.7v3.7h-2.8V22.5h2.3l.2 1.3h.1a5.9 5.9 0 0 1 3.7-1.6c3.1 0 4.8 2.3 4.8 6s-2.5 6.3-5.2 6.3a4.7 4.7 0 0 1-3.2-1.4zm2.5-2.9c1.7 0 3-1.4 3-4.1s-.8-3.7-2.7-3.7a3.8 3.8 0 0 0-2.8 1.4v5.3a3.7 3.7 0 0 0 2.5 1.1zm10.2-9.8h2.3l.3 2.6a5.8 5.8 0 0 1 5-2.9 4.1 4.1 0 0 1 2.3.5l-.6 2.3a4.6 4.6 0 0 0-2.1-.4c-1.6 0-3.2.9-4.4 3.1v6.5h-2.8zm18.5-.3a5.8 5.8 0 0 1 5.9 6.2 5.9 5.9 0 1 1-11.8 0 5.8 5.8 0 0 1 5.9-6.2zm0 10.1c1.9 0 3.1-1.6 3.1-3.9s-1.2-4-3.1-4-3.1 1.6-3.1 4 1.2 3.9 3.1 3.9zm10.6 1.5a2.1 2.1 0 0 1-1.2-1.9 2.9 2.9 0 0 1 1.4-2.3 3.5 3.5 0 0 1-1.5-3c0-2.7 2.2-4.2 4.8-4.2a5.8 5.8 0 0 1 1.9.3h4.8v2h-2.8a3.3 3.3 0 0 1 .8 2c0 2.6-2 4-4.7 4l-1.8-.3a1.4 1.4 0 0 0-.7 1.1c0 .8.8 1.1 2.2 1.1h2.4c3.1 0 4.7.8 4.7 2.9s-2.7 4.2-6.8 4.2-5.4-1.1-5.4-3.2a3.2 3.2 0 0 1 1.9-2.7zm3.8 3.9c2.3 0 3.8-1 3.8-2s-.8-1.1-2.4-1.1h-1.8l-1.8-.2c-.9.5-1.2 1-1.2 1.6s1.2 1.7 3.4 1.7zm2-11.3a2.2 2.2 0 0 0-2.3-2.3 2.2 2.2 0 0 0-2.2 2.3 2.3 2.3 0 1 0 4.5 0zm8.3-3.9h2.3l.3 2.6a5.8 5.8 0 0 1 5-2.9 4.1 4.1 0 0 1 2.3.5l-.6 2.3a4.6 4.6 0 0 0-2.1-.4c-1.6 0-3.2.9-4.4 3.1v6.5h-2.8zm18.9-.3c3.5 0 5.4 2.3 5.4 5.6a4.9 4.9 0 0 1-.1 1.3h-8.6a3.8 3.8 0 0 0 4 3.3 6.7 6.7 0 0 0 3.3-1l.9 1.8a8.3 8.3 0 0 1-4.6 1.3c-3.5 0-6.4-2.2-6.4-6.1a6 6 0 0 1 6.1-6.2zm2.9 5.1a2.7 2.7 0 0 0-2.9-3 3.2 3.2 0 0 0-3.3 3zm6.7 3.7a7.6 7.6 0 0 0 4.6 1.4c1.8 0 2.6-.6 2.6-1.4s-1.1-1.3-3.4-1.9-4.4-1.6-4.4-3.4 1.9-3.5 5.2-3.5a8.9 8.9 0 0 1 4.9 1.5l-1.2 1.7a6.6 6.6 0 0 0-3.6-1.1c-1.9 0-2.5.5-2.5 1.3s1.4 1.3 3.3 1.7 4.5 1.6 4.5 3.6-1.9 3.6-5.5 3.6a10.8 10.8 0 0 1-5.8-1.8zm14.4 0a7.6 7.6 0 0 0 4.6 1.4c1.8 0 2.6-.6 2.6-1.4s-1.1-1.3-3.4-1.9-4.4-1.6-4.4-3.4 1.9-3.5 5.2-3.5a8.9 8.9 0 0 1 4.9 1.5l-1.2 1.7a6.6 6.6 0 0 0-3.6-1.1c-1.9 0-2.5.5-2.5 1.3s1.4 1.3 3.3 1.7 4.5 1.6 4.5 3.6-1.9 3.6-5.5 3.6a10.8 10.8 0 0 1-5.8-1.8zm52.6.9h3.8v-11h-3.8v-2.3H400v2.3h-3.8v11h3.8v2.3h-10.4zm14.4-9.4h2.3l.2 1.7h.1a5.8 5.8 0 0 1 4.2-2c2.7 0 4 1.7 4 4.8v7.2H412v-6.9c0-1.9-.6-2.7-2.2-2.7a3.8 3.8 0 0 0-3 1.6v8H404zm29.9 0h2.3l.3 2.6a5.8 5.8 0 0 1 5-2.9 4.1 4.1 0 0 1 2.3.5l-.6 2.3a4.6 4.6 0 0 0-2.1-.4c-1.6 0-3.2.9-4.4 3.1v6.5h-2.8zm18.9-.3c3.5 0 5.4 2.3 5.4 5.6a4.9 4.9 0 0 1-.1 1.3h-8.6a3.8 3.8 0 0 0 4 3.3 6.7 6.7 0 0 0 3.3-1l.9 1.8a8.3 8.3 0 0 1-4.6 1.3c-3.5 0-6.4-2.2-6.4-6.1a6 6 0 0 1 6.1-6.2zm2.9 5.1a2.7 2.7 0 0 0-2.9-3 3.2 3.2 0 0 0-3.3 3zm4.9-4.8h2.8l2.3 6.1c.4 1.2.8 2.3 1.1 3.5h.1l1.2-3.5 2.3-6.1h2.6l-4.6 11.7h-3.1zm15.4 0h7.9v11.7h-2.8v-9.6H476zm4.4-3.9a1.8 1.8 0 0 1 1.9-1.9 1.8 1.8 0 0 1 2 1.9 1.8 1.8 0 0 1-2 1.8 1.8 1.8 0 0 1-1.9-1.8zm15.5 3.6c3.6 0 5.5 2.3 5.5 5.6a4.9 4.9 0 0 1-.1 1.3h-8.6a3.8 3.8 0 0 0 4 3.3 6.7 6.7 0 0 0 3.3-1l.9 1.8a8.3 8.3 0 0 1-4.6 1.3c-3.5 0-6.4-2.2-6.4-6.1a6 6 0 0 1 6-6.2zm3 5.1a2.7 2.7 0 0 0-2.9-3 3.2 3.2 0 0 0-3.3 3zm4-4.8h2.8l1.1 6.1c.2 1.1.3 2.2.5 3.4h.1c.1-1.2.3-2.3.5-3.4l1.2-5h2l1.1 5a34 34 0 0 1 .7 3.4h.1c.2-1.2.3-2.3.4-3.4l1.1-6.1h2.6l-2.2 11.7h-3.3l-1-4.9c-.2-1.1-.3-2.2-.6-3.4h-.1c-.1.9-.2 1.9-.5 3.5l-1 4.8h-3.2zm95.5-3.9h4.1c4.6 0 7.4 2.5 7.4 7.7s-2.8 7.9-7.3 7.9h-4.2zm3.9 13.4c3 0 4.7-1.8 4.7-5.7s-1.7-5.5-4.7-5.5h-1.1V32zm15.9-9.8a5.8 5.8 0 0 1 5.9 6.2 5.9 5.9 0 1 1-11.8 0 5.8 5.8 0 0 1 5.9-6.2zm0 10.1c1.9 0 3.1-1.6 3.1-3.9s-1.2-4-3.1-4-3.1 1.6-3.1 4 1.2 3.9 3.1 3.9zm9.2-9.8h2.3l.2 1.7h.1a5.8 5.8 0 0 1 4.2-2c2.7 0 4 1.7 4 4.8v7.2h-2.8v-6.9c0-1.9-.6-2.7-2.2-2.7a3.8 3.8 0 0 0-3 1.6v8h-2.8zm20-.3c3.5 0 5.4 2.3 5.4 5.6a4.9 4.9 0 0 1-.1 1.3h-8.6a3.8 3.8 0 0 0 4 3.3 6.7 6.7 0 0 0 3.3-1l.9 1.8a8.3 8.3 0 0 1-4.6 1.3c-3.5 0-6.4-2.2-6.4-6.1a6 6 0 0 1 6.1-6.2zm2.9 5.1a2.7 2.7 0 0 0-2.9-3 3.2 3.2 0 0 0-3.3 3z"/><path fill="none" stroke="#d9d8e3" stroke-miterlimit="10" stroke-width="5.79" d="M-21.1 53h744"/><path fill="none" stroke="#d9d8e3" stroke-miterlimit="10" stroke-width="1.02" d="M359.7-5v141m-179.3 0V-5m358.5 0v141"/></svg>