<svg xmlns="http://www.w3.org/2000/svg" width="1000" height="375" viewBox="0 0 1000 375"><style type="text/css">.st0{fill:none;stroke:#D9D8E3;stroke-width:6;stroke-linecap:round;stroke-linejoin:round;} .st1{fill:none;stroke:#D9D8E3;stroke-width:6;stroke-linecap:round;stroke-linejoin:round;stroke-dasharray:3,8;} .st2{fill:#D1FFF5;} .st3{fill:none;stroke:#63666A;stroke-width:2;stroke-linecap:round;stroke-miterlimit:10;} .st4{fill:none;stroke:#63666A;stroke-width:2;stroke-miterlimit:10;} .st5{fill:#63666A;} .st6{fill:#DFDCDA;}</style><path class="st0" d="M10 154h1"/><path class="st1" d="M20 154h964"/><path class="st0" d="M988 154h2"/><path d="M414.6 25.9c.4.1.8.3 1 .6s.5 1 .9 2l1.1 3.6h-1.8l-.9-3.3c-.3-.9-.5-1.5-.9-1.8s-.8-.4-1.4-.4h-1.7l-1.1 5.5h-1.8l2.5-13.1h3.7c1.2 0 2.2.3 2.8.8s1 1.3 1 2.2c0 1.1-.3 2-.9 2.7s-1.4 1.1-2.5 1.2zm-2.6-5.5l-.9 4.7h1.9c1 0 1.7-.3 2.3-.8s.9-1.2.9-2c0-.7-.2-1.1-.6-1.4s-1-.5-1.7-.5h-1.9zM427.2 31.6c-.6.3-1.2.4-1.8.6s-1.2.2-1.8.2c-1.3 0-2.3-.3-3-1s-1-1.6-1-2.9c0-.9.2-1.8.5-2.7s.8-1.6 1.5-2.3c.5-.5 1-.9 1.6-1.2s1.2-.4 1.8-.4c1.1 0 2 .3 2.6 1s1 1.6 1 2.7v.7s-.1.7-.1 1.1h-7.1c0 .2-.1.4-.1.5v.4c0 .8.2 1.4.7 1.9s1.1.6 2 .6c.5 0 1.1-.1 1.7-.3s1.3-.4 1.9-.7l-.4 1.8zm-.2-5.3c0-.2.1-.3.1-.4v-.3c0-.7-.2-1.3-.6-1.6s-.9-.6-1.6-.6c-.7 0-1.4.3-2 .8s-1 1.2-1.3 2.1h5.4zM439 26l-1.2 6.1h-1.6l1.2-6.1v-.1c.1-.4.1-.7.1-1 0-.5-.1-.8-.4-1.1s-.7-.4-1.2-.4c-.7 0-1.4.3-1.9.8s-.9 1.3-1.1 2.3l-1.1 5.6h-1.6l1.9-9.8h1.6l-.3 1.5c.4-.6.9-1 1.4-1.3s1.1-.4 1.6-.4c.8 0 1.4.2 1.9.6s.7 1 .7 1.8v.7s.1.5 0 .8zM448.8 23.5l1-5.1h1.6l-2.7 13.7h-1.6l.2-1.2c-.4.5-.8.9-1.3 1.1s-1 .4-1.6.4c-1 0-1.7-.3-2.2-.9s-.8-1.5-.8-2.6c0-.8.1-1.7.4-2.5s.6-1.6 1-2.2c.4-.7 1-1.2 1.6-1.6s1.3-.5 2-.5c.6 0 1.1.1 1.5.4s.6.5.9 1zm-2.4-.1c-.5 0-1 .1-1.4.4s-.7.6-1 1.1c-.3.5-.5 1.1-.7 1.8s-.2 1.3-.2 2c0 .8.1 1.3.4 1.7s.7.6 1.3.6c.5 0 .9-.1 1.3-.4s.7-.7 1-1.2c.3-.5.5-1.1.7-1.8s.2-1.3.2-2-.2-1.3-.5-1.6-.5-.6-1.1-.6zM459.7 31.6c-.6.3-1.2.4-1.8.6s-1.2.2-1.8.2c-1.3 0-2.3-.3-3-1s-1-1.6-1-2.9c0-.9.2-1.8.5-2.7s.8-1.6 1.5-2.3c.5-.5 1-.9 1.6-1.2s1.2-.4 1.8-.4c1.1 0 2 .3 2.6 1s1 1.6 1 2.7v.7s-.1.7-.1 1.1h-7.1c0 .2-.1.4-.1.5v.4c0 .8.2 1.4.7 1.9s1.1.6 2 .6c.5 0 1.1-.1 1.7-.3s1.3-.4 1.9-.7l-.4 1.8zm-.2-5.3c0-.2.1-.3.1-.4v-.3c0-.7-.2-1.3-.6-1.6s-.9-.6-1.6-.6c-.7 0-1.4.3-2 .8s-1 1.2-1.3 2.1h5.4zM472.5 24.3c-.3-.3-.6-.5-.9-.6s-.7-.2-1.2-.2c-1 0-1.8.3-2.5 1s-1.1 1.6-1.4 2.8l-.9 4.8h-1.6l1.9-9.8h1.6l-.4 1.9c.4-.7.9-1.2 1.5-1.6s1.3-.6 2.1-.6c.4 0 .8.1 1.1.2s.6.3.9.5l-.2 1.6zM476.1 22.3h4.1l-1.7 8.6h3.2l-.3 1.3h-8l.3-1.3h3.2l1.4-7.3h-2.5l.3-1.3zm3.2-3.9h1.6l-.4 2h-1.6l.4-2zM493.2 26l-1.2 6.1h-1.6l1.2-6.1v-.1c.1-.4.1-.7.1-1 0-.5-.1-.8-.4-1.1s-.7-.4-1.2-.4c-.7 0-1.4.3-1.9.8s-.9 1.3-1.1 2.3l-1.1 5.6h-1.6l1.9-9.8h1.6l-.3 1.5c.4-.6.9-1 1.4-1.3s1.1-.4 1.6-.4c.8 0 1.4.2 1.9.6s.7 1 .7 1.8v.7s.1.5 0 .8zM502.9 31.5c-.3 1.6-.9 2.7-1.6 3.4s-1.9 1.1-3.3 1.1c-.5 0-1 0-1.4-.1s-.9-.2-1.4-.4l.3-1.6c.4.3.9.5 1.3.6s.9.2 1.4.2c.9 0 1.5-.2 2-.7s.8-1.2 1-2.3l.2-1c-.3.5-.8.9-1.3 1.2s-1.1.4-1.7.4c-.9 0-1.6-.3-2.2-.9s-.8-1.5-.8-2.6c0-.8.1-1.6.4-2.4s.6-1.5 1-2.1c.4-.7 1-1.2 1.6-1.5s1.2-.5 1.9-.5c.6 0 1.1.1 1.6.4s.8.7 1 1.2l.2-1.3h1.6l-1.8 8.9zm-3.8-.7c.5 0 .9-.1 1.3-.4s.7-.6 1-1.1c.3-.5.5-1.1.7-1.8s.2-1.3.2-1.9c0-.7-.2-1.2-.5-1.6s-.8-.6-1.4-.6c-.9 0-1.7.5-2.3 1.5s-.9 2.2-.9 3.7c0 .7.2 1.2.5 1.6s.8.6 1.4.6zM524.7 31.6c-.6.3-1.2.4-1.8.6s-1.2.2-1.8.2c-1.3 0-2.3-.3-3-1s-1-1.6-1-2.9c0-.9.2-1.8.5-2.7s.8-1.6 1.5-2.3c.5-.5 1-.9 1.6-1.2s1.2-.4 1.8-.4c1.1 0 2 .3 2.6 1s1 1.6 1 2.7v.7s-.1.7-.1 1.1h-7.1c0 .2-.1.4-.1.5v.4c0 .8.2 1.4.7 1.9s1.1.6 2 .6c.5 0 1.1-.1 1.7-.3s1.3-.4 1.9-.7l-.4 1.8zm-.2-5.3c0-.2.1-.3.1-.4v-.3c0-.7-.2-1.3-.6-1.6s-.9-.6-1.6-.6c-.7 0-1.4.3-2 .8s-1 1.2-1.3 2.1h5.4zM536.5 26l-1.2 6.1h-1.6l1.2-6.1v-.1c.1-.4.1-.7.1-1 0-.5-.1-.8-.4-1.1s-.7-.4-1.2-.4c-.7 0-1.4.3-1.9.8s-.9 1.3-1.1 2.3l-1.1 5.6h-1.6l1.9-9.8h1.6l-.3 1.5c.4-.6.9-1 1.4-1.3s1.1-.4 1.6-.4c.8 0 1.4.2 1.9.6s.7 1 .7 1.8v.7s.1.5 0 .8zM546.2 31.5c-.3 1.6-.9 2.7-1.6 3.4s-1.9 1.1-3.3 1.1c-.5 0-1 0-1.4-.1s-.9-.2-1.4-.4l.3-1.6c.4.3.9.5 1.3.6s.9.2 1.4.2c.9 0 1.5-.2 2-.7s.8-1.2 1-2.3l.2-1c-.3.5-.8.9-1.3 1.2s-1.1.4-1.7.4c-.9 0-1.6-.3-2.2-.9s-.8-1.5-.8-2.6c0-.8.1-1.6.4-2.4s.6-1.5 1-2.1c.4-.7 1-1.2 1.6-1.5s1.2-.5 1.9-.5c.6 0 1.1.1 1.6.4s.8.7 1 1.2l.2-1.3h1.6l-1.8 8.9zm-3.8-.7c.5 0 .9-.1 1.3-.4s.7-.6 1-1.1c.3-.5.5-1.1.7-1.8s.2-1.3.2-1.9c0-.7-.2-1.2-.5-1.6s-.8-.6-1.4-.6c-.9 0-1.7.5-2.3 1.5s-.9 2.2-.9 3.7c0 .7.2 1.2.5 1.6s.8.6 1.4.6zM551.9 22.3h4.1l-1.7 8.6h3.2l-.3 1.3h-8l.3-1.3h3.2l1.4-7.3h-2.5l.3-1.3zm3.3-3.9h1.6l-.4 2h-1.6l.4-2zM569.1 26l-1.2 6.1h-1.6l1.2-6.1v-.1c.1-.4.1-.7.1-1 0-.5-.1-.8-.4-1.1s-.7-.4-1.2-.4c-.7 0-1.4.3-1.9.8s-.9 1.3-1.1 2.3l-1.1 5.6h-1.6l1.9-9.8h1.6l-.3 1.5c.4-.6.9-1 1.4-1.3s1.1-.4 1.6-.4c.8 0 1.4.2 1.9.6s.7 1 .7 1.8v1.5zM578.9 31.6c-.6.3-1.2.4-1.8.6s-1.2.2-1.8.2c-1.3 0-2.3-.3-3-1s-1-1.6-1-2.9c0-.9.2-1.8.5-2.7s.8-1.6 1.5-2.3c.5-.5 1-.9 1.6-1.2s1.2-.4 1.8-.4c1.1 0 2 .3 2.6 1s1 1.6 1 2.7v.7s-.1.7-.2 1.1h-7.1c0 .2-.1.4-.1.5v.4c0 .8.2 1.4.7 1.9s1.1.6 2 .6c.5 0 1.1-.1 1.7-.3s1.3-.4 1.9-.7l-.3 1.8zm-.2-5.3c0-.2.1-.3.1-.4v-.3c0-.7-.2-1.3-.6-1.6s-.9-.6-1.6-.6c-.7 0-1.4.3-2 .8s-1 1.2-1.3 2.1h5.4zM590.7 22.6l-.3 1.6c-.4-.3-.9-.5-1.3-.6s-.9-.2-1.4-.2c-.8 0-1.4.1-1.9.4s-.7.7-.7 1.3c0 .6.6 1 1.9 1.4.1 0 .2 0 .2.1l.6.2c.7.2 1.2.5 1.5.8s.5.8.5 1.3c0 1.1-.4 1.9-1.3 2.6s-2 1-3.4 1c-.5 0-1-.1-1.5-.2s-1.1-.3-1.6-.5l.3-1.7c.6.3 1.1.5 1.6.7s1 .2 1.5.2c.8 0 1.4-.2 1.9-.5s.7-.8.7-1.3c0-.6-.6-1-1.7-1.3-.1 0-.2 0-.2-.1l-.6-.2c-.8-.2-1.3-.5-1.7-.9s-.5-.9-.5-1.5c0-1 .4-1.8 1.2-2.4s1.8-.9 3.1-.9c.5 0 1 0 1.5.1s1.2.4 1.6.6z"/><path class="st2" d="M843.5 182.5h136.5v26.7h-136.5z"/><path d="M874.8 195.4c0 1.9-.3 3.3-.9 4.3-.6.9-1.5 1.4-2.8 1.4s-2.2-.5-2.8-1.4-.9-2.4-.9-4.3.3-3.3.9-4.3c.6-.9 1.5-1.4 2.8-1.4 1.2 0 2.2.5 2.8 1.4.6.9.9 2.4.9 4.3zm-1.6 0c0-1.6-.2-2.8-.5-3.4-.3-.7-.9-1-1.6-1-.7 0-1.3.3-1.6 1-.3.7-.5 1.8-.5 3.4 0 1.6.2 2.7.5 3.4.3.7.9 1 1.6 1 .8 0 1.3-.3 1.6-1 .4-.7.5-1.8.5-3.4zM878.4 199.8v4.2h-1.4v-11.3h1.4v1c.2-.4.5-.7.9-.9.4-.2.8-.3 1.3-.3 1 0 1.8.4 2.3 1.1.6.8.8 1.8.8 3.2 0 1.3-.3 2.4-.8 3.1-.6.8-1.3 1.1-2.3 1.1-.5 0-.9-.1-1.3-.3-.4-.2-.7-.5-.9-.9zm3.9-3.1c0-1-.2-1.8-.5-2.4-.3-.5-.8-.8-1.5-.8s-1.2.3-1.5.8c-.3.5-.5 1.3-.5 2.4 0 1 .2 1.8.5 2.4s.8.8 1.5.8c.6 0 1.1-.3 1.5-.8.4-.5.5-1.3.5-2.4zM892.9 196.1v.7h-5.9c0 1.1.2 1.9.6 2.4.5.5 1.1.7 2 .7.4 0 .9-.1 1.3-.2s1-.3 1.5-.6v1.3c-.5.2-1 .4-1.5.5-.5.1-.9.2-1.4.2-1.3 0-2.3-.4-3-1.1s-1.1-1.8-1.1-3.2c0-1.3.4-2.4 1.1-3.1s1.6-1.2 2.8-1.2c1 0 1.9.4 2.5 1.1.7.6 1 1.5 1.1 2.5zm-1.4-.4c-.1-.6-.3-1.1-.6-1.5-.4-.4-.9-.6-1.5-.6s-1.2.2-1.6.6-.6.9-.7 1.5h4.4zM902.2 194.3c-.3-.2-.6-.4-.9-.5s-.6-.2-1-.2c-.8 0-1.5.3-1.9.8s-.7 1.3-.7 2.3v4.1h-1.4v-8.2h1.4v1.6c.2-.6.6-1 1-1.3.5-.3 1-.5 1.7-.5.3 0 .6 0 .9.1s.6.2.8.4v1.4zM910.5 196.2v4.7h-1.4v-1.2c-.3.5-.7.8-1.1 1.1-.4.2-1 .3-1.6.3-.8 0-1.5-.2-2-.7s-.7-1.1-.7-1.9c0-.9.3-1.6.9-2.1.6-.5 1.5-.7 2.7-.7h1.8v-.2c0-.7-.2-1.1-.5-1.4-.3-.3-.8-.4-1.6-.4-.5 0-.9.1-1.4.2s-.9.3-1.4.6v-1.5c.5-.2 1-.3 1.4-.4.5-.1.9-.1 1.3-.1.7 0 1.3.1 1.7.3.5.2.9.5 1.2.9.2.2.3.5.4.9.2.3.3.8.3 1.6zm-2.6.5h-.4c-.8 0-1.4.1-1.8.4-.4.3-.6.7-.6 1.2s.1.9.4 1.1.7.4 1.2.4c.7 0 1.3-.3 1.8-.8.4-.5.6-1.2.6-2.1v-.3h-1.2zM921.1 189.9h2l1.9 5.6 1.9-5.6h2v10.9h-1.4v-9.6l-1.9 5.7h-1.1l-2-5.7v9.6h-1.4v-10.9zM932.1 192.7h3.5v7.1h2.7v1h-6.7v-1h2.7v-6.1h-2.1v-1zm2.1-3.2h1.3v1.7h-1.3v-1.7zM946.5 195.8v5.1h-1.4v-5.1c0-.7-.1-1.3-.4-1.6s-.7-.5-1.2-.5c-.6 0-1.1.2-1.5.7-.3.4-.5 1.1-.5 1.9v4.6h-1.3v-8.2h1.3v1.2c.2-.5.6-.8 1-1.1.4-.2.9-.4 1.5-.4.8 0 1.5.3 1.9.8.4.6.6 1.4.6 2.6zM950.2 192.7h3.5v7.1h2.7v1h-6.7v-1h2.7v-6.1h-2.1v-1zm2.1-3.2h1.3v1.7h-1.3v-1.7z"/><path class="st2" d="M672.7 182.5h136.5v26.7h-136.5z"/><path d="M711 189.9h6.4v1.2h-5v2.9h4.5v1.2h-4.5v5.5h-1.4v-10.8zM720.7 192.7h3.5v7.1h2.7v1h-6.7v-1h2.7v-6.1h-2.1v-1zm2.1-3.2h1.3v1.7h-1.3v-1.7zM735.9 194.3c-.3-.2-.6-.4-.9-.5s-.6-.2-1-.2c-.8 0-1.5.3-1.9.8s-.7 1.3-.7 2.3v4.1h-1.4v-8.2h1.4v1.6c.2-.6.6-1 1-1.3.5-.3 1-.5 1.7-.5.3 0 .6 0 .9.1s.6.2.8.4v1.4zM744.6 196.1v.7h-5.8c0 1.1.2 1.9.6 2.4.5.5 1.1.7 2 .7.4 0 .9-.1 1.3-.2s1-.3 1.5-.6v1.3c-.5.2-1 .4-1.5.5-.5.1-.9.2-1.4.2-1.3 0-2.3-.4-3-1.1s-1.1-1.8-1.1-3.2c0-1.3.4-2.4 1.1-3.1s1.6-1.2 2.8-1.2c1 0 1.9.4 2.5 1.1.7.6 1 1.5 1 2.5zm-1.3-.4c-.1-.6-.3-1.1-.6-1.5-.4-.4-.9-.6-1.5-.6s-1.2.2-1.6.6-.6.9-.7 1.5h4.4zM753.2 189.4v1.1h-1.5c-.5 0-.8.1-1 .3-.2.2-.3.5-.3 1.1v.7h2.8v1h-2.8v7.2h-1.3v-7.2h-2.2v-1h2.2v-.6c0-.9.2-1.6.6-2 .4-.4 1.1-.6 1.9-.6h1.6zM759 192.4c1.1 0 2 .4 2.6 1.1.6.7.9 1.8.9 3.2 0 1.4-.3 2.5-.9 3.2s-1.5 1.1-2.6 1.1-2-.4-2.6-1.1-.9-1.8-.9-3.2c0-1.4.3-2.5.9-3.2s1.5-1.1 2.6-1.1zm0 1.2c-.7 0-1.2.3-1.6.8s-.5 1.3-.5 2.4c0 1 .2 1.8.5 2.4.4.5.9.8 1.6.8.7 0 1.2-.3 1.6-.8.4-.5.5-1.3.5-2.4 0-1-.2-1.8-.5-2.4s-.9-.8-1.6-.8zM771.7 192.6l-2.9 3.9 3.2 4.3h-1.6l-2.4-3.3-2.4 3.3h-1.6l3.2-4.3-2.9-3.9h1.5l2.2 3 2.2-3h1.5z"/><path class="st2" d="M672.7 217.2h136.5v46.5h-136.5z"/><path d="M711 224.6h6.4v1.2h-5v2.9h4.5v1.2h-4.5v5.5h-1.4v-10.8zM720.7 227.4h3.5v7.1h2.7v1h-6.7v-1h2.7v-6.1h-2.1v-1zm2.1-3.2h1.3v1.7h-1.3v-1.7zM735.9 229c-.3-.2-.6-.4-.9-.5-.3-.1-.6-.2-1-.2-.8 0-1.5.3-1.9.8s-.7 1.3-.7 2.3v4.1h-1.4v-8.2h1.4v1.6c.2-.6.6-1 1-1.3.5-.3 1-.5 1.7-.5.3 0 .6 0 .9.1s.6.2.8.4v1.4zM744.6 230.8v.7h-5.8c0 1.1.2 1.9.6 2.4s1.1.7 2 .7c.4 0 .9-.1 1.3-.2s1-.3 1.5-.6v1.3c-.5.2-1 .4-1.5.5-.5.1-.9.2-1.4.2-1.3 0-2.3-.4-3-1.1-.7-.8-1.1-1.8-1.1-3.2 0-1.3.4-2.4 1.1-3.1s1.6-1.2 2.8-1.2c1 0 1.9.4 2.5 1.1.7.6 1 1.5 1 2.5zm-1.3-.4c-.1-.6-.3-1.1-.6-1.5-.4-.4-.9-.6-1.5-.6s-1.2.2-1.6.6-.7.9-.7 1.5h4.4zM753.2 224.1v1.1h-1.5c-.5 0-.8.1-1 .3-.2.2-.3.5-.3 1.1v.7h2.8v1h-2.8v7.2h-1.3v-7.2h-2.2v-1h2.2v-.6c0-.9.2-1.6.6-2 .4-.4 1.1-.6 1.9-.6h1.6zM759 227.1c1.1 0 2 .4 2.6 1.1s.9 1.8.9 3.2c0 1.4-.3 2.5-.9 3.2s-1.5 1.1-2.6 1.1-2-.4-2.6-1.1c-.6-.7-.9-1.8-.9-3.2 0-1.4.3-2.5.9-3.2.6-.7 1.5-1.1 2.6-1.1zm0 1.2c-.7 0-1.2.3-1.6.8s-.5 1.3-.5 2.4c0 1 .2 1.8.5 2.4.4.5.9.8 1.6.8.7 0 1.2-.3 1.6-.8.4-.5.5-1.3.5-2.4 0-1-.2-1.8-.5-2.4s-.9-.8-1.6-.8zM771.7 227.3l-2.9 3.9 3.2 4.3h-1.6l-2.4-3.3-2.4 3.3h-1.6l3.2-4.3-2.9-3.9h1.5l2.2 3 2.2-3h1.5zM714.1 242.6h2l1.9 5.6 1.9-5.6h2v10.9h-1.4v-9.6l-1.9 5.7h-1.1l-2-5.7v9.6h-1.4v-10.9zM727.4 245.1c1.1 0 2 .4 2.6 1.1s.9 1.8.9 3.2c0 1.4-.3 2.5-.9 3.2-.6.7-1.5 1.1-2.6 1.1s-2-.4-2.6-1.1c-.6-.7-.9-1.8-.9-3.2 0-1.4.3-2.5.9-3.2.6-.7 1.5-1.1 2.6-1.1zm0 1.2c-.7 0-1.2.3-1.6.8s-.5 1.3-.5 2.4c0 1 .2 1.8.5 2.4.4.5.9.8 1.6.8.7 0 1.2-.3 1.6-.8.4-.5.5-1.3.5-2.4 0-1-.2-1.8-.5-2.4s-.9-.8-1.6-.8zM734.7 246.4c.2-.4.5-.7.9-.9.4-.2.8-.3 1.3-.3 1 0 1.8.4 2.3 1.1s.8 1.8.8 3.1c0 1.4-.3 2.4-.9 3.2-.6.8-1.3 1.2-2.3 1.2-.5 0-.9-.1-1.3-.3-.4-.2-.7-.5-.9-.9v1h-1.3v-11.4h1.3v4.2zm3.9 3c0-1-.2-1.8-.5-2.4s-.8-.8-1.5-.8-1.2.3-1.5.8c-.3.5-.5 1.3-.5 2.4 0 1 .2 1.8.5 2.4s.8.8 1.5.8c.6 0 1.1-.3 1.5-.8s.5-1.3.5-2.4zM743.3 245.4h3.4v7.1h2.7v1h-6.7v-1h2.7v-6.1h-2.1v-1zm2.1-3.2h1.3v1.7h-1.3v-1.7zM755.2 250.6c0 .6.1 1.1.3 1.4.2.3.5.5 1 .5h1.6v1.1h-1.7c-.8 0-1.4-.3-1.9-.8-.4-.5-.7-1.2-.7-2.2v-7.4h-2.2v-1.1h3.5v8.5zM767.2 248.8v.7h-5.8c0 1.1.2 1.9.6 2.4.5.5 1.1.7 2 .7.4 0 .9-.1 1.3-.2s1-.3 1.5-.6v1.3c-.5.2-1 .4-1.5.5-.5.1-.9.2-1.4.2-1.3 0-2.3-.4-3-1.1-.7-.8-1.1-1.8-1.1-3.2 0-1.3.4-2.4 1.1-3.1s1.6-1.2 2.8-1.2c1 0 1.9.4 2.5 1.1s1 1.5 1 2.5zm-1.3-.4c-.1-.6-.3-1.1-.6-1.5-.4-.4-.9-.6-1.5-.6s-1.2.2-1.6.6-.6.9-.7 1.5h4.4z"/><path class="st2" d="M464.2 237.2h136.5v26.7h-136.5z"/><path d="M515.8 244.6h6.5v1.2h-5v2.9h4.8v1.2h-4.8v4.3h5.1v1.2h-6.6v-10.8zM529.7 248.4v-4.2h1.3v11.4h-1.3v-1c-.2.4-.5.7-.9.9-.4.2-.8.3-1.3.3-1 0-1.8-.4-2.3-1.2-.6-.8-.9-1.8-.9-3.2 0-1.3.3-2.4.9-3.1s1.3-1.1 2.3-1.1c.5 0 .9.1 1.3.3.4.2.7.5.9.9zm-3.9 3c0 1 .2 1.8.5 2.4s.8.8 1.5.8 1.1-.3 1.5-.8c.3-.5.5-1.3.5-2.4 0-1-.2-1.8-.5-2.4-.3-.5-.8-.8-1.5-.8s-1.1.3-1.5.8-.5 1.4-.5 2.4zM540.1 255c0 1.2-.3 2.2-.9 2.8s-1.4 1-2.6 1c-.4 0-.8 0-1.2-.1l-1.2-.3v-1.4c.5.2.9.4 1.3.5s.8.2 1.1.2c.7 0 1.3-.2 1.6-.6s.5-1 .5-1.9v-1c-.2.5-.5.8-.9 1s-.8.3-1.4.3c-1 0-1.7-.4-2.3-1.2s-.9-1.8-.9-3.1.3-2.3.9-3.1 1.3-1.1 2.3-1.1c.5 0 1 .1 1.3.3s.7.5.9 1v-1.1h1.3v7.8zm-1.4-3.6c0-1-.2-1.8-.5-2.3-.3-.5-.8-.8-1.4-.8-.7 0-1.2.3-1.5.8s-.5 1.3-.5 2.3.2 1.8.5 2.3c.3.5.9.8 1.5.8s1.1-.3 1.4-.8c.4-.5.5-1.3.5-2.3zM549.7 250.8v.7h-5.8c0 1.1.2 1.9.6 2.4.5.5 1.1.7 2 .7.4 0 .9-.1 1.3-.2s1-.3 1.5-.6v1.3c-.5.2-1 .4-1.5.5-.5.1-.9.2-1.4.2-1.3 0-2.3-.4-3-1.1-.7-.8-1.1-1.8-1.1-3.2 0-1.3.4-2.4 1.1-3.1s1.6-1.2 2.8-1.2c1 0 1.9.4 2.5 1.1.6.6 1 1.5 1 2.5zm-1.3-.4c-.1-.6-.3-1.1-.6-1.5-.4-.4-.9-.6-1.5-.6s-1.2.2-1.6.6-.6.9-.7 1.5h4.4zM419.7 349.4l1.6-8.1h1.8l-1.6 8.1c0 .1 0 .2-.1.4-.2.9-.3 1.5-.3 1.9 0 .5.2.9.5 1.2s.8.4 1.4.4c.5 0 1-.1 1.3-.2s.7-.4.9-.8c.1-.2.3-.5.4-.9s.3-1.1.4-1.9l1.6-8.1h1.8l-1.6 8.1c-.2 1.3-.5 2.2-.8 2.8s-.6 1.1-1.1 1.5c-.4.3-.9.6-1.4.8s-1.1.3-1.7.3c-1.1 0-2-.3-2.6-.8s-.9-1.3-.9-2.2c0-.2 0-.5.1-.9s.2-1 .3-1.6zM439 345l-.3 1.6c-.4-.3-.9-.5-1.3-.6s-.9-.2-1.4-.2c-.8 0-1.4.1-1.9.4s-.7.7-.7 1.3c0 .6.6 1 1.9 1.4.1 0 .2 0 .2.1l.6.2c.7.2 1.2.5 1.5.8s.5.8.5 1.3c0 1.1-.4 1.9-1.3 2.6s-2 1-3.4 1c-.5 0-1-.1-1.5-.2s-1.1-.3-1.6-.5l.3-1.7c.6.3 1.1.5 1.6.7s1 .2 1.5.2c.8 0 1.4-.2 1.9-.5s.7-.8.7-1.3c0-.6-.6-1-1.7-1.3-.1 0-.2 0-.2-.1l-.6-.2c-.8-.2-1.3-.5-1.7-.9s-.5-.9-.5-1.5c0-1 .4-1.8 1.2-2.4s1.8-.9 3.1-.9c.5 0 1 0 1.5.1s1.2.4 1.6.6zM448.8 354c-.6.3-1.2.4-1.8.6s-1.2.2-1.8.2c-1.3 0-2.3-.3-3-1s-1-1.6-1-2.9c0-.9.2-1.8.5-2.7s.8-1.6 1.5-2.3c.5-.5 1-.9 1.6-1.2s1.2-.4 1.8-.4c1.1 0 2 .3 2.6 1s1 1.6 1 2.7v.7s-.1.7-.1 1.1h-7.1c0 .2-.1.4-.1.5v.4c0 .8.2 1.4.7 1.9s1.1.6 2 .6c.5 0 1.1-.1 1.7-.2s1.3-.4 1.9-.7l-.4 1.7zm-.2-5.3c0-.2.1-.3.1-.4v-.3c0-.7-.2-1.3-.6-1.6s-.9-.6-1.6-.6c-.7 0-1.4.3-2 .8s-1 1.2-1.3 2.1h5.4zM461.6 346.7c-.3-.3-.6-.5-.9-.6s-.7-.2-1.2-.2c-1 0-1.8.3-2.5 1s-1.1 1.6-1.4 2.8l-.9 4.8h-1.6l1.9-9.8h1.6l-.4 1.9c.4-.7.9-1.2 1.5-1.6s1.3-.6 2.1-.6c.4 0 .8.1 1.1.2s.6.3.9.5l-.2 1.6zM476.1 344.6h4.1l-1.7 8.6h3.2l-.3 1.3h-8l.3-1.3h3.2l1.4-7.3h-2.5l.3-1.3zm3.2-3.8h1.6l-.4 2h-1.6l.4-2zM493.2 348.4l-1.2 6.1h-1.6l1.2-6.1v-.1c.1-.4.1-.7.1-1 0-.5-.1-.8-.4-1.1s-.7-.4-1.2-.4c-.7 0-1.4.3-1.9.8s-.9 1.3-1.1 2.3l-1.1 5.6h-1.6l1.9-9.8h1.6l-.3 1.5c.4-.6.9-1 1.4-1.3s1.1-.4 1.6-.4c.8 0 1.4.2 1.9.6s.7 1 .7 1.8v.7s.1.5 0 .8zM501.3 341.8l-.5 2.8h3.7l-.2 1.3h-3.7l-1 5.3-.1.5v.4c0 .4.1.7.3.8s.6.2 1.2.2h1.8l-.3 1.3h-2c-1 0-1.7-.2-2.2-.5s-.7-.8-.7-1.5v-.5s.1-.4.1-.7l1-5.3h-2.6l.2-1.3h2.6l.5-2.8h1.9zM513.9 354c-.6.3-1.2.4-1.8.6s-1.2.2-1.8.2c-1.3 0-2.3-.3-3-1s-1-1.6-1-2.9c0-.9.2-1.8.5-2.7s.8-1.6 1.5-2.3c.5-.5 1-.9 1.6-1.2s1.2-.4 1.8-.4c1.1 0 2 .3 2.6 1s1 1.6 1 2.7v.7s-.1.7-.2 1.1h-7.1c0 .2-.1.4-.1.5v.4c0 .8.2 1.4.7 1.9s1.1.6 2 .6c.5 0 1.1-.1 1.7-.2s1.3-.4 1.9-.7l-.3 1.7zm-.2-5.3c0-.2.1-.3.1-.4v-.3c0-.7-.2-1.3-.6-1.6s-.9-.6-1.6-.6c-.7 0-1.4.3-2 .8s-1 1.2-1.3 2.1h5.4zM526.7 346.7c-.3-.3-.6-.5-.9-.6s-.7-.2-1.2-.2c-1 0-1.8.3-2.5 1s-1.1 1.6-1.4 2.8l-.9 4.8h-1.6l1.9-9.8h1.6l-.4 1.9c.4-.7.9-1.2 1.5-1.6s1.3-.6 2.1-.6c.4 0 .8.1 1.1.2s.6.3.9.5l-.2 1.6zM538 340.8l-.3 1.3h-1.8c-.6 0-1 .1-1.3.4s-.5.7-.6 1.3l-.2.9h3.4l-.2 1.3h-3.4l-1.7 8.6h-1.6l1.7-8.6h-2.6l.3-1.3h2.6l.1-.7c.2-1.1.6-1.9 1.2-2.4s1.4-.7 2.5-.7h1.9zM547.3 348.9l-1.1 5.6h-1.6l.3-1.5c-.4.6-.9 1-1.5 1.3s-1.2.4-1.8.4c-.9 0-1.6-.2-2.1-.7s-.8-1.1-.8-1.9c0-1.1.5-2.1 1.4-2.8s2.1-1 3.7-1h2.2l.1-.5v-.4c0-.5-.2-.9-.6-1.1s-.9-.4-1.6-.4c-.5 0-1 .1-1.6.2s-1.2.4-1.8.7l.3-1.6c.6-.2 1.2-.4 1.8-.5s1.1-.2 1.6-.2c1.1 0 1.9.2 2.5.7s.9 1.1.9 2c0 .2 0 .4-.1.7s-.2.6-.2 1zm-3.3.6c-.7 0-1.2 0-1.6.1s-.6.1-.9.2c-.4.2-.7.4-1 .8s-.4.8-.4 1.2c0 .5.2.9.5 1.2s.7.4 1.2.4c.9 0 1.6-.3 2.2-.9s1.1-1.5 1.3-2.6l.1-.4h-1.4zM557 354c-.4.2-.9.4-1.4.5s-1 .2-1.5.2c-1.3 0-2.3-.3-3-1s-1-1.6-1-2.9c0-.9.2-1.7.5-2.6s.7-1.5 1.3-2.1c.5-.6 1.1-1 1.8-1.3s1.4-.4 2.1-.4c.5 0 1 .1 1.5.2s1 .3 1.4.6l-.3 1.6c-.4-.3-.8-.6-1.2-.7s-.9-.2-1.4-.2c-.6 0-1.2.1-1.7.4s-.9.7-1.3 1.2c-.3.5-.6 1-.8 1.6s-.3 1.2-.3 1.8c0 .8.2 1.5.6 1.9s1 .6 1.8.6c.6 0 1.1-.1 1.6-.3s1-.5 1.5-.8l-.2 1.7zM568 354c-.6.3-1.2.4-1.8.6s-1.2.2-1.8.2c-1.3 0-2.3-.3-3-1s-1-1.6-1-2.9c0-.9.2-1.8.5-2.7s.8-1.6 1.5-2.3c.5-.5 1-.9 1.6-1.2s1.2-.4 1.8-.4c1.1 0 2 .3 2.6 1s1 1.6 1 2.7v.7s-.1.7-.1 1.1h-7.1c0 .2-.1.4-.1.5v.4c0 .8.2 1.4.7 1.9s1.1.6 2 .6c.5 0 1.1-.1 1.7-.2s1.3-.4 1.9-.7l-.4 1.7zm-.2-5.3c0-.2.1-.3.1-.4v-.3c0-.7-.2-1.3-.6-1.6s-.9-.6-1.6-.6c-.7 0-1.4.3-2 .8s-1 1.2-1.3 2.1h5.4zM579.9 345l-.3 1.6c-.4-.3-.9-.5-1.3-.6s-.9-.2-1.4-.2c-.8 0-1.4.1-1.9.4s-.7.7-.7 1.3c0 .6.6 1 1.9 1.4.1 0 .2 0 .2.1l.6.2c.7.2 1.2.5 1.5.8s.5.8.5 1.3c0 1.1-.4 1.9-1.3 2.6s-2 1-3.4 1c-.5 0-1-.1-1.5-.2s-1.1-.3-1.6-.5l.3-1.7c.6.3 1.1.5 1.6.7s1 .2 1.5.2c.8 0 1.4-.2 1.9-.5s.7-.8.7-1.3c0-.6-.6-1-1.7-1.3-.1 0-.2 0-.2-.1l-.3-.2c-.8-.2-1.3-.5-1.7-.9s-.5-.9-.5-1.5c0-1 .4-1.8 1.2-2.4s1.8-.9 3.1-.9c.5 0 1 0 1.5.1s.9.4 1.3.6z"/><path class="st3" d="M449 229v22"/><path class="st4" d="M449 251h13"/><path class="st5" d="M458 254l3.4-3-3.4-3h2.9l3.4 3-3.4 3z"/><path class="st4" d="M419 196h13"/><path class="st5" d="M428 199l3.4-3-3.4-3h2.9l3.4 3-3.4 3z"/><path class="st3" d="M419 81v115"/><path class="st4" d="M586 80v155"/><path class="st5" d="M583 231l3 3.4 3-3.4v2.9l-3 3.3-3-3.3z"/><path class="st4" d="M965 80v100"/><path class="st5" d="M962 176.3l3 3.4 3-3.4v2.8l-3 3.4-3-3.4z"/><path class="st6" d="M20 53.9h70.5v26.7h-70.5z"/><path d="M33.7 61.3h1.5v4.9l4.6-4.9h1.7l-4.3 4.5 4.4 6.5h-1.8l-3.6-5.5-1.1 1.2v4.3h-1.5v-11zM42.7 61.3h1.5v4.2h4.1v-4.2h1.5v10.9h-1.5v-5.5h-4.1v5.5h-1.5v-10.9zM51.1 61.3h8.3v1.2h-3.4v9.7h-1.5v-9.7h-3.4v-1.2zM60 61.3h2l1.9 5.6 1.9-5.6h2v10.9h-1.4v-9.6l-1.9 5.7h-1.1l-2-5.7v9.6h-1.4v-10.9zM70.4 61.3h1.5v9.7h5.3v1.2h-6.8v-10.9z"/><path class="st2" d="M51.3 182.5h136.5v26.7h-136.5z"/><path d="M99.8 190.3v1.5c-.4-.3-.9-.5-1.4-.7s-.9-.2-1.4-.2c-.7 0-1.2.2-1.7.5s-.6.8-.6 1.3.1.9.4 1.1c.3.3.8.5 1.5.6l.8.2c1 .2 1.8.6 2.2 1.1s.7 1.2.7 2.1c0 1-.3 1.8-1 2.4s-1.6.8-2.8.8c-.5 0-1-.1-1.5-.2s-1-.3-1.6-.5v-1.6c.6.4 1.1.6 1.6.8s1 .2 1.5.2c.7 0 1.3-.2 1.7-.5s.6-.8.6-1.4c0-.5-.1-1-.4-1.3-.3-.3-.8-.5-1.5-.7l-.8-.2c-1-.2-1.8-.6-2.2-1s-.7-1.1-.7-1.9c0-1 .3-1.8 1-2.3s1.5-.9 2.6-.9c.4 0 .9 0 1.3.1.7.3 1.2.5 1.7.7zM109.2 196.2v4.7h-1.4v-1.2c-.3.5-.7.8-1.1 1.1-.4.2-1 .3-1.6.3-.8 0-1.5-.2-2-.7s-.7-1.1-.7-1.9c0-.9.3-1.6.9-2.1.6-.5 1.5-.7 2.7-.7h1.8v-.2c0-.7-.2-1.1-.5-1.4-.3-.3-.8-.4-1.6-.4-.5 0-.9.1-1.4.2s-.9.3-1.4.6v-1.5c.5-.2 1-.3 1.4-.4.5-.1.9-.1 1.3-.1.7 0 1.3.1 1.7.3s.9.5 1.2.9c.2.2.3.5.4.9.3.3.3.8.3 1.6zm-2.6.5h-.4c-.8 0-1.4.1-1.8.4-.4.3-.6.7-.6 1.2s.1.9.4 1.1.7.4 1.2.4c.7 0 1.3-.3 1.8-.8.4-.5.6-1.2.6-2.1v-.3h-1.2zM118.2 189.4v1.1h-1.5c-.5 0-.8.1-1 .3-.2.2-.3.5-.3 1.1v.7h2.8v1h-2.8v7.2h-1.3v-7.2h-2.2v-1h2.2v-.6c0-.9.2-1.6.6-2 .4-.4 1.1-.6 1.9-.6h1.6zM127.3 196.2v4.7h-1.4v-1.2c-.3.5-.7.8-1.1 1.1-.4.2-1 .3-1.6.3-.8 0-1.5-.2-2-.7s-.7-1.1-.7-1.9c0-.9.3-1.6.9-2.1.6-.5 1.5-.7 2.7-.7h1.8v-.2c0-.7-.2-1.1-.5-1.4-.3-.3-.8-.4-1.6-.4-.5 0-.9.1-1.4.2s-.9.3-1.4.6v-1.5c.5-.2 1-.3 1.4-.4.5-.1.9-.1 1.3-.1.7 0 1.3.1 1.7.3s.9.5 1.2.9c.2.2.3.5.4.9.2.3.3.8.3 1.6zm-2.7.5h-.4c-.8 0-1.4.1-1.8.4-.4.3-.6.7-.6 1.2s.1.9.4 1.1.7.4 1.2.4c.7 0 1.3-.3 1.8-.8.4-.5.6-1.2.6-2.1v-.3h-1.2zM137 194.3c-.3-.2-.6-.4-.9-.5s-.6-.2-1-.2c-.8 0-1.5.3-1.9.8s-.7 1.3-.7 2.3v4.1h-1.4v-8.2h1.4v1.6c.2-.6.6-1 1-1.3.5-.3 1-.5 1.7-.5.3 0 .6 0 .9.1s.6.2.8.4v1.4zM139.9 192.7h3.4v7.1h2.7v1h-6.7v-1h2.7v-6.1h-2.1v-1zm2.1-3.2h1.3v1.7h-1.3v-1.7z"/><path class="st2" d="M51.3 217.2h136.5v26.7h-136.5z"/><path d="M91.5 224.6h1.8l3.3 10.9h-1.5l-.8-2.8h-3.8l-.8 2.8h-1.5l3.3-10.9zm.9 1.3l-1.6 5.6h3.2l-1.6-5.6zM104.6 230.5v5.1h-1.4v-5.1c0-.7-.1-1.3-.4-1.6s-.7-.5-1.2-.5c-.6 0-1.1.2-1.5.7-.3.4-.5 1.1-.5 1.9v4.6h-1.3v-8.2h1.3v1.2c.2-.5.6-.8 1-1.1.4-.2.9-.4 1.5-.4.8 0 1.5.3 1.9.8.4.6.6 1.4.6 2.6zM112.2 228.4v-4.2h1.3v11.4h-1.3v-1c-.2.4-.5.7-.9.9-.4.2-.8.3-1.3.3-1 0-1.8-.4-2.3-1.2-.6-.8-.9-1.8-.9-3.2 0-1.3.3-2.4.9-3.1s1.4-1.1 2.3-1.1c.5 0 .9.1 1.3.3.4.2.7.5.9.9zm-3.9 3c0 1 .2 1.8.5 2.4s.8.8 1.5.8 1.1-.3 1.5-.8c.3-.5.5-1.3.5-2.4 0-1-.2-1.8-.5-2.4-.3-.5-.8-.8-1.5-.8s-1.1.3-1.5.8-.5 1.4-.5 2.4zM123.4 229c-.3-.2-.6-.4-.9-.5s-.6-.2-1-.2c-.8 0-1.5.3-1.9.8s-.7 1.3-.7 2.3v4.1h-1.4v-8.2h1.4v1.6c.2-.6.6-1 1-1.3.5-.3 1-.5 1.7-.5.3 0 .6 0 .9.1s.6.2.8.4v1.4zM128.5 227.1c1.1 0 2 .4 2.6 1.1.6.7.9 1.8.9 3.2 0 1.4-.3 2.5-.9 3.2s-1.5 1.1-2.6 1.1-2-.4-2.6-1.1-.9-1.8-.9-3.2c0-1.4.3-2.5.9-3.2s1.5-1.1 2.6-1.1zm0 1.2c-.7 0-1.2.3-1.6.8s-.5 1.3-.5 2.4c0 1 .2 1.8.5 2.4.4.5.9.8 1.6.8.7 0 1.2-.3 1.6-.8.4-.5.5-1.3.5-2.4 0-1-.2-1.8-.5-2.4s-.9-.8-1.6-.8zM135.4 227.4h3.4v7.1h2.7v1h-6.7v-1h2.7v-6.1h-2.1v-1zm2.1-3.2h1.3v1.7h-1.3v-1.7zM148.4 228.4v-4.2h1.3v11.4h-1.3v-1c-.2.4-.5.7-.9.9-.4.2-.8.3-1.3.3-1 0-1.8-.4-2.3-1.2-.6-.8-.9-1.8-.9-3.2 0-1.3.3-2.4.9-3.1s1.4-1.1 2.3-1.1c.5 0 .9.1 1.3.3.3.2.6.5.9.9zm-4 3c0 1 .2 1.8.5 2.4s.8.8 1.5.8 1.1-.3 1.5-.8c.3-.5.5-1.3.5-2.4 0-1-.2-1.8-.5-2.4-.3-.5-.8-.8-1.5-.8s-1.1.3-1.5.8-.5 1.4-.5 2.4z"/><path class="st2" d="M51.3 252h136.5v26.7h-136.5z"/><path d="M75.4 266.1v-6.7h1.5v8.5c0 .2.1.4.2.5.2.3.4.5.7.7s.7.2 1.1.2c.4 0 .8-.1 1.1-.2s.5-.4.7-.7c.1-.1.1-.3.2-.5v-8.5h1.5v6.7c0 1.1-.1 1.9-.2 2.4s-.4.9-.7 1.2c-.3.3-.7.5-1.1.6s-.9.2-1.4.2c-.5 0-1-.1-1.4-.2s-.8-.4-1.1-.6c-.3-.3-.6-.7-.7-1.2-.3-.5-.4-1.3-.4-2.4zM91.2 269.9c-.4.2-.8.4-1.2.5s-.8.2-1.3.2c-1.4 0-2.5-.5-3.3-1.5s-1.2-2.4-1.2-4.2c0-1.8.4-3.2 1.2-4.2.8-1 1.9-1.5 3.3-1.5.4 0 .9.1 1.3.2s.8.2 1.2.5v1.5c-.4-.3-.7-.5-1.2-.7s-.8-.2-1.3-.2c-1 0-1.7.4-2.2 1.1s-.7 1.9-.7 3.4.2 2.6.7 3.4 1.2 1.1 2.2 1.1c.4 0 .9-.1 1.3-.2s.8-.4 1.2-.7v1.3zM102.6 259.3h3.2c1.1 0 2 .2 2.6.7s.9 1.2.9 2.1c0 .5-.2.9-.5 1.3s-.8.6-1.4.7c.7.1 1.3.4 1.7.9.4.5.6 1.2.6 2.2 0 1-.3 1.7-1 2.2-.6.5-1.6.8-2.9.8h-3.2v-10.9zm1.5 1.2v3h1.7c.7 0 1.2-.1 1.5-.4s.5-.6.5-1c0-.6-.2-.9-.5-1.2-.3-.2-.8-.4-1.6-.4h-1.6zm0 4.2v4.3h1.8c.9 0 1.5-.2 1.8-.5.4-.3.5-.8.5-1.5 0-.9-.2-1.5-.6-1.9-.4-.3-1-.5-1.8-.5h-1.7zM118.9 263.7c-.3-.2-.6-.4-.9-.5s-.6-.2-1-.2c-.8 0-1.5.3-1.9.8s-.7 1.3-.7 2.3v4.1h-1.4v-8.2h1.4v1.6c.2-.6.6-1 1-1.3.5-.3 1-.5 1.7-.5.3 0 .6 0 .9.1s.6.2.8.4v1.4zM124 261.9c1.1 0 2 .4 2.6 1.1.6.7.9 1.8.9 3.2 0 1.4-.3 2.5-.9 3.2-.6.7-1.5 1.1-2.6 1.1s-2-.4-2.6-1.1c-.6-.7-.9-1.8-.9-3.2 0-1.4.3-2.5.9-3.2s1.5-1.1 2.6-1.1zm0 1.1c-.7 0-1.2.3-1.6.8s-.5 1.3-.5 2.4c0 1 .2 1.8.5 2.4.4.5.9.8 1.6.8.7 0 1.2-.3 1.6-.8.4-.5.5-1.3.5-2.4 0-1-.2-1.8-.5-2.4s-.9-.8-1.6-.8zM128.5 262h1.3l1.4 6.6 1.2-4.2h1.1l1.2 4.2 1.4-6.6h1.3l-1.9 8.2h-1.3l-1.3-4.5-1.3 4.5h-1.3l-1.8-8.2zM144.7 262.3v1.3c-.4-.2-.8-.4-1.2-.5s-.8-.2-1.2-.2c-.6 0-1.1.1-1.4.3-.3.2-.5.5-.5.9s.1.6.3.8.8.4 1.7.5l.5.1c.7.1 1.2.4 1.5.8.3.4.5.9.5 1.5 0 .8-.3 1.4-.9 1.9-.6.5-1.4.7-2.4.7-.4 0-.8 0-1.3-.1-.4-.1-.9-.2-1.4-.4v-1.4c.5.3 1 .5 1.4.6.5.1.9.2 1.3.2.6 0 1.1-.1 1.4-.4.3-.2.5-.6.5-1 0-.6-.6-1.1-1.8-1.3h-.1l-.5-.1c-.8-.2-1.3-.4-1.7-.8-.4-.4-.5-.8-.5-1.5 0-.8.3-1.4.8-1.8.5-.4 1.3-.6 2.3-.6.4 0 .9 0 1.3.1.6.2 1 .3 1.4.4zM154.8 265.5v.7h-5.8c0 1.1.2 1.9.6 2.4.5.5 1.1.7 2 .7.4 0 .9-.1 1.3-.2s1-.3 1.5-.6v1.3c-.5.2-1 .4-1.5.5-.5.1-.9.2-1.4.2-1.3 0-2.3-.4-3-1.1-.7-.8-1.1-1.8-1.1-3.2 0-1.3.4-2.4 1.1-3.1s1.6-1.2 2.8-1.2c1 0 1.9.4 2.5 1.1.6.6 1 1.5 1 2.5zm-1.4-.4c-.1-.6-.3-1.1-.6-1.5-.4-.4-.9-.6-1.5-.6s-1.2.2-1.6.6-.6.9-.7 1.5h4.4zM164.1 263.7c-.3-.2-.6-.4-.9-.5s-.6-.2-1-.2c-.8 0-1.5.3-1.9.8s-.7 1.3-.7 2.3v4.1h-1.4v-8.2h1.4v1.6c.2-.6.6-1 1-1.3.5-.3 1-.5 1.7-.5.3 0 .6 0 .9.1s.6.2.8.4v1.4z"/><path class="st2" d="M51.3 286.7h136.5v26.7h-136.5z"/><path d="M75.6 294h3.2c1.1 0 2 .2 2.6.7s.9 1.2.9 2.1c0 .5-.2.9-.5 1.3s-.8.6-1.4.7c.7.1 1.3.4 1.7.9.4.5.6 1.2.6 2.2 0 1-.3 1.7-1 2.2-.6.5-1.6.8-2.9.8h-3.2v-10.9zm1.4 1.2v3h1.7c.7 0 1.2-.1 1.5-.4s.5-.6.5-1c0-.6-.2-1-.5-1.2-.3-.2-.8-.4-1.6-.4h-1.6zm0 4.2v4.3h1.8c.9 0 1.5-.2 1.8-.5.4-.3.5-.8.5-1.5 0-.9-.2-1.5-.6-1.9-.4-.3-1-.5-1.8-.5h-1.7zM88.6 302c0 .6.1 1.1.3 1.4.2.3.6.5 1 .5h1.6v1.1h-1.7c-.8 0-1.4-.3-1.9-.8-.4-.5-.7-1.2-.7-2.2v-7.4h-2.2v-1.1h3.5v8.5zM100.2 300.3v4.7h-1.4v-1.2c-.3.5-.7.8-1.1 1.1s-1 .3-1.6.3c-.8 0-1.5-.2-2-.7-.5-.5-.7-1.1-.7-1.9 0-.9.3-1.6.9-2.1.6-.5 1.5-.7 2.7-.7h1.8v-.2c0-.7-.2-1.1-.5-1.4-.3-.3-.8-.4-1.6-.4-.5 0-.9.1-1.4.2s-.9.3-1.4.6v-1.3c.5-.2 1-.3 1.4-.4.5-.1.9-.1 1.3-.1.7 0 1.3.1 1.7.3s.9.5 1.2.9c.2.2.3.5.4.9.2.1.3.7.3 1.4zm-2.7.5h-.4c-.8 0-1.4.1-1.8.4-.4.3-.6.7-.6 1.2s.1.9.4 1.1.7.4 1.2.4c.7 0 1.3-.3 1.8-.8.4-.5.6-1.2.6-2.1v-.3h-1.2zM109.2 304.5c-.4.2-.7.4-1.1.5-.4.1-.8.2-1.2.2-1.3 0-2.3-.4-3-1.1s-1.1-1.8-1.1-3.2.4-2.4 1.1-3.2 1.7-1.1 3-1.1c.4 0 .8.1 1.2.2s.8.3 1.1.5v1.4c-.4-.3-.7-.5-1.1-.7-.4-.1-.8-.2-1.2-.2-.8 0-1.5.3-1.9.8s-.7 1.3-.7 2.3c0 1 .2 1.8.7 2.3.5.5 1.1.8 1.9.8.5 0 .9-.1 1.3-.2s.7-.4 1-.7v1.4zM112.2 293.6h1.4v6.6l3.5-3.4h1.6l-3.2 3.1 3.7 5.1h-1.6l-3-4.2-1 .9v3.3h-1.4v-11.4zM120.7 294h3.2c1.1 0 2 .2 2.6.7s.9 1.2.9 2.1c0 .5-.2.9-.5 1.3s-.8.6-1.4.7c.7.1 1.3.4 1.7.9.4.5.6 1.2.6 2.2 0 1-.3 1.7-1 2.2-.6.5-1.6.8-2.9.8h-3.2v-10.9zm1.5 1.2v3h1.7c.7 0 1.2-.1 1.5-.4s.5-.6.5-1c0-.6-.2-1-.5-1.2-.3-.2-.8-.4-1.6-.4h-1.6zm0 4.2v4.3h1.8c.9 0 1.5-.2 1.8-.5.4-.3.5-.8.5-1.5 0-.9-.2-1.5-.6-1.9-.4-.3-1-.5-1.8-.5h-1.7zM136.7 300.2v.7h-5.8c0 1.1.2 1.9.6 2.4.5.5 1.1.7 2 .7.4 0 .9-.1 1.3-.2s1-.3 1.5-.6v1.3c-.5.2-1 .4-1.5.5-.5.1-.9.2-1.4.2-1.3 0-2.3-.4-3-1.1-.7-.8-1.1-1.8-1.1-3.2 0-1.3.4-2.4 1.1-3.1s1.6-1.2 2.8-1.2c1 0 1.9.4 2.5 1.1.7.6 1 1.5 1 2.5zm-1.3-.4c-.1-.6-.3-1.1-.6-1.5-.4-.4-.9-.6-1.5-.6s-1.2.2-1.6.6-.6.9-.7 1.5h4.4zM146 298.5c-.3-.2-.6-.4-.9-.5s-.6-.2-1-.2c-.8 0-1.5.3-1.9.8s-.7 1.3-.7 2.3v4.1h-1.4v-8.2h1.4v1.6c.2-.6.6-1 1-1.3.5-.3 1-.5 1.7-.5.3 0 .6 0 .9.1s.6.2.8.4v1.4zM155 298.5c-.3-.2-.6-.4-.9-.5s-.6-.2-1-.2c-.8 0-1.5.3-1.9.8s-.7 1.3-.7 2.3v4.1h-1.4v-8.2h1.4v1.6c.2-.6.6-1 1-1.3.5-.3 1-.5 1.7-.5.3 0 .6 0 .9.1s.6.2.8.4v1.4zM161.9 302.3c-.2.6-.5 1.3-.9 2.3-.5 1.3-.8 2.1-1 2.4-.2.4-.5.7-.8.9s-.7.3-1.2.3h-1v-1.2h.8c.4 0 .7-.1.9-.3s.5-.8.9-1.8l-3.2-8.1h1.4l2.4 6.4 2.4-6.4h1.4l-2.1 5.5z"/><path class="st2" d="M51.3 321.4h136.5v26.7h-136.5z"/><path d="M95.3 329.1v1.5c-.4-.3-.9-.5-1.4-.7s-.9-.2-1.4-.2c-.7 0-1.2.2-1.7.5-.4.3-.6.8-.6 1.3s.1.9.4 1.1c.3.3.8.5 1.5.6l.8.2c1 .2 1.8.6 2.2 1.1s.7 1.2.7 2.1c0 1-.3 1.8-1 2.4s-1.6.8-2.8.8c-.5 0-1-.1-1.5-.2s-1-.3-1.6-.5v-1.6c.6.4 1.1.6 1.6.8s1 .2 1.5.2c.7 0 1.3-.2 1.7-.5.4-.3.6-.8.6-1.4 0-.5-.1-1-.4-1.3-.3-.3-.8-.5-1.5-.7l-.8-.2c-1-.2-1.8-.6-2.2-1s-.7-1.1-.7-1.9c0-1 .3-1.8 1-2.3.7-.6 1.5-.9 2.6-.9.4 0 .9 0 1.3.1.7.4 1.2.5 1.7.7zM103.2 337c-.2.6-.5 1.3-.9 2.3-.5 1.3-.8 2.1-1 2.4-.2.4-.5.7-.8.9s-.7.3-1.2.3h-1.1v-1.1h.8c.4 0 .7-.1.9-.3s.5-.8.9-1.8l-3.2-8.1h1.4l2.4 6.4 2.4-6.4h1.4l-2 5.4zM110.9 332.3c.2-.4.4-.6.6-.8.3-.2.6-.3.9-.3.7 0 1.1.3 1.4.8.3.5.4 1.5.4 2.9v4.8h-1.2v-4.7c0-1.2-.1-1.9-.2-2.2-.1-.3-.4-.4-.7-.4-.4 0-.7.1-.8.5-.1.3-.2 1-.2 2.1v4.7h-1.2v-4.7c0-1.2-.1-1.9-.2-2.2-.1-.3-.4-.4-.8-.4s-.6.1-.7.5c-.1.3-.2 1-.2 2.1v4.7h-1.2v-8.2h1.2v.7c.2-.3.4-.5.6-.7.2-.2.5-.2.8-.2.4 0 .7.1.9.3s.5.4.6.7zM117.7 332.5c.2-.4.5-.7.9-.9.4-.2.8-.3 1.3-.3 1 0 1.8.4 2.3 1.1.6.8.8 1.8.8 3.1 0 1.4-.3 2.4-.9 3.2-.6.8-1.3 1.2-2.3 1.2-.5 0-.9-.1-1.3-.3-.4-.2-.7-.5-.9-.9v1h-1.3v-11.4h1.3v4.2zm4 3.1c0-1-.2-1.8-.5-2.4s-.8-.8-1.5-.8-1.1.3-1.5.8c-.3.5-.5 1.3-.5 2.4 0 1 .2 1.8.5 2.4s.8.8 1.5.8c.6 0 1.1-.3 1.5-.8s.5-1.4.5-2.4zM126.3 331.5h3.4v7.1h2.7v1h-6.7v-1h2.7v-6.1h-2.1v-1zm2.1-3.2h1.3v1.7h-1.3v-1.7zM140.8 335v4.7h-1.4v-1.2c-.3.5-.7.8-1.1 1.1-.4.2-1 .3-1.6.3-.8 0-1.5-.2-2-.7-.5-.5-.7-1.1-.7-1.9 0-.9.3-1.6.9-2.1.6-.5 1.5-.7 2.7-.7h1.8v-.2c0-.7-.2-1.1-.5-1.4-.3-.3-.8-.4-1.6-.4-.5 0-.9.1-1.4.2s-.9.3-1.4.6v-1.3c.5-.2 1-.3 1.4-.4.5-.1.9-.1 1.3-.1.7 0 1.3.1 1.7.3s.9.5 1.2.9c.2.2.3.5.4.9.3.1.3.7.3 1.4zm-2.6.5h-.4c-.8 0-1.4.1-1.8.4-.4.3-.6.7-.6 1.2s.1.9.4 1.2.7.4 1.2.4c.7 0 1.3-.3 1.8-.8.4-.5.6-1.2.6-2.1v-.3h-1.2zM149.8 334.6v5.1h-1.4v-5.1c0-.7-.1-1.3-.4-1.6s-.7-.5-1.2-.5c-.6 0-1.1.2-1.5.7-.3.4-.5 1.1-.5 1.9v4.6h-1.3v-8.2h1.3v1.2c.2-.5.6-.8 1-1.1.4-.2.9-.4 1.5-.4.8 0 1.5.3 1.9.8.4.6.6 1.5.6 2.6z"/><path class="st3" d="M35 123v212"/><path class="st4" d="M36 196h13"/><path class="st5" d="M45 199l3.4-3-3.4-3h2.9l3.4 3-3.4 3z"/><path class="st4" d="M36 231h13"/><path class="st5" d="M45 234l3.4-3-3.4-3h2.9l3.4 3-3.4 3z"/><path class="st3" d="M656 79v152"/><path class="st4" d="M657 196h13"/><path class="st5" d="M666 199l3.4-3-3.4-3h2.9l3.4 3-3.4 3z"/><path class="st4" d="M657 231h13"/><path class="st5" d="M666 234l3.4-3-3.4-3h2.9l3.4 3-3.4 3z"/><path class="st4" d="M36 265h13"/><path class="st5" d="M45 268l3.4-3-3.4-3h2.9l3.4 3-3.4 3z"/><path class="st4" d="M36 300h13"/><path class="st5" d="M45 303l3.4-3-3.4-3h2.9l3.4 3-3.4 3z"/><path class="st3" d="M36 335h13"/><path class="st5" d="M45 338l3.4-3-3.4-3h2.9l3.4 3-3.4 3z"/><path class="st6" d="M20 96.6h70.5v26.7h-70.5z"/><path d="M28.2 104h1.4l1 8.9 1.2-5.9h1.5l1.3 5.9 1-8.9h1.4l-1.6 10.9h-1.4l-1.5-6.5-1.5 6.5h-1.4l-1.4-10.9zM45.4 110.1v.7h-5.8c0 1.1.2 1.9.6 2.4.5.5 1.1.7 2 .7.4 0 .9-.1 1.3-.2s1-.3 1.5-.6v1.3c-.5.2-1 .4-1.5.5-.5.1-.9.2-1.4.2-1.3 0-2.3-.4-3-1.1s-1.1-1.8-1.1-3.2c0-1.3.4-2.4 1.1-3.1s1.6-1.2 2.8-1.2c1 0 1.9.4 2.5 1.1.6.7 1 1.5 1 2.5zm-1.4-.3c-.1-.6-.3-1.1-.6-1.5-.4-.4-.9-.6-1.5-.6s-1.2.2-1.6.6-.6.9-.7 1.5h4.4zM49 107.8c.2-.4.5-.7.9-.9.4-.2.8-.3 1.3-.3 1 0 1.8.4 2.3 1.1s.8 1.8.8 3.1c0 1.4-.3 2.4-.9 3.2-.6.8-1.3 1.2-2.3 1.2-.5 0-.9-.1-1.3-.3-.4-.2-.7-.5-.9-.9v1h-1.3v-11.4h1.4v4.2zm3.9 3c0-1-.2-1.8-.5-2.4s-.8-.8-1.5-.8-1.1.3-1.5.8c-.3.5-.5 1.3-.5 2.4 0 1 .2 1.8.5 2.4s.8.8 1.5.8c.6 0 1.1-.3 1.5-.8s.5-1.3.5-2.4zM57 103.5h1.4v6.6l3.5-3.4h1.6l-3.2 3.1 3.7 5.1h-1.6l-3-4.2-1 .9v3.3h-1.4v-11.4zM66.6 106.7h3.4v7.1h2.7v1h-6.7v-1h2.7v-6.1h-2.1v-1zm2.1-3.1h1.3v1.7h-1.3v-1.7zM77.8 104.4v2.3h3.1v1h-3.1v4.5c0 .6.1 1 .3 1.3s.6.4 1.2.4h1.5v1.1h-1.6c-1 0-1.7-.2-2.1-.6s-.6-1.1-.6-2.1v-4.5h-2.2v-1h2.2v-2.3h1.3z"/><path class="st4" d="M35 81v13"/><circle class="st5" cx="35.3" cy="94" r="3"/><path class="st3" d="M242 205v60"/><path class="st2" d="M227.7 182.5h136.5v26.7h-136.5z"/><path d="M267.7 200.4c-.4.2-.8.4-1.2.5-.4.1-.8.1-1.3.1-1.4 0-2.5-.5-3.3-1.5s-1.2-2.4-1.2-4.2c0-1.8.4-3.2 1.2-4.2.8-1 1.9-1.5 3.3-1.5.4 0 .9.1 1.3.2s.8.2 1.2.5v1.5c-.4-.3-.7-.5-1.2-.7s-.8-.2-1.3-.2c-1 0-1.7.4-2.2 1.1s-.7 1.9-.7 3.4.2 2.6.7 3.4 1.2 1.1 2.2 1.1c.4 0 .9-.1 1.3-.2s.8-.4 1.2-.7v1.4zM276.6 195.8v5.1h-1.4v-5.1c0-.7-.1-1.3-.4-1.6s-.7-.5-1.2-.5c-.6 0-1.1.2-1.5.7-.3.4-.5 1.1-.5 1.9v4.6h-1.3v-11.4h1.3v4.4c.2-.5.6-.8 1-1.1.4-.2.9-.4 1.5-.4.8 0 1.5.3 1.9.8.4.6.6 1.4.6 2.6zM286.4 194.3c-.3-.2-.6-.4-.9-.5s-.6-.2-1-.2c-.8 0-1.5.3-1.9.8s-.7 1.3-.7 2.3v4.1h-1.4v-8.2h1.4v1.6c.2-.6.6-1 1-1.3.5-.3 1-.5 1.7-.5.3 0 .6 0 .9.1s.6.2.8.4v1.4zM291.5 192.4c1.1 0 2 .4 2.6 1.1.6.7.9 1.8.9 3.2 0 1.4-.3 2.5-.9 3.2s-1.5 1.1-2.6 1.1-2-.4-2.6-1.1-.9-1.8-.9-3.2c0-1.4.3-2.5.9-3.2s1.4-1.1 2.6-1.1zm0 1.2c-.7 0-1.2.3-1.6.8s-.5 1.3-.5 2.4c0 1 .2 1.8.5 2.4.4.5.9.8 1.6.8.7 0 1.2-.3 1.6-.8.4-.5.5-1.3.5-2.4 0-1-.2-1.8-.5-2.4s-1-.8-1.6-.8zM300.9 193.5c.2-.4.4-.6.6-.8.3-.2.6-.3.9-.3.7 0 1.1.3 1.4.8.3.5.4 1.5.4 2.9v4.8h-1.2v-4.7c0-1.2-.1-1.9-.2-2.2-.1-.3-.4-.4-.7-.4-.4 0-.7.1-.8.5-.1.3-.2 1-.2 2.1v4.7h-1.2v-4.7c0-1.2-.1-1.9-.2-2.2-.1-.3-.4-.4-.8-.4s-.6.1-.7.5c-.1.3-.2 1-.2 2.1v4.7h-1.2v-8.2h1.2v.7c.2-.3.4-.5.6-.7.2-.2.5-.2.8-.2.4 0 .7.1.9.3s.5.3.6.7zM307.3 192.7h3.4v7.1h2.7v1h-6.7v-1h2.7v-6.1h-2.1v-1zm2.1-3.2h1.3v1.7h-1.3v-1.7zM315.5 197.7v-5.1h1.3v5.1c0 .7.1 1.3.4 1.6.3.3.7.5 1.2.5.6 0 1.1-.2 1.5-.7.3-.4.5-1.1.5-1.9v-4.6h1.4v8.2h-1.4v-1.2c-.2.5-.6.8-1 1.1-.4.2-.9.4-1.4.4-.8 0-1.5-.3-1.9-.8-.4-.6-.6-1.5-.6-2.6zM328 193.5c.2-.4.4-.6.6-.8.3-.2.6-.3.9-.3.7 0 1.1.3 1.4.8.3.5.4 1.5.4 2.9v4.8h-1.2v-4.7c0-1.2-.1-1.9-.2-2.2-.1-.3-.4-.4-.7-.4-.4 0-.7.1-.8.5-.1.3-.2 1-.2 2.1v4.7h-1.2v-4.7c0-1.2-.1-1.9-.2-2.2-.1-.3-.4-.4-.8-.4s-.6.1-.7.5c-.1.3-.2 1-.2 2.1v4.7h-1.2v-8.2h1.2v.7c.2-.3.4-.5.6-.7.2-.2.5-.2.8-.2.4 0 .7.1.9.3s.5.3.6.7z"/><path class="st2" d="M257.7 217.2h136.5v26.7h-136.5z"/><path d="M306.7 235.2c-.4.2-.8.4-1.2.5-.4.1-.8.1-1.3.1-1.4 0-2.5-.5-3.3-1.5s-1.2-2.4-1.2-4.2c0-1.8.4-3.2 1.2-4.2.8-1 1.9-1.5 3.3-1.5.4 0 .9.1 1.3.2s.8.2 1.2.5v1.5c-.4-.3-.7-.5-1.2-.7s-.8-.2-1.3-.2c-1 0-1.7.4-2.2 1.1s-.7 1.9-.7 3.4.2 2.6.7 3.4 1.2 1.1 2.2 1.1c.4 0 .9-.1 1.3-.2s.8-.4 1.2-.7v1.4zM315.6 230.5v5.1h-1.4v-5.1c0-.7-.1-1.3-.4-1.6s-.7-.5-1.2-.5c-.6 0-1.1.2-1.5.7-.3.4-.5 1.1-.5 1.9v4.6h-1.3v-11.4h1.3v4.4c.2-.5.6-.8 1-1.1.4-.2.9-.4 1.5-.4.8 0 1.5.3 1.9.8.4.6.6 1.4.6 2.6zM325.4 229c-.3-.2-.6-.4-.9-.5s-.6-.2-1-.2c-.8 0-1.5.3-1.9.8s-.7 1.3-.7 2.3v4.1h-1.4v-8.2h1.4v1.6c.2-.6.6-1 1-1.3.5-.3 1-.5 1.7-.5.3 0 .6 0 .9.1s.6.2.8.4v1.4zM330.5 227.1c1.1 0 2 .4 2.6 1.1.6.7.9 1.8.9 3.2 0 1.4-.3 2.5-.9 3.2s-1.5 1.1-2.6 1.1-2-.4-2.6-1.1-.9-1.8-.9-3.2c0-1.4.3-2.5.9-3.2s1.5-1.1 2.6-1.1zm0 1.2c-.7 0-1.2.3-1.6.8s-.5 1.3-.5 2.4c0 1 .2 1.8.5 2.4.4.5.9.8 1.6.8.7 0 1.2-.3 1.6-.8.4-.5.5-1.3.5-2.4 0-1-.2-1.8-.5-2.4s-.9-.8-1.6-.8zM340 228.2c.2-.4.4-.6.6-.8.3-.2.6-.3.9-.3.7 0 1.1.3 1.4.8.3.5.4 1.5.4 2.9v4.8h-1.2v-4.7c0-1.2-.1-1.9-.2-2.2-.1-.3-.4-.4-.7-.4-.4 0-.7.1-.8.5-.1.3-.2 1-.2 2.1v4.7h-1.2v-4.7c0-1.2-.1-1.9-.2-2.2-.1-.3-.4-.4-.8-.4s-.6.1-.7.5c-.1.3-.2 1-.2 2.1v4.7h-1.2v-8.2h1.2v.7c.2-.3.4-.5.6-.7.2-.2.5-.2.8-.2.4 0 .7.1.9.3s.4.3.6.7zM352.2 230.8v.7h-5.8c0 1.1.2 1.9.6 2.4.5.5 1.1.7 2 .7.4 0 .9-.1 1.3-.2s1-.3 1.5-.6v1.3c-.5.2-1 .4-1.5.5-.5.1-.9.2-1.4.2-1.3 0-2.3-.4-3-1.1s-1.1-1.8-1.1-3.2c0-1.3.4-2.4 1.1-3.1s1.6-1.2 2.8-1.2c1 0 1.9.4 2.5 1.1.7.6 1 1.5 1 2.5zm-1.3-.4c-.1-.6-.3-1.1-.6-1.5-.4-.4-.9-.6-1.5-.6s-1.2.2-1.6.6-.6.9-.7 1.5h4.4z"/><path class="st2" d="M257.7 252h136.5v26.7h-136.5z"/><path d="M311.6 264.8c0 1.9-.3 3.3-.9 4.3-.6.9-1.5 1.4-2.8 1.4s-2.2-.5-2.8-1.4-.9-2.4-.9-4.3.3-3.3.9-4.3c.6-.9 1.5-1.4 2.8-1.4 1.2 0 2.2.5 2.8 1.4.6 1 .9 2.4.9 4.3zm-1.6 0c0-1.6-.2-2.8-.5-3.4-.3-.7-.9-1-1.6-1-.7 0-1.3.3-1.6 1-.3.7-.5 1.8-.5 3.4 0 1.6.2 2.7.5 3.4.3.7.9 1 1.6 1 .8 0 1.3-.3 1.6-1 .4-.7.5-1.8.5-3.4zM315.2 269.2v4.2h-1.4v-11.4h1.4v1c.2-.4.5-.7.9-.9.4-.2.8-.3 1.3-.3 1 0 1.8.4 2.3 1.1.6.8.8 1.8.8 3.2 0 1.3-.3 2.4-.8 3.1-.6.8-1.3 1.1-2.3 1.1-.5 0-.9-.1-1.3-.3-.4-.1-.7-.4-.9-.8zm3.9-3c0-1-.2-1.8-.5-2.4-.3-.5-.8-.8-1.5-.8s-1.1.3-1.5.8c-.3.5-.5 1.3-.5 2.4 0 1 .2 1.8.5 2.4s.8.8 1.5.8c.6 0 1.1-.3 1.5-.8.4-.6.5-1.4.5-2.4zM329.7 265.5v.7h-5.8c0 1.1.2 1.9.6 2.4.5.5 1.1.7 2 .7.4 0 .9-.1 1.3-.2s1-.3 1.5-.6v1.3c-.5.2-1 .4-1.5.5-.5.1-.9.2-1.4.2-1.3 0-2.3-.4-3-1.1-.7-.8-1.1-1.8-1.1-3.2 0-1.3.4-2.4 1.1-3.1s1.6-1.2 2.8-1.2c1 0 1.9.4 2.5 1.1.6.6.9 1.5 1 2.5zm-1.4-.4c-.1-.6-.3-1.1-.6-1.5-.4-.4-.9-.6-1.5-.6s-1.2.2-1.6.6-.6.9-.7 1.5h4.4zM339 263.7c-.3-.2-.6-.4-.9-.5s-.6-.2-1-.2c-.8 0-1.5.3-1.9.8s-.7 1.3-.7 2.3v4.1h-1.4v-8.2h1.4v1.6c.2-.6.6-1 1-1.3.5-.3 1-.5 1.7-.5.3 0 .6 0 .9.1s.6.2.8.4v1.4zM347.3 265.6v4.7h-1.4v-1.3c-.3.5-.7.8-1.1 1.1-.4.2-1 .3-1.6.3-.8 0-1.5-.2-2-.7-.5-.5-.7-1.1-.7-1.9 0-.9.3-1.6.9-2.1.6-.5 1.5-.7 2.7-.7h1.8v-.2c0-.7-.2-1.1-.5-1.4-.3-.3-.8-.4-1.6-.4-.5 0-.9.1-1.4.2s-.9.3-1.4.6v-1.3c.5-.2 1-.3 1.4-.4.5-.1.9-.1 1.3-.1.7 0 1.3.1 1.7.3s.9.5 1.2.9c.2.2.3.5.4.9.2.2.3.8.3 1.5zm-2.6.5h-.4c-.8 0-1.4.1-1.8.4-.4.3-.6.7-.6 1.2s.1.9.4 1.2.7.4 1.2.4c.7 0 1.3-.3 1.8-.8.4-.5.6-1.2.6-2.1v-.3h-1.2z"/><path class="st4" d="M212 196h13"/><path class="st5" d="M221 199l3.4-3-3.4-3h2.9l3.4 3-3.4 3z"/><path class="st3" d="M212 123v73"/><path class="st4" d="M242 265h13"/><path class="st5" d="M251 268l3.4-3-3.4-3h2.9l3.4 3-3.4 3z"/><path class="st4" d="M242 231h13"/><path class="st5" d="M251 234l3.4-3-3.4-3h2.9l3.4 3-3.4 3z"/><path class="st6" d="M196.7 96.6h70.5v26.7h-70.5z"/><path d="M210.6 104h3.2c1.1 0 2 .2 2.6.7s.9 1.2.9 2.1c0 .5-.2.9-.5 1.3s-.8.6-1.4.7c.7.1 1.3.4 1.7.9.4.5.6 1.2.6 2.2 0 1-.3 1.7-1 2.2-.6.5-1.6.8-2.9.8h-3.2v-10.9zm1.5 1.2v3h1.7c.7 0 1.2-.1 1.5-.4s.5-.6.5-1c0-.6-.2-.9-.5-1.2-.3-.2-.8-.4-1.6-.4h-1.6zm0 4.2v4.3h1.8c.9 0 1.5-.2 1.8-.5.4-.3.5-.8.5-1.5 0-.9-.2-1.5-.6-1.9-.4-.3-1-.5-1.8-.5h-1.7zM223.7 112c0 .6.1 1.1.3 1.4.2.3.6.5 1 .5h1.6v1.1h-1.7c-.8 0-1.4-.3-1.9-.8s-.7-1.2-.7-2.2v-7.4h-2.2v-1.1h3.5v8.5zM229.8 106.7h3.4v7.1h2.7v1h-6.7v-1h2.7v-6.1h-2.1v-1zm2.1-3.1h1.3v1.7h-1.3v-1.7zM244.2 109.8v5.1h-1.4v-5.1c0-.7-.1-1.3-.4-1.6s-.7-.5-1.2-.5c-.6 0-1.1.2-1.5.7-.3.4-.5 1.1-.5 1.9v4.6h-1.3v-8.2h1.3v1.2c.2-.5.6-.8 1-1.1.4-.2.9-.4 1.5-.4.8 0 1.5.3 1.9.8.4.7.6 1.5.6 2.6zM247.3 103.5h1.4v6.6l3.5-3.4h1.6l-3.2 3.1 3.7 5.1h-1.6l-3-4.2-1 .9v3.3h-1.4v-11.4z"/><path class="st4" d="M91 110h103"/><circle class="st5" cx="194.2" cy="110" r="3"/><path class="st2" d="M434.2 182.5h136.5v46.5h-136.5z"/><path d="M467.8 189.9h6.1v1.2h-2.3v8.4h2.3v1.2h-6.1v-1.2h2.3v-8.4h-2.3v-1.2zM483.1 195.8v5.1h-1.4v-5.1c0-.7-.1-1.3-.4-1.6s-.7-.5-1.2-.5c-.6 0-1.1.2-1.5.7-.3.4-.5 1.1-.5 1.9v4.6h-1.3v-8.2h1.3v1.2c.2-.5.6-.8 1-1.1.4-.2.9-.4 1.5-.4.8 0 1.5.3 1.9.8.4.6.6 1.4.6 2.6zM488.9 190.3v2.3h3.1v1h-3.1v4.5c0 .6.1 1 .3 1.3s.6.4 1.2.4h1.5v1.1h-1.6c-1 0-1.7-.2-2.1-.6s-.6-1.1-.6-2.1v-4.5h-2.2v-1h2.2v-2.3h1.3zM501.6 196.1v.7h-5.8c0 1.1.2 1.9.6 2.4.5.5 1.1.7 2 .7.4 0 .9-.1 1.3-.2s1-.3 1.5-.6v1.3c-.5.2-1 .4-1.5.5-.5.1-.9.2-1.4.2-1.3 0-2.3-.4-3-1.1s-1.1-1.8-1.1-3.2c0-1.3.4-2.4 1.1-3.1s1.6-1.2 2.8-1.2c1 0 1.9.4 2.5 1.1.7.6 1 1.5 1 2.5zm-1.3-.4c-.1-.6-.3-1.1-.6-1.5-.4-.4-.9-.6-1.5-.6s-1.2.2-1.6.6-.6.9-.7 1.5h4.4zM510.9 194.3c-.3-.2-.6-.4-.9-.5s-.6-.2-1-.2c-.8 0-1.5.3-1.9.8s-.7 1.3-.7 2.3v4.1h-1.4v-8.2h1.4v1.6c.2-.6.6-1 1-1.3.5-.3 1-.5 1.7-.5.3 0 .6 0 .9.1s.6.2.8.4v1.4zM519.2 195.8v5.1h-1.4v-5.1c0-.7-.1-1.3-.4-1.6s-.7-.5-1.2-.5c-.6 0-1.1.2-1.5.7-.3.4-.5 1.1-.5 1.9v4.6h-1.3v-8.2h1.3v1.2c.2-.5.6-.8 1-1.1.4-.2.9-.4 1.5-.4.8 0 1.5.3 1.9.8.4.6.6 1.4.6 2.6zM528.7 196.1v.7h-5.8c0 1.1.2 1.9.6 2.4.5.5 1.1.7 2 .7.4 0 .9-.1 1.3-.2s1-.3 1.5-.6v1.3c-.5.2-1 .4-1.5.5-.5.1-.9.2-1.4.2-1.3 0-2.3-.4-3-1.1s-1.1-1.8-1.1-3.2c0-1.3.4-2.4 1.1-3.1s1.6-1.2 2.8-1.2c1 0 1.9.4 2.5 1.1.7.6 1 1.5 1 2.5zm-1.3-.4c-.1-.6-.3-1.1-.6-1.5-.4-.4-.9-.6-1.5-.6s-1.2.2-1.6.6-.6.9-.7 1.5h4.4zM534.1 190.3v2.3h3.1v1h-3.1v4.5c0 .6.1 1 .3 1.3s.6.4 1.2.4h1.5v1.1h-1.6c-1 0-1.7-.2-2.1-.6s-.6-1.1-.6-2.1v-4.5h-2.2v-1h2.2v-2.3h1.3zM467.8 207.9h6.5v1.2h-5v2.9h4.8v1.2h-4.8v4.3h5.1v1.2h-6.6v-10.8zM483.6 210.6l-2.9 3.9 3.2 4.3h-1.6l-2.4-3.3-2.4 3.3h-1.6l3.2-4.3-2.9-3.9h1.5l2.2 3 2.2-3h1.5zM487.1 217.8v4.2h-1.4v-11.3h1.4v1c.2-.4.5-.7.9-.9.4-.2.8-.3 1.3-.3 1 0 1.8.4 2.3 1.1.6.8.8 1.8.8 3.2 0 1.3-.3 2.4-.8 3.1-.6.8-1.3 1.1-2.3 1.1-.5 0-.9-.1-1.3-.3-.3-.2-.6-.5-.9-.9zm4-3.1c0-1-.2-1.8-.5-2.4-.3-.5-.8-.8-1.5-.8s-1.2.3-1.5.8c-.3.5-.5 1.3-.5 2.4 0 1 .2 1.8.5 2.4s.8.8 1.5.8c.6 0 1.1-.3 1.5-.8.3-.5.5-1.3.5-2.4zM498.7 215.9c0 .6.1 1.1.3 1.4.2.3.5.5 1 .5h1.6v1.1h-1.7c-.8 0-1.4-.3-1.9-.8-.4-.5-.7-1.2-.7-2.2v-7.4h-2.2v-1.1h3.5v8.5zM507 210.4c1.1 0 2 .4 2.6 1.1.6.7.9 1.8.9 3.2 0 1.4-.3 2.5-.9 3.2s-1.5 1.1-2.6 1.1-2-.4-2.6-1.1-.9-1.8-.9-3.2c0-1.4.3-2.5.9-3.2s1.4-1.1 2.6-1.1zm0 1.2c-.7 0-1.2.3-1.6.8s-.5 1.3-.5 2.4c0 1 .2 1.8.5 2.4.4.5.9.8 1.6.8.7 0 1.2-.3 1.6-.8.4-.5.5-1.3.5-2.4 0-1-.2-1.8-.5-2.4s-.9-.8-1.6-.8zM520 212.3c-.3-.2-.6-.4-.9-.5s-.6-.2-1-.2c-.8 0-1.5.3-1.9.8s-.7 1.3-.7 2.3v4.1h-1.4v-8.2h1.4v1.6c.2-.6.6-1 1-1.3.5-.3 1-.5 1.7-.5.3 0 .6 0 .9.1s.6.2.8.4v1.4zM528.7 214.1v.7h-5.8c0 1.1.2 1.9.6 2.4.5.5 1.1.7 2 .7.4 0 .9-.1 1.3-.2s1-.3 1.5-.6v1.3c-.5.2-1 .4-1.5.5-.5.1-.9.2-1.4.2-1.3 0-2.3-.4-3-1.1s-1.1-1.8-1.1-3.2c0-1.3.4-2.4 1.1-3.1s1.6-1.2 2.8-1.2c1 0 1.9.4 2.5 1.1.7.6 1 1.5 1 2.5zm-1.3-.4c-.1-.6-.3-1.1-.6-1.5-.4-.4-.9-.6-1.5-.6s-1.2.2-1.6.6-.6.9-.7 1.5h4.4zM538 212.3c-.3-.2-.6-.4-.9-.5s-.6-.2-1-.2c-.8 0-1.5.3-1.9.8s-.7 1.3-.7 2.3v4.1h-1.4v-8.2h1.4v1.6c.2-.6.6-1 1-1.3.5-.3 1-.5 1.7-.5.3 0 .6 0 .9.1s.6.2.8.4v1.4z"/><path class="st6" d="M530.2 53.9h70.5v26.7h-70.5z"/><path d="M548.8 61.3h6.5v1.2h-5v2.9h4.8v1.2h-4.8v4.4h5.1v1.2h-6.6v-10.9zM562.7 65.1v-4.2h1.3v11.4h-1.3v-1c-.2.4-.5.7-.9.9-.4.2-.8.3-1.3.3-1 0-1.8-.4-2.3-1.2-.6-.8-.9-1.8-.9-3.2 0-1.3.3-2.4.9-3.1s1.4-1.1 2.3-1.1c.5 0 .9.1 1.3.3.4.1.7.5.9.9zm-4 3c0 1 .2 1.8.5 2.4s.8.8 1.5.8 1.1-.3 1.5-.8c.3-.5.5-1.3.5-2.4 0-1-.2-1.8-.5-2.4-.3-.5-.8-.8-1.5-.8s-1.1.3-1.5.8-.5 1.4-.5 2.4zM573.1 71.7c0 1.2-.3 2.2-.9 2.8s-1.4 1-2.6 1c-.4 0-.8 0-1.2-.1l-1.2-.3v-1.3c.5.2.9.4 1.3.5s.7.2 1.1.2c.7 0 1.3-.2 1.6-.6s.5-1 .5-1.9v-1c-.2.5-.5.8-.9 1s-.8.3-1.4.3c-1 0-1.7-.4-2.3-1.1s-.9-1.8-.9-3.1.3-2.3.9-3.1 1.3-1.1 2.3-1.1c.5 0 1 .1 1.3.3s.7.5.9 1v-1.2h1.3v7.7zm-1.4-3.7c0-1-.2-1.8-.5-2.3-.3-.5-.8-.8-1.4-.8-.7 0-1.2.3-1.5.8s-.5 1.3-.5 2.3.2 1.8.5 2.3c.3.5.9.8 1.5.8s1.1-.3 1.4-.8c.4-.5.5-1.2.5-2.3zM582.7 67.4v.7h-5.8c0 1.1.2 1.9.6 2.4.5.5 1.1.7 2 .7.4 0 .9-.1 1.3-.2s1-.3 1.5-.6v1.3c-.5.2-1 .4-1.5.5-.5.1-.9.2-1.4.2-1.3 0-2.3-.4-3-1.1s-1.1-1.8-1.1-3.2c0-1.3.4-2.4 1.1-3.1s1.6-1.2 2.8-1.2c1 0 1.9.4 2.5 1.1.6.7.9 1.5 1 2.5zm-1.4-.4c-.1-.6-.3-1.1-.6-1.5-.4-.4-.9-.6-1.5-.6s-1.2.2-1.6.6-.6.9-.7 1.5h4.4z"/><path class="st4" d="M469 67h58"/><circle class="st5" cx="527.2" cy="67" r="3"/><path class="st6" d="M401.5 53.9h75v26.7h-75z"/><path d="M407.7 61.3h8.3v1.2h-3.4v9.7h-1.5v-9.7h-3.4v-1.2zM424.9 65.7c-.3-.2-.6-.4-.9-.5s-.6-.2-1-.2c-.8 0-1.5.3-1.9.8s-.7 1.3-.7 2.3v4.1h-1.4v-8.2h1.4v1.6c.2-.6.6-1 1-1.3.5-.3 1-.5 1.7-.5.3 0 .6 0 .9.1s.6.2.8.4v1.4zM427.8 64h3.4v7.1h2.7v1h-6.7v-1h2.7v-6.1h-2.1v-1zm2.1-3.1h1.3v1.7h-1.3v-1.7zM440.8 65.1v-4.2h1.3v11.4h-1.3v-1c-.2.4-.5.7-.9.9-.4.2-.8.3-1.3.3-1 0-1.8-.4-2.3-1.2-.6-.8-.9-1.8-.9-3.2 0-1.3.3-2.4.9-3.1s1.4-1.1 2.3-1.1c.5 0 .9.1 1.3.3.4.1.7.5.9.9zm-4 3c0 1 .2 1.8.5 2.4s.8.8 1.5.8 1.1-.3 1.5-.8c.3-.5.5-1.3.5-2.4 0-1-.2-1.8-.5-2.4-.3-.5-.8-.8-1.5-.8s-1.1.3-1.5.8-.5 1.4-.5 2.4zM451.7 67.4v.7h-5.8c0 1.1.2 1.9.6 2.4.5.5 1.1.7 2 .7.4 0 .9-.1 1.3-.2s1-.3 1.5-.6v1.3c-.5.2-1 .4-1.5.5-.5.1-.9.2-1.4.2-1.3 0-2.3-.4-3-1.1s-1.1-1.8-1.1-3.2c0-1.3.4-2.4 1.1-3.1s1.6-1.2 2.8-1.2c1 0 1.9.4 2.5 1.1.7.7 1 1.5 1 2.5zm-1.3-.4c-.1-.6-.3-1.1-.6-1.5-.4-.4-.9-.6-1.5-.6s-1.2.2-1.6.6-.6.9-.7 1.5h4.4zM460.2 67.1v5.1h-1.4v-5.1c0-.7-.1-1.3-.4-1.6s-.7-.5-1.2-.5c-.6 0-1.1.2-1.5.7-.3.4-.5 1.1-.5 1.9v4.6h-1.2v-8.2h1.3v1.2c.2-.5.6-.8 1-1.1.4-.2.9-.4 1.5-.4.8 0 1.5.3 1.9.8.3.7.5 1.5.5 2.6zM466.1 61.7v2.3h3.1v1h-3.1v4.5c0 .6.1 1 .3 1.3s.6.4 1.2.4h1.5v1.1h-1.6c-1 0-1.7-.2-2.1-.6s-.6-1.1-.6-2.1v-4.5h-2.2v-1h2.2v-2.3h1.3z"/><path class="st6" d="M640.7 53.9h70.5v26.7h-70.5z"/><path d="M661.5 71.3c-.4.4-.8.6-1.3.8-.5.2-1 .3-1.6.3-1.4 0-2.5-.5-3.2-1.5-.8-1-1.2-2.4-1.2-4.2 0-1.8.4-3.2 1.2-4.2s1.9-1.5 3.3-1.5c.5 0 .9.1 1.3.2s.8.3 1.2.6v1.5c-.4-.4-.8-.7-1.2-.8s-.9-.3-1.3-.3c-1 0-1.7.4-2.2 1.1-.5.7-.7 1.9-.7 3.4s.2 2.6.7 3.4c.5.7 1.2 1.1 2.1 1.1.3 0 .6 0 .9-.1.2-.1.5-.2.7-.4v-2.9h-1.6v-1.2h3v4.7zM670.6 67.4v.7h-5.8c0 1.1.2 1.9.6 2.4.5.5 1.1.7 2 .7.4 0 .9-.1 1.3-.2s1-.3 1.5-.6v1.3c-.5.2-1 .4-1.5.5-.5.1-.9.2-1.4.2-1.3 0-2.3-.4-3-1.1s-1.1-1.8-1.1-3.2c0-1.3.4-2.4 1.1-3.1s1.6-1.2 2.8-1.2c1 0 1.9.4 2.5 1.1.7.7 1 1.5 1 2.5zm-1.3-.4c-.1-.6-.3-1.1-.6-1.5-.4-.4-.9-.6-1.5-.6-.7 0-1.2.2-1.6.6s-.6.9-.7 1.5h4.4zM679.2 71.8c-.4.2-.7.4-1.1.5-.4.1-.8.2-1.2.2-1.3 0-2.3-.4-3-1.1-.7-.8-1.1-1.8-1.1-3.2s.4-2.4 1.1-3.2c.7-.8 1.7-1.1 3-1.1.4 0 .8.1 1.2.2.4.1.8.3 1.1.5v1.4c-.4-.3-.7-.5-1.1-.7-.4-.1-.8-.2-1.2-.2-.8 0-1.5.3-1.9.8-.5.5-.7 1.3-.7 2.3 0 1 .2 1.8.7 2.3.5.5 1.1.8 1.9.8.5 0 .9-.1 1.3-.2s.7-.4 1-.7v1.4zM682.2 60.8h1.4v6.6l3.5-3.4h1.6l-3.2 3.1 3.7 5.1h-1.6l-3-4.2-1 .9v3.3h-1.4v-11.4zM694 63.8c1.1 0 2 .4 2.6 1.1.6.7.9 1.8.9 3.2 0 1.4-.3 2.5-.9 3.2s-1.5 1.1-2.6 1.1-2-.4-2.6-1.1c-.6-.7-.9-1.8-.9-3.2 0-1.4.3-2.5.9-3.2.6-.7 1.5-1.1 2.6-1.1zm0 1.2c-.7 0-1.2.3-1.6.8s-.5 1.3-.5 2.4c0 1 .2 1.8.5 2.4.4.5.9.8 1.6.8.7 0 1.2-.3 1.6-.8.4-.5.5-1.3.5-2.4 0-1-.2-1.8-.5-2.4s-.9-.8-1.6-.8z"/><path class="st6" d="M909.5 53.9h70.5v26.7h-70.5z"/><path d="M919.1 61.3h3.2c1.2 0 2.1.3 2.8.8s.9 1.4.9 2.4c0 1.1-.3 1.9-.9 2.4-.6.6-1.6.8-2.8.8h-1.7v4.4h-1.5v-10.8zm1.5 1.2v4.1h1.7c.7 0 1.2-.2 1.6-.5s.6-.9.6-1.5-.2-1.2-.6-1.5c-.4-.4-.9-.5-1.6-.5h-1.7zM935.1 65.7c-.3-.2-.6-.4-.9-.5s-.6-.2-1-.2c-.8 0-1.5.3-1.9.8-.4.5-.7 1.3-.7 2.3v4.1h-1.4v-8.2h1.4v1.6c.2-.6.6-1 1-1.3s1-.5 1.7-.5c.3 0 .6 0 .9.1.3.1.6.2.8.4v1.4zM943.9 67.4v.7h-5.8c0 1.1.2 1.9.6 2.4.5.5 1.1.7 2 .7.4 0 .9-.1 1.3-.2s1-.3 1.5-.6v1.3c-.5.2-1 .4-1.5.5-.5.1-.9.2-1.4.2-1.3 0-2.3-.4-3-1.1s-1.1-1.8-1.1-3.2c0-1.3.4-2.4 1.1-3.1s1.6-1.2 2.8-1.2c1 0 1.9.4 2.5 1.1.7.7 1 1.5 1 2.5zm-1.3-.4c-.1-.6-.3-1.1-.6-1.5-.4-.4-.9-.6-1.5-.6s-1.2.2-1.6.6-.6.9-.7 1.5h4.4zM951.9 64.3v1.3c-.4-.2-.8-.4-1.2-.5s-.8-.2-1.2-.2c-.6 0-1.1.1-1.4.3-.3.2-.5.5-.5.9s.1.6.3.8.8.4 1.7.5l.5.1c.7.1 1.2.4 1.5.8s.5.9.5 1.5c0 .8-.3 1.4-.9 1.9-.6.5-1.4.7-2.4.7-.4 0-.8 0-1.3-.1-.4-.1-.9-.2-1.4-.4v-1.4c.5.3 1 .5 1.4.6s.9.2 1.3.2c.6 0 1.1-.1 1.4-.4.3-.2.5-.6.5-1 0-.6-.6-1.1-1.8-1.3h-.1l-.5-.1c-.8-.2-1.3-.4-1.7-.8-.4-.4-.5-.8-.5-1.5 0-.8.3-1.4.8-1.8.5-.4 1.3-.6 2.3-.6.4 0 .9 0 1.3.1.6.1 1 .2 1.4.4zM958.3 61.7v2.3h3.1v1h-3.1v4.5c0 .6.1 1 .3 1.3.2.2.6.4 1.2.4h1.5v1.1h-1.6c-1 0-1.7-.2-2.1-.6-.4-.4-.6-1.1-.6-2.1v-4.5h-2.2v-1h2.2v-2.3h1.3zM967.3 63.8c1.1 0 2 .4 2.6 1.1s.9 1.8.9 3.2c0 1.4-.3 2.5-.9 3.2s-1.5 1.1-2.6 1.1-2-.4-2.6-1.1c-.6-.7-.9-1.8-.9-3.2 0-1.4.3-2.5.9-3.2.6-.7 1.5-1.1 2.6-1.1zm0 1.2c-.7 0-1.2.3-1.6.8s-.5 1.3-.5 2.4c0 1 .2 1.8.5 2.4.4.5.9.8 1.6.8.7 0 1.2-.3 1.6-.8.4-.5.5-1.3.5-2.4 0-1-.2-1.8-.5-2.4s-.9-.8-1.6-.8z"/></svg>