<svg xmlns="http://www.w3.org/2000/svg" width="1000" height="600" viewBox="0 0 1000 600"><path fill="#3c3670" d="M377.1 38.6h5.2c3.4 0 6 1.2 6 4.8s-2.6 5-6 5h-2.4v5.7h-2.8zm5.1 7.6c2.2 0 3.4-.9 3.4-2.8s-1.2-2.5-3.4-2.5h-2.3v5.3zm10.2-3.7h2.2l.3 2.5a6.1 6.1 0 0 1 5.1-2.8 5.7 5.7 0 0 1 2.2.4l-.6 2.4a4.9 4.9 0 0 0-6.5 2.7v6.4h-2.7zm18.3-.3a5.7 5.7 0 0 1 5.9 5.6v.5a6 6 0 0 1-11.9 0 5.9 5.9 0 0 1 5.5-6.1zm0 9.9c1.9 0 3.1-1.5 3.1-3.8s-1.2-3.9-3.1-3.9-3 1.5-3 3.9 1 3.8 3 3.8zm9-9.6h7.9v11.4c0 2.8-1.2 5.1-5.2 5.1a7.7 7.7 0 0 1-3.4-.8l.7-1.9a11.4 11.4 0 0 0 2.5.6c2.1 0 2.7-1.1 2.7-2.8v-9.5h-5.2zm4.3-3.9a2 2 0 0 1 1.9-1.9 1.9 1.9 0 0 1 2.1 1.8 1.9 1.9 0 0 1-2 1.8h-.1a1.8 1.8 0 0 1-1.9-1.6zm15.4 3.6a5 5 0 0 1 5.5 4.5 1.7 1.7 0 0 1 0 1c0 .6-.1 1-.1 1.3h-8.5a3.7 3.7 0 0 0 3.9 3.3 6.6 6.6 0 0 0 3.3-.9l1 1.6a10.7 10.7 0 0 1-4.6 1.4 6.1 6.1 0 0 1-.5-12.2zm3 5a2.6 2.6 0 0 0-2.3-2.9h-.5a3.3 3.3 0 0 0-3.3 2.9zm12.2-5a5.8 5.8 0 0 1 4.3 1.6l-1.2 1.7a4.6 4.6 0 0 0-3-1.1 3.7 3.7 0 0 0-3.8 3.6v.3a3.4 3.4 0 0 0 3.2 3.8h.6a5 5 0 0 0 3.3-1.2l1.2 1.7a7.5 7.5 0 0 1-4.8 1.8c-3.7 0-6.3-2.3-6.3-6.1s2.9-6.1 6.5-6.1zm10.4 2.4h-3.1v-2h3.2l.5-3.2h2.2v3.2h5.3v2.1h-5.3v4.9c0 1.9.7 2.8 2.7 2.8a5.7 5.7 0 0 0 2.5-.6l.6 2.1a13.2 13.2 0 0 1-3.9.6c-3.4 0-4.7-1.9-4.7-4.9zm28.5 0h-3.2v-2h3.3l.5-3.2h2.2v3.2h5.2v2.1h-5.2v4.9c0 1.9.7 2.8 2.6 2.8a5.8 5.8 0 0 0 2.6-.6l.6 2.1a13.2 13.2 0 0 1-3.9.6c-3.4 0-4.7-1.9-4.7-4.9zm19.5 2c-.1-1.3-.8-2.2-2.8-2.2a8.5 8.5 0 0 0-3.8 1.2l-1.1-1.8a11.3 11.3 0 0 1 5.4-1.6 4.5 4.5 0 0 1 5 4.1v7.8h-2.2v-1.4h-.2a7.4 7.4 0 0 1-4.3 1.7c-2.3 0-4-1.4-4-3.5s2.3-3.8 8-4.3zm-3.4 5.7a5.3 5.3 0 0 0 3.4-1.5v-2.4c-4.3.2-5.4 1.1-5.4 2.4s.8 1.5 2 1.5zm10.7-1.5a7.4 7.4 0 0 0 4.5 1.5c1.7 0 2.6-.6 2.6-1.4s-1-1.3-3.4-1.9-4.3-1.6-4.3-3.4 1.8-3.4 5.1-3.4a8.8 8.8 0 0 1 4.9 1.5l-1.2 1.8a6 6 0 0 0-3.6-1.2c-1.9 0-2.5.4-2.5 1.2s1.5 1.3 3.3 1.7 4.4 1.7 4.4 3.6-1.9 3.6-5.5 3.6a10.9 10.9 0 0 1-5.6-1.8zm13.5-13.5h2.8v10.5l5.4-5.3h2.9l-4.4 4.6 5 7h-2.9l-3.7-5.1-2.3 2.1v3h-2.8zm28.1 0h6.5v12.8a1.9 1.9 0 0 0 1.8 2h.3l1.9-.4.6 2.1-3.3.6c-2.6 0-4.1-1.7-4.1-4.5V39.5h-3.7zm14.5 5.2h7.9v11.6h-2.8v-9.5h-5.1zm4.3-3.9a2 2 0 0 1 1.9-1.9 1.8 1.8 0 0 1 2 1.6v.3a1.8 1.8 0 0 1-1.8 1.8h-.2a1.8 1.8 0 0 1-1.9-1.6zm10.8 12.2a7.4 7.4 0 0 0 4.5 1.5c1.8 0 2.7-.6 2.7-1.4s-1.2-1.3-3.4-1.9-4.4-1.6-4.4-3.4 1.8-3.4 5.1-3.4a8.8 8.8 0 0 1 4.9 1.5l-1.2 1.8a5.8 5.8 0 0 0-3.6-1.2c-1.9 0-2.5.4-2.5 1.2s1.5 1.3 3.3 1.7 4.4 1.7 4.4 3.6-1.9 3.6-5.5 3.6a11.2 11.2 0 0 1-5.6-1.8zm15.9-6.2h-3.1v-2h3.3l.4-3.2h2.2v3.2h5.2v2.1h-5.2v4.9c0 1.9.8 2.8 2.7 2.8a5.4 5.4 0 0 0 2.5-.6l.6 2.1a12.1 12.1 0 0 1-3.8.6c-3.4 0-4.8-1.9-4.8-4.9zM419.9 192.5h5.2c3.4 0 5.9 1.2 5.9 4.8s-2.5 5-5.9 5h-2.4v5.8h-2.8zm5 7.6c2.2 0 3.4-.9 3.4-2.8s-1.2-2.6-3.4-2.6h-2.2v5.4zm8.8-8.8h6.5v12.6c0 1.7.9 2.3 2.1 2.3l1.9-.5.6 1.9a7.3 7.3 0 0 1-3.3.8c-2.6 0-4.1-1.8-4.1-4.6v-10.4h-3.7zm22.4 9.2a2.5 2.5 0 0 0-2.8-2.2h-.1a8.9 8.9 0 0 0-3.8 1.2l-1.1-1.8a10.6 10.6 0 0 1 5.4-1.6 4.5 4.5 0 0 1 5 4.1 1.4 1.4 0 0 1 0 .9v7h-2.2v-1.5h-.1a9 9 0 0 1-4.3 1.8 3.6 3.6 0 0 1-4-3.1v-.3c-.2-2.7 2.2-4 8-4.5zm-3.4 5.7a7.3 7.3 0 0 0 3.4-1.4v-2.5c-4.3.3-5.5 1.2-5.5 2.4s.9 1.5 2.1 1.5zm9.7-9.8h2.3l.3 1.7a5.7 5.7 0 0 1 4.3-2c2.6 0 3.8 1.7 3.8 4.7v7.3h-2.6v-7c0-1.8-.6-2.7-2.3-2.7a4 4 0 0 0-2.9 1.7v8h-2.9zm29.4 8.4a7.4 7.4 0 0 0 4.5 1.5c1.8 0 2.6-.6 2.6-1.5s-1-1.3-3.4-1.9-4.3-1.5-4.3-3.3 1.8-3.5 5.1-3.5a8.7 8.7 0 0 1 4.9 1.6l-1.2 1.6a7.4 7.4 0 0 0-3.6-1.2c-1.9 0-2.5.6-2.5 1.4s1.5 1.2 3.3 1.8 4.4 1.4 4.4 3.4-1.9 3.7-5.3 3.7a10.8 10.8 0 0 1-5.8-1.9zM508 209v3.7h-2.8v-16.3h2.2l.3 1.3a5.7 5.7 0 0 1 3.7-1.6c3.1 0 4.9 2.3 4.9 5.9s-2.5 6.4-5.2 6.4a4.8 4.8 0 0 1-3.2-1.5zm2.5-3c1.7 0 3-1.3 3-4s-.9-3.7-2.8-3.7a3.6 3.6 0 0 0-2.7 1.5v5.2a3.9 3.9 0 0 0 2.5 1zm10.1-9.6h2.2l.3 2.6a6 6 0 0 1 5.1-2.9 5.7 5.7 0 0 1 2.2.4l-.6 2.4a3.7 3.7 0 0 0-2.1-.3 4.8 4.8 0 0 0-4.4 3v6.5h-2.7zm13.1 0h7.8v11.7h-2.6v-9.5h-5.2zm4.3-3.9a1.8 1.8 0 0 1 1.7-1.8h.2a1.8 1.8 0 1 1-1.9 2zm9.9 3.9h2.2l.3 1.7a6 6 0 0 1 4.3-2c2.7 0 3.9 1.7 3.9 4.7v7.3h-2.7v-7c0-1.8-.6-2.7-2.2-2.7a4 4 0 0 0-3 1.7v8h-2.8zm16.8 2.2h-3.1v-2.1h3.2l.5-3.1h2.2v3.1h5.3v2.1h-5.3v4.7c0 2 .7 2.9 2.7 2.9a7.4 7.4 0 0 0 2.5-.5l.6 1.9a10.1 10.1 0 0 1-3.9.8c-3.4 0-4.7-2.1-4.7-5.1zm-181.3 92.6a6.7 6.7 0 0 0 4.3 1.8c1.7 0 2.8-.8 2.8-2s-1.1-1.7-2.5-2.3l-2.3-.9a4.3 4.3 0 0 1-3.2-4.2c0-2.4 2.2-4.3 5.3-4.3a7.8 7.8 0 0 1 5.1 1.9l-1.5 1.8a4.9 4.9 0 0 0-3.6-1.3c-1.6 0-2.5.7-2.5 1.8s1.2 1.6 2.7 2.2l1.9.9c2.1.7 3.4 1.9 3.4 4.1s-2.1 4.6-5.8 4.6a8.9 8.9 0 0 1-5.8-2.2zm16 4.9v3.5h-2.8v-16.1h2.2l.3 1.3a5.2 5.2 0 0 1 3.7-1.6c3.1 0 4.9 2.2 4.9 5.9s-2.5 6.2-5.2 6.2a4.6 4.6 0 0 1-3.3-1.3zm2.5-3c1.6 0 3-1.3 3-4s-.9-3.7-2.8-3.7a3.9 3.9 0 0 0-2.7 1.3v5.4a3.9 3.9 0 0 0 2.5 1zm10.1-9.6h2.2l.3 2.5a5.9 5.9 0 0 1 5.1-2.8 5.7 5.7 0 0 1 2.2.4l-.6 2.4a5.4 5.4 0 0 0-2.1-.5 5 5 0 0 0-4.4 3.2v6.3H412zm13.1 0h7.8V295h-2.7v-9.5h-5.1zm4.3-3.9a1.8 1.8 0 0 1 1.9-1.9 1.7 1.7 0 0 1 1.9 1.6v.3a1.8 1.8 0 0 1-1.8 1.8h-.1a1.7 1.7 0 0 1-1.9-1.6zm9.9 3.9h2.2l.3 1.7a6 6 0 0 1 4.3-2c2.7 0 3.9 1.6 3.9 4.7v7.1h-2.7v-6.8c0-1.9-.6-2.7-2.2-2.7a4 4 0 0 0-3 1.7v7.8h-2.8zm16.8 2h-3.2v-1.9h3.3l.5-3.3h2.2v3.3h5.2v2.1h-5.2v4.9c0 1.9.7 2.8 2.7 2.8a5.7 5.7 0 0 0 2.5-.6l.6 2.1a13.2 13.2 0 0 1-3.9.6c-3.4 0-4.7-1.9-4.7-4.9zm30.2 0h-3.1v-1.9h3.3l.4-3.3h2.3v3.3h5.1v2.1h-5.1v4.9c0 1.9.7 2.8 2.6 2.8a5.1 5.1 0 0 0 2.5-.6l.6 2.1a12.1 12.1 0 0 1-3.8.6c-3.4 0-4.8-1.9-4.8-4.9zm19.6 2.1c-.1-1.3-.9-2.2-2.8-2.2a8.9 8.9 0 0 0-3.9 1.2l-1-1.8a10.3 10.3 0 0 1 5.3-1.6 4.6 4.6 0 0 1 5.1 4.1v7.7h-2.2v-1.3h-.2a7.3 7.3 0 0 1-4.3 1.6c-2.4 0-4-1.3-4-3.4s2.2-3.8 8-4.3zm-3.4 5.7a5.9 5.9 0 0 0 3.4-1.5v-2.4c-4.3.1-5.5 1-5.5 2.4s.9 1.5 2.1 1.5zm10.7-1.5a7.8 7.8 0 0 0 4.4 1.5c1.8 0 2.7-.6 2.7-1.4s-1-1.3-3.4-1.9-4.3-1.6-4.3-3.4 1.8-3.4 5-3.4a8.4 8.4 0 0 1 4.9 1.5l-1.1 1.7a7.7 7.7 0 0 0-3.6-1.2c-1.9 0-2.5.5-2.5 1.2s1.5 1.4 3.2 1.8 4.5 1.6 4.5 3.6-1.9 3.5-5.5 3.5a10 10 0 0 1-5.6-1.7zm13.5-13.5h2.8v10.5l5.4-5.3h2.9l-4.4 4.6 5 6.9h-2.9l-3.8-5-2.2 2.1v2.9h-2.8zm29.8 0h6.6V291a1.9 1.9 0 0 0 1.7 2.1h.3l2-.4.6 2a9.6 9.6 0 0 1-3.3.6c-2.7 0-4.2-1.6-4.2-4.4v-10.4h-3.7zm14.6 5.2h7.8V295h-2.6v-9.5h-5.2zm4.3-3.9a1.8 1.8 0 0 1 1.9-1.9 1.7 1.7 0 0 1 1.9 1.6v.3a1.8 1.8 0 0 1-1.7 1.8h-.2a1.8 1.8 0 0 1-1.9-1.6zm10.8 12.2a7.8 7.8 0 0 0 4.5 1.5c1.7 0 2.6-.6 2.6-1.4s-1-1.3-3.4-1.9-4.3-1.6-4.3-3.4 1.8-3.4 5.1-3.4a8.3 8.3 0 0 1 4.8 1.5l-1.1 1.7a7.7 7.7 0 0 0-3.6-1.2c-1.9 0-2.5.5-2.5 1.2s1.5 1.4 3.2 1.8 4.5 1.6 4.5 3.6-1.9 3.5-5.5 3.5a10 10 0 0 1-5.6-1.7zm15.9-6.3H599v-1.9h3.2l.5-3.3h2.2v3.3h5.2v2.1h-5.2v4.9c0 1.9.7 2.8 2.7 2.8a5.7 5.7 0 0 0 2.5-.6l.6 2.1a13.2 13.2 0 0 1-3.9.6c-3.4 0-4.7-1.9-4.7-4.9zM355.5 388.2h4c4.6 0 7.2 2.6 7.2 7.7s-2.6 7.9-7.1 7.9h-4.1zm3.8 13.4c3 0 4.6-1.8 4.6-5.7s-1.6-5.4-4.6-5.4h-1v11.1zm16-9.8a5.1 5.1 0 0 1 5.5 4.9v.6c0 .6-.1 1-.1 1.3h-8.5a3.7 3.7 0 0 0 3.9 3.3 5.9 5.9 0 0 0 3.2-.9l1.1 1.6a7.9 7.9 0 0 1-4.6 1.5 6.2 6.2 0 0 1-.5-12.3zm3 5a2.6 2.6 0 0 0-2.3-2.9h-.5a3.3 3.3 0 0 0-3.3 2.9zm6.7 3.7a7.1 7.1 0 0 0 4.4 1.5c1.8 0 2.7-.6 2.7-1.5s-1-1.3-3.4-1.9-4.3-1.5-4.3-3.2 1.8-3.6 5-3.6a8.4 8.4 0 0 1 4.9 1.6l-1.2 1.7a5.5 5.5 0 0 0-3.5-1.2c-1.9 0-2.5.6-2.5 1.3s1.4 1.2 3.2 1.8 4.5 1.5 4.5 3.4-1.9 3.7-5.4 3.7a9.8 9.8 0 0 1-5.7-1.9zm13.3-8.4h7.9v11.7h-2.7v-9.5h-5.2zm4.3-3.9a1.8 1.8 0 0 1 1.8-1.8h.2a1.8 1.8 0 0 1 0 3.6 1.7 1.7 0 0 1-1.9-1.6c-.1-.1-.1-.1-.1-.2zm11.3 15.2a2.3 2.3 0 0 1-1.2-2 3.1 3.1 0 0 1 1.5-2.2 3.6 3.6 0 0 1-1.5-3 4.3 4.3 0 0 1 4.3-4.3h.5l1.8.3h4.9v2.1h-2.9a2.7 2.7 0 0 1 .8 1.9c0 2.7-1.9 4-4.6 4l-1.8-.2a1.1 1.1 0 0 0-.7 1c0 .4.7 1 2.2 1h2.4c3.1 0 4.6.9 4.6 3s-2.7 4-6.7 4-5.4-.9-5.4-3.1a3 3 0 0 1 1.8-2.5zm3.9 3.7c2.2 0 3.7-.9 3.7-1.8s-.8-1.2-2.4-1.2h-3.5c-.9.5-1.2.9-1.2 1.5s1.2 1.5 3.4 1.5zm1.9-11a2.2 2.2 0 1 0-2.2 2.2 2.2 2.2 0 0 0 2.2-2.2zm7.1-4h2.3l.3 1.8a5.5 5.5 0 0 1 4.3-2.1c2.6 0 3.8 1.8 3.8 4.7v7.3h-2.7v-7c0-1.7-.5-2.6-2.2-2.6a3.5 3.5 0 0 0-2.9 1.6v8h-2.9zm39.8 12a13.3 13.3 0 0 1-3.4-1.6 6.5 6.5 0 0 1-4.2 1.6 4.3 4.3 0 0 1-4.8-4 .6.6 0 0 1-.1-.4 5.1 5.1 0 0 1 2.7-4.3 9.7 9.7 0 0 1-1-3.6 3.7 3.7 0 0 1 3.5-3.9h.2a3.2 3.2 0 0 1 3.4 2.8v.5c0 2.1-1.6 3.3-3.3 4.4a19.5 19.5 0 0 0 3.4 3.6 20 20 0 0 0 1.7-4h2.5a23.2 23.2 0 0 1-2.4 5.3l2.4 1.4zm-7.3-2.2a3.1 3.1 0 0 0 2.1-.9 21.2 21.2 0 0 1-3.4-3.9 3.7 3.7 0 0 0-1.2 2.4 2.4 2.4 0 0 0 2.4 2.4zm-.6-7.9a3.5 3.5 0 0 0 2-2.7c0-.8-.3-1.4-1.2-1.4s-1.4.7-1.4 1.9a4.3 4.3 0 0 0 .6 2.2zm29.6-2.2a4.6 4.6 0 0 1 3.2 1.3V387h2.8v16.8h-2.2l-.3-1.3a5.7 5.7 0 0 1-3.5 1.6c-3 0-5.1-2.4-5.1-6.2s2.4-6.1 5.1-6.1zm.6 9.9a3.1 3.1 0 0 0 2.5-1.3v-5.2a3.3 3.3 0 0 0-2.4-1.2c-1.6 0-3 1.5-3 3.9s1.1 3.8 2.9 3.8zm14.6-9.9a5.1 5.1 0 0 1 5.5 4.9.6.6 0 0 1 0 .6c0 .6-.1 1-.1 1.3h-8.5a3.7 3.7 0 0 0 3.9 3.3 6.6 6.6 0 0 0 3.3-.9l1 1.6a7.9 7.9 0 0 1-4.6 1.5 6.2 6.2 0 0 1-.5-12.3zm3 5a2.6 2.6 0 0 0-2.3-2.9h-.5a3.3 3.3 0 0 0-3.3 2.9zm4.9-4.7h2.7l2.2 6.1a20.6 20.6 0 0 1 1.2 3.5h.1l1.2-3.5 2.3-6.1h2.5l-4.5 11.7H516zm20.6-.3a5.1 5.1 0 0 1 5.5 4.9v.6c0 .6-.1 1-.1 1.3h-8.5a3.7 3.7 0 0 0 3.9 3.3 5.9 5.9 0 0 0 3.2-.9l1.1 1.6a7.9 7.9 0 0 1-4.6 1.5 6.2 6.2 0 0 1-.5-12.3zm3 5a2.6 2.6 0 0 0-2.3-2.9h-.5a3.3 3.3 0 0 0-3.3 2.9zm5.5-9.8h6.5v12.7a1.9 1.9 0 0 0 2.1 2.2l1.9-.5.6 2a7.1 7.1 0 0 1-3.2.7c-2.7 0-4.2-1.8-4.2-4.6v-10.4h-3.7zm19.7 4.8a6.3 6.3 0 0 1 6.6 5.9 6.3 6.3 0 0 1-12.5.6v-.4a5.8 5.8 0 0 1 5.5-6.1zm0 10.1c2 0 3-1.7 3-4s-1-3.9-3-3.9-2.9 1.6-2.9 3.9 1 4 2.9 4zm11.9 2.8v3.7h-2.8v-16.3h2.2l.3 1.3a6.2 6.2 0 0 1 3.7-1.6c3.1 0 4.9 2.4 4.9 5.9s-2.5 6.4-5.2 6.4a4.4 4.4 0 0 1-3.2-1.5zm2.5-3c1.7 0 2.8-1.3 2.8-4s-.7-3.7-2.6-3.7a3.6 3.6 0 0 0-2.7 1.5v5.2a3.9 3.9 0 0 0 2.5 1zm8.2-9.6h2.1v1.5h.1a2.5 2.5 0 0 1 2.5-1.8 2.2 2.2 0 0 1 2.1 1.9 3.2 3.2 0 0 1 2.7-1.9c1.6 0 2.5 1.3 2.5 3.7v8.3h-2.5v-8.2c0-1-.3-1.4-1.1-1.4s-1 .4-1.4 1.4v8.2h-2.1v-8.2c0-1-.3-1.4-1.1-1.4s-1 .4-1.4 1.4v8.2h-2.6zm20.5-.3a5.2 5.2 0 0 1 5.5 4.9v.6a12.3 12.3 0 0 1-.2 1.3h-8.5a3.7 3.7 0 0 0 3.9 3.3 6.3 6.3 0 0 0 3.3-.9l1 1.6a7.5 7.5 0 0 1-4.6 1.5 6.2 6.2 0 0 1-.4-12.3zm2.9 5a2.6 2.6 0 0 0-2.3-2.9h-.5a3.3 3.3 0 0 0-3.3 2.9zm5.8-4.7h2.2l.3 1.8a5.8 5.8 0 0 1 4.3-2.1c2.7 0 3.9 1.8 3.9 4.7v7.3H620v-7c0-1.7-.6-2.6-2.2-2.6a3.7 3.7 0 0 0-3 1.6v8H612zm16.8 2.2h-3.1v-2.1h3.2l.5-3.1h2.2v3.1h5.2v2.3h-5.2v4.7c0 1.9.7 2.8 2.7 2.8a5.5 5.5 0 0 0 2.5-.4l.6 1.9a10.1 10.1 0 0 1-3.9.8c-3.4 0-4.7-2.1-4.7-5.1zm-222.3 92.6a6.9 6.9 0 0 0 4.3 1.8c1.8 0 2.8-.8 2.8-1.9s-1-1.8-2.5-2.4l-2.2-.9a4.4 4.4 0 0 1-3.3-4.2c0-2.3 2.2-4.3 5.4-4.3a7.4 7.4 0 0 1 5 2l-1.5 1.7a5.6 5.6 0 0 0-3.5-1.3c-1.7 0-2.6.8-2.6 1.8s1.2 1.6 2.7 2.2l1.9.9c2.1.7 3.4 1.9 3.4 4.2s-2 4.6-5.7 4.6a8.3 8.3 0 0 1-5.8-2.3zm16 4.9v3.6h-2.8v-16.2h2.2l.3 1.3a5.2 5.2 0 0 1 3.7-1.6c3.2 0 4.9 2.2 4.9 5.9s-2.5 6.3-5.2 6.3a4.3 4.3 0 0 1-3.2-1.4zm2.6-3c1.6 0 2.9-1.3 2.9-4s-.9-3.7-2.8-3.7a4.2 4.2 0 0 0-2.7 1.4v5.3a3.5 3.5 0 0 0 2.6 1zm10-9.6h2.3l.3 2.5a5.9 5.9 0 0 1 5-2.8 5.4 5.4 0 0 1 2.2.4l-.6 2.4a4.5 4.5 0 0 0-2-.4 5 5 0 0 0-4.5 3.1v6.4h-2.7zm13.1 0h7.9v11.6h-2.7v-9.5h-5.2zm4.3-3.9a2 2 0 0 1 1.9-1.9 1.8 1.8 0 0 1 2 1.6v.3a1.8 1.8 0 0 1-1.8 1.8h-.2a1.8 1.8 0 0 1-1.9-1.6zm9.9 3.9h2.3l.3 1.8a5.8 5.8 0 0 1 4.3-2.1c2.6 0 3.8 1.6 3.8 4.7v7.2h-2.6v-6.9c0-1.9-.6-2.6-2.3-2.6a3.4 3.4 0 0 0-2.9 1.6v7.9h-2.9zm16.8 2.1h-3.1v-2h3.3l.4-3.2h2.2v3.2h5.2v2.1H482v4.9c0 1.9.8 2.8 2.7 2.8a5.4 5.4 0 0 0 2.5-.6l.6 2.1a12.1 12.1 0 0 1-3.8.6c-3.5 0-4.8-1.9-4.8-4.9zm27.2-2.1h2.2l.3 2.5a6.1 6.1 0 0 1 5-2.8 5.9 5.9 0 0 1 2.3.4l-.6 2.4a5.2 5.2 0 0 0-2.1-.4 5 5 0 0 0-4.5 3.1v6.4h-2.6zm18.5-.3a5 5 0 0 1 5.5 4.5v1c0 .6-.1 1-.1 1.3h-8.5a3.6 3.6 0 0 0 3.8 3.3h.1a6.2 6.2 0 0 0 3.2-.9l1.1 1.6a10.7 10.7 0 0 1-4.6 1.4 6.1 6.1 0 0 1-6.3-5.9 6 6 0 0 1 5.8-6.3zm3 5a2.6 2.6 0 0 0-2.4-2.9h-.4a3.3 3.3 0 0 0-3.3 2.9zm4.9-4.7h2.7l2.2 6.1a19.6 19.6 0 0 1 1.2 3.4h.1a19.6 19.6 0 0 1 1.2-3.4l2.2-6.1h2.5l-4.4 11.6h-3.1zm15.1 0h7.9v11.6h-2.7v-9.5h-5.2zm4.3-3.9a2 2 0 0 1 1.9-1.9 1.8 1.8 0 0 1 2 1.6v.3a1.8 1.8 0 0 1-1.8 1.8h-.2a1.8 1.8 0 0 1-1.9-1.6zm15.5 3.6a4.9 4.9 0 0 1 5.4 4.5 1.7 1.7 0 0 1 0 1c0 .6-.1 1-.1 1.3h-8.5a3.7 3.7 0 0 0 3.9 3.3 6.6 6.6 0 0 0 3.3-.9l1 1.6a10.7 10.7 0 0 1-4.6 1.4 6.1 6.1 0 1 1-.4-12.2zm2.9 5a2.6 2.6 0 0 0-2.3-2.9h-.5a3.3 3.3 0 0 0-3.3 2.9zm4-4.7h2.7l1 6.1c.3 1 .3 2.1.6 3.2.2-1.1.5-2.2.6-3.2l1.2-5.1h1.9l1.2 5.1a30.3 30.3 0 0 1 .6 3.2h.2l.4-3.2 1.1-6.1h2.5l-2.1 11.6h-3.3l-1-4.8a20.2 20.2 0 0 0-.6-3.4h-.1a18.6 18.6 0 0 1-.5 3.4l-1 4.8h-3.1z"/><path fill="#d9d8e3" stroke="#d9d8e3" stroke-linecap="round" stroke-linejoin="round" stroke-width="2" d="M496.1 229.3V259"/><path fill="#d9d8e3" stroke="#d9d8e3" stroke-miterlimit="10" d="M490.2 244.1l5.9 14.9 6-14.9-6 6z"/><path fill="#d9d8e3" stroke="#d9d8e3" stroke-linecap="round" stroke-linejoin="round" stroke-width="2" d="M496.1 317.2v49.7"/><path fill="#d9d8e3" stroke="#d9d8e3" stroke-miterlimit="10" d="M490.2 352l5.9 14.9 6-14.9-6 6z"/><path fill="#d9d8e3" stroke="#d9d8e3" stroke-linecap="round" stroke-linejoin="round" stroke-width="2" d="M496.1 425v29.7"/><path fill="#d9d8e3" stroke="#d9d8e3" stroke-miterlimit="10" d="M490.2 439.9l5.9 14.8 6-14.8-6 5.9z"/><path fill="#d9d8e3" stroke="#d9d8e3" stroke-linecap="round" stroke-linejoin="round" stroke-width="2" d="M496.1 141.5v29.6"/><path fill="#d9d8e3" stroke="#d9d8e3" stroke-miterlimit="10" d="M490.2 156.3l5.9 14.8 6-14.8-6 5.9z"/><path fill="#d9d8e3" stroke="#d9d8e3" stroke-linecap="round" stroke-linejoin="round" stroke-width="2" d="M496.1 512.9v71.2m0 0h182.5"/><path fill="#d9d8e3" stroke="#d9d8e3" stroke-miterlimit="10" d="M672.7 346.8l5.9-14.8 6 14.8-6-5.9z"/><path fill="#d9d8e3" stroke="#d9d8e3" stroke-linecap="round" stroke-linejoin="round" stroke-width="2" d="M678.6 123.7v460.4m0-460.4H513.9"/><path fill="#d9d8e3" stroke="#d9d8e3" stroke-miterlimit="10" d="M528.8 117.7l-14.9 6 14.9 5.9-6-5.9z"/><path fill="#d9d8e3" stroke="#d9d8e3" stroke-linecap="round" stroke-linejoin="round" stroke-width="2" d="M496.1 76.2v29.6"/><path fill="#d9d8e3" stroke="#d9d8e3" stroke-miterlimit="10" d="M490.2 91l5.9 14.8 6-14.8-6 5.9z"/><path fill="none" stroke="#63666a" stroke-width="2" d="M496.1 105.8l17.8 17.9-17.8 17.8-17.8-17.8z"/><rect width="261.2" height="58.17" x="365.5" y="18" fill="none" stroke="#63666a" stroke-width="2" rx="18.5"/><rect width="182.5" height="58.17" x="404.9" y="171.1" fill="none" stroke="#63666a" stroke-width="2" rx="18.5"/><rect width="249.3" height="58.17" x="371.5" y="259" fill="none" stroke="#63666a" stroke-width="2" rx="18.5"/><rect width="329.4" height="58.17" x="331.4" y="366.9" fill="none" stroke="#63666a" stroke-width="2" rx="18.5"/><rect width="213.7" height="58.17" x="389.3" y="454.7" fill="none" stroke="#63666a" stroke-width="2" rx="18.5"/></svg>