<svg xmlns="http://www.w3.org/2000/svg" width="1000" height="460" viewBox="0 0 1000 460"><path fill="#63666a" d="M94.8 20.9h-4.9v-2.3h12.6v2.3h-4.9v13.3h-2.8zm15.8 1.3a5.8 5.8 0 0 1 5.9 6.2 5.9 5.9 0 1 1-11.8 0 5.8 5.8 0 0 1 5.9-6.2zm0 10.1c1.9 0 3.1-1.6 3.1-3.9s-1.2-4-3.1-4-3.1 1.6-3.1 4 1.2 3.9 3.1 3.9zm28.1-10.1a4.5 4.5 0 0 1 3.3 1.4l-.2-2v-4.3h2.8v16.9h-2.2l-.3-1.3a5.4 5.4 0 0 1-3.6 1.6c-3 0-5-2.2-5-6.1s2.5-6.2 5.2-6.2zm.5 10.1a3.3 3.3 0 0 0 2.6-1.5v-5.3a3.2 3.2 0 0 0-2.5-1c-1.6 0-3 1.4-3 3.8s1.1 4 2.9 4zm14.6-10.1a5.8 5.8 0 0 1 5.9 6.2 5.9 5.9 0 1 1-11.8 0 5.8 5.8 0 0 1 5.9-6.2zm0 10.1c1.9 0 3.1-1.6 3.1-3.9s-1.2-4-3.1-4-3.1 1.6-3.1 4 1.2 3.9 3.1 3.9z"/><path fill="#3c3670" d="M36.3 84.9a5.2 5.2 0 0 1 3.7 1.7L38.7 88a3.6 3.6 0 0 0-2.4-1.1c-2.2 0-3.7 1.8-3.7 4.8s1.5 4.8 3.7 4.8a3.3 3.3 0 0 0 2.6-1.3l1.3 1.4a5.1 5.1 0 0 1-4 1.9c-3.4 0-6-2.4-6-6.8s2.6-6.8 6.1-6.8zm6.1-.8h5.4v10.7a1.6 1.6 0 0 0 1.8 1.8 4.1 4.1 0 0 0 1.7-.4l.5 1.7a7.7 7.7 0 0 1-2.8.6c-2.3 0-3.5-1.4-3.5-3.8v-8.8h-3.1zm16.9 4.1c2.9 0 4.5 1.9 4.5 4.6a3.1 3.1 0 0 1-.1 1.1h-7.1a3 3 0 0 0 3.3 2.8 5.7 5.7 0 0 0 2.8-.8l.7 1.4a6.9 6.9 0 0 1-3.8 1.2c-3 0-5.4-1.9-5.4-5.2a5 5 0 0 1 5.1-5.1zm2.4 4.3a2.2 2.2 0 0 0-2.4-2.5 2.6 2.6 0 0 0-2.7 2.5zm11.5-.5a2 2 0 0 0-2.3-2 7.2 7.2 0 0 0-3.3 1.1l-.8-1.6a9.1 9.1 0 0 1 4.5-1.3c2.7 0 4.2 1.5 4.2 4.2v5.8h-1.9l-.2-1.2a6.7 6.7 0 0 1-3.7 1.5 3 3 0 0 1-3.3-2.9c0-2.2 2-3.3 6.8-3.6zm-2.8 4.7a4.6 4.6 0 0 0 2.8-1.2v-2.1c-3.5.2-4.6 1-4.6 2s.8 1.3 1.8 1.3zm8.2-8.3h1.9l.2 1.5h.1a4.9 4.9 0 0 1 3.5-1.7c2.3 0 3.3 1.4 3.3 4v6h-2.3v-5.7c0-1.6-.5-2.3-1.8-2.3a3.3 3.3 0 0 0-2.5 1.3v6.7h-2.4zm33.6-2.3a5.7 5.7 0 0 0-2.2-.4 1.9 1.9 0 0 0-2.2 2.1v.6h3.8v1.8h-3.8v8h-2.2v-8h-2.8v-1.7h2.8V88c0-2.3 1.2-4 4.1-4a8.4 8.4 0 0 1 2.9.5zm2.5 2.3h6.5v9.8h-2.3v-8h-4.2zm3.6-3.2a1.5 1.5 0 0 1 1.6-1.6 1.6 1.6 0 0 1 1.7 1.6 1.5 1.5 0 0 1-1.7 1.5 1.5 1.5 0 0 1-1.6-1.5zm8.1-1.1h5.4v10.7a1.6 1.6 0 0 0 1.8 1.8 4.1 4.1 0 0 0 1.7-.4l.5 1.7a7.7 7.7 0 0 1-2.8.6c-2.3 0-3.5-1.4-3.5-3.8v-8.8h-3.1zm14.4 6.1h-2.6v-1.7h2.7l.3-2.7h1.9v2.7h4.5v1.8h-4.5v4.1c0 1.6.6 2.3 2.3 2.3a4.6 4.6 0 0 0 2.1-.4l.5 1.7a10.1 10.1 0 0 1-3.2.6c-3 0-4-1.7-4-4.2zm14.5-2c2.9 0 4.5 1.9 4.5 4.6a3.1 3.1 0 0 1-.1 1.1h-7.1a3 3 0 0 0 3.3 2.8 5.7 5.7 0 0 0 2.8-.8l.7 1.4a6.9 6.9 0 0 1-3.8 1.2c-3 0-5.4-1.9-5.4-5.2a5 5 0 0 1 5.1-5.1zm2.4 4.3a2.2 2.2 0 0 0-2.4-2.5 2.6 2.6 0 0 0-2.7 2.5zm5.9-4.1h1.9l.2 2.2h.1a4.9 4.9 0 0 1 4.1-2.4 3.6 3.6 0 0 1 1.9.4l-.4 1.9a5.7 5.7 0 0 0-1.8-.3c-1.4 0-2.7.7-3.7 2.6v5.4h-2.3zm11.7 7.1a6.2 6.2 0 0 0 3.8 1.2c1.6 0 2.3-.5 2.3-1.1s-1-1.1-2.9-1.7-3.7-1.3-3.7-2.8 1.6-2.9 4.4-2.9a7.4 7.4 0 0 1 4.1 1.3l-1.1 1.4a5.4 5.4 0 0 0-3-1c-1.5 0-2.1.5-2.1 1.1s1.2 1.1 2.8 1.5 3.8 1.3 3.8 2.9-1.7 3.1-4.6 3.1a9.5 9.5 0 0 1-4.9-1.5z"/><path fill="#a8a6af" d="M37.8 132.6h-1.1v-.8h-.1a2.3 2.3 0 0 1-2 1 2 2 0 0 1-2-2.1c0-1.7 1.5-2.5 4.1-2.8v-.2a2.2 2.2 0 0 0-2.3-2.5c-1.7 0-3.3 1.5-3.3 5.1s1.6 5.1 3.5 5.1a3.6 3.6 0 0 0 2.2-.6l.6.9a5 5 0 0 1-2.9.9c-2.5 0-4.8-2.1-4.8-6.4s2.2-6.2 4.8-6.2 3.4 1.7 3.4 3.9zm-2.9-1a2.2 2.2 0 0 0 1.5-.8v-1.7c-1.8.2-2.5.7-2.5 1.5a.9.9 0 0 0 1 1zm5-8.7h1.9v4.6a3.9 3.9 0 0 1 2.8-1.3c1.8 0 2.6 1.2 2.6 3.2v4.8h-1.9v-4.6c0-1.2-.4-1.8-1.5-1.8a2.7 2.7 0 0 0-2 1.1v5.3h-1.9zm14.9 6.3c-.1-.9-.6-1.5-1.9-1.5a6.1 6.1 0 0 0-2.6.8l-.7-1.2a7.3 7.3 0 0 1 3.6-1.1 3.1 3.1 0 0 1 3.4 3.4v4.6h-1.5v-.9H55a5.2 5.2 0 0 1-2.9 1.1c-1.6 0-2.7-.9-2.7-2.3s1.5-2.6 5.4-2.9zm-2.3 3.8a3.9 3.9 0 0 0 2.3-1v-1.6c-2.9.2-3.7.7-3.7 1.6s.6 1 1.4 1zm6.6-6.6h1.5l.2 1.2a4 4 0 0 1 2.9-1.4c1.8 0 2.6 1.2 2.6 3.2v4.8h-1.8v-4.6c0-1.2-.4-1.8-1.5-1.8a2.7 2.7 0 0 0-2 1.1v5.3h-1.9zM37.8 227.6h-1.1v-.8h-.1a2.3 2.3 0 0 1-2 1 2 2 0 0 1-2-2.1c0-1.7 1.5-2.5 4.1-2.8v-.2a2.2 2.2 0 0 0-2.3-2.5c-1.7 0-3.3 1.5-3.3 5.1s1.6 5.1 3.5 5.1a3.6 3.6 0 0 0 2.2-.6l.6.9a5 5 0 0 1-2.9.9c-2.5 0-4.8-2.1-4.8-6.4s2.2-6.2 4.8-6.2 3.4 1.7 3.4 3.9zm-2.9-1a2.2 2.2 0 0 0 1.5-.8v-1.7c-1.8.2-2.5.7-2.5 1.5a.9.9 0 0 0 1 1zm4.8-8.7h4.4v8.6a1.3 1.3 0 0 0 1.4 1.4l1.3-.3.4 1.4a7.2 7.2 0 0 1-2.2.4c-1.8 0-2.8-1.1-2.8-3v-7h-2.5zm13.5 3.3a3.5 3.5 0 0 1 3.7 3.7c0 .4-.1.7-.1.9h-5.7a2.4 2.4 0 0 0 2.6 2.2 4.3 4.3 0 0 0 2.2-.6l.7 1.1a5.6 5.6 0 0 1-3.1.9 4 4 0 0 1-4.3-4.1 4 4 0 0 1 4-4.1zm2 3.4a1.8 1.8 0 0 0-1.9-2 2.2 2.2 0 0 0-2.2 2zm3.9-3.2h5.3v7.8h-1.8v-6.4h-3.5zm2.9-2.6a1.3 1.3 0 0 1 1.3-1.3 1.2 1.2 0 0 1 1.3 1.3 1.2 1.2 0 0 1-1.3 1.2 1.2 1.2 0 0 1-1.3-1.2zm12 5.4c-.1-.9-.6-1.5-1.9-1.5a6.1 6.1 0 0 0-2.6.8l-.7-1.2a7.3 7.3 0 0 1 3.6-1.1 3.1 3.1 0 0 1 3.4 3.4v4.6h-1.5v-.9h-.1a5.2 5.2 0 0 1-2.9 1.1c-1.6 0-2.7-.9-2.7-2.3s1.5-2.6 5.4-2.9zm-2.3 3.8a3.9 3.9 0 0 0 2.3-1v-1.6c-2.9.2-3.7.7-3.7 1.6s.6 1 1.4 1zm220.1-95.4h-1.1v-.8h-.1a2.3 2.3 0 0 1-2 1 2 2 0 0 1-2-2.1c0-1.7 1.5-2.5 4.1-2.8v-.2a2.2 2.2 0 0 0-2.3-2.5c-1.7 0-3.3 1.5-3.3 5.1s1.6 5.1 3.5 5.1a3.6 3.6 0 0 0 2.2-.6l.6.9a5 5 0 0 1-2.9.9c-2.5 0-4.8-2.1-4.8-6.4s2.2-6.2 4.8-6.2 3.4 1.7 3.4 3.9zm-2.9-1a2.2 2.2 0 0 0 1.5-.8v-1.7c-1.8.2-2.5.7-2.5 1.5a.9.9 0 0 0 1 1zm4.8-8.7h4.4v8.6a1.3 1.3 0 0 0 1.4 1.4l1.3-.3.4 1.4a7.2 7.2 0 0 1-2.2.4c-1.8 0-2.8-1.1-2.8-3v-7h-2.5zm13.5 3.3a3.5 3.5 0 0 1 3.7 3.7c0 .4-.1.7-.1.9h-5.7a2.4 2.4 0 0 0 2.6 2.2 4.3 4.3 0 0 0 2.2-.6l.7 1.1a5.6 5.6 0 0 1-3.1.9 4 4 0 0 1-4.3-4.1 4 4 0 0 1 4-4.1zm2 3.4a1.8 1.8 0 0 0-1.9-2 2.2 2.2 0 0 0-2.2 2zm3.9-3.2h5.3v7.8h-1.8v-6.4h-3.5zm2.9-2.6a1.3 1.3 0 0 1 1.3-1.3 1.2 1.2 0 0 1 1.3 1.3 1.2 1.2 0 0 1-1.3 1.2 1.2 1.2 0 0 1-1.3-1.2zm12 5.4c-.1-.9-.6-1.5-1.9-1.5a6.1 6.1 0 0 0-2.6.8l-.7-1.2a7.3 7.3 0 0 1 3.6-1.1 3.1 3.1 0 0 1 3.4 3.4v4.6h-1.5v-.9h-.1a5.2 5.2 0 0 1-2.9 1.1c-1.6 0-2.7-.9-2.7-2.3s1.5-2.6 5.4-2.9zm-2.3 3.8a3.9 3.9 0 0 0 2.3-1v-1.6c-2.9.2-3.7.7-3.7 1.6s.6 1 1.4 1zm-33.9 94.6h-1.1v-.8h-.1a2.3 2.3 0 0 1-2 1 2 2 0 0 1-2-2.1c0-1.7 1.5-2.5 4.1-2.8v-.2a2.2 2.2 0 0 0-2.3-2.5c-1.7 0-3.3 1.5-3.3 5.1s1.6 5.1 3.5 5.1a3.6 3.6 0 0 0 2.2-.6l.6.9a5 5 0 0 1-2.9.9c-2.5 0-4.8-2.1-4.8-6.4s2.2-6.2 4.8-6.2 3.4 1.7 3.4 3.9zm-2.9-1a2.2 2.2 0 0 0 1.5-.8v-1.7c-1.8.2-2.5.7-2.5 1.5a.9.9 0 0 0 1 1zm9.3-5.4a4.1 4.1 0 0 1 2.9 1.1l-.8 1.2a3.2 3.2 0 0 0-2-.8 2.5 2.5 0 0 0-2.6 2.6 2.4 2.4 0 0 0 2.6 2.6 3.9 3.9 0 0 0 2.2-.8l.8 1.2a5.4 5.4 0 0 1-3.2 1.1c-2.5 0-4.3-1.5-4.3-4.1s2-4.1 4.4-4.1zm5.3-3.3h1.9v4.6a3.9 3.9 0 0 1 2.8-1.3c1.8 0 2.6 1.2 2.6 3.2v4.8H309v-4.6c0-1.2-.4-1.8-1.5-1.8a2.7 2.7 0 0 0-2 1.1v5.3h-1.9zm13.3 3.3a3.5 3.5 0 0 1 3.7 3.7c0 .4-.1.7-.1.9h-5.7a2.4 2.4 0 0 0 2.6 2.2 4.3 4.3 0 0 0 2.2-.6l.7 1.1a5.6 5.6 0 0 1-3.1.9 4 4 0 0 1-4.3-4.1 4 4 0 0 1 4-4.1zm2 3.4a1.8 1.8 0 0 0-1.9-2 2.2 2.2 0 0 0-2.2 2zm2.7-3.2h1.8l.7 4.1c.2.7.2 1.5.4 2.2.1-.7.3-1.5.4-2.2l.8-3.3h1.3l.8 3.3a17 17 0 0 1 .4 2.2h.1l.3-2.2.7-4.1h1.7l-1.4 7.8h-2.2l-.7-3.2a18.5 18.5 0 0 0-.4-2.3c-.1.6-.2 1.3-.4 2.3l-.7 3.2H323zm10.8 0h5.3v7.8h-1.8v-6.4h-3.5zm2.9-2.6a1.3 1.3 0 0 1 1.3-1.3 1.3 1.3 0 0 1 1.4 1.3 1.3 1.3 0 0 1-1.4 1.2 1.2 1.2 0 0 1-1.3-1.2zm10.4 2.4a3.5 3.5 0 0 1 3.7 3.7c0 .4-.1.7-.1.9h-5.7a2.4 2.4 0 0 0 2.6 2.2 4.3 4.3 0 0 0 2.2-.6l.7 1.1a5.6 5.6 0 0 1-3.1.9 4 4 0 0 1-4.3-4.1 4 4 0 0 1 4-4.1zm2 3.4a1.8 1.8 0 0 0-1.9-2 2.2 2.2 0 0 0-2.2 2zm440.2 3h-1.1v-.8h-.1a2.3 2.3 0 0 1-2 1 2 2 0 0 1-2-2.1c0-1.7 1.5-2.5 4.1-2.8v-.2a2.2 2.2 0 0 0-2.3-2.5c-1.7 0-3.3 1.5-3.3 5.1s1.6 5.1 3.5 5.1a3.6 3.6 0 0 0 2.2-.6l.6.9a5 5 0 0 1-2.9.9c-2.5 0-4.8-2.1-4.8-6.4s2.2-6.2 4.8-6.2 3.4 1.7 3.4 3.9zm-2.9-1a2.2 2.2 0 0 0 1.5-.8v-1.7c-1.8.2-2.5.7-2.5 1.5a.9.9 0 0 0 1 1zm5-8.7h1.9v4.6a3.9 3.9 0 0 1 2.8-1.3c1.8 0 2.6 1.2 2.6 3.2v4.8h-1.8v-4.6c0-1.2-.4-1.8-1.5-1.8a2.7 2.7 0 0 0-2 1.1v5.3H790zm14.9 6.3c-.1-.9-.6-1.5-1.9-1.5a6.1 6.1 0 0 0-2.6.8l-.7-1.2a7.3 7.3 0 0 1 3.6-1.1 3.1 3.1 0 0 1 3.4 3.4v4.6h-1.5v-.9h-.1a5.2 5.2 0 0 1-2.9 1.1c-1.6 0-2.7-.9-2.7-2.3s1.5-2.6 5.4-2.9zm-2.3 3.8a3.9 3.9 0 0 0 2.3-1v-1.6c-2.9.2-3.7.7-3.7 1.6s.6 1 1.4 1zm6.6-6.6h1.5l.2 1.2a4 4 0 0 1 2.9-1.4c1.8 0 2.6 1.2 2.6 3.2v4.8h-1.8v-4.6c0-1.2-.4-1.8-1.5-1.8a2.7 2.7 0 0 0-2 1.1v5.3h-1.9zM291.8 322.6h-1.1v-.8h-.1a2.3 2.3 0 0 1-2 1 2 2 0 0 1-2-2.1c0-1.7 1.5-2.5 4.1-2.8v-.2a2.2 2.2 0 0 0-2.3-2.5c-1.7 0-3.3 1.5-3.3 5.1s1.6 5.1 3.5 5.1a3.6 3.6 0 0 0 2.2-.6l.6.9a5 5 0 0 1-2.9.9c-2.5 0-4.8-2.1-4.8-6.4s2.2-6.2 4.8-6.2 3.4 1.7 3.4 3.9zm-2.9-1a2.2 2.2 0 0 0 1.5-.8v-1.7c-1.8.2-2.5.7-2.5 1.5a.9.9 0 0 0 1 1zm4.8-8.7h4.4v8.6a1.3 1.3 0 0 0 1.4 1.4l1.3-.3.4 1.4a7.2 7.2 0 0 1-2.2.4c-1.8 0-2.8-1.1-2.8-3v-7h-2.5zm13.5 3.3a3.5 3.5 0 0 1 3.7 3.7c0 .4-.1.7-.1.9h-5.7a2.4 2.4 0 0 0 2.6 2.2 4.3 4.3 0 0 0 2.2-.6l.7 1.1a5.6 5.6 0 0 1-3.1.9 4 4 0 0 1-4.3-4.1 4 4 0 0 1 4-4.1zm2 3.4a1.8 1.8 0 0 0-1.9-2 2.2 2.2 0 0 0-2.2 2zm3.9-3.2h5.3v7.8h-1.8v-6.4h-3.5zm2.9-2.6a1.3 1.3 0 0 1 1.3-1.3 1.2 1.2 0 0 1 1.3 1.3 1.2 1.2 0 0 1-1.3 1.2 1.2 1.2 0 0 1-1.3-1.2zm12 5.4c-.1-.9-.6-1.5-1.9-1.5a6.1 6.1 0 0 0-2.6.8l-.7-1.2a7.3 7.3 0 0 1 3.6-1.1 3.1 3.1 0 0 1 3.4 3.4v4.6h-1.5v-.9h-.1a5.2 5.2 0 0 1-2.9 1.1c-1.6 0-2.7-.9-2.7-2.3s1.5-2.6 5.4-2.9zm-2.3 3.8a3.9 3.9 0 0 0 2.3-1v-1.6c-2.9.2-3.7.7-3.7 1.6s.6 1 1.4 1zm462.1-190.4h-1.1v-.8h-.1a2.3 2.3 0 0 1-2 1 2 2 0 0 1-2-2.1c0-1.7 1.5-2.5 4.1-2.8v-.2a2.2 2.2 0 0 0-2.3-2.5c-1.7 0-3.3 1.5-3.3 5.1s1.6 5.1 3.5 5.1a3.6 3.6 0 0 0 2.2-.6l.6.9a5 5 0 0 1-2.9.9c-2.5 0-4.8-2.1-4.8-6.4s2.2-6.2 4.8-6.2 3.4 1.7 3.4 3.9zm-2.9-1a2.2 2.2 0 0 0 1.5-.8v-1.7c-1.8.2-2.5.7-2.5 1.5a.9.9 0 0 0 1 1zm9.3-5.4a4.1 4.1 0 0 1 2.9 1.1l-.8 1.2a3.2 3.2 0 0 0-2-.8 2.5 2.5 0 0 0-2.6 2.6 2.4 2.4 0 0 0 2.6 2.6 3.9 3.9 0 0 0 2.2-.8l.8 1.2a5.4 5.4 0 0 1-3.2 1.1c-2.5 0-4.3-1.5-4.3-4.1s2-4.1 4.4-4.1zm5.3-3.3h1.9v4.6a3.9 3.9 0 0 1 2.8-1.3c1.8 0 2.6 1.2 2.6 3.2v4.8H805v-4.6c0-1.2-.4-1.8-1.5-1.8a2.7 2.7 0 0 0-2 1.1v5.3h-1.9zm13.3 3.3a3.5 3.5 0 0 1 3.7 3.7c0 .4-.1.7-.1.9h-5.7a2.4 2.4 0 0 0 2.6 2.2 4.3 4.3 0 0 0 2.2-.6l.7 1.1a5.6 5.6 0 0 1-3.1.9 4 4 0 0 1-4.3-4.1 4 4 0 0 1 4-4.1zm2 3.4a1.8 1.8 0 0 0-1.9-2 2.2 2.2 0 0 0-2.2 2zm2.7-3.2h1.8l.7 4.1c.2.7.2 1.5.4 2.2.1-.7.3-1.5.4-2.2l.8-3.3h1.3l.8 3.3c.1.7.3 1.5.4 2.2h.1l.3-2.2.7-4.1h1.7l-1.4 7.8h-2.2l-.7-3.2a18.5 18.5 0 0 0-.4-2.3c-.1.6-.2 1.3-.4 2.3l-.7 3.2H819zm10.8 0h5.3v7.8h-1.8v-6.4h-3.5zm2.9-2.6a1.3 1.3 0 0 1 1.3-1.3 1.2 1.2 0 0 1 1.3 1.3 1.2 1.2 0 0 1-1.3 1.2 1.2 1.2 0 0 1-1.3-1.2zm10.4 2.4a3.5 3.5 0 0 1 3.7 3.7c0 .4-.1.7-.1.9h-5.7a2.4 2.4 0 0 0 2.6 2.2 4.3 4.3 0 0 0 2.2-.6l.7 1.1a5.6 5.6 0 0 1-3.1.9 4 4 0 0 1-4.3-4.1 4 4 0 0 1 4-4.1zm2 3.4a1.8 1.8 0 0 0-1.9-2 2.2 2.2 0 0 0-2.2 2zm-303.8 3h-1.1v-.8h-.1a2.3 2.3 0 0 1-2 1 2 2 0 0 1-2-2.1c0-1.7 1.5-2.5 4.1-2.8v-.2a2.2 2.2 0 0 0-2.3-2.5c-1.7 0-3.3 1.5-3.3 5.1s1.6 5.1 3.5 5.1a3.6 3.6 0 0 0 2.2-.6l.6.9a5 5 0 0 1-2.9.9c-2.5 0-4.8-2.1-4.8-6.4s2.2-6.2 4.8-6.2 3.4 1.7 3.4 3.9zm-2.9-1a2.2 2.2 0 0 0 1.5-.8v-1.7c-1.8.2-2.5.7-2.5 1.5a.9.9 0 0 0 1 1zm9.3-5.4a4.1 4.1 0 0 1 2.9 1.1l-.8 1.2a3.2 3.2 0 0 0-2-.8 2.5 2.5 0 0 0-2.6 2.6 2.4 2.4 0 0 0 2.6 2.6 3.9 3.9 0 0 0 2.2-.8l.8 1.2a5.4 5.4 0 0 1-3.2 1.1c-2.5 0-4.3-1.5-4.3-4.1s2-4.1 4.4-4.1zm5.3-3.3h1.9v4.6a3.9 3.9 0 0 1 2.8-1.3c1.8 0 2.6 1.2 2.6 3.2v4.8H557v-4.6c0-1.2-.4-1.8-1.5-1.8a2.7 2.7 0 0 0-2 1.1v5.3h-1.9zm13.3 3.3a3.5 3.5 0 0 1 3.7 3.7c0 .4-.1.7-.1.9h-5.7a2.4 2.4 0 0 0 2.6 2.2 4.3 4.3 0 0 0 2.2-.6l.7 1.1a5.6 5.6 0 0 1-3.1.9 4 4 0 0 1-4.3-4.1 4 4 0 0 1 4-4.1zm2 3.4a1.8 1.8 0 0 0-1.9-2 2.2 2.2 0 0 0-2.2 2zm2.7-3.2h1.8l.7 4.1c.2.7.2 1.5.4 2.2.1-.7.3-1.5.4-2.2l.8-3.3h1.3l.8 3.3c.1.7.3 1.5.4 2.2h.1l.3-2.2.7-4.1h1.7l-1.4 7.8h-2.2l-.7-3.2a18.5 18.5 0 0 0-.4-2.3c-.1.6-.2 1.3-.4 2.3l-.7 3.2H571zm10.8 0h5.3v7.8h-1.8v-6.4h-3.5zm2.9-2.6a1.3 1.3 0 0 1 1.3-1.3 1.2 1.2 0 0 1 1.3 1.3 1.2 1.2 0 0 1-1.3 1.2 1.2 1.2 0 0 1-1.3-1.2zm10.4 2.4a3.5 3.5 0 0 1 3.7 3.7c0 .4-.1.7-.1.9h-5.7a2.4 2.4 0 0 0 2.6 2.2 4.3 4.3 0 0 0 2.2-.6l.7 1.1a5.6 5.6 0 0 1-3.1.9 4 4 0 0 1-4.3-4.1 4 4 0 0 1 4-4.1zm2 3.4a1.8 1.8 0 0 0-1.9-2 2.2 2.2 0 0 0-2.2 2z"/><path fill="#3c3670" d="M37.1 188.7h-4.3l-1 3.5h-2.4l4.2-13h2.8l4.2 13h-2.5zm-.5-1.8l-.4-1.6L35 181h-.1c-.3 1.4-.7 2.9-1.1 4.3l-.5 1.6zm5.8-8.8h5.4v10.7a1.6 1.6 0 0 0 1.8 1.8 4.1 4.1 0 0 0 1.7-.4l.5 1.7a7.7 7.7 0 0 1-2.8.6c-2.3 0-3.5-1.4-3.5-3.8v-8.8h-3.1zm12.3 4.3h6.5v9.8h-2.3v-8h-4.2zm3.6-3.2a1.5 1.5 0 0 1 1.6-1.6 1.6 1.6 0 0 1 1.7 1.6 1.5 1.5 0 0 1-1.7 1.5 1.5 1.5 0 0 1-1.6-1.5zm9.5 12.7a1.8 1.8 0 0 1-1-1.6 2.5 2.5 0 0 1 1.2-1.9 2.8 2.8 0 0 1-1.3-2.5c0-2.2 1.9-3.5 4.1-3.5l1.5.2h4v1.7H74a2.4 2.4 0 0 1 .7 1.7c0 2.2-1.7 3.3-3.9 3.3l-1.5-.2a1 1 0 0 0-.6.9q0 .9 1.8.9h2c2.6 0 3.9.7 3.9 2.4s-2.2 3.5-5.7 3.5-4.5-.9-4.5-2.6.6-1.7 1.6-2.3zm3.2 3.2c1.9 0 3.2-.8 3.2-1.6s-.7-1-2-1h-3.1c-.7.4-.9.8-.9 1.3s1 1.3 2.8 1.3zm1.6-9.4a1.8 1.8 0 0 0-1.8-1.9 1.8 1.8 0 0 0-1.9 1.9 1.8 1.8 0 0 0 1.9 2 1.8 1.8 0 0 0 1.8-2zm6-3.3h1.9l.2 1.5h.1a4.9 4.9 0 0 1 3.5-1.7c2.3 0 3.3 1.4 3.3 4v6h-2.3v-5.7c0-1.6-.5-2.3-1.8-2.3a3.3 3.3 0 0 0-2.5 1.3v6.7h-2.4zm24-4.3h2.4v3.7l-.2 2.1a4.9 4.9 0 0 1 3.5-1.7c2.3 0 3.3 1.4 3.3 4v6h-2.3v-5.7c0-1.6-.5-2.3-1.8-2.3a3.3 3.3 0 0 0-2.5 1.3v6.7h-2.4zm13 16.3a2.5 2.5 0 0 0 2.4-1.6l.2-.7-4.4-9.7h2.3l2 4.8c.4.9.7 1.9 1.1 2.9h.1c.3-.9.6-1.9 1-2.9l1.7-4.8h2.2l-4.1 10.3c-.8 2.2-2 3.6-4.4 3.6l-1.4-.2.5-1.8zm13.4-1.3v3h-2.4v-13.7h1.9l.2 1.1h.1a5.1 5.1 0 0 1 3.1-1.3c2.6 0 4 1.9 4 5s-2.1 5.3-4.3 5.3a3.9 3.9 0 0 1-2.7-1.2zm2.1-2.5c1.4 0 2.5-1.2 2.5-3.4s-.7-3.1-2.3-3.1a2.9 2.9 0 0 0-2.3 1.2v4.4a3.5 3.5 0 0 0 2.1.9zm12.2-8.4c2.9 0 4.5 1.9 4.5 4.6a3.1 3.1 0 0 1-.1 1.1h-7.1a3 3 0 0 0 3.3 2.8 5.7 5.7 0 0 0 2.8-.8l.7 1.4a6.9 6.9 0 0 1-3.8 1.2c-3 0-5.4-1.9-5.4-5.2a5 5 0 0 1 5.1-5.1zm2.4 4.3a2.2 2.2 0 0 0-2.4-2.5 2.6 2.6 0 0 0-2.7 2.5zm5.9-4.1h1.9l.2 2.2h.1a4.9 4.9 0 0 1 4.1-2.4 3.6 3.6 0 0 1 1.9.4l-.4 1.9a5.7 5.7 0 0 0-1.8-.3c-1.4 0-2.7.7-3.7 2.6v5.4h-2.3zm14.8-.2a3.7 3.7 0 0 1 2.7 1.1v-5.2h2.4v14.1h-1.9l-.2-1.1h-.1a4 4 0 0 1-2.9 1.4c-2.6 0-4.2-1.9-4.2-5.2s2-5.1 4.2-5.1zm.4 8.4a2.8 2.8 0 0 0 2.2-1.2V185a2.7 2.7 0 0 0-2.1-.9c-1.3 0-2.5 1.2-2.5 3.2s.9 3.3 2.4 3.3zm8.8-8.2h1.9l.2 2.2h.1a4.9 4.9 0 0 1 4.1-2.4 3.6 3.6 0 0 1 1.9.4l-.4 1.9a5.7 5.7 0 0 0-1.8-.3c-1.4 0-2.7.7-3.7 2.6v5.4h-2.3zm11.1 0h6.5v9.8h-2.3v-8h-4.2zm3.6-3.2a1.5 1.5 0 0 1 1.6-1.6 1.6 1.6 0 0 1 1.7 1.6 1.5 1.5 0 0 1-1.7 1.5 1.5 1.5 0 0 1-1.6-1.5zm7.5 3.2h2.3l1.9 5.1c.4 1 .7 2 1 3h.1c.3-1 .6-2 1-3l1.9-5.1h2.2l-3.8 9.8h-2.7zm17.5-.2c2.9 0 4.5 1.9 4.5 4.6a3.1 3.1 0 0 1-.1 1.1h-7.1a3 3 0 0 0 3.3 2.8 5.7 5.7 0 0 0 2.8-.8l.7 1.4a6.9 6.9 0 0 1-3.8 1.2c-3 0-5.4-1.9-5.4-5.2a5 5 0 0 1 5.1-5.1zm2.4 4.3a2.2 2.2 0 0 0-2.4-2.5 2.6 2.6 0 0 0-2.7 2.5zm72.6-101.6a5.2 5.2 0 0 1 3.7 1.7l-1.3 1.4a3.6 3.6 0 0 0-2.4-1.1c-2.2 0-3.7 1.8-3.7 4.8s1.5 4.8 3.7 4.8a3.3 3.3 0 0 0 2.6-1.3l1.3 1.4a5.1 5.1 0 0 1-4 1.9c-3.4 0-6-2.4-6-6.8s2.6-6.8 6.1-6.8zm10.7 3.3a5.2 5.2 0 1 1-4.9 5.1 4.8 4.8 0 0 1 4.9-5.1zm0 8.4c1.6 0 2.6-1.3 2.6-3.3s-1-3.2-2.6-3.2-2.6 1.3-2.6 3.2 1 3.3 2.6 3.3zm7.6-8.2h1.9l.2 1.5h.1a4.9 4.9 0 0 1 3.5-1.7c2.3 0 3.3 1.4 3.3 4v6h-2.3v-5.7c0-1.6-.5-2.3-1.8-2.3a3.3 3.3 0 0 0-2.5 1.3v6.7h-2.4zm21.6-2.3a5.7 5.7 0 0 0-2.2-.4 1.9 1.9 0 0 0-2.2 2.1v.6h3.8v1.8h-3.8v8h-2.2v-8h-2.8v-1.7h2.8V88c0-2.3 1.2-4 4.1-4a8.4 8.4 0 0 1 2.9.5zm2.5 2.3h6.5v9.8h-2.3v-8h-4.2zm3.6-3.2a1.5 1.5 0 0 1 1.6-1.6 1.6 1.6 0 0 1 1.7 1.6 1.5 1.5 0 0 1-1.7 1.5 1.5 1.5 0 0 1-1.6-1.5zm9.5 12.7a1.8 1.8 0 0 1-1-1.6 2.5 2.5 0 0 1 1.2-1.9 2.8 2.8 0 0 1-1.3-2.5c0-2.2 1.9-3.5 4.1-3.5l1.5.2h4v1.7H352a2.4 2.4 0 0 1 .7 1.7c0 2.2-1.7 3.3-3.9 3.3l-1.5-.2a1 1 0 0 0-.6.9q0 .9 1.8.9h2c2.6 0 3.9.7 3.9 2.4s-2.2 3.5-5.7 3.5-4.5-.9-4.5-2.6.6-1.7 1.6-2.3zm3.2 3.2c1.9 0 3.2-.8 3.2-1.6s-.7-1-2-1h-3.1c-.7.4-.9.8-.9 1.3s1 1.3 2.8 1.3zm1.6-9.4a1.8 1.8 0 0 0-1.8-1.9 1.8 1.8 0 0 0-1.9 1.9 1.8 1.8 0 0 0 1.9 2 1.8 1.8 0 0 0 1.8-2zm14.7 6.5h-1.9l-.2-1.5a4.7 4.7 0 0 1-3.5 1.8c-2.3 0-3.3-1.5-3.3-4v-6.1h2.3v5.8c0 1.6.5 2.3 1.8 2.3s1.6-.4 2.5-1.5v-6.6h2.3zm4.3-9.8h1.9l.2 2.2h.1a4.9 4.9 0 0 1 4.1-2.4 3.6 3.6 0 0 1 1.9.4l-.4 1.9a5.7 5.7 0 0 0-1.8-.3c-1.4 0-2.7.7-3.7 2.6v5.4h-2.3zm15.7-.2c2.9 0 4.5 1.9 4.5 4.6a3.1 3.1 0 0 1-.1 1.1h-7.1a3 3 0 0 0 3.3 2.8 5.7 5.7 0 0 0 2.8-.8l.7 1.4a6.9 6.9 0 0 1-3.8 1.2c-3 0-5.4-1.9-5.4-5.2a5 5 0 0 1 5.1-5.1zm2.4 4.3a2.2 2.2 0 0 0-2.4-2.5 2.6 2.6 0 0 0-2.7 2.5zm19.3 6.6v3h-2.4V88.4h1.9l.2 1.1h.1a5.1 5.1 0 0 1 3.1-1.3c2.6 0 4 1.9 4 5s-2.1 5.3-4.3 5.3a3.9 3.9 0 0 1-2.7-1.2zm2.1-2.5c1.4 0 2.5-1.2 2.5-3.4s-.7-3.1-2.3-3.1a2.9 2.9 0 0 0-2.3 1.2v4.4a3.5 3.5 0 0 0 2.1.9zm14.1-4.6a2 2 0 0 0-2.3-2 7.2 7.2 0 0 0-3.3 1.1l-.8-1.6a9.1 9.1 0 0 1 4.5-1.3c2.7 0 4.2 1.5 4.2 4.2v5.8h-1.9l-.2-1.2a6.7 6.7 0 0 1-3.7 1.5 3 3 0 0 1-3.3-2.9c0-2.2 2-3.3 6.8-3.6zm-2.8 4.7a4.6 4.6 0 0 0 2.8-1.2v-2.1c-3.5.2-4.6 1-4.6 2s.8 1.3 1.8 1.3zm8.2-8.3h1.9l.2 1.5h.1a4.9 4.9 0 0 1 3.5-1.7c2.3 0 3.3 1.4 3.3 4v6h-2.3v-5.7c0-1.6-.5-2.3-1.8-2.3a3.3 3.3 0 0 0-2.5 1.3v6.7h-2.4zm16.7-.2c2.9 0 4.5 1.9 4.5 4.6a3.1 3.1 0 0 1-.1 1.1h-7.1a3 3 0 0 0 3.3 2.8 5.7 5.7 0 0 0 2.8-.8l.7 1.4a6.9 6.9 0 0 1-3.8 1.2c-3 0-5.4-1.9-5.4-5.2a5 5 0 0 1 5.1-5.1zm2.4 4.3a2.2 2.2 0 0 0-2.4-2.5 2.6 2.6 0 0 0-2.7 2.5zm4.7-8.4h5.4v10.7a1.6 1.6 0 0 0 1.8 1.8 4.1 4.1 0 0 0 1.7-.4l.5 1.7a7.7 7.7 0 0 1-2.8.6c-2.3 0-3.5-1.4-3.5-3.8v-8.8h-3.1zm-167.9 95.1h3.4c3.8 0 6.1 2.1 6.1 6.4s-2.3 6.6-6 6.6h-3.5zm3.2 11.2c2.5 0 4-1.5 4-4.8s-1.5-4.6-4-4.6h-.9v9.4zm13.6-8.2c2.9 0 4.5 1.9 4.5 4.6a3.1 3.1 0 0 1-.1 1.1h-7.1a3 3 0 0 0 3.3 2.8 5.7 5.7 0 0 0 2.8-.8l.7 1.4a6.9 6.9 0 0 1-3.8 1.2c-3 0-5.4-1.9-5.4-5.2a5 5 0 0 1 5.1-5.1zm2.4 4.3a2.2 2.2 0 0 0-2.4-2.5 2.6 2.6 0 0 0-2.7 2.5zm5.9-1.1h6.8v1.9h-6.8zm12.2 6.5a1.8 1.8 0 0 1-1-1.6 2.5 2.5 0 0 1 1.2-1.9 2.8 2.8 0 0 1-1.3-2.5c0-2.2 1.9-3.5 4.1-3.5l1.5.2h4v1.7H328a2.4 2.4 0 0 1 .7 1.7c0 2.2-1.7 3.3-3.9 3.3l-1.5-.2a1 1 0 0 0-.6.9q0 .9 1.8.9h2c2.6 0 3.9.7 3.9 2.4s-2.2 3.5-5.7 3.5-4.5-.9-4.5-2.6.6-1.7 1.6-2.3zm3.2 3.2c1.9 0 3.2-.8 3.2-1.6s-.7-1-2-1h-3.1c-.7.4-.9.8-.9 1.3s1 1.3 2.8 1.3zm1.6-9.4a1.8 1.8 0 0 0-1.8-1.9 1.8 1.8 0 0 0-1.9 1.9 1.8 1.8 0 0 0 1.9 2 1.8 1.8 0 0 0 1.8-2zm7-3.3h1.9l.2 2.2h.1a4.9 4.9 0 0 1 4.1-2.4 3.6 3.6 0 0 1 1.9.4l-.4 1.9a5.7 5.7 0 0 0-1.8-.3c-1.4 0-2.7.7-3.7 2.6v5.4h-2.3zm15.7-.2c2.9 0 4.5 1.9 4.5 4.6a3.1 3.1 0 0 1-.1 1.1h-7.1a3 3 0 0 0 3.3 2.8 5.7 5.7 0 0 0 2.8-.8l.7 1.4a6.9 6.9 0 0 1-3.8 1.2c-3 0-5.4-1.9-5.4-5.2a5 5 0 0 1 5.1-5.1zm2.4 4.3a2.2 2.2 0 0 0-2.4-2.5 2.6 2.6 0 0 0-2.7 2.5zm11.5-.5a2 2 0 0 0-2.3-2 7.2 7.2 0 0 0-3.3 1.1l-.8-1.6a9.1 9.1 0 0 1 4.5-1.3c2.7 0 4.2 1.5 4.2 4.2v5.8h-1.9l-.2-1.2a6.7 6.7 0 0 1-3.7 1.5 3 3 0 0 1-3.3-2.9c0-2.2 2-3.3 6.8-3.6zm-2.8 4.7a4.6 4.6 0 0 0 2.8-1.2v-2.1c-3.5.2-4.6 1-4.6 2s.8 1.3 1.8 1.3zm8.9-1.2a6.2 6.2 0 0 0 3.8 1.2c1.6 0 2.3-.5 2.3-1.1s-1-1.1-2.9-1.7-3.7-1.3-3.7-2.8 1.6-2.9 4.4-2.9a7.4 7.4 0 0 1 4.1 1.3l-1.1 1.4a5.4 5.4 0 0 0-3-1c-1.5 0-2.1.5-2.1 1.1s1.2 1.1 2.8 1.5 3.8 1.3 3.8 2.9-1.7 3.1-4.6 3.1a9.5 9.5 0 0 1-4.9-1.5zm16-7.3c2.9 0 4.5 1.9 4.5 4.6a3.1 3.1 0 0 1-.1 1.1h-7.1a3 3 0 0 0 3.3 2.8 5.7 5.7 0 0 0 2.8-.8l.7 1.4a6.9 6.9 0 0 1-3.8 1.2c-3 0-5.4-1.9-5.4-5.2a5 5 0 0 1 5.1-5.1zm2.4 4.3a2.2 2.2 0 0 0-2.4-2.5 2.6 2.6 0 0 0-2.7 2.5zm-102.6 87.7h8.3v1.9h-6v3.4h5.1v1.9h-5.1v3.9h6.2v1.9h-8.5zm10.9 3.2h1.7l.2 1.3a2.4 2.4 0 0 1 2.2-1.5 1.7 1.7 0 0 1 1.8 1.6 2.5 2.5 0 0 1 2.2-1.6c1.4 0 2.2 1.1 2.2 3.1v6.9h-2.2v-6.7c0-.9-.2-1.3-.8-1.3s-.9.4-1.3 1.2v6.8h-1.8v-6.7c0-.9-.3-1.3-.8-1.3s-.9.4-1.3 1.2v6.8H296zm15 10.7v3h-2.4v-13.7h1.9l.2 1.1h.1a5.1 5.1 0 0 1 3.1-1.3c2.6 0 4 1.9 4 5s-2.1 5.3-4.3 5.3a3.9 3.9 0 0 1-2.7-1.2zm2.1-2.5c1.4 0 2.5-1.2 2.5-3.4s-.7-3.1-2.3-3.1a2.9 2.9 0 0 0-2.3 1.2v4.4a3.5 3.5 0 0 0 2.1.9zm9.7-6.4h-2.6v-1.7h2.7l.3-2.7h1.9v2.7h4.5v1.8h-4.5v4.1c0 1.6.6 2.3 2.3 2.3a4.6 4.6 0 0 0 2.1-.4l.5 1.7a10.1 10.1 0 0 1-3.2.6c-3 0-4-1.7-4-4.2zm10.8 10.2a2.5 2.5 0 0 0 2.4-1.6l.2-.7-4.4-9.7h2.3l2 4.8c.4.9.7 1.9 1.1 2.9h.1c.3-.9.6-1.9 1-2.9l1.7-4.8h2.2l-4.1 10.3c-.8 2.2-2 3.6-4.4 3.6l-1.4-.2.5-1.8zm29.6-8.4a2 2 0 0 0-2.3-2 7.2 7.2 0 0 0-3.3 1.1l-.8-1.6a9.1 9.1 0 0 1 4.5-1.3c2.7 0 4.2 1.5 4.2 4.2v5.8h-1.9l-.2-1.2a6.7 6.7 0 0 1-3.7 1.5 3 3 0 0 1-3.3-2.9c0-2.2 2-3.3 6.8-3.6zm-2.8 4.7a4.6 4.6 0 0 0 2.8-1.2v-2.1c-3.5.2-4.6 1-4.6 2s.8 1.3 1.8 1.3zm8.3-8.3h6.5v9.8h-2.3v-8h-4.2zm3.6-3.2a1.5 1.5 0 0 1 1.6-1.6 1.6 1.6 0 0 1 1.7 1.6 1.5 1.5 0 0 1-1.7 1.5 1.5 1.5 0 0 1-1.6-1.5zm9.3 3.2h1.9l.2 2.2h.1a4.9 4.9 0 0 1 4.1-2.4 3.6 3.6 0 0 1 1.9.4l-.4 1.9a5.7 5.7 0 0 0-1.8-.3c-1.4 0-2.7.7-3.7 2.6v5.4h-2.3zm10.8-4.3h5.4v10.7a1.6 1.6 0 0 0 1.8 1.8 4.1 4.1 0 0 0 1.7-.4l.5 1.7a7.7 7.7 0 0 1-2.8.6c-2.3 0-3.5-1.4-3.5-3.8v-8.8h-3.1zm16.6 4.1a5.2 5.2 0 1 1-4.9 5.1 4.8 4.8 0 0 1 4.9-5.1zm0 8.4c1.6 0 2.6-1.3 2.6-3.3s-1-3.2-2.6-3.2-2.6 1.3-2.6 3.2 1 3.3 2.6 3.3zm13-8.4a5.2 5.2 0 0 1 3.7 1.4l-1.1 1.4a4 4 0 0 0-2.4-.9 3.3 3.3 0 1 0-.1 6.5 4.6 4.6 0 0 0 2.8-1.1l1 1.5a6.2 6.2 0 0 1-4 1.5c-3.1 0-5.4-1.9-5.4-5.2s2.5-5.1 5.5-5.1zm6.8-4.1h2.3v8.8h.1l4.4-4.5h2.6l-3.8 4 4.2 5.8h-2.5l-3.1-4.3-1.9 1.8v2.5h-2.3zM539.1 94.7h-4.3l-1 3.5h-2.4l4.2-13h2.8l4.2 13h-2.5zm-.5-1.8l-.4-1.6L537 87h-.1c-.3 1.4-.7 2.9-1.1 4.3l-.5 1.6zm5.8-8.8h5.4v10.7a1.6 1.6 0 0 0 1.8 1.8 4.1 4.1 0 0 0 1.7-.4l.5 1.7a7.7 7.7 0 0 1-2.8.6c-2.3 0-3.5-1.4-3.5-3.8v-8.8h-3.1zm12.3 4.3h6.5v9.8h-2.3v-8h-4.2zm3.6-3.2a1.5 1.5 0 0 1 1.6-1.6 1.6 1.6 0 0 1 1.7 1.6 1.5 1.5 0 0 1-1.7 1.5 1.5 1.5 0 0 1-1.6-1.5zm9.5 12.7a1.8 1.8 0 0 1-1-1.6 2.5 2.5 0 0 1 1.2-1.9 2.8 2.8 0 0 1-1.3-2.5c0-2.2 1.9-3.5 4.1-3.5l1.5.2h4v1.7H576a2.4 2.4 0 0 1 .7 1.7c0 2.2-1.7 3.3-3.9 3.3l-1.5-.2a1 1 0 0 0-.6.9q0 .9 1.8.9h2c2.6 0 3.9.7 3.9 2.4s-2.2 3.5-5.7 3.5-4.5-.9-4.5-2.6.6-1.7 1.6-2.3zm3.2 3.2c1.9 0 3.2-.8 3.2-1.6s-.7-1-2-1h-3.1c-.7.4-.9.8-.9 1.3s1 1.3 2.8 1.3zm1.6-9.4a1.8 1.8 0 0 0-1.8-1.9 1.8 1.8 0 0 0-1.9 1.9 1.8 1.8 0 0 0 1.9 2 1.8 1.8 0 0 0 1.8-2zm6-3.3h1.9l.2 1.5h.1a4.9 4.9 0 0 1 3.5-1.7c2.3 0 3.3 1.4 3.3 4v6h-2.3v-5.7c0-1.6-.5-2.3-1.8-2.3a3.3 3.3 0 0 0-2.5 1.3v6.7h-2.4zm24 0h1.9l.2 1.5h.1a4.9 4.9 0 0 1 3.5-1.7c2.3 0 3.3 1.4 3.3 4v6h-2.3v-5.7c0-1.6-.5-2.3-1.8-2.3a3.3 3.3 0 0 0-2.5 1.3v6.7h-2.4zm16.4-.2a5.2 5.2 0 1 1-4.9 5.1 4.8 4.8 0 0 1 4.9-5.1zm0 8.4c1.6 0 2.6-1.3 2.6-3.3s-1-3.2-2.6-3.2-2.6 1.3-2.6 3.2 1 3.3 2.6 3.3zm11.4-8.4a3.7 3.7 0 0 1 2.7 1.1v-5.2h2.4v14.1h-1.9l-.2-1.1h-.1a4 4 0 0 1-2.9 1.4c-2.6 0-4.2-1.9-4.2-5.2s2-5.1 4.2-5.1zm.4 8.4a2.8 2.8 0 0 0 2.2-1.2V91a2.7 2.7 0 0 0-2.1-.9c-1.3 0-2.5 1.2-2.5 3.2s.9 3.3 2.4 3.3zm12.5-8.4c2.9 0 4.5 1.9 4.5 4.6a3.1 3.1 0 0 1-.1 1.1h-7.1a3 3 0 0 0 3.3 2.8 5.7 5.7 0 0 0 2.8-.8l.7 1.4a6.9 6.9 0 0 1-3.8 1.2c-3 0-5.4-1.9-5.4-5.2a5 5 0 0 1 5.1-5.1zm2.4 4.3a2.2 2.2 0 0 0-2.4-2.5 2.6 2.6 0 0 0-2.7 2.5zm140.1 5.7l-2.8-5.1h-2v5.1h-2.3v-13h4.3c2.8 0 4.9.9 4.9 3.8a3.9 3.9 0 0 1-2.6 3.8l3.1 5.4zm-4.8-6.9h1.8c1.8 0 2.8-.8 2.8-2.3s-1-2-2.8-2H783zm14-3.1a5.2 5.2 0 1 1-4.9 5.1 4.8 4.8 0 0 1 4.9-5.1zm0 8.4c1.6 0 2.6-1.3 2.6-3.3s-1-3.2-2.6-3.2-2.6 1.3-2.6 3.2 1 3.3 2.6 3.3zm9.8-6.4h-2.6v-1.7h2.7l.3-2.7h1.9v2.7h4.5v1.8h-4.5v4.1c0 1.6.6 2.3 2.3 2.3a4.6 4.6 0 0 0 2.1-.4l.5 1.7a10.1 10.1 0 0 1-3.2.6c-3 0-4-1.7-4-4.2zm16.4 1.8a2 2 0 0 0-2.3-2 7.2 7.2 0 0 0-3.3 1.1l-.8-1.6a9.1 9.1 0 0 1 4.5-1.3c2.7 0 4.2 1.5 4.2 4.2v5.8h-1.9l-.2-1.2a6.7 6.7 0 0 1-3.7 1.5 3 3 0 0 1-3.3-2.9c0-2.2 2-3.3 6.8-3.6zm-2.8 4.7a4.6 4.6 0 0 0 2.8-1.2v-2.1c-3.5.2-4.6 1-4.6 2s.8 1.3 1.8 1.3zm10.4-6.5h-2.6v-1.7h2.7l.3-2.7h1.9v2.7h4.5v1.8h-4.5v4.1c0 1.6.6 2.3 2.3 2.3a4.6 4.6 0 0 0 2.1-.4l.5 1.7a10.1 10.1 0 0 1-3.2.6c-3 0-4-1.7-4-4.2zm14.5-2c2.9 0 4.5 1.9 4.5 4.6a3.1 3.1 0 0 1-.1 1.1h-7.1a3 3 0 0 0 3.3 2.8 5.7 5.7 0 0 0 2.8-.8l.7 1.4a6.9 6.9 0 0 1-3.8 1.2c-3 0-5.4-1.9-5.4-5.2a5 5 0 0 1 5.1-5.1zm2.4 4.3a2.2 2.2 0 0 0-2.4-2.5 2.6 2.6 0 0 0-2.7 2.5zm20.7-4.3a3.7 3.7 0 0 1 2.7 1.1v-5.2h2.4v14.1h-1.9l-.2-1.1h-.1a4 4 0 0 1-2.9 1.4c-2.6 0-4.2-1.9-4.2-5.2s2-5.1 4.2-5.1zm.4 8.4a2.8 2.8 0 0 0 2.2-1.2V91a2.7 2.7 0 0 0-2.1-.9c-1.3 0-2.5 1.2-2.5 3.2s.9 3.3 2.4 3.3zm7.9-8.2h6.5v9.8h-2.3v-8h-4.2zm3.6-3.2a1.5 1.5 0 0 1 1.6-1.6 1.6 1.6 0 0 1 1.7 1.6 1.5 1.5 0 0 1-1.7 1.5 1.5 1.5 0 0 1-1.6-1.5zm9 10.3a6.2 6.2 0 0 0 3.8 1.2c1.6 0 2.3-.5 2.3-1.1s-1-1.1-2.9-1.7-3.7-1.3-3.7-2.8 1.6-2.9 4.4-2.9a7.4 7.4 0 0 1 4.1 1.3l-1.1 1.4a5.4 5.4 0 0 0-3-1c-1.5 0-2.1.5-2.1 1.1s1.2 1.1 2.8 1.5 3.8 1.3 3.8 2.9-1.7 3.1-4.6 3.1a9.5 9.5 0 0 1-4.9-1.5zm11.3-11.4h2.4v3.7l-.2 2.1a4.9 4.9 0 0 1 3.5-1.7c2.3 0 3.3 1.4 3.3 4v6h-2.3v-5.7c0-1.6-.5-2.3-1.8-2.3a3.3 3.3 0 0 0-2.5 1.3v6.7h-2.4zM787.8 192.2l-2.8-5.1h-2v5.1h-2.3v-13h4.3c2.8 0 4.9.9 4.9 3.8a3.9 3.9 0 0 1-2.6 3.8l3.1 5.4zm-4.8-6.9h1.8c1.8 0 2.8-.8 2.8-2.3s-1-2-2.8-2H783zm14.3-3.1c2.9 0 4.5 1.9 4.5 4.6a3.1 3.1 0 0 1-.1 1.1h-7.1a3 3 0 0 0 3.3 2.8 5.7 5.7 0 0 0 2.8-.8l.7 1.4a6.9 6.9 0 0 1-3.8 1.2c-3 0-5.4-1.9-5.4-5.2a5 5 0 0 1 5.1-5.1zm2.4 4.3a2.2 2.2 0 0 0-2.4-2.5 2.6 2.6 0 0 0-2.7 2.5zm7.3 6.6v3h-2.4v-13.7h1.9l.2 1.1h.1a5.1 5.1 0 0 1 3.1-1.3c2.6 0 4 1.9 4 5s-2.1 5.3-4.3 5.3a3.9 3.9 0 0 1-2.7-1.2zm2.1-2.5c1.4 0 2.5-1.2 2.5-3.4s-.7-3.1-2.3-3.1a2.9 2.9 0 0 0-2.3 1.2v4.4a3.5 3.5 0 0 0 2.1.9zm14.1-4.6a2 2 0 0 0-2.3-2 7.2 7.2 0 0 0-3.3 1.1l-.8-1.6a9.1 9.1 0 0 1 4.5-1.3c2.7 0 4.2 1.5 4.2 4.2v5.8h-1.9l-.2-1.2a6.7 6.7 0 0 1-3.7 1.5 3 3 0 0 1-3.3-2.9c0-2.2 2-3.3 6.8-3.6zm-2.8 4.7a4.6 4.6 0 0 0 2.8-1.2v-2.1c-3.5.2-4.6 1-4.6 2s.8 1.3 1.8 1.3zm8.3-8.3h6.5v9.8h-2.3v-8h-4.2zm3.6-3.2a1.5 1.5 0 0 1 1.6-1.6 1.6 1.6 0 0 1 1.7 1.6 1.5 1.5 0 0 1-1.7 1.5 1.5 1.5 0 0 1-1.6-1.5zm9.3 3.2h1.9l.2 2.2h.1a4.9 4.9 0 0 1 4.1-2.4 3.6 3.6 0 0 1 1.9.4l-.4 1.9a5.7 5.7 0 0 0-1.8-.3c-1.4 0-2.7.7-3.7 2.6v5.4h-2.3zm23-4.3h2.4v5.4a4.5 4.5 0 0 1 3-1.3c2.6 0 4 1.9 4 5s-2.1 5.3-4.3 5.3a4.7 4.7 0 0 1-2.9-1.3l-.2 1h-1.9zm4.5 12.5c1.4 0 2.5-1.2 2.5-3.4s-.7-3.1-2.3-3.1a2.9 2.9 0 0 0-2.3 1.2v4.4a3.5 3.5 0 0 0 2.1.9zm8.5-8.2h1.9l.2 2.2h.1a4.9 4.9 0 0 1 4.1-2.4 3.6 3.6 0 0 1 1.9.4l-.4 1.9a5.7 5.7 0 0 0-1.8-.3c-1.4 0-2.7.7-3.7 2.6v5.4h-2.3zm17.6 3.6a2 2 0 0 0-2.3-2 7.2 7.2 0 0 0-3.3 1.1l-.8-1.6a9.1 9.1 0 0 1 4.5-1.3c2.7 0 4.2 1.5 4.2 4.2v5.8h-1.9l-.2-1.2a6.7 6.7 0 0 1-3.7 1.5 3 3 0 0 1-3.3-2.9c0-2.2 2-3.3 6.8-3.6zm-2.8 4.7a4.6 4.6 0 0 0 2.8-1.2v-2.1c-3.5.2-4.6 1-4.6 2s.8 1.3 1.8 1.3zm13.6-8.5a5.2 5.2 0 0 1 3.7 1.4l-1.1 1.4a4 4 0 0 0-2.4-.9 3.3 3.3 0 1 0-.1 6.5 4.6 4.6 0 0 0 2.8-1.1l1 1.5a6.2 6.2 0 0 1-4 1.5c-3.1 0-5.4-1.9-5.4-5.2s2.5-5.1 5.5-5.1zm11.3 0c2.9 0 4.5 1.9 4.5 4.6a3.1 3.1 0 0 1-.1 1.1h-7.1a3 3 0 0 0 3.3 2.8 5.7 5.7 0 0 0 2.8-.8l.7 1.4a6.9 6.9 0 0 1-3.8 1.2c-3 0-5.4-1.9-5.4-5.2a5 5 0 0 1 5.1-5.1zm2.4 4.3a2.2 2.2 0 0 0-2.4-2.5 2.6 2.6 0 0 0-2.7 2.5z"/><path fill="#63666a" d="M298.3 31.9h3.8v-11h-3.8v-2.3h10.4v2.3h-3.8v11h3.8v2.3h-10.4zm14.4-9.4h2.2l.3 1.7h.1a5.8 5.8 0 0 1 4.2-2c2.7 0 4 1.7 4 4.8v7.2h-2.8v-6.9c0-1.9-.6-2.7-2.2-2.7a3.8 3.8 0 0 0-3 1.6v8h-2.8zm31.6 12.7v3.7h-2.8V22.5h2.2l.3 1.3a6.2 6.2 0 0 1 3.8-1.6c3.1 0 4.8 2.3 4.8 6s-2.5 6.3-5.2 6.3a4.7 4.7 0 0 1-3.2-1.4zm2.5-2.9c1.7 0 3-1.4 3-4.1s-.8-3.7-2.8-3.7a3.6 3.6 0 0 0-2.7 1.4v5.3a3.7 3.7 0 0 0 2.5 1.1zm10.2-9.8h2.3l.2 2.6h.1a5.8 5.8 0 0 1 5-2.9 4.1 4.1 0 0 1 2.3.5l-.6 2.3a4.6 4.6 0 0 0-2.1-.4c-1.6 0-3.2.9-4.4 3.1v6.5H357zm18.5-.3a5.8 5.8 0 0 1 5.9 6.2 5.9 5.9 0 1 1-11.8 0 5.8 5.8 0 0 1 5.9-6.2zm0 10.1c1.9 0 3.1-1.6 3.1-3.9s-1.2-4-3.1-4-3.1 1.6-3.1 4 1.2 3.9 3.1 3.9zm10.6 1.5a1.9 1.9 0 0 1-1.2-1.9 2.9 2.9 0 0 1 1.4-2.3 3.3 3.3 0 0 1-1.5-3c0-2.7 2.2-4.2 4.8-4.2a5.8 5.8 0 0 1 1.9.3h4.8v2h-2.8a3.3 3.3 0 0 1 .8 2c0 2.6-2 4-4.7 4a6.2 6.2 0 0 1-1.8-.3 1.4 1.4 0 0 0-.7 1.1c0 .8.8 1.1 2.2 1.1h2.4c3.1 0 4.7.8 4.7 2.9s-2.7 4.2-6.8 4.2-5.4-1.1-5.4-3.2a3 3 0 0 1 1.9-2.7zm3.8 3.9c2.3 0 3.8-1 3.8-2s-.8-1.1-2.4-1.1h-1.9l-1.8-.2a1.9 1.9 0 0 0-1.1 1.6c0 1 1.2 1.7 3.4 1.7zm2-11.3a2.3 2.3 0 0 0-2.3-2.3 2.2 2.2 0 0 0-2.2 2.3 2.2 2.2 0 0 0 2.2 2.4 2.3 2.3 0 0 0 2.3-2.4zm8.3-3.9h2.3l.2 2.6h.1a5.8 5.8 0 0 1 5-2.9 4.1 4.1 0 0 1 2.3.5l-.6 2.3a4.6 4.6 0 0 0-2.1-.4c-1.6 0-3.2.9-4.4 3.1v6.5h-2.8zm18.8-.3c3.5 0 5.5 2.3 5.5 5.6 0 .5-.1 1-.1 1.3h-8.6a3.7 3.7 0 0 0 4 3.3 6.7 6.7 0 0 0 3.3-1l.9 1.8a8.6 8.6 0 0 1-4.6 1.3c-3.6 0-6.4-2.2-6.4-6.1a6 6 0 0 1 6-6.2zm3 5.1a2.7 2.7 0 0 0-2.9-3 3.2 3.2 0 0 0-3.3 3zm6.7 3.7a7.5 7.5 0 0 0 4.5 1.4c1.9 0 2.7-.6 2.7-1.4s-1.1-1.3-3.4-1.9-4.4-1.6-4.4-3.4 1.9-3.5 5.2-3.5a9.2 9.2 0 0 1 4.9 1.5l-1.3 1.7a6.1 6.1 0 0 0-3.6-1.1c-1.8 0-2.4.5-2.4 1.3s1.4 1.3 3.3 1.7 4.5 1.6 4.5 3.6-2 3.6-5.5 3.6a10.8 10.8 0 0 1-5.8-1.8zm14.4 0a7.5 7.5 0 0 0 4.5 1.4c1.9 0 2.7-.6 2.7-1.4s-1.1-1.3-3.4-1.9-4.4-1.6-4.4-3.4 1.9-3.5 5.2-3.5a9.2 9.2 0 0 1 4.9 1.5l-1.3 1.7a6.1 6.1 0 0 0-3.6-1.1c-1.8 0-2.4.5-2.4 1.3s1.4 1.3 3.3 1.7 4.5 1.6 4.5 3.6-2 3.6-5.5 3.6a10.8 10.8 0 0 1-5.8-1.8zm119.6.9h3.8v-11h-3.8v-2.3h10.4v2.3h-3.8v11h3.8v2.3h-10.4zm14.4-9.4h2.2l.3 1.7h.1a5.8 5.8 0 0 1 4.2-2c2.7 0 4 1.7 4 4.8v7.2h-2.8v-6.9c0-1.9-.6-2.7-2.2-2.7a3.8 3.8 0 0 0-3 1.6v8h-2.8zm29.9 0h2.3l.2 2.6h.1a5.8 5.8 0 0 1 5-2.9 4.1 4.1 0 0 1 2.3.5l-.6 2.3a4.6 4.6 0 0 0-2.1-.4c-1.6 0-3.2.9-4.4 3.1v6.5H607zm18.8-.3c3.5 0 5.5 2.3 5.5 5.6 0 .5-.1 1-.1 1.3h-8.6a3.7 3.7 0 0 0 4 3.3 6.7 6.7 0 0 0 3.3-1l.9 1.8a8.6 8.6 0 0 1-4.6 1.3c-3.6 0-6.4-2.2-6.4-6.1a6 6 0 0 1 6-6.2zm3 5.1a2.7 2.7 0 0 0-2.9-3 3.2 3.2 0 0 0-3.3 3zm4.9-4.8h2.8l2.2 6.1c.5 1.2.8 2.3 1.2 3.5h.1l1.2-3.5 2.3-6.1h2.6l-4.6 11.7h-3.1zm15.4 0h7.9v11.7h-2.8v-9.6h-5.1zm4.3-3.9a1.9 1.9 0 0 1 2-1.9 1.8 1.8 0 0 1 2 1.9 1.8 1.8 0 0 1-2 1.8 1.8 1.8 0 0 1-2-1.8zm15.6 3.6c3.5 0 5.5 2.3 5.5 5.6 0 .5-.1 1-.1 1.3h-8.6a3.7 3.7 0 0 0 4 3.3 6.7 6.7 0 0 0 3.3-1l.9 1.8a8.6 8.6 0 0 1-4.6 1.3c-3.6 0-6.4-2.2-6.4-6.1a6 6 0 0 1 6-6.2zm3 5.1a2.7 2.7 0 0 0-2.9-3 3.2 3.2 0 0 0-3.3 3zm4-4.8h2.8l1.1 6.1c.2 1.1.3 2.2.4 3.4h.1l.6-3.4 1.1-5h2.1l1.1 5a34 34 0 0 1 .7 3.4h.1c.1-1.2.3-2.3.4-3.4l1.1-6.1h2.6L688 34.2h-3.3l-1-4.9-.6-3.4h-.1c-.1.9-.2 1.9-.5 3.5l-1 4.8h-3.2zm172.5-3.9h4.1c4.6 0 7.3 2.5 7.3 7.7s-2.7 7.9-7.2 7.9h-4.2zm3.9 13.4c3 0 4.7-1.8 4.7-5.7s-1.7-5.5-4.7-5.5h-1.1V32zm15.9-9.8a5.8 5.8 0 0 1 5.9 6.2 5.9 5.9 0 1 1-11.8 0 5.8 5.8 0 0 1 5.9-6.2zm0 10.1c1.9 0 3.1-1.6 3.1-3.9s-1.2-4-3.1-4-3.1 1.6-3.1 4 1.2 3.9 3.1 3.9zm9.2-9.8h2.2l.3 1.7h.1a5.8 5.8 0 0 1 4.2-2c2.7 0 4 1.7 4 4.8v7.2h-2.8v-6.9c0-1.9-.6-2.7-2.2-2.7a3.8 3.8 0 0 0-3 1.6v8h-2.8zm19.9-.3c3.5 0 5.5 2.3 5.5 5.6 0 .5-.1 1-.1 1.3h-8.6a3.7 3.7 0 0 0 4 3.3 6.7 6.7 0 0 0 3.3-1l.9 1.8a8.6 8.6 0 0 1-4.6 1.3c-3.6 0-6.4-2.2-6.4-6.1a6 6 0 0 1 6-6.2zm3 5.1a2.7 2.7 0 0 0-2.9-3 3.2 3.2 0 0 0-3.3 3z"/><path fill="none" stroke="#d9d8e3" stroke-miterlimit="10" stroke-width="5.79" d="M-6 53h1015"/><path fill="none" stroke="#d9d8e3" stroke-miterlimit="10" stroke-width="2.15" d="M500.5-5v445m-250 0V-5m500 0v445"/><path fill="none" stroke="#63666a" stroke-miterlimit="10" stroke-width="2.38" d="M20 73h210v75H20zm0 95h210v75H20zm251-95h210v75H271zm0 95h210v75H271zm499-95h210v75H770zm0 95h210v75H770zm-499 95h210v75H271zM520 73h210v75H520z"/><path fill="#4484c2" d="M422 225h51v12h-51zm0 95h51v12h-51z"/><path fill="#bbb6e3" d="M422 130h51v12h-51zm-251 95h51v12h-51z"/><path fill="#4484c2" d="M171 130h51v12h-51z"/><path fill="#bbb6e3" d="M670 130h51v12h-51z"/><path fill="#bcf5e8" d="M921 130h51v12h-51zm0 95h51v12h-51z"/></svg>