<svg xmlns="http://www.w3.org/2000/svg" width="1000" height="500" viewBox="0 0 1000 500"><defs><style>.a{fill:#5e54af;}.b{fill:#9d35af;}.c{fill:none;stroke:#000;stroke-miterlimit:10;stroke-width:5px;}.d{fill:#63666a;}</style></defs><title>transform-origin</title><path class="a" d="M79.641 170.237l230.656-111.104 111.104 230.656-230.656 111.104z"/><path class="b" d="M621.625 102.362l247.296-66.304 66.304 247.296-247.296 66.304z"/><circle class="c" cx="621.5" cy="102" r="14.2"/><path class="c" d="M621.5 108.1v-12.2M615.4 102h12.2"/><circle class="c" cx="250.5" cy="230" r="14.2"/><path class="c" d="M250.5 236.1v-12.2M244.4 230h12.2"/><path class="d" d="M100.2 446.3h-2.2v-1h2.2l.2-2.2h1.1v2.2h3.8v1.1h-3.8v3.6c0 1.4.5 2.1 2 2.1a5.1 5.1 0 0 0 1.9-.4l.3 1a7.3 7.3 0 0 1-2.4.5c-2.3 0-3-1.3-3-3.2v-3.7zM108.8 445.2h1.1v1.8a4.1 4.1 0 0 1 3.5-2 3.2 3.2 0 0 1 1.5.3l-.3 1.1a3.7 3.7 0 0 0-1.5-.3c-1.2 0-2.3.6-3.2 2.2v4.7h-1.3v-7.8zM123 448.1a1.8 1.8 0 0 0-2.1-2 5.4 5.4 0 0 0-2.7.9l-.5-.9a6.7 6.7 0 0 1 3.5-1.1 2.9 2.9 0 0 1 3.2 3.2v4.8h-1.1v-1.1a5.3 5.3 0 0 1-3.1 1.2c-1.5 0-2.6-.8-2.6-2.2s1.4-2.5 5.4-2.8zm-2.6 4.1a4.2 4.2 0 0 0 2.6-1.2v-2c-3.3.3-4.4.9-4.4 2s.9 1.1 1.8 1.1zM127.2 445.2h1.1v1.3h.1a4 4 0 0 1 2.9-1.5c1.8 0 2.7 1.1 2.7 3.1v4.9h-1.3v-4.7c0-1.5-.5-2.2-1.8-2.2s-1.6.5-2.5 1.4v5.5h-1.3v-7.8zM137.1 451.1a5.1 5.1 0 0 0 3.2 1.1c1.4 0 2.1-.5 2.1-1.2s-.6-1-2.5-1.5-3-1.1-3-2.2 1.1-2.2 3.3-2.2a5.8 5.8 0 0 1 3.1 1l-.6.8a4.3 4.3 0 0 0-2.5-.8c-1.5 0-1.9.5-1.9 1.1s1 1 2.4 1.4 3.1 1.1 3.1 2.3-1.2 2.3-3.5 2.3a6.8 6.8 0 0 1-3.8-1.2zM153.9 442.9a4 4 0 0 0-1.8-.4 1.8 1.8 0 0 0-2 2v.7h3.3v1.1h-3.3v6.7h-1.3v-6.7h-2.2v-1h2.2v-.7a2.8 2.8 0 0 1 3.1-3.2 5.8 5.8 0 0 1 2.2.4zM159.3 445a4.1 4.1 0 1 1-3.8 4.1 3.8 3.8 0 0 1 3.8-4.1zm0 7.1c1.5 0 2.5-1.2 2.5-3s-1-3-2.5-3-2.5 1.2-2.5 3 1 3 2.5 3zM166.4 445.2h1.1v1.8a4.1 4.1 0 0 1 3.5-2 3.2 3.2 0 0 1 1.5.3l-.3 1.1a3.7 3.7 0 0 0-1.5-.3c-1.2 0-2.3.6-3.2 2.2v4.7h-1.3v-7.8zM174.7 445.2h1v1a1.9 1.9 0 0 1 1.7-1.2 1.4 1.4 0 0 1 1.5 1.3 2.1 2.1 0 0 1 1.8-1.3c1.1 0 1.7.8 1.7 2.4v5.6h-1.3v-5.5c0-.9-.3-1.4-.8-1.4a1.6 1.6 0 0 0-1.3 1.2v5.7h-1.1v-5.5c0-.9-.3-1.4-.9-1.4s-.9.4-1.3 1.2v5.7h-1.3v-7.8zM185.5 447.7h5.3v1.2h-5.3v-1.2zM197.7 445a4.1 4.1 0 1 1-3.8 4.1 3.8 3.8 0 0 1 3.8-4.1zm0 7.1c1.5 0 2.5-1.2 2.5-3s-1-3-2.5-3-2.5 1.2-2.5 3 1 3 2.5 3zM204.8 445.2h1.1v1.8a4.1 4.1 0 0 1 3.5-2 3.2 3.2 0 0 1 1.5.3l-.3 1.1a3.7 3.7 0 0 0-1.5-.3c-1.2 0-2.3.6-3.2 2.2v4.7h-1.3v-7.8zM213.5 445.2h4.9v7.8h-1.3v-6.7h-3.6v-1.1zm3.1-2.6a1.1 1.1 0 1 1 1.1 1 1 1 0 0 1-1.1-1zM224.1 452.7a1.4 1.4 0 0 1-.8-1.3 1.9 1.9 0 0 1 .9-1.5 2.5 2.5 0 0 1-1-2 2.9 2.9 0 0 1 3.1-2.8l1.2.2h3.2v1h-2.1a2.4 2.4 0 0 1 .7 1.6 2.7 2.7 0 0 1-3 2.7l-1.3-.3a1.1 1.1 0 0 0-.6.9c0 .6.6.9 1.6.9h1.7c2 0 3 .5 3 1.8s-1.7 2.7-4.3 2.7-3.6-.8-3.6-2.2a2.2 2.2 0 0 1 1.3-1.7zm2.4 3c1.8 0 2.9-.8 2.9-1.6s-.6-.9-1.8-.9h-2.6a1.5 1.5 0 0 0-1 1.3c0 .6.9 1.2 2.5 1.2zm1.6-7.9a1.8 1.8 0 1 0-1.8 1.8 1.8 1.8 0 0 0 1.9-1.8zM232.7 445.2h4.9v7.8h-1.3v-6.7h-3.6v-1.1zm3.1-2.6a1.1 1.1 0 1 1 1.1 1 1 1 0 0 1-1.1-1zM242.4 445.2h1.1v1.3h.1a4 4 0 0 1 2.9-1.5c1.8 0 2.7 1.1 2.7 3.1v4.9h-1.2v-4.7c0-1.5-.5-2.2-1.8-2.2s-1.6.5-2.5 1.4v5.5h-1.3v-7.8zM255.3 444.8a1.4 1.4 0 1 1-1.3 1.3 1.3 1.3 0 0 1 1.3-1.3zm0 5.7a1.4 1.4 0 1 1-1.3 1.4 1.3 1.3 0 0 1 1.3-1.4zM275.3 445a4 4 0 0 1 2.8 1.1l-.7.8a3.1 3.1 0 0 0-2.1-.9 2.9 2.9 0 0 0-3 3 2.8 2.8 0 0 0 3 3 3.8 3.8 0 0 0 2.4-1l.6.8a4.6 4.6 0 0 1-3.1 1.2 3.9 3.9 0 0 1-4.3-4.1 4 4 0 0 1 4.4-3.9zM284.4 445a3.3 3.3 0 0 1 3.5 3.7 4.6 4.6 0 0 1 0 .7h-6.1a2.8 2.8 0 0 0 3 2.7 4.3 4.3 0 0 0 2.4-.7l.5.9a5.4 5.4 0 0 1-3 .9 4.1 4.1 0 0 1-.3-8.2zm2.3 3.5a2.2 2.2 0 0 0-2.3-2.5 2.6 2.6 0 0 0-2.6 2.5h4.9zM290.4 445.2h1.1v1.3h.1a4 4 0 0 1 2.9-1.5c1.8 0 2.7 1.1 2.7 3.1v4.9h-1.2v-4.7c0-1.5-.5-2.2-1.8-2.2s-1.6.5-2.5 1.4v5.5h-1.3v-7.8zM301.8 446.3h-2.2v-1h2.2l.2-2.3h1.1v2.2h3.8v1.1h-3.8v3.7c0 1.4.5 2.1 2 2.1a5.1 5.1 0 0 0 1.9-.4l.3 1a7.3 7.3 0 0 1-2.4.5c-2.3 0-3-1.3-3-3.2v-3.7zM313.2 445a3.3 3.3 0 0 1 3.5 3.7 4.6 4.6 0 0 1 0 .7h-6.1a2.8 2.8 0 0 0 3 2.7 4.3 4.3 0 0 0 2.4-.7l.5.9a5.4 5.4 0 0 1-3 .9 4.1 4.1 0 0 1-.3-8.2zm2.3 3.5a2.2 2.2 0 0 0-2.3-2.5 2.6 2.6 0 0 0-2.6 2.5h4.9zM320 445.2h1.1v1.8a4.1 4.1 0 0 1 3.5-2 3.2 3.2 0 0 1 1.5.3l-.3 1.1a3.7 3.7 0 0 0-1.5-.3c-1.2 0-2.3.6-3.2 2.2v4.7h-1.1v-7.8zM342.5 445a4 4 0 0 1 2.8 1.1l-.7.8a3.1 3.1 0 0 0-2.1-.9 2.9 2.9 0 0 0-3 3 2.8 2.8 0 0 0 3 3 3.8 3.8 0 0 0 2.4-1l.6.8a4.6 4.6 0 0 1-3.1 1.2 3.9 3.9 0 0 1-4.3-4.1 4 4 0 0 1 4.4-3.9zM351.6 445a3.3 3.3 0 0 1 3.5 3.7 4.6 4.6 0 0 1 0 .7h-6.1a2.8 2.8 0 0 0 3 2.7 4.3 4.3 0 0 0 2.4-.7l.5.9a5.4 5.4 0 0 1-3 .9 4.1 4.1 0 0 1-.3-8.2zm2.3 3.5a2.2 2.2 0 0 0-2.3-2.5 2.6 2.6 0 0 0-2.6 2.5h4.9zM357.6 445.2h1.1v1.3h.1a4 4 0 0 1 2.9-1.5c1.8 0 2.7 1.1 2.7 3.1v4.9h-1.3v-4.7c0-1.5-.5-2.2-1.8-2.2s-1.6.5-2.5 1.4v5.5h-1.3v-7.8zM369 446.3h-2.2v-1h2.2l.2-2.2h1.1v2.2h3.8v1.1h-3.8v3.6c0 1.4.5 2.1 2 2.1a5.1 5.1 0 0 0 1.9-.4l.3 1a7.3 7.3 0 0 1-2.4.5c-2.3 0-3-1.3-3-3.2v-3.7zM380.4 445a3.3 3.3 0 0 1 3.5 3.7 4.6 4.6 0 0 1 0 .7h-6.1a2.8 2.8 0 0 0 3 2.7 4.3 4.3 0 0 0 2.4-.7l.5.9a5.4 5.4 0 0 1-3 .9 4.1 4.1 0 0 1-.3-8.2zm2.3 3.5a2.2 2.2 0 0 0-2.3-2.5 2.6 2.6 0 0 0-2.6 2.5h4.9zM387.2 445.2h1.1v1.8a4.1 4.1 0 0 1 3.5-2 3.2 3.2 0 0 1 1.5.3l-.3 1.1a3.7 3.7 0 0 0-1.5-.3c-1.2 0-2.3.6-3.2 2.2v4.7h-1.3v-7.8zM397.7 455.6a2.9 2.9 0 0 0 2-2.7h-.3a1.1 1.1 0 0 1-1.2-1.2 1.2 1.2 0 0 1 1.3-1.2c.9 0 1.4.8 1.4 2a3.9 3.9 0 0 1-2.8 3.8zm.4-9.5a1.3 1.3 0 1 1 1.3 1.4 1.3 1.3 0 0 1-1.4-1.4zM652 446.3h-2.2v-1h2.2l.2-2.2h1.1v2.2h3.8v1.1h-3.8v3.6c0 1.4.5 2.1 2 2.1a5.1 5.1 0 0 0 1.9-.4l.3 1a7.3 7.3 0 0 1-2.4.5c-2.3 0-3-1.3-3-3.2v-3.7zM660.6 445.2h1.1v1.8a4.1 4.1 0 0 1 3.5-2 3.2 3.2 0 0 1 1.5.3l-.3 1.1a3.7 3.7 0 0 0-1.5-.3c-1.2 0-2.3.6-3.2 2.2v4.7h-1.3v-7.8zM674.8 448.1a1.8 1.8 0 0 0-2.1-2 5.4 5.4 0 0 0-2.7.9l-.5-.9a6.7 6.7 0 0 1 3.5-1.1 2.9 2.9 0 0 1 3.2 3.2v4.8h-1.2v-1.1a5.3 5.3 0 0 1-3.1 1.2c-1.5 0-2.6-.8-2.6-2.2s1.5-2.5 5.5-2.8zm-2.6 4.1a4.2 4.2 0 0 0 2.6-1.2v-2c-3.3.3-4.4.9-4.4 2s.9 1.1 1.8 1.1zM679 445.2h1v1.3h.1a4 4 0 0 1 2.9-1.5c1.8 0 2.7 1.1 2.7 3.1v4.9h-1.3v-4.7c0-1.5-.5-2.2-1.8-2.2s-1.6.5-2.5 1.4v5.5h-1.1v-7.8zM688.9 451.1a5.1 5.1 0 0 0 3.2 1.1c1.4 0 2.1-.5 2.1-1.2s-.6-1-2.5-1.5-3-1.1-3-2.2 1.1-2.2 3.3-2.2a5.8 5.8 0 0 1 3.1 1l-.6.8a4.3 4.3 0 0 0-2.5-.8c-1.5 0-1.9.5-1.9 1.1s1 1 2.4 1.4 3.1 1.1 3.1 2.3-1.2 2.3-3.5 2.3a6.8 6.8 0 0 1-3.8-1.2zM705.6 442.9a4 4 0 0 0-1.8-.4 1.8 1.8 0 0 0-2 2v.7h3.3v1.1h-3.3v6.7h-1.3v-6.7h-2.2v-1h2.2v-.7a2.8 2.8 0 0 1 3.1-3.2 5.8 5.8 0 0 1 2.2.4zM711.1 445a4.1 4.1 0 1 1-3.8 4.1 3.8 3.8 0 0 1 3.8-4.1zm0 7.1c1.5 0 2.5-1.2 2.5-3s-1-3-2.5-3-2.5 1.2-2.5 3 1 3 2.5 3zM718.2 445.2h1.1v1.8a4.1 4.1 0 0 1 3.5-2 3.2 3.2 0 0 1 1.5.3l-.3 1.1a3.7 3.7 0 0 0-1.5-.3c-1.2 0-2.3.6-3.2 2.2v4.7h-1.3v-7.8zM726.4 445.2h1v1a1.9 1.9 0 0 1 1.7-1.2 1.4 1.4 0 0 1 1.5 1.3 2.1 2.1 0 0 1 1.8-1.3c1.1 0 1.7.8 1.7 2.4v5.6h-1.3v-5.5c0-.9-.3-1.4-.8-1.4a1.6 1.6 0 0 0-1.3 1.2v5.7h-1.1v-5.5c0-.9-.3-1.4-.9-1.4s-.9.4-1.3 1.2v5.7h-1.3v-7.8zM737.2 447.7h5.3v1.2h-5.3v-1.2zM749.5 445a4.1 4.1 0 1 1-3.8 4.1 3.8 3.8 0 0 1 3.8-4.1zm0 7.1c1.5 0 2.5-1.2 2.5-3s-1-3-2.5-3-2.5 1.2-2.5 3 1 3 2.5 3zM756.6 445.2h1.1v1.8a4.1 4.1 0 0 1 3.5-2 3.2 3.2 0 0 1 1.5.3l-.3 1.1a3.7 3.7 0 0 0-1.5-.3c-1.2 0-2.3.6-3.2 2.2v4.7h-1.3v-7.8zM765.3 445.2h4.9v7.8h-1.3v-6.7h-3.6v-1.1zm3.1-2.6a1.1 1.1 0 1 1 1.1 1 1 1 0 0 1-1.1-1zM775.9 452.7a1.4 1.4 0 0 1-.8-1.3 1.9 1.9 0 0 1 .9-1.5 2.5 2.5 0 0 1-1-2 2.9 2.9 0 0 1 3.1-2.8l1.2.2h3.2v1h-2.1a2.4 2.4 0 0 1 .7 1.6 2.7 2.7 0 0 1-3 2.7l-1.3-.3a1.1 1.1 0 0 0-.6.9c0 .6.6.9 1.6.9h1.7c2 0 3 .5 3 1.8s-1.7 2.7-4.3 2.7-3.6-.8-3.6-2.2a2.2 2.2 0 0 1 1.3-1.7zm2.4 3c1.8 0 2.9-.8 2.9-1.6s-.6-.9-1.8-.9h-2.7a1.5 1.5 0 0 0-1 1.3c.1.6.9 1.2 2.6 1.2zm1.6-7.9a1.8 1.8 0 1 0-1.8 1.8 1.8 1.8 0 0 0 1.8-1.8zM784.5 445.2h4.9v7.8h-1.3v-6.7h-3.6v-1.1zm3.1-2.6a1.1 1.1 0 1 1 1.1 1 1 1 0 0 1-1.1-1zM794.1 445.2h1.1v1.3h.1a4 4 0 0 1 2.9-1.5c1.8 0 2.7 1.1 2.7 3.1v4.9h-1.3v-4.7c0-1.5-.5-2.2-1.8-2.2s-1.6.5-2.5 1.4v5.5h-1.3v-7.8zM807.1 444.8a1.4 1.4 0 1 1-1.3 1.3 1.3 1.3 0 0 1 1.3-1.3zm0 5.7a1.4 1.4 0 1 1-1.3 1.4 1.3 1.3 0 0 1 1.3-1.4zM822.8 441.6h4v8.9a1.4 1.4 0 0 0 1.5 1.6 3.5 3.5 0 0 0 1.5-.4l.3 1a5.5 5.5 0 0 1-2.1.5c-1.6 0-2.5-1-2.5-2.8v-7.7h-2.7v-1.1zM836.1 445a3.3 3.3 0 0 1 3.5 3.7 4.6 4.6 0 0 1 0 .7h-6.1a2.8 2.8 0 0 0 3 2.7 4.3 4.3 0 0 0 2.4-.7l.5.9a5.4 5.4 0 0 1-3 .9 4.1 4.1 0 0 1-.3-8.2zm2.3 3.5a2.2 2.2 0 0 0-2.3-2.5 2.6 2.6 0 0 0-2.6 2.5h4.9zM849.6 442.9a4 4 0 0 0-1.8-.4 1.8 1.8 0 0 0-2 2v.7h3.3v1.1h-3.3v6.7h-1.3v-6.7h-2.2v-1h2.2v-.7a2.8 2.8 0 0 1 3.1-3.2 5.8 5.8 0 0 1 2.2.4zM853.6 446.3h-2.2v-1h2.2l.2-2.2h1.1v2.2h3.8v1.1h-3.8v3.6c0 1.4.5 2.1 2 2.1a5.1 5.1 0 0 0 1.9-.4l.3 1a7.3 7.3 0 0 1-2.4.5c-2.3 0-3-1.3-3-3.2v-3.7zM872.8 446.3h-2.2v-1h2.2l.2-2.3h1.1v2.2h3.8v1.1h-3.8v3.7c0 1.4.5 2.1 2 2.1a5.1 5.1 0 0 0 1.9-.4l.3 1a7.3 7.3 0 0 1-2.4.5c-2.3 0-3-1.3-3-3.2v-3.7zM883.9 445a4.1 4.1 0 1 1-3.8 4.1 3.8 3.8 0 0 1 3.8-4.1zm0 7.1c1.5 0 2.5-1.2 2.5-3s-1-3-2.5-3-2.5 1.2-2.5 3 1 3 2.5 3zM891.5 453.7v2.6h-1.3v-11.1h1.1v1a4.1 4.1 0 0 1 2.7-1.2c2.1 0 3.2 1.6 3.2 4s-1.7 4.2-3.5 4.2a3.7 3.7 0 0 1-2.3-1v1.5zm2.1-1.6c1.4 0 2.4-1.2 2.4-3.1s-.6-2.9-2.2-2.9a3.4 3.4 0 0 0-2.3 1.2v3.9a3.4 3.4 0 0 0 2 .9zM901.4 455.6a2.9 2.9 0 0 0 2-2.7h-.3a1.1 1.1 0 0 1-1.2-1.2 1.2 1.2 0 0 1 1.3-1.2c.9 0 1.4.8 1.4 2a3.9 3.9 0 0 1-2.8 3.8zm.4-9.5a1.3 1.3 0 1 1 1.3 1.4 1.3 1.3 0 0 1-1.3-1.4z"/></svg>