<svg xmlns:xlink="http://www.w3.org/1999/xlink" enable-background="new 0 0 1000 500" viewBox="0 0 1000 500"><pattern id="a" width="19.2" height="19.4" y="500" overflow="visible" patternUnits="userSpaceOnUse" viewBox="0 -19.4 19.2 19.4"><path fill="none" d="M0-19.4h19.2V0H0z"/><path fill="none" d="M0 0h19.2v-19.4H0z"/><path fill="#e8e8e8" d="M0 0h9.7v-9.7H0z"/><path fill="none" d="M0-9.7h9.7v-9.7H0zM9.5 0h9.7v-9.7H9.5z"/><path fill="#e8e8e8" d="M9.5-9.7h9.7v-9.7H9.5z"/></pattern><pattern xlink:href="#a" id="b" patternTransform="matrix(1.32 0 0 -1.32 2458.6 -18717.2)"/><path fill="url(#b)" d="M228 415V19h544v396z"/><path d="M469.1 38.3h1.1v1.1h.1c.3-.8 1.1-1.3 1.9-1.3s1.5.7 1.6 1.5c.5-.9 1.1-1.5 2-1.5s1.9.9 1.9 2.7V47h-1.4v-6.1c0-1-.3-1.5-.9-1.5s-1 .4-1.5 1.3v6.2h-1.2v-6c0-1-.3-1.5-1-1.5s-1 .4-1.4 1.3v6.2h-1.4zm17.3 3.2a2 2 0 0 0-1.8-2.2h-.5c-1.1.1-2.1.4-3 1l-.6-1a7.1 7.1 0 0 1 3.8-1.2c2.4 0 3.5 1.4 3.5 3.5v5.3h-1.2v-1.2h-.1a6 6 0 0 1-3.4 1.4c-1.6 0-2.9-.9-2.9-2.4s1.7-2.9 6.2-3.2zm-3 4.5c1.1-.1 2.1-.5 2.9-1.3v-2.3c-3.7.3-4.8 1-4.8 2.2s.9 1.4 1.9 1.4zm8.5-7.7h1.2v2h.1a4.5 4.5 0 0 1 3.9-2.3c.6 0 1.2.1 1.7.4l-.3 1.3c-.5-.2-1.1-.3-1.6-.3-1.3 0-2.5.7-3.5 2.5V47h-1.5zm10.8 8.3c-.5-.3-.9-.8-.9-1.4.1-.7.4-1.3 1-1.6a2.7 2.7 0 0 1-1.1-2.2c.1-1.8 1.5-3.2 3.3-3.1h.1l1.3.2h3.6v1.1h-2.3c.5.5.8 1.1.8 1.8 0 1.8-1.5 3-3.3 3a4 4 0 0 1-1.5-.3c-.4.2-.7.6-.7 1 0 .7.7 1 1.8 1h1.9c2.2 0 3.3.6 3.3 2s-1.9 3-4.8 3-4-.9-4-2.4c0-.9.6-1.8 1.5-2.1zm2.7 3.3c2 0 3.2-.9 3.2-1.8s-.7-1-2-1h-3c-.8.4-1.1.9-1.1 1.4s1 1.4 2.8 1.4zm1.8-8.7c0-1.1-.9-2-2-2s-2 .9-2 2 .9 2 2 2c1 0 1.9-.8 1.9-1.9v-.1zm5-2.9h5.5v8.6h-1.5v-7.4h-4zm3.4-2.9c-.1-.7.4-1.2 1.1-1.3s1.2.4 1.3 1.1-.4 1.2-1.1 1.3h-.1c-.6.1-1.1-.4-1.2-1zm7.3 2.9h1.2v1.5h.1c.8-1 1.9-1.6 3.2-1.7 2 0 3 1.2 3 3.5V47h-1.5v-5.2c0-1.6-.6-2.4-2-2.4s-1.7.5-2.7 1.6v6h-1.5zm-53.8 348.6h1.1v1.1h.1c.3-.8 1.1-1.3 1.9-1.3s1.5.7 1.6 1.5c.5-.9 1.1-1.5 2-1.5s1.9.9 1.9 2.7v6.2h-1.4v-6.1c0-1-.3-1.5-.9-1.5s-1 .4-1.5 1.3v6.2h-1.2v-6.1c0-1-.3-1.5-1-1.5s-1 .4-1.4 1.3v6.2h-1.4zm17.3 3.1a2 2 0 0 0-1.8-2.2h-.5c-1.1.1-2.1.4-3 1l-.6-1a7.1 7.1 0 0 1 3.8-1.2c2.4 0 3.5 1.4 3.5 3.5v5.3h-1.2v-1.2h-.1a6 6 0 0 1-3.4 1.4c-1.6 0-2.9-.9-2.9-2.4s1.7-2.8 6.2-3.2zm-2.9 4.5c1.1-.1 2.1-.5 2.9-1.3V391c-3.7.3-4.8 1-4.8 2.2s.8 1.3 1.8 1.3zm8.4-7.6h1.2v2h.1a4.5 4.5 0 0 1 3.9-2.3c.6 0 1.2.1 1.7.4l-.3 1.3c-.5-.2-1.1-.3-1.6-.3-1.3 0-2.5.7-3.5 2.5v5.1h-1.5zm10.8 8.2c-.5-.3-.9-.8-.9-1.4.1-.7.4-1.3 1-1.6a2.7 2.7 0 0 1-1.1-2.2c.1-1.8 1.5-3.2 3.3-3.1h.1l1.3.2h3.6v1h-2.3c.5.5.8 1.1.8 1.8 0 1.8-1.5 3-3.3 3a4 4 0 0 1-1.5-.3c-.4.2-.7.6-.7 1 0 .7.7 1 1.8 1h1.9c2.2 0 3.3.6 3.3 2s-1.9 3-4.8 3-4-.9-4-2.4c.1-.9.7-1.7 1.5-2zm2.7 3.3c2 0 3.2-.9 3.2-1.8s-.7-1-2-1h-3c-.8.4-1.1.9-1.1 1.4s1 1.4 2.8 1.4zm1.8-8.7c0-1.1-.9-2-2-2s-2 .9-2 2 .9 2 2 2c1 0 1.9-.8 1.9-1.9v-.1zm5-2.8h5.5v8.6h-1.5V388h-4zm3.4-2.9c-.1-.7.4-1.2 1.1-1.3s1.2.4 1.3 1.1-.4 1.2-1.1 1.3h-.1c-.6.1-1.1-.4-1.2-1zm7.3 2.9h1.2v1.5h.1c.8-1 1.9-1.6 3.2-1.7 2 0 3 1.2 3 3.5v5.4h-1.5v-5.2c0-1.6-.6-2.4-2-2.4s-1.7.5-2.7 1.6v6h-1.5zm223.2-136v-1.1h1.1c-.8-.3-1.3-1.1-1.3-1.9s.7-1.5 1.5-1.6c-.9-.5-1.5-1.1-1.5-2s.9-1.9 2.7-1.9h6.2v1.4h-6.1c-1 0-1.5.3-1.5.9s.4 1 1.3 1.5h6.2v.8h-6.1c-1 0-1.5.3-1.5 1s.4 1 1.3 1.4h6.2v1.4zm3.2-17.3a2 2 0 0 0-2.2 1.8v.5c.1 1.1.4 2.1 1 3l-1 .6a7.1 7.1 0 0 1-1.2-3.8c0-2.4 1.4-3.5 3.5-3.5h5.3v1.2h-1.2a6 6 0 0 1 1.4 3.4c0 1.6-.9 2.9-2.4 2.9s-2.9-1.7-3.2-6.1zm4.5 2.9a4.6 4.6 0 0 0-1.3-2.9h-2.3c.3 3.7 1 4.8 2.2 4.8s1.4-.9 1.4-1.9zm-7.7-8.5v-1.2h2a4.5 4.5 0 0 1-2.3-3.9c0-.6.1-1.2.4-1.7l1.3.3c-.2.5-.3 1.1-.3 1.6 0 1.3.7 2.5 2.5 3.5h5.1v1.4zm8.3-10.7c-.4.5-.9.9-1.5.9-.7-.1-1.3-.4-1.6-1h-.1c-.5.7-1.3 1.1-2.2 1.1-1.8-.1-3.2-1.5-3.1-3.3v-.1l.2-1.3V210h1.1v2.3c.5-.5 1.1-.8 1.8-.8 1.8 0 3 1.5 3 3.3l-.3 1.5c.2.4.6.7 1 .7.7 0 1-.7 1-1.8v-1.9c0-2.2.6-3.3 2-3.3s3 1.9 3 4.8-.9 4-2.4 4c-.9-.1-1.6-.7-1.9-1.5zm-5.4-4.5c-1.1 0-2 .9-2 2s.9 2 2 2 2-.9 2-2c.1-1-.7-1.9-1.8-2h-.2zm8.7 1.8c0-2-.9-3.2-1.8-3.2s-1 .7-1 2v1.6l-.1 1.3c.4.8.9 1.1 1.4 1.1s1.5-.9 1.5-2.8zm-14.5-10.3c-.7.1-1.2-.4-1.3-1.1s.4-1.2 1.1-1.3 1.2.4 1.3 1.1v.1c.1.6-.4 1.1-1 1.2zm2.9 3.4v-5.5h8.6v1.5h-7.4v4zm0-10.7v-1.2h1.5c-1-.8-1.6-1.9-1.7-3.2 0-2 1.2-3 3.5-3h5.4v1.5h-5.2c-1.6 0-2.4.6-2.4 2s.5 1.7 1.6 2.7h6v1.2zm-500.6 53.9v-1.1h1.1c-.8-.3-1.3-1.1-1.3-1.9s.7-1.5 1.5-1.6c-.9-.5-1.5-1.1-1.5-2s.9-1.9 2.7-1.9h6.2v1.4h-6.1c-1 0-1.5.3-1.5.9s.4 1 1.3 1.5h6.2v.8H248c-1 0-1.5.3-1.5 1s.4 1 1.3 1.4h6.2v1.4zm3.2-17.3a2 2 0 0 0-2.2 1.8v.5c.1 1.1.4 2.1 1 3l-1 .6a7.1 7.1 0 0 1-1.2-3.8c0-2.4 1.4-3.5 3.5-3.5h5.3v1.2H253a6 6 0 0 1 1.4 3.4c0 1.6-.9 2.9-2.4 2.9s-3-1.7-3.3-6.1zm4.5 2.9a4.6 4.6 0 0 0-1.3-2.9h-2.3c.3 3.7 1 4.8 2.2 4.8s1.4-.9 1.4-1.9zm-7.7-8.5v-1.2h2a4.5 4.5 0 0 1-2.3-3.9c0-.6.1-1.2.4-1.7l1.3.3c-.2.5-.3 1.1-.3 1.6 0 1.3.7 2.5 2.5 3.5h5.1v1.4zm8.3-10.7h-.1c-.3.5-.8.9-1.4.9-.7-.1-1.3-.4-1.6-1h-.1c-.5.7-1.3 1.1-2.2 1.1-1.8-.1-3.2-1.5-3.1-3.3v-.1l.2-1.3V210h1.1v2.3c.5-.5 1.1-.8 1.8-.8 1.8 0 3 1.5 3 3.3l-.3 1.5c.2.4.6.7 1 .7.7 0 1-.7 1-1.8v-1.9c0-2.2.6-3.3 2-3.3s3 1.9 3 4.8-.9 4-2.4 4c-.9-.1-1.6-.7-1.9-1.5zm-5.4-4.5c-1.1 0-2 .9-2 2s.9 2 2 2 2-.9 2-2c.1-1-.7-1.9-1.8-2h-.2zm8.7 1.8c0-2-.9-3.2-1.8-3.2s-1 .7-1 2v1.6l-.1 1.3c.4.8.9 1.1 1.4 1.1s1.5-.9 1.5-2.8zm-14.5-10.3c-.7.1-1.2-.4-1.3-1.1s.4-1.2 1.1-1.3 1.2.4 1.3 1.1v.1c.1.6-.4 1.1-1 1.2zm2.9 3.4v-5.5h8.6v1.5h-7.4v4zm0-10.7v-1.2h1.5c-1-.8-1.6-1.9-1.7-3.2 0-2 1.2-3 3.5-3h5.4v1.5H249c-1.6 0-2.4.6-2.4 2s.5 1.7 1.6 2.7h6v1.2z"/><path fill="#63666a" d="M634.7 454.5h-2.1v-.9h2.1l.2-2.1h1v2.1h3.6v1H636v3.4c0 1.3.4 2 1.9 2l1.8-.3.3.9c-.7.3-1.5.4-2.3.4-2.1 0-2.8-1.2-2.8-3.1zm8.2-1h1v1.8a3.7 3.7 0 0 1 4.7-1.6l-.3 1.1c-1.7-.7-3.7.2-4.4 1.9v4.3h-1.2zm13.5 2.7c.1-.9-.5-1.8-1.5-1.9h-.5c-.9.1-1.8.4-2.6.9l-.5-.9c1-.7 2.1-1 3.3-1.1 1.5-.2 2.8.9 3 2.4v5.1h-1v-1a5 5 0 0 1-2.9 1.2c-1.2.2-2.3-.7-2.5-1.9v-.2c-.1-1.5 1.4-2.3 5.2-2.6zm-2.5 3.9c.9-.1 1.8-.5 2.5-1.1v-2c-3.2.3-4.1.9-4.1 1.9s.8 1.2 1.6 1.2zm16.8-1c.9.7 2 1 3.1 1 1.3 0 2-.5 2-1.2s-.6-1-2.4-1.4-2.8-1-2.8-2.1 1.1-2.1 3.1-2.1c1.1 0 2.1.3 3 .9l-.6.8a4 4 0 0 0-2.4-.8c-1.4 0-1.8.5-1.8 1.1s.9 1 2.3 1.3 3 1.1 3 2.2-1.2 2.2-3.3 2.2a6 6 0 0 1-3.6-1.2zm10.1 2.4v2.5h-1.2v-10.5h1v.9c.7-.7 1.6-1.1 2.6-1.1 2 0 3.1 1.5 3.1 3.8s-1.6 4-3.4 4c-.8-.1-1.6-.4-2.2-1zm2-1.5c1.3 0 2.3-1.1 2.3-2.9s-.6-2.7-2.1-2.7c-.9.1-1.6.5-2.2 1.1v3.7c.5.5 1.2.8 2 .8zm11-3.8c.1-.9-.5-1.8-1.5-1.9h-.5c-.9.1-1.8.4-2.6.9l-.5-.9c1-.7 2.1-1 3.3-1.1 1.5-.2 2.8.9 3 2.4v5.1h-1v-1a5 5 0 0 1-2.9 1.2c-1.2.2-2.3-.7-2.5-1.9v-.2c-.2-1.5 1.4-2.3 5.2-2.6zm-2.5 3.9c.9-.1 1.8-.5 2.5-1.1v-2c-3.2.3-4.1.9-4.1 1.9s.7 1.2 1.6 1.2zm7.3-6.6h1v1.8a3.7 3.7 0 0 1 4.7-1.6l-.3 1.1c-1.7-.7-3.7.2-4.4 1.9v4.3h-1.2zm11.7-.2a3.2 3.2 0 0 1 3.4 3v1.2h-5.8c0 1.4 1.2 2.6 2.6 2.6h.2c.8 0 1.6-.2 2.3-.7l.4.8c-.8.6-1.8.9-2.8.9-2.2.1-3.9-1.6-4-3.8s1.6-3.9 3.8-4zm2.2 3.3a2 2 0 0 0-1.9-2.3h-.3c-1.3 0-2.4 1-2.5 2.3zm3.5-3.1h1v1.3h.1c.7-.8 1.7-1.4 2.8-1.4 1.8 0 2.6 1 2.6 3v4.6h-1.2v-4.4c0-1.4-.5-2.1-1.7-2.1s-1.5.4-2.3 1.3v5.2H716zm10.8 1h-2.1v-.9h2.1l.2-2.1h1v2.1h3.6v1H728v3.4c0 1.3.4 2 1.9 2l1.8-.3.3.9c-.7.3-1.5.4-2.3.4-2.1 0-2.8-1.2-2.8-3.1zm21.7 1.7c.1-.9-.5-1.8-1.5-1.9h-.5c-.9.1-1.8.4-2.6.9l-.5-.9c1-.7 2.1-1 3.3-1.1 1.5-.2 2.8.9 3 2.4v5.1h-1v-1a5 5 0 0 1-2.9 1.2c-1.2.2-2.3-.7-2.5-1.9v-.2c-.1-1.5 1.4-2.3 5.2-2.6zm-2.5 3.9c.9-.1 1.8-.5 2.5-1.1v-2c-3.2.3-4.1.9-4.1 1.9s.8 1.2 1.6 1.2zm7.3-6.6h1v1.8a3.7 3.7 0 0 1 4.7-1.6l-.3 1.1c-1.7-.7-3.7.2-4.4 1.9v4.3h-1.2zm11.7-.2a3.2 3.2 0 0 1 3.4 3v1.2h-5.8c0 1.4 1.2 2.6 2.6 2.6h.2c.8 0 1.6-.2 2.3-.7l.4.8c-.8.6-1.8.9-2.8.9-2.2.1-3.9-1.6-4-3.8s1.6-3.9 3.8-4zm2.2 3.3a2 2 0 0 0-1.9-2.3h-.3c-1.3 0-2.4 1-2.5 2.3zm8.7-.4c.1-.9-.5-1.8-1.5-1.9h-.5c-.9.1-1.8.4-2.6.9l-.5-.9c1-.7 2.1-1 3.3-1.1 1.5-.2 2.8.9 3 2.4v5.1h-1v-1a5 5 0 0 1-2.9 1.2c-1.2.2-2.3-.7-2.5-1.9v-.2c-.1-1.5 1.4-2.3 5.2-2.6zm-2.5 3.9c.9-.1 1.8-.5 2.5-1.1v-2c-3.2.3-4.1.9-4.1 1.9s.8 1.2 1.6 1.2zm-205.2 12.5c0-2.3 1.1-4.4 2.9-5.8l.6.5a6.7 6.7 0 0 0 0 10.4l-.6.5a7 7 0 0 1-2.9-5.6zm6.4 2c.7.5 1.6.8 2.5.8 1.1 0 1.6-.4 1.6-1s-.5-.8-2-1.2-2.3-.9-2.3-1.7.9-1.7 2.6-1.7c.9 0 1.8.3 2.5.8l-.5.7c-.6-.4-1.3-.6-2-.6-1.2 0-1.5.4-1.5.9s.8.8 1.9 1.1 2.5.9 2.5 1.8-1 1.8-2.7 1.8c-1.1 0-2.1-.4-3-1zm10.2-4.8c1.4-.1 2.7.9 2.8 2.4v1.1h-4.8c0 1.2 1 2.2 2.2 2.2h.2c.7 0 1.3-.2 1.9-.6l.4.7a4 4 0 0 1-2.4.7 3.2 3.2 0 0 1-3.3-3.1 3.3 3.3 0 0 1 3.1-3.4zm1.8 2.8c.2-.9-.4-1.8-1.4-2h-.4c-1.1 0-2 .9-2.1 2zm5.8-2.8c1.4-.1 2.7.9 2.8 2.4v1.1h-4.8c0 1.2 1 2.2 2.2 2.2h.2c.7 0 1.3-.2 1.9-.6l.4.7a4 4 0 0 1-2.4.7 3.2 3.2 0 0 1-3.3-3.1 3.3 3.3 0 0 1 3.1-3.4zm1.8 2.8c.2-.9-.4-1.8-1.4-2h-.4c-1.1 0-2 .9-2.1 2zm10.6-5.5h1v3.7c.6-.6 1.3-.9 2.1-.9 1.7 0 2.6 1.2 2.6 3.1s-1.3 3.3-2.8 3.3c-.7 0-1.4-.3-1.9-.8v.7h-.8zm2.7 8.3c1.1 0 1.9-.9 1.9-2.4s-.5-2.3-1.7-2.3c-.7.1-1.3.4-1.8.9v3.1c.4.4 1 .7 1.6.7zm7.5-5.6c1.8-.1 3.3 1.2 3.4 3s-1.2 3.3-3 3.4-3.3-1.2-3.4-3v-.2a3 3 0 0 1 2.8-3.2zm0 5.6c1.2 0 2-1 2-2.4s-.8-2.4-2-2.4-2 1-2 2.4.8 2.4 2 2.4zm6.9-2.5-2.2-3h1.2l1 1.4.7 1h.1l.7-1.1.9-1.3h1.1l-2.2 3.1 2.4 3.1h-1.1l-1.1-1.4-.8-1.1h-.1l-.8 1.1-1 1.4h-1.1zm8.5-3.1c1.4-.1 2.7.9 2.8 2.4v1.1h-4.8c0 1.2 1 2.2 2.2 2.2h.2c.7 0 1.3-.2 1.9-.6l.4.7a4 4 0 0 1-2.4.7 3.2 3.2 0 0 1-3.3-3.1 3.3 3.3 0 0 1 3.1-3.4zm1.8 2.8c.2-.9-.4-1.8-1.4-2h-.4c-1.1 0-2 .9-2.1 2zm3.2 2c.7.5 1.6.8 2.5.8 1.1 0 1.6-.4 1.6-1s-.5-.8-2-1.2-2.3-.9-2.3-1.7.9-1.7 2.6-1.7c.9 0 1.8.3 2.5.8l-.5.7c-.6-.4-1.3-.6-2-.6-1.2 0-1.5.4-1.5.9s.8.8 1.9 1.1 2.5.9 2.5 1.8-1 1.8-2.7 1.8c-1.1 0-2.1-.4-3-1zm8.7 3.5c.9-.3 1.6-1.1 1.6-2.1h-.2c-.5.1-.9-.3-1-.8v-.2c-.1-.5.3-.9.8-1h.2c.7 0 1.1.6 1.1 1.6 0 1.4-.9 2.6-2.2 3zm17.2-8.3c.8 0 1.6.3 2.2.9l-.5.7c-.5-.4-1.1-.7-1.7-.7-1.3-.1-2.3.9-2.4 2.2v.2c-.1 1.2.8 2.3 2 2.4h.4c.7 0 1.4-.3 1.9-.8l.5.7c-.6.6-1.5 1-2.4 1a3.1 3.1 0 0 1-3.4-2.8v-.4a3.2 3.2 0 0 1 3-3.4zm6.9 0c1.8-.1 3.3 1.2 3.4 3s-1.2 3.3-3 3.4-3.3-1.2-3.4-3v-.2a3 3 0 0 1 2.8-3.2zm0 5.6c1.2 0 2-1 2-2.4s-.8-2.4-2-2.4-2 1-2 2.4.8 2.4 2 2.4zm4.8-8.3h3.1v7c0 .9.5 1.3 1.2 1.3l1.2-.3.3.8c-.5.2-1.1.4-1.7.4-1.3 0-2-.8-2-2.2V468H673zm10.4 2.7c1.8-.1 3.3 1.2 3.4 3s-1.2 3.3-3 3.4-3.3-1.2-3.4-3v-.2a3 3 0 0 1 2.8-3.2zm0 5.6c1.2 0 2-1 2-2.4s-.8-2.4-2-2.4-2 1-2 2.4.8 2.4 2 2.4zm10.2.7h-.8V475h-.1a3 3 0 0 1-2.3 1.2c-1.5 0-2.1-.9-2.1-2.5v-3.8h1.1v3.7c0 1.2.4 1.7 1.4 1.7.8-.1 1.5-.5 1.9-1.1v-4.3h1zm3.1-6.2h.9v1.5c.6-1 1.7-1.6 2.8-1.6l1.2.3-.2.9-1.2-.2a3 3 0 0 0-2.5 1.8v3.6h-1zm7.1 4.7c.7.5 1.6.8 2.5.8 1.1 0 1.6-.4 1.6-1s-.5-.8-2-1.2-2.3-.9-2.3-1.7.9-1.7 2.6-1.7c.9 0 1.8.3 2.5.8l-.5.7c-.6-.4-1.3-.6-2-.6-1.2 0-1.5.4-1.5.9s.8.8 1.9 1.1 2.5.9 2.5 1.8-1 1.8-2.7 1.8c-1.1 0-2.1-.4-3-1zm19.3-2.4c0-.8-.7-1.5-1.5-1.5h-.1c-.8 0-1.5.3-2.2.7l-.4-.7c.8-.5 1.7-.9 2.7-.9 1.3-.1 2.4.8 2.5 2.1v4.2h-.8v-.8c-.7.6-1.5.9-2.4 1-1 .1-2-.6-2.1-1.7-.1-1.5 1.1-2.2 4.3-2.4zm-2.1 3.2c.8 0 1.5-.4 2.1-.9v-1.6c-2.6.2-3.4.7-3.4 1.5s.6 1 1.3 1zm5.4-5.5h.9v1.1h.1c.6-.7 1.4-1.1 2.3-1.2 1.5 0 2.1.9 2.1 2.5v3.8h-1v-3.7c0-1.2-.4-1.7-1.4-1.7s-1.2.4-2 1.1v4.3h-1zm10-.1c.7 0 1.4.3 1.9.8v-3.5h1v9h-.9v-.8a3 3 0 0 1-2 1c-1.6 0-2.7-1.2-2.7-3.2a3 3 0 0 1 2.7-3.3zm.1 5.6c.7 0 1.3-.4 1.7-.9v-3.1c-.4-.4-1-.7-1.6-.7a2 2 0 0 0-1.9 2.3v.1c0 1.4.6 2.3 1.8 2.3zm12.7-5.5h3.9v6.2h-1v-5.3h-2.9zm2.4-2.1c0-.4.4-.8.8-.8s.8.4.8.8-.4.8-.8.8-.7-.3-.8-.8zm4.8 2.1h.8v.8c.2-.6.8-1 1.4-1 .6-.1 1.1.4 1.2 1v.1c.4-.6.8-1.1 1.5-1.1s1.3.7 1.3 1.9v4.4h-1v-4.3c0-.7-.2-1.1-.7-1.1s-.7.3-1.1 1v4.5h-.8v-4.3c0-.7-.2-1.1-.7-1.1s-.7.3-1 1v4.5h-1zm12.3 2.3c0-.8-.7-1.5-1.5-1.5h-.1c-.8 0-1.5.3-2.2.7l-.4-.7c.8-.5 1.7-.9 2.7-.9 1.3-.1 2.4.8 2.5 2.1v4.2h-.8v-.8c-.7.6-1.5.9-2.4 1-1 .1-2-.6-2.1-1.7-.1-1.5 1.2-2.2 4.3-2.4zm-2.1 3.2c.8 0 1.5-.4 2.1-.9v-1.6c-2.6.2-3.4.7-3.4 1.5s.6 1 1.3 1zm6.2.5c-.4-.2-.6-.6-.6-1 0-.5.3-.9.7-1.2a2 2 0 0 1-.8-1.6c.1-1.3 1.1-2.3 2.4-2.2l.9.2h2.6v.8h-1.6c.4.3.6.8.6 1.3-.1 1.2-1.1 2.2-2.3 2.1h-.1l-1-.2c-.3.1-.5.4-.5.7 0 .5.5.7 1.3.7h1.4c1.6 0 2.3.4 2.3 1.4s-1.3 2.2-3.4 2.2-2.8-.6-2.8-1.7c0-.6.3-1.2.9-1.5zm1.9 2.4c1.4 0 2.3-.6 2.3-1.3s-.5-.7-1.4-.7h-2.1c-.6.3-.8.7-.8 1s.7.9 2 .9zm1.3-6.3c-.1-.8-.7-1.4-1.5-1.3s-1.4.7-1.3 1.5c.1.7.7 1.3 1.4 1.3.8 0 1.4-.6 1.4-1.4zm6.5-2.2c1.4-.1 2.7.9 2.8 2.4v1.1h-4.8c0 1.2 1 2.2 2.2 2.2h.2c.7 0 1.3-.2 1.9-.6l.4.7a4 4 0 0 1-2.4.7 3.2 3.2 0 0 1-3.3-3.1 3.3 3.3 0 0 1 3.1-3.4zm1.8 2.8c.2-.9-.4-1.8-1.4-2h-.4c-1.1 0-2 .9-2.1 2zm3.2 2c.7.5 1.6.8 2.5.8 1.1 0 1.6-.4 1.6-1s-.5-.8-2-1.2-2.3-.9-2.3-1.7.9-1.7 2.6-1.7c.9 0 1.8.3 2.5.8l-.5.7c-.6-.4-1.3-.6-2-.6-1.2 0-1.5.4-1.5.9s.8.8 1.9 1.1 2.5.9 2.5 1.8-1 1.8-2.7 1.8c-1.1 0-2.1-.4-3-1zm14.9-7.5h1v3.7c.6-.6 1.3-.9 2.1-.9 1.7 0 2.6 1.2 2.6 3.1s-1.3 3.3-2.8 3.3c-.7 0-1.4-.3-1.9-.8v.7h-.8zm2.7 8.3c1.1 0 1.9-.9 1.9-2.4s-.5-2.3-1.7-2.3c-.7.1-1.3.4-1.8.9v3.1c.5.4 1.1.7 1.7.7zm7.8-5.6c1.4-.1 2.7.9 2.8 2.4v1.1h-4.8c0 1.2 1 2.2 2.2 2.2h.2c.7 0 1.3-.2 1.9-.6l.4.7a4 4 0 0 1-2.4.7 3.2 3.2 0 0 1-3.3-3.1 3.3 3.3 0 0 1 3.1-3.4zm1.8 2.8c.2-.9-.4-1.8-1.4-2h-.4c-1.1 0-2 .9-2.1 2zm3-5.5h1v3.9c.6-.7 1.4-1.1 2.3-1.2 1.5 0 2.1.9 2.1 2.5v3.8h-1v-3.7c0-1.2-.4-1.7-1.4-1.7s-1.2.4-2 1.1v4.3h-1zm7.5 2.8h3.9v6.2h-1v-5.3h-2.9zm2.4-2.1c0-.4.4-.8.8-.8s.8.4.8.8-.4.8-.8.8-.7-.3-.8-.8zm5.3 2.1h.9v1.1h.1c.6-.7 1.4-1.1 2.3-1.2 1.5 0 2.1.9 2.1 2.5v3.8h-1v-3.7c0-1.2-.4-1.7-1.4-1.7s-1.2.4-2 1.1v4.3h-1zm9.9-.1c.7 0 1.4.3 1.9.8v-3.5h1v9h-.9v-.8a3 3 0 0 1-2 1c-1.6 0-2.7-1.2-2.7-3.2a3 3 0 0 1 2.7-3.3zm.1 5.6c.7 0 1.3-.4 1.7-.9v-3.1c-.4-.4-1-.7-1.6-.7a2 2 0 0 0-1.9 2.3v.1c0 1.4.7 2.3 1.8 2.3zm5.5 2.4a6.7 6.7 0 0 0 0-10.4l.6-.5a7.2 7.2 0 0 1 0 11.5zm-187.1-24.5h1v1.3h.1c.7-.8 1.7-1.4 2.8-1.4 1.8 0 2.6 1 2.6 3v4.6h-1.2v-4.4c0-1.4-.5-2.1-1.7-2.1s-1.5.4-2.3 1.3v5.2h-1.3z"/><g opacity=".6"><path fill="none" stroke="#63666a" stroke-miterlimit="10" stroke-width="2" d="M710 444.5c0-42.3-56.9-10.5-58.9-51.8"/><path fill="#63666a" d="m654.8 396.5-3.6-3.2-3.2 3.5-.1-2.9 3.2-3.5 3.5 3.3z"/></g><path fill="#672373" d="M729 62v309H271V62z"/><path fill="#fff" d="M468.9 213c1.2 0 2.3.5 3.1 1.3l-.7.9c-.6-.6-1.5-1-2.4-1a3.2 3.2 0 0 0-3.4 3v.3a3.1 3.1 0 0 0 2.9 3.3h.4c1 0 2-.4 2.7-1.1l.6.9c-.9.8-2.1 1.3-3.4 1.3-2.7 0-4.7-1.7-4.7-4.5s2.3-4.4 4.9-4.4zm9.8 0c2.5-.1 4.6 1.8 4.7 4.3s-1.8 4.6-4.3 4.7-4.6-1.8-4.7-4.3v-.2a4.2 4.2 0 0 1 3.9-4.5zm0 7.8c1.7 0 2.8-1.3 2.8-3.3s-1.1-3.3-2.8-3.3-2.8 1.3-2.8 3.3 1.1 3.3 2.8 3.3zm6.9-7.6h1.2v1.5h.1c.8-1 1.9-1.6 3.2-1.7 2 0 3 1.2 3 3.5v5.4h-1.5v-5.2c0-1.6-.6-2.4-2-2.4s-1.7.5-2.7 1.6v6h-1.5zm12.7 1.2h-2.4v-1.1h2.5l.2-2.4h1.2v2.4h4.2v1.2h-4.2v4.1c0 1.5.5 2.4 2.2 2.4.7 0 1.4-.1 2.1-.4l.3 1.1c-.9.3-1.8.5-2.7.5-2.5 0-3.3-1.4-3.3-3.6zm12.6-1.4c2-.1 3.8 1.4 3.9 3.5v.5l-.1.8H508c.1 1.7 1.5 3.1 3.2 3h.1a5 5 0 0 0 2.6-.8l.5 1c-1 .6-2.1 1-3.3 1-2.5.1-4.6-1.9-4.7-4.4s1.9-4.6 4.5-4.7zm2.6 3.9c.2-1.3-.8-2.5-2.1-2.7h-.5a3 3 0 0 0-2.9 2.7zm4.1-3.7h1.2v1.5h.1c.8-1 1.9-1.6 3.2-1.7 2 0 3 1.2 3 3.5v5.4h-1.5v-5.2c0-1.6-.6-2.4-2-2.4s-1.7.5-2.7 1.6v6h-1.5zm12.6 1.2h-2.4v-1.1h2.5l.2-2.4h1.2v2.4h4.2v1.2h-4.2v4.1c0 1.5.5 2.4 2.2 2.4.7 0 1.4-.1 2.1-.4l.3 1.1c-.9.3-1.8.5-2.7.5-2.5 0-3.3-1.4-3.3-3.6z"/><path fill="#9d35af" d="M271 62v309h458V62zm441 291H288V79h424z"/><path fill="#fff" d="M469.7 65.4h1.5v5.1c.8-.8 1.8-1.2 2.9-1.3 2.3 0 3.6 1.7 3.6 4.4s-1.8 4.7-3.9 4.7c-1-.1-2-.5-2.7-1.2h-.1v1h-1.2zm3.8 11.6c1.5 0 2.6-1.3 2.6-3.4s-.7-3.2-2.4-3.2c-1 .1-1.9.6-2.5 1.3V76c.6.6 1.4.9 2.3 1zm10.5-7.8c2.5-.1 4.6 1.8 4.7 4.3s-1.8 4.6-4.3 4.7-4.6-1.8-4.7-4.3v-.2a4.2 4.2 0 0 1 3.9-4.5zm0 7.8c1.7 0 2.8-1.3 2.8-3.3s-1.1-3.3-2.8-3.3-2.8 1.3-2.8 3.3 1.1 3.3 2.8 3.3zm7.9-7.6h1.2v2h.1a4.5 4.5 0 0 1 3.9-2.3c.6 0 1.2.1 1.7.4l-.3 1.3c-.5-.2-1.1-.3-1.6-.3-1.3 0-2.5.7-3.5 2.5v5h-1.5zm13-.2c1 0 1.9.4 2.6 1.1v-4.9h1.5V78h-1.2v-1.1h-.1c-.7.8-1.7 1.2-2.8 1.3-2.3 0-3.7-1.6-3.7-4.5s1.7-4.5 3.7-4.5zm.1 7.8c1-.1 1.8-.5 2.4-1.3v-4.3c-.6-.6-1.4-1-2.3-1-1.5 0-2.7 1.3-2.7 3.3s1.1 3.3 2.7 3.3zm11.2-7.8c2-.1 3.8 1.4 3.9 3.5v.5l-.1.8h-6.7c.1 1.7 1.5 3.1 3.2 3h.1a5 5 0 0 0 2.6-.8l.5 1c-1 .6-2.1 1-3.3 1a4.4 4.4 0 0 1-4.6-4.4 4.4 4.4 0 0 1 4.4-4.6zm2.6 3.9c.2-1.3-.8-2.5-2.1-2.7h-.5a3 3 0 0 0-2.9 2.7zm5-3.7h1.2v2h.1a4.5 4.5 0 0 1 3.9-2.3c.6 0 1.2.1 1.7.4l-.3 1.3c-.5-.2-1.1-.3-1.6-.3-1.3 0-2.5.7-3.5 2.5v5h-1.5zm-54.1 286.4h1.5v5.1c.8-.8 1.8-1.2 2.9-1.3 2.3 0 3.6 1.7 3.6 4.4s-1.8 4.7-3.9 4.7c-1-.1-2-.5-2.7-1.2h-.1v1h-1.2zm3.8 11.6c1.5 0 2.6-1.3 2.6-3.4s-.7-3.2-2.4-3.2c-1 .1-1.9.6-2.5 1.3v4.3c.6.6 1.4.9 2.3 1zm10.5-7.8c2.5-.1 4.6 1.8 4.7 4.3s-1.8 4.6-4.3 4.7-4.6-1.8-4.7-4.3v-.2a4.2 4.2 0 0 1 3.9-4.5zm0 7.8c1.7 0 2.8-1.3 2.8-3.3s-1.1-3.3-2.8-3.3-2.8 1.3-2.8 3.3 1.1 3.4 2.8 3.4zm7.9-7.6h1.2v2h.1a4.5 4.5 0 0 1 3.9-2.3c.6 0 1.2.1 1.7.4l-.3 1.3c-.5-.2-1.1-.3-1.6-.3-1.3 0-2.5.7-3.5 2.5v5.1h-1.5zm13-.2c1 0 1.9.4 2.6 1.1v-4.9h1.5v12.6h-1.2v-1.1h-.1c-.7.8-1.7 1.2-2.8 1.3-2.3 0-3.7-1.6-3.7-4.5s1.7-4.5 3.7-4.5zm.1 7.8c1-.1 1.8-.5 2.4-1.3v-4.3c-.6-.6-1.4-1-2.3-1-1.5 0-2.7 1.3-2.7 3.3s1.1 3.3 2.7 3.3zm11.2-7.8c2-.1 3.8 1.4 3.9 3.5v.5l-.1.8h-6.7c.1 1.7 1.5 3.1 3.2 3h.1a5 5 0 0 0 2.6-.8l.5 1c-1 .6-2.1 1-3.3 1-2.5.1-4.6-1.9-4.7-4.4s1.9-4.6 4.5-4.7zm2.6 3.9c.2-1.3-.8-2.5-2.1-2.7h-.5a3 3 0 0 0-2.9 2.7zm5-3.7h1.2v2h.1a4.5 4.5 0 0 1 3.9-2.3c.6 0 1.2.1 1.7.4l-.3 1.3c-.5-.2-1.1-.3-1.6-.3-1.3 0-2.5.7-3.5 2.5v5.1h-1.5zm189.6-107.3V251h5.1a4.6 4.6 0 0 1-1.3-2.9c0-2.3 1.7-3.6 4.4-3.6s4.7 1.8 4.7 3.9c-.1 1-.5 2-1.2 2.7h1v1.2zm11.6-3.8c0-1.5-1.3-2.6-3.4-2.6s-3.2.7-3.2 2.4c.1 1 .6 1.9 1.3 2.5h4.3c.6-.6 1-1.4 1-2.3zm-7.8-10.6c-.1-2.5 1.8-4.6 4.3-4.7s4.6 1.8 4.7 4.3-1.8 4.6-4.3 4.7h-.2a4.2 4.2 0 0 1-4.5-3.9v-.4zm7.8 0c0-1.7-1.3-2.8-3.3-2.8s-3.3 1.1-3.3 2.8 1.3 2.8 3.3 2.8 3.4-1.1 3.4-2.8zm-7.5-7.9V229h2a4.5 4.5 0 0 1-2.3-3.9c0-.6.1-1.2.4-1.7l1.3.3c-.2.5-.3 1.1-.3 1.6 0 1.3.7 2.5 2.5 3.5h5.1v1.5zm-.3-13c0-1 .4-1.9 1.1-2.6h-4.9v-1.5H726v1.2h-1.1c.8.7 1.2 1.7 1.3 2.8 0 2.3-1.6 3.7-4.5 3.7s-4.5-1.6-4.5-3.6zm7.8-.1c-.1-1-.5-1.8-1.3-2.4h-4.3c-.6.6-1 1.4-1 2.3 0 1.5 1.3 2.7 3.3 2.7s3.4-1 3.4-2.6zm-7.8-11.2c-.1-2 1.4-3.8 3.5-3.9h1.3v6.7c1.7-.1 3.1-1.5 3-3.2v-.1a5 5 0 0 0-.8-2.6l1-.5c.6 1 1 2.1 1 3.3a4.4 4.4 0 0 1-4.5 4.6 4.4 4.4 0 0 1-4.6-4.4zm3.9-2.6c-1.3-.2-2.5.8-2.7 2.1v.5a3 3 0 0 0 2.7 2.9zm-3.6-5v-1.2h2a4.5 4.5 0 0 1-2.3-3.9c0-.6.1-1.2.4-1.7l1.3.3c-.2.5-.3 1.1-.3 1.6 0 1.3.7 2.5 2.5 3.5h5.1v1.5zm-443.8 54.2V251h5.1a4.6 4.6 0 0 1-1.3-2.9c0-2.3 1.7-3.6 4.4-3.6s4.7 1.8 4.7 3.9c-.1 1-.5 2-1.2 2.7h1v1.2zm11.6-3.8c0-1.5-1.3-2.6-3.4-2.6s-3.2.7-3.2 2.4c.1 1 .6 1.9 1.3 2.5h4.3c.6-.6.9-1.4 1-2.3zm-7.8-10.6c-.1-2.5 1.8-4.6 4.3-4.7s4.6 1.8 4.7 4.3-1.8 4.6-4.3 4.7h-.2a4.2 4.2 0 0 1-4.5-3.9v-.4zm7.8 0c0-1.7-1.3-2.8-3.3-2.8s-3.3 1.1-3.3 2.8 1.3 2.8 3.3 2.8 3.3-1.1 3.3-2.8zm-7.6-7.9V229h2a4.5 4.5 0 0 1-2.3-3.9c0-.6.1-1.2.4-1.7l1.3.3c-.2.5-.3 1.1-.3 1.6 0 1.3.7 2.5 2.5 3.5h5.1v1.5zm-.2-13c0-1 .4-1.9 1.1-2.6h-4.9v-1.5h12.6v1.2h-1.1c.8.7 1.2 1.7 1.3 2.8 0 2.3-1.6 3.7-4.5 3.7s-4.5-1.6-4.5-3.6zm7.8-.1c-.1-1-.5-1.8-1.3-2.4h-4.3c-.6.6-1 1.4-1 2.3 0 1.5 1.3 2.7 3.3 2.7s3.3-1 3.3-2.6zm-7.8-11.2c-.1-2 1.4-3.8 3.5-3.9h1.3v6.7c1.7-.1 3.1-1.5 3-3.2v-.1a5 5 0 0 0-.8-2.6l1-.5c.6 1 1 2.1 1 3.3a4.4 4.4 0 0 1-4.5 4.6 4.4 4.4 0 0 1-4.6-4.4zm3.9-2.6c-1.3-.2-2.5.8-2.7 2.1v.5a3 3 0 0 0 2.7 2.9zm-3.7-5v-1.2h2a4.5 4.5 0 0 1-2.3-3.9c0-.6.1-1.2.4-1.7l1.3.3c-.2.5-.3 1.1-.3 1.6 0 1.3.7 2.5 2.5 3.5h5.1v1.5z"/><path fill="#63666a" d="M184.1 450.1h1.2v4.4c.7-.7 1.6-1.1 2.5-1.1 2 0 3.1 1.5 3.1 3.8s-1.6 4-3.3 4c-.9-.1-1.7-.4-2.3-1v.8h-1zm3.3 10c1.3 0 2.3-1.1 2.3-2.9s-.6-2.7-2.1-2.7c-.9.1-1.6.5-2.2 1.1v3.7c.6.5 1.3.7 2 .8zm11-3.9c.1-.9-.5-1.8-1.5-1.9h-.5c-.9.1-1.8.4-2.6.9l-.5-.9c1-.7 2.1-1 3.3-1.1 1.5-.2 2.8.9 3 2.4v5.1h-1v-1a5 5 0 0 1-2.9 1.2c-1.2.2-2.3-.7-2.5-1.9v-.2c-.1-1.5 1.4-2.3 5.2-2.6zm-2.5 3.9c.9-.1 1.8-.5 2.5-1.1v-2c-3.2.3-4.1.9-4.1 1.9s.8 1.2 1.6 1.2zm10.4-6.8c1 0 2 .4 2.7 1.1l-.6.8c-.5-.5-1.2-.9-2-.9-1.5-.1-2.8 1-2.9 2.5v.4c-.1 1.5 1.1 2.7 2.6 2.8h.2c.8 0 1.7-.3 2.3-.9l.5.8c-.8.7-1.8 1.2-2.9 1.2-2 .2-3.8-1.3-4-3.4v-.5a3.8 3.8 0 0 1 3.7-3.9zm5.4-3.2h1.3v7.3l4-3.9h1.4l-3 2.9 3.3 4.5h-1.4l-2.7-3.7-1.7 1.7v2h-1.2zm9.8 10.5c-.5-.2-.8-.7-.8-1.2a2 2 0 0 1 .9-1.4c-.6-.5-.9-1.2-.9-1.9.1-1.5 1.3-2.7 2.8-2.6h.1l1.1.2h3.1v1h-2c.4.4.7 1 .7 1.6 0 1.4-1.2 2.6-2.7 2.5h-.2l-1.2-.3c-.4.2-.6.5-.6.9 0 .6.6.9 1.5.9h1.7c1.9 0 2.8.5 2.8 1.7s-1.6 2.6-4.1 2.6-3.4-.7-3.4-2.1c0-.8.4-1.6 1.2-1.9zm2.3 2.8c1.7 0 2.8-.8 2.8-1.5s-.6-.9-1.7-.9h-2.6c-.7.4-.9.8-.9 1.2s.8 1.2 2.4 1.2zm1.5-7.5c0-.9-.8-1.7-1.7-1.7s-1.7.8-1.7 1.7.8 1.7 1.7 1.7c.9.1 1.7-.7 1.8-1.6zm5.3-2.4h1v1.8a3.7 3.7 0 0 1 4.7-1.6l-.3 1.1c-1.7-.7-3.7.2-4.4 1.9v4.3h-1.2zm11.4-.2c2.2-.1 4 1.5 4.1 3.7s-1.5 4-3.7 4.1-4-1.5-4.1-3.7v-.2c-.2-2 1.3-3.7 3.3-3.9zm0 6.7c1.4 0 2.4-1.1 2.4-2.8s-.9-2.9-2.4-2.9-2.4 1.2-2.4 2.9 1 2.8 2.4 2.8zm12.3.9h-1v-1.3h-.1c-.7.9-1.7 1.5-2.8 1.5-1.8 0-2.6-1-2.6-3v-4.6h1.2v4.4c0 1.4.5 2.1 1.7 2.1.9-.1 1.8-.6 2.3-1.4v-5.1h1.2zm2.8-7.4h1v1.3h.1c.7-.8 1.7-1.4 2.8-1.4 1.7 0 2.6 1 2.6 3v4.6h-1.2v-4.4c0-1.4-.5-2.1-1.7-2.1s-1.5.4-2.3 1.3v5.2h-1.2zm12-.2c.8 0 1.6.4 2.2 1v-4.2h1.2v10.8h-1v-1c-.6.7-1.5 1.1-2.4 1.2-1.9 0-3.2-1.4-3.2-3.9s1.5-3.9 3.2-3.9zm.1 6.7c.8 0 1.6-.4 2.1-1.1v-3.7c-.5-.5-1.2-.9-1.9-.9-1.3 0-2.3 1.1-2.3 2.8s.8 2.9 2.1 2.9zm6.8-4.1h5.1v1.1H276zm12.4-2.6c1 0 2 .4 2.7 1.1l-.6.8c-.5-.5-1.2-.9-2-.9-1.5-.1-2.8 1-2.9 2.5v.4c-.1 1.5 1.1 2.7 2.6 2.8h.2c.8 0 1.7-.3 2.3-.9l.5.8c-.8.7-1.8 1.2-2.9 1.2-2 .2-3.8-1.3-4-3.4v-.5a3.8 3.8 0 0 1 3.7-3.9zm8.4 0c2.2-.1 4 1.5 4.1 3.7s-1.5 4-3.7 4.1-4-1.5-4.1-3.7v-.2c-.2-2 1.3-3.7 3.3-3.9zm0 6.7c1.4 0 2.4-1.1 2.4-2.8s-.9-2.9-2.4-2.9-2.4 1.2-2.4 2.9 1 2.8 2.4 2.8zm5.8-9.9h3.8v8.4c0 1.1.6 1.5 1.4 1.5.5 0 1-.2 1.4-.4l.3.9c-.6.3-1.3.4-2 .4-1.6 0-2.4-.9-2.4-2.7v-7.3h-2.5zm12.4 3.2c2.2-.1 4 1.5 4.1 3.7s-1.5 4-3.7 4.1-4-1.5-4.1-3.7v-.2c-.2-2 1.3-3.7 3.3-3.9zm0 6.7c1.4 0 2.4-1.1 2.4-2.8s-.9-2.9-2.4-2.9-2.4 1.2-2.4 2.9 1 2.8 2.4 2.8zm6.8-6.5h1v1.8a3.7 3.7 0 0 1 4.7-1.6l-.3 1.1c-1.7-.7-3.7.2-4.4 1.9v4.3h-1.2zm20.8-.2a3.2 3.2 0 0 1 3.4 3v1.2h-5.8c0 1.4 1.2 2.6 2.6 2.6h.2c.8 0 1.6-.2 2.3-.7l.4.8c-.8.6-1.8.9-2.8.9-2.2.1-3.9-1.6-4-3.8s1.6-3.9 3.7-4zm2.2 3.3a2 2 0 0 0-1.9-2.3h-.3c-1.3 0-2.4 1-2.5 2.3zm3.6-3.1h1v1.3h.1c.7-.8 1.7-1.4 2.8-1.4 1.7 0 2.6 1 2.6 3v4.6h-1.2v-4.4c0-1.4-.5-2.1-1.7-2.1s-1.5.4-2.3 1.3v5.2h-1.2zm12-.2c.8 0 1.6.4 2.2 1v-4.2h1.2v10.8h-1v-1c-.6.7-1.5 1.1-2.4 1.2-1.9 0-3.2-1.4-3.2-3.9s1.4-3.9 3.2-3.9zm.1 6.7c.8 0 1.6-.4 2.1-1.1v-3.7c-.5-.5-1.2-.9-1.9-.9-1.3 0-2.3 1.1-2.3 2.8s.7 2.9 2.1 2.9zm6.4-.9c.9.7 2 1 3.1 1 1.3 0 2-.5 2-1.2s-.6-1-2.4-1.4-2.8-1-2.8-2.1 1.1-2.1 3.1-2.1c1.1 0 2.1.3 3 .9l-.6.8a4 4 0 0 0-2.4-.8c-1.4 0-1.8.5-1.8 1.1s.9 1 2.3 1.3 3 1.1 3 2.2-1.2 2.2-3.3 2.2a6 6 0 0 1-3.6-1.2zm-218.8 13.5c0-2.3 1.1-4.4 2.9-5.8l.6.5a6.7 6.7 0 0 0 0 10.4l-.6.5a7 7 0 0 1-2.9-5.6zm6.2-5.5h1v3.7c.6-.6 1.3-.9 2.1-.9 1.7 0 2.6 1.2 2.6 3.1s-1.3 3.3-2.8 3.3c-.7 0-1.4-.3-1.9-.8v.7h-.8zm2.7 8.3c1.1 0 1.9-.9 1.9-2.4s-.5-2.3-1.7-2.3c-.7.1-1.3.4-1.8.9v3.1c.4.4 1 .7 1.6.7zm9.2-3.2c0-.8-.7-1.5-1.5-1.5h-.1c-.8 0-1.5.3-2.2.7l-.4-.7c.8-.5 1.7-.9 2.7-.9 1.3-.1 2.4.8 2.5 2.1v4.2h-.8v-.8c-.7.6-1.5.9-2.4 1-1 .1-2-.6-2.1-1.7-.2-1.5 1.1-2.2 4.3-2.4zm-2.1 3.2c.8 0 1.5-.4 2.1-.9v-1.6c-2.6.2-3.4.7-3.4 1.5s.6 1 1.3 1zm8.6-5.6c.8 0 1.6.3 2.2.9l-.5.7c-.5-.4-1.1-.7-1.7-.7-1.3-.1-2.3.9-2.4 2.2v.2c-.1 1.2.8 2.3 2 2.4h.4c.7 0 1.4-.3 1.9-.8l.5.7c-.6.6-1.5 1-2.4 1a3.1 3.1 0 0 1-3.4-2.8v-.4a3.2 3.2 0 0 1 3-3.4zm4.5-2.7h1v6.1l3.3-3.2h1.2l-2.5 2.4 2.8 3.7h-1l-2.3-3-1.5 1.4v1.6h-1zm8.2 8.8c-.4-.2-.6-.6-.6-1 0-.5.3-.9.7-1.2a2 2 0 0 1-.8-1.6c.1-1.3 1.1-2.3 2.4-2.2l.9.2h2.5v.8H189c.4.3.6.8.6 1.3-.1 1.2-1.1 2.2-2.3 2.1h-.1l-1-.2c-.3.1-.5.4-.5.7 0 .5.5.7 1.3.7h1.4c1.6 0 2.3.4 2.3 1.4s-1.3 2.2-3.4 2.2-2.8-.6-2.8-1.7c0-.6.3-1.2.9-1.5zm1.9 2.4c1.4 0 2.3-.6 2.3-1.3s-.5-.7-1.4-.7h-2.1c-.6.3-.8.7-.8 1s.7.9 2 .9zm1.3-6.2c-.1-.8-.7-1.4-1.5-1.3s-1.4.7-1.3 1.5c.1.7.7 1.3 1.4 1.3.8 0 1.4-.6 1.4-1.4v-.2zm4.3-2.2h.9v1.5c.6-1 1.7-1.6 2.8-1.6l1.2.3-.2.9-1.2-.2a3 3 0 0 0-2.5 1.8v3.6h-1zm9.6-.1c1.8-.1 3.3 1.2 3.4 3s-1.2 3.3-3 3.4-3.3-1.2-3.4-3v-.2a3 3 0 0 1 2.8-3.2zm0 5.6c1.2 0 2-1 2-2.4s-.8-2.4-2-2.4-2 1-2 2.4.8 2.4 2 2.4zm10.2.7h-.8V475h-.1a3 3 0 0 1-2.3 1.2c-1.5 0-2.1-.9-2.1-2.5v-3.8h1.1v3.7c0 1.2.4 1.7 1.4 1.7.8-.1 1.5-.5 1.9-1.1v-4.3h1zm2.4-6.2h.9v1.1h.1c.6-.7 1.4-1.1 2.3-1.2 1.5 0 2.1.9 2.1 2.5v3.8h-1v-3.7c0-1.2-.4-1.7-1.4-1.7s-1.2.4-2 1.1v4.3h-1zm10-.1c.7 0 1.4.3 1.9.8v-3.5h1v9h-.9v-.8a3 3 0 0 1-2 1c-1.6 0-2.7-1.2-2.7-3.2a3 3 0 0 1 2.7-3.3zm.1 5.6c.7 0 1.3-.4 1.7-.9v-3.1c-.4-.4-1-.7-1.6-.7a2 2 0 0 0-1.9 2.3v.1c-.1 1.4.6 2.3 1.8 2.3zm5.6-3.5h4.2v.9h-4.2zm10.4-2.1c.8 0 1.6.3 2.2.9l-.5.7c-.5-.4-1.1-.7-1.7-.7-1.3-.1-2.3.9-2.4 2.2v.2c-.1 1.2.8 2.3 2 2.4h.4c.7 0 1.4-.3 1.9-.8l.5.7c-.6.6-1.5 1-2.4 1a3.1 3.1 0 0 1-3.4-2.8v-.4a3.2 3.2 0 0 1 3-3.4zm6.9 0c1.8-.1 3.3 1.2 3.4 3s-1.2 3.3-3 3.4-3.3-1.2-3.4-3v-.2a3 3 0 0 1 2.8-3.2zm0 5.6c1.2 0 2-1 2-2.4s-.8-2.4-2-2.4-2 1-2 2.4.8 2.4 2 2.4zm4.8-8.3h3.1v7c0 .9.5 1.3 1.2 1.3l1.2-.3.3.8c-.5.2-1.1.4-1.7.4-1.3 0-2-.8-2-2.2V468h-2.1zm10.4 2.7c1.8-.1 3.3 1.2 3.4 3s-1.2 3.3-3 3.4-3.3-1.2-3.4-3v-.2a3 3 0 0 1 2.8-3.2zm0 5.6c1.2 0 2-1 2-2.4s-.8-2.4-2-2.4-2 1-2 2.4.8 2.4 2 2.4zm5.7-5.5h.9v1.5c.6-1 1.7-1.6 2.8-1.6l1.2.3-.2.9-1.2-.2a3 3 0 0 0-2.5 1.8v3.6h-1zm14.5 0h3.9v6.2h-1v-5.3h-2.9zm2.4-2.1c0-.4.4-.8.8-.8s.8.4.8.8-.4.8-.8.8-.7-.3-.8-.8zm5.5 6.8c.7.5 1.6.8 2.5.8 1.1 0 1.6-.4 1.6-1s-.5-.8-2-1.2-2.3-.9-2.3-1.7.9-1.7 2.6-1.7c.9 0 1.8.3 2.5.8l-.5.7c-.6-.4-1.3-.6-2-.6-1.2 0-1.5.4-1.5.9s.8.8 1.9 1.1 2.5.9 2.5 1.8-1 1.8-2.7 1.8c-1.1 0-2.1-.4-3-1zm14.9-7.5h1v3.7c.6-.6 1.3-.9 2.1-.9 1.7 0 2.6 1.2 2.6 3.1s-1.3 3.3-2.8 3.3c-.7 0-1.4-.3-1.9-.8v.7h-.8zm2.7 8.3c1.1 0 1.9-.9 1.9-2.4s-.5-2.3-1.7-2.3c-.7.1-1.3.4-1.8.9v3.1c.4.4 1 .7 1.6.7zm7.8-5.6c1.4-.1 2.7.9 2.8 2.4v1.1h-4.8c0 1.2 1 2.2 2.2 2.2h.2c.7 0 1.3-.2 1.9-.6l.4.7a4 4 0 0 1-2.4.7c-1.8.1-3.3-1.4-3.4-3.1s1.4-3.3 3.1-3.4zm1.8 2.8c.2-.9-.4-1.8-1.4-2h-.4c-1.1 0-2 .9-2.1 2zm2.9-5.5h1v3.9c.6-.7 1.4-1.1 2.3-1.2 1.5 0 2.1.9 2.1 2.5v3.8h-1v-3.7c0-1.2-.4-1.7-1.4-1.7s-1.2.4-2 1.1v4.3h-1zm7.6 2.8h3.9v6.2h-1v-5.3h-2.9zm2.4-2.1c0-.4.4-.8.8-.8s.8.4.8.8-.4.8-.8.8-.7-.3-.8-.8zm5.2 2.1h.9v1.1h.1c.6-.7 1.4-1.1 2.3-1.2 1.5 0 2.1.9 2.1 2.5v3.8h-1v-3.7c0-1.2-.4-1.7-1.4-1.7s-1.2.4-2 1.1v4.3h-1zm10-.1c.7 0 1.4.3 1.9.8v-3.5h1v9h-.9v-.8a3 3 0 0 1-2 1c-1.6 0-2.7-1.2-2.7-3.2a3 3 0 0 1 2.7-3.3zm.1 5.6c.7 0 1.3-.4 1.7-.9v-3.1c-.4-.4-1-.7-1.6-.7a2 2 0 0 0-1.9 2.3c0 1.5.7 2.4 1.8 2.4zm12.7-8.3h1v3.7c.6-.6 1.3-.9 2.1-.9 1.7 0 2.6 1.2 2.6 3.1s-1.3 3.3-2.8 3.3c-.7 0-1.4-.3-1.9-.8v.7h-.8zm2.7 8.3c1.1 0 1.9-.9 1.9-2.4s-.5-2.3-1.7-2.3c-.7.1-1.3.4-1.8.9v3.1c.5.4 1.1.7 1.7.7zm7.6-5.6c1.8-.1 3.3 1.2 3.4 3s-1.2 3.3-3 3.4-3.3-1.2-3.4-3v-.2a3 3 0 0 1 2.8-3.2zm0 5.6c1.2 0 2-1 2-2.4s-.8-2.4-2-2.4-2 1-2 2.4.8 2.4 2 2.4zm5.6-5.5h.9v1.5c.6-1 1.7-1.6 2.8-1.6l1.2.3-.2.9-1.2-.2a3 3 0 0 0-2.5 1.8v3.6h-1zm9.3-.1c.7 0 1.4.3 1.9.8v-3.5h1v9h-.9v-.8a3 3 0 0 1-2 1c-1.6 0-2.7-1.2-2.7-3.2a3 3 0 0 1 2.7-3.3zm.1 5.6c.7 0 1.3-.4 1.7-.9v-3.1c-.4-.4-1-.7-1.6-.7a2 2 0 0 0-1.9 2.3c0 1.5.7 2.4 1.8 2.4zm8-5.6c1.4-.1 2.7.9 2.8 2.4v1.1h-4.8c0 1.2 1 2.2 2.2 2.2h.2c.7 0 1.3-.2 1.9-.6l.4.7a4 4 0 0 1-2.4.7c-1.8.1-3.3-1.4-3.4-3.1s1.4-3.3 3.1-3.4zm1.8 2.8c.2-.9-.4-1.8-1.4-2h-.4c-1.1 0-2 .9-2.1 2zm3.6-2.7h.9v1.5c.6-1 1.7-1.6 2.8-1.6l1.2.3-.2.9-1.2-.2a3 3 0 0 0-2.5 1.8v3.6h-1zm7.3 7.9a6.7 6.7 0 0 0 0-10.4l.6-.5a7.2 7.2 0 0 1 0 11.5z"/><g opacity=".6"><path fill="none" stroke="#63666a" stroke-miterlimit="10" stroke-width="2" d="M278.5 444.5c0-42.3 56.9-29.4 58.9-71.4"/><path fill="#63666a" d="m340.6 377.2-3.3-3.6-3.5 3.3.1-2.9 3.5-3.2 3.3 3.5z"/></g><g fill="none" stroke="#c883d4" stroke-linecap="round" stroke-linejoin="round" stroke-width="3"><path d="M673.5 313.7v1h-1"/><path stroke-dasharray="2 8.9" d="M663.6 314.7H331.9"/><path d="M327.4 314.7h-1v-1"/><path stroke-dasharray="2 9" d="M326.4 304.7V123"/><path d="M326.4 118.6v-1h1"/><path stroke-dasharray="2 8.9" d="M336.3 117.6H668"/><path d="M672.5 117.6h1v1"/><path stroke-dasharray="2 9" d="M673.5 127.5v181.7"/></g><g opacity=".6"><path fill="none" stroke="#c883d4" stroke-miterlimit="10" stroke-width="2" d="M500.1 124v72.5"/><path fill="#c883d4" d="m496.7 128 3.4-3.4 3.4 3.4v-2.9l-3.4-3.3-3.4 3.3z"/></g><g opacity=".6"><path fill="none" stroke="#c883d4" stroke-miterlimit="10" stroke-width="2" d="M500.1 308.2v-72.5"/><path fill="#c883d4" d="m503.5 304.2-3.4 3.4-3.4-3.4v2.9l3.4 3.4 3.4-3.4z"/></g><g opacity=".6"><path fill="none" stroke="#c883d4" stroke-miterlimit="10" stroke-width="2" d="M666.1 216.2H546.8"/><path fill="#c883d4" d="m662.1 212.8 3.4 3.4-3.4 3.4h2.9l3.4-3.4-3.4-3.4z"/></g><g opacity=".6"><path fill="none" stroke="#c883d4" stroke-miterlimit="10" stroke-width="2" d="M333.8 216.1h119.4"/><path fill="#c883d4" d="m337.8 219.5-3.4-3.4 3.4-3.4h-2.9l-3.4 3.4 3.4 3.4z"/></g><path fill="#fff" d="M465.8 104.7v2.9h-1.5V95.3h1.2v1.1h.1c.8-.8 1.9-1.3 3-1.3 2.3 0 3.6 1.7 3.6 4.4s-1.8 4.6-3.9 4.6c-1 0-1.9-.4-2.6-1.1zm2.3-1.7c1.5 0 2.7-1.3 2.7-3.4s-.7-3.2-2.4-3.2c-1 .1-1.9.6-2.5 1.3v4.3c.6.5 1.4.9 2.2 1zm12.9-4.5a2 2 0 0 0-1.8-2.2h-.5c-1.1.1-2.1.4-3 1l-.6-1a7.1 7.1 0 0 1 3.8-1.2c2.4 0 3.5 1.4 3.5 3.5v5.3h-1.2v-1.2h-.1a6 6 0 0 1-3.4 1.4c-1.6 0-2.9-.9-2.9-2.4s1.8-2.9 6.2-3.2zm-2.9 4.5c1.1-.1 2.1-.5 2.9-1.3v-2.3c-3.7.3-4.8 1-4.8 2.2s.9 1.4 1.9 1.4zm10.9-7.9c1 0 1.9.4 2.6 1.1v-4.9h1.4v12.6h-1.2v-1.1h-.1c-.7.8-1.7 1.2-2.8 1.3-2.3 0-3.7-1.6-3.7-4.5s1.7-4.5 3.8-4.5zm.1 7.8c1-.1 1.8-.5 2.4-1.3v-4.3c-.6-.6-1.4-1-2.3-1-1.5 0-2.7 1.3-2.7 3.3s1 3.3 2.6 3.3zm10.5-7.8c1 0 1.9.4 2.6 1.1v-4.9h1.5v12.6h-1.2v-1.1h-.1c-.7.8-1.7 1.2-2.8 1.3-2.3 0-3.7-1.6-3.7-4.5s1.7-4.5 3.7-4.5zm.1 7.8c1-.1 1.8-.5 2.4-1.3v-4.3c-.6-.6-1.4-1-2.3-1-1.5 0-2.7 1.3-2.7 3.3s1 3.3 2.6 3.3zm7.2-7.6h5.5v8.6h-1.5v-7.4h-4zm3.4-2.9c-.1-.7.4-1.2 1.1-1.3s1.2.4 1.3 1.1-.4 1.2-1.1 1.3h-.1c-.6.1-1.1-.4-1.2-1zm7.3 2.9h1.2v1.5h.1c.8-1 1.9-1.6 3.2-1.7 2 0 3 1.2 3 3.5v5.4h-1.5v-5.2c0-1.6-.6-2.4-2-2.4s-1.7.5-2.7 1.6v6h-1.5zm11.7 8.3c-.5-.3-.9-.8-.9-1.4.1-.7.4-1.3 1-1.6a2.7 2.7 0 0 1-1.1-2.2c.1-1.8 1.5-3.2 3.3-3.1h.1l1.3.2h3.6v1.1h-2.3c.5.5.8 1.1.8 1.8 0 1.8-1.5 3-3.3 3a4 4 0 0 1-1.5-.3c-.4.2-.7.6-.7 1 0 .7.7 1 1.8 1h1.9c2.2 0 3.3.6 3.3 2s-1.9 3-4.8 3-4-.9-4-2.4c0-.9.6-1.8 1.5-2.1zm2.7 3.3c2 0 3.2-.9 3.2-1.8s-.7-1-2-1h-3c-.8.4-1.1.9-1.1 1.4s1 1.4 2.9 1.4zm1.8-8.7c0-1.1-.9-2-2-2s-2 .9-2 2 .9 2 2 2c1 0 1.9-.8 1.9-1.9l.1-.1zm-68 242.2v2.9h-1.5V331h1.2v1.1h.1c.8-.8 1.9-1.3 3-1.3 2.3 0 3.6 1.7 3.6 4.4s-1.8 4.6-3.9 4.6c-1 0-1.9-.4-2.6-1.1zm2.3-1.7c1.5 0 2.7-1.3 2.7-3.4s-.7-3.2-2.4-3.2c-1 .1-1.9.6-2.5 1.3v4.3c.6.5 1.4.9 2.2.9zm12.9-4.5a2 2 0 0 0-1.8-2.2h-.5c-1.1.1-2.1.4-3 1l-.6-1a7.1 7.1 0 0 1 3.8-1.2c2.4 0 3.5 1.4 3.5 3.5v5.3h-1.2v-1.2h-.1a6 6 0 0 1-3.4 1.4c-1.6 0-2.9-.9-2.9-2.4s1.8-2.9 6.2-3.2zm-2.9 4.5c1.1-.1 2.1-.5 2.9-1.3v-2.3c-3.7.3-4.8 1-4.8 2.2s.9 1.4 1.9 1.4zm10.9-7.9c1 0 1.9.4 2.6 1.1V327h1.4v12.6h-1.2v-1.1h-.1c-.7.8-1.7 1.2-2.8 1.3-2.3 0-3.7-1.6-3.7-4.5s1.7-4.5 3.8-4.5zm.1 7.8c1-.1 1.8-.5 2.4-1.3V333c-.6-.6-1.4-1-2.3-1-1.5 0-2.7 1.3-2.7 3.3s1 3.3 2.6 3.3zm10.5-7.8c1 0 1.9.4 2.6 1.1V327h1.5v12.6h-1.2v-1.1h-.1c-.7.8-1.7 1.2-2.8 1.3-2.3 0-3.7-1.6-3.7-4.5s1.7-4.5 3.7-4.5zm.1 7.8c1-.1 1.8-.5 2.4-1.3V333c-.6-.6-1.4-1-2.3-1-1.5 0-2.7 1.3-2.7 3.3s1 3.3 2.6 3.3zm7.2-7.6h5.5v8.6h-1.5v-7.4h-4zm3.4-2.9c-.1-.7.4-1.2 1.1-1.3s1.2.4 1.3 1.1-.4 1.2-1.1 1.3h-.1c-.6.1-1.1-.4-1.2-1zm7.3 2.9h1.2v1.5h.1c.8-1 1.9-1.6 3.2-1.7 2 0 3 1.2 3 3.5v5.4h-1.5v-5.2c0-1.6-.6-2.4-2-2.4s-1.7.5-2.7 1.6v6h-1.5zm11.7 8.3c-.5-.3-.9-.8-.9-1.4.1-.7.4-1.3 1-1.6a2.7 2.7 0 0 1-1.1-2.2c.1-1.8 1.5-3.2 3.3-3.1h.1l1.3.2h3.6v1.1h-2.3c.5.5.8 1.1.8 1.8 0 1.8-1.5 3-3.3 3a4 4 0 0 1-1.5-.3c-.4.2-.7.6-.7 1 0 .7.7 1 1.8 1h1.9c2.2 0 3.3.6 3.3 2s-1.9 3-4.8 3-4-.9-4-2.4c0-.9.6-1.8 1.5-2.1zm2.7 3.3c2 0 3.2-.9 3.2-1.8s-.7-1-2-1h-3c-.8.4-1.1.9-1.1 1.4s1 1.4 2.9 1.4zm1.8-8.7c0-1.1-.9-2-2-2s-2 .9-2 2 .9 2 2 2c1 0 1.9-.8 1.9-1.9l.1-.1zm163.9-79.8h2.9v1.5h-12.3v-1.2h1.1a4.3 4.3 0 0 1-1.3-3c0-2.3 1.7-3.6 4.4-3.6s4.6 1.8 4.6 3.9c0 1-.4 1.9-1.1 2.6zm-1.7-2.3c0-1.5-1.3-2.7-3.4-2.7s-3.2.7-3.2 2.4c.1 1 .6 1.9 1.3 2.5h4.3c.5-.6.9-1.4.9-2.2zm-4.5-12.9a2 2 0 0 0-2.2 1.8v.5c.1 1.1.4 2.1 1 3l-1 .6a7.1 7.1 0 0 1-1.2-3.8c0-2.4 1.4-3.5 3.5-3.5h5.3v1.2h-1.2a6 6 0 0 1 1.4 3.4c0 1.6-.9 2.9-2.4 2.9s-2.9-1.6-3.2-6.1zm4.5 2.9a4.6 4.6 0 0 0-1.3-2.9h-2.3c.3 3.7 1 4.8 2.2 4.8s1.4-.9 1.4-1.9zm-7.9-10.8c0-1 .4-1.9 1.1-2.6h-4.9V227h12.6v1.2h-1.1c.8.7 1.2 1.7 1.3 2.8 0 2.3-1.6 3.7-4.5 3.7s-4.5-1.7-4.5-3.7zm7.8-.1c-.1-1-.5-1.8-1.3-2.4h-4.3c-.6.6-1 1.4-1 2.3 0 1.5 1.3 2.7 3.3 2.7s3.3-1.1 3.3-2.6zm-7.8-10.6c0-1 .4-1.9 1.1-2.6h-4.9v-1.5h12.6v1.2h-1.1c.8.7 1.2 1.7 1.3 2.8 0 2.3-1.6 3.7-4.5 3.7s-4.5-1.5-4.5-3.6zm7.8-.1c-.1-1-.5-1.8-1.3-2.4h-4.3c-.6.6-1 1.4-1 2.3 0 1.5 1.3 2.7 3.3 2.7s3.3-1 3.3-2.6zm-10.5-10.5c-.7.1-1.2-.4-1.3-1.1s.4-1.2 1.1-1.3 1.2.4 1.3 1.1v.1c.1.6-.4 1.1-1 1.2zm2.9 3.4v-5.5h8.6v1.5h-7.4v4zm0-10.7v-1.2h1.5c-1-.8-1.6-1.9-1.7-3.2 0-2 1.2-3 3.5-3h5.4v1.5h-5.2c-1.6 0-2.4.6-2.4 2s.5 1.7 1.6 2.7h6v1.5zm8.3-11.7c-.4.5-.9.9-1.5.9-.7-.1-1.3-.4-1.6-1h-.1c-.5.7-1.3 1.1-2.2 1.1-1.8-.1-3.2-1.5-3.1-3.3v-.1l.2-1.3v-3.6h1.1v2.3c.5-.5 1.1-.8 1.8-.8 1.8 0 3 1.5 3 3.3l-.3 1.5c.2.4.6.7 1 .7.7 0 1-.7 1-1.8v-1.9c0-2.2.6-3.3 2-3.3s3 1.9 3 4.8-.9 4-2.4 4c-.9-.1-1.6-.7-1.9-1.5zm-5.4-4.5c-1.1 0-2 .9-2 2s.9 2 2 2 2-.9 2-2c.1-1-.7-1.9-1.8-2h-.2zm8.7 1.8c0-2-.9-3.2-1.8-3.2s-1 .7-1 2v1.7l-.1 1.3c.4.8.9 1.1 1.4 1.1s1.5-1 1.5-2.9zm-388.8 66.1h2.9v1.5h-12.2v-1.2h1.1a4.3 4.3 0 0 1-1.3-3c0-2.3 1.7-3.6 4.4-3.6s4.6 1.8 4.6 3.9c0 1-.4 1.9-1.1 2.6zm-1.7-2.3c0-1.5-1.3-2.7-3.4-2.7s-3.2.7-3.2 2.4c.1 1 .6 1.9 1.3 2.5h4.3c.6-.6.9-1.4 1-2.2zm-4.5-12.9a2 2 0 0 0-2.2 1.8v.5c.1 1.1.4 2.1 1 3l-1 .6a7.1 7.1 0 0 1-1.2-3.8c0-2.4 1.4-3.5 3.5-3.5h5.3v1.2h-1.2a6 6 0 0 1 1.4 3.4c0 1.6-.9 2.9-2.4 2.9s-2.8-1.6-3.2-6.1zm4.5 2.9a4.6 4.6 0 0 0-1.3-2.9h-2.3c.3 3.7 1 4.8 2.2 4.8s1.5-.9 1.5-1.9zm-7.8-10.8c0-1 .4-1.9 1.1-2.6h-4.9V227h12.6v1.2h-1.1c.8.7 1.2 1.7 1.3 2.8 0 2.3-1.6 3.7-4.5 3.7s-4.5-1.7-4.5-3.7zm7.8-.1c-.1-1-.5-1.8-1.3-2.4h-4.3c-.6.6-1 1.4-1 2.3 0 1.5 1.3 2.7 3.3 2.7s3.3-1.1 3.3-2.6zm-7.8-10.6c0-1 .4-1.9 1.1-2.6h-4.9v-1.5h12.6v1.2h-1.1c.8.7 1.2 1.7 1.3 2.8 0 2.3-1.6 3.7-4.5 3.7s-4.5-1.5-4.5-3.6zm7.8-.1c-.1-1-.5-1.8-1.3-2.4h-4.3c-.6.6-1 1.4-1 2.3 0 1.5 1.3 2.7 3.3 2.7s3.3-1 3.3-2.6zm-10.5-10.5c-.7.1-1.2-.4-1.3-1.1s.4-1.2 1.1-1.3 1.2.4 1.3 1.1v.1c.1.6-.4 1.1-1 1.2zm2.9 3.4v-5.5h8.6v1.5H303v4zm0-10.7v-1.2h1.5c-1-.8-1.6-1.9-1.7-3.2 0-2 1.2-3 3.5-3h5.4v1.5h-5.2c-1.6 0-2.4.6-2.4 2s.5 1.7 1.6 2.7h6v1.5zm8.3-11.7h-.1c-.3.5-.8.9-1.4.9-.7-.1-1.3-.4-1.6-1h-.1c-.5.7-1.3 1.1-2.2 1.1-1.8-.1-3.2-1.5-3.1-3.3v-.1l.2-1.3v-3.6h1.1v2.3c.5-.5 1.1-.8 1.8-.8 1.8 0 3 1.5 3 3.3l-.3 1.5c.2.4.6.7 1 .7.7 0 1-.7 1-1.8v-1.9c0-2.2.6-3.3 2-3.3s3 1.9 3 4.8-.9 4-2.4 4c-.9-.1-1.6-.7-1.9-1.5zm-5.4-4.5c-1.1 0-2 .9-2 2s.9 2 2 2 2-.9 2-2c.1-1-.7-1.9-1.8-2h-.2zm8.7 1.8c0-2-.9-3.2-1.8-3.2s-1 .7-1 2v1.7l-.1 1.3c.4.8.9 1.1 1.4 1.1s1.5-1 1.5-2.9z"/></svg>
