<svg xmlns="http://www.w3.org/2000/svg" width="534" height="950" viewBox="0 0 534 950"><path fill="#9d35af" d="M496 54.8v310H38v-310z"/><path fill="#672373" d="M479 72.8v274H55v-274z"/><path fill="none" stroke="#c883d4" stroke-linecap="round" stroke-linejoin="round" stroke-width="3" d="M440.4 307.3v1h-1"/><path fill="none" stroke="#c883d4" stroke-dasharray="1.97 8.87" stroke-linecap="round" stroke-linejoin="round" stroke-width="3" d="M430.5 308.3H98.8"/><path fill="none" stroke="#c883d4" stroke-linecap="round" stroke-linejoin="round" stroke-width="3" d="M94.3 308.3h-1v-1"/><path fill="none" stroke="#c883d4" stroke-dasharray="1.99 8.96" stroke-linecap="round" stroke-linejoin="round" stroke-width="3" d="M93.3 298.4V116.7"/><path fill="none" stroke="#c883d4" stroke-linecap="round" stroke-linejoin="round" stroke-width="3" d="M93.3 112.2v-1h1"/><path fill="none" stroke="#c883d4" stroke-dasharray="1.97 8.87" stroke-linecap="round" stroke-linejoin="round" stroke-width="3" d="M103.2 111.2H435"/><path fill="none" stroke="#c883d4" stroke-linecap="round" stroke-linejoin="round" stroke-width="3" d="M439.4 111.2h1v1"/><path fill="none" stroke="#c883d4" stroke-dasharray="1.99 8.96" stroke-linecap="round" stroke-linejoin="round" stroke-width="3" d="M440.4 121.2v181.6"/><path fill="#fff" d="M197.4 205.7h1.6l1.7 7.8 1.4-5h1.4l1.4 5 1.7-7.8h1.6l-2.3 9.7h-1.5l-1.6-5.3-1.5 5.3h-1.5zm13.5.1h4.1v8.4h3.2v1.2h-7.9v-1.2h3.2V207H211zm2.5-3.8h1.6v2h-1.6zm12.8 5v-5h1.6v13.5h-1.6v-1.2a2.8 2.8 0 0 1-1.1 1.1 3 3 0 0 1-1.5.4 3.3 3.3 0 0 1-2.8-1.4 6.2 6.2 0 0 1-1-3.8 6 6 0 0 1 1-3.7 3.3 3.3 0 0 1 2.8-1.3 3.1 3.1 0 0 1 1.5.4 2.6 2.6 0 0 1 1.1 1zm-4.7 3.6a5.4 5.4 0 0 0 .6 2.8 1.9 1.9 0 0 0 1.7.9 1.9 1.9 0 0 0 1.8-1 6.8 6.8 0 0 0 0-5.6 1.9 1.9 0 0 0-1.8-.9 1.9 1.9 0 0 0-1.7.9 5.3 5.3 0 0 0-.6 2.9zm13.3-7.6v2.8h3.6v1.2h-3.6v5.3a2.2 2.2 0 0 0 .4 1.5 1.9 1.9 0 0 0 1.4.4h1.8v1.3h-1.9a3.6 3.6 0 0 1-2.5-.7 3.4 3.4 0 0 1-.7-2.5V207h-2.6v-1.2h2.6V203zm14.5 6.4v6h-1.6v-6a3.2 3.2 0 0 0-.5-1.9 1.7 1.7 0 0 0-1.4-.6 2 2 0 0 0-1.7.8 3.7 3.7 0 0 0-.6 2.3v5.5h-1.6V202h1.6v5.2a3 3 0 0 1 1.2-1.3 3.3 3.3 0 0 1 1.7-.4 2.6 2.6 0 0 1 2.2 1 4.9 4.9 0 0 1 .7 2.9zm5.3-3.7h2.7v3.1h-2.7zm0 6.5h2.7v3.2h-2.7zm19.9 1.8h2.7v-9.8l-3.3 1.6v-1.7l3.2-1.5h1.9V214h2.7v1.5h-7.1zm13.7-11.7a3.5 3.5 0 0 1 3.1 1.7 12.3 12.3 0 0 1 0 10 3.7 3.7 0 0 1-6.3 0 12.4 12.4 0 0 1 0-10 3.5 3.5 0 0 1 3.2-1.7zm0 1.4a1.9 1.9 0 0 0-1.8 1.3 10 10 0 0 0-.6 4 15 15 0 0 0 .2 2.3l4-6.4a2 2 0 0 0-1.8-1.2zm0 10.6a1.9 1.9 0 0 0 1.8-1.3 10 10 0 0 0 .6-4 17.5 17.5 0 0 0-.2-2.6l-4.1 6.5a2 2 0 0 0 1.9 1.4zm10.7-12a3.5 3.5 0 0 1 3.1 1.7 12.3 12.3 0 0 1 0 10 3.7 3.7 0 0 1-6.3 0 12.4 12.4 0 0 1 0-10 3.5 3.5 0 0 1 3.2-1.7zm0 1.4a1.9 1.9 0 0 0-1.8 1.3 10 10 0 0 0-.6 4 15 15 0 0 0 .2 2.3l4-6.4a2 2 0 0 0-1.8-1.2zm0 10.6a1.9 1.9 0 0 0 1.8-1.3 10 10 0 0 0 .6-4 17.5 17.5 0 0 0-.2-2.6l-4.1 6.5a2 2 0 0 0 1.9 1.4zm8.6-.1v4.9h-1.6v-13.4h1.6v1.3a2.8 2.8 0 0 1 1.1-1.1 3 3 0 0 1 1.5-.4 3.2 3.2 0 0 1 2.8 1.4 6.2 6.2 0 0 1 1 3.8 6.1 6.1 0 0 1-1 3.7 3.3 3.3 0 0 1-2.8 1.3 3.1 3.1 0 0 1-1.5-.4 2.7 2.7 0 0 1-1.1-1.1zm4.7-3.6a5.4 5.4 0 0 0-.6-2.8 1.9 1.9 0 0 0-1.7-.9 1.9 1.9 0 0 0-1.8.9 6.8 6.8 0 0 0 0 5.6 1.9 1.9 0 0 0 1.8 1 1.9 1.9 0 0 0 1.7-.9 5.4 5.4 0 0 0 .6-2.9zm12.4-4.9l-3.5 4.6 3.8 5.1h-1.8l-2.8-3.9-2.8 3.9h-1.8l3.8-5.1-3.5-4.6h1.8l2.6 3.5 2.6-3.5zm4.8 6.6h2.7v2.3l-1.7 3.3h-1.9l.9-3.3zm-.1-6.6h2.7v3.1h-2.7zM195.2 96.2v4.9h-1.6V87.7h1.6V89a2.8 2.8 0 0 1 1.1-1.1 3 3 0 0 1 1.5-.4 3.2 3.2 0 0 1 2.8 1.4 6.2 6.2 0 0 1 1 3.8 6.1 6.1 0 0 1-1 3.7 3.3 3.3 0 0 1-2.8 1.3 3.1 3.1 0 0 1-1.5-.4 2.7 2.7 0 0 1-1.1-1.1zm4.7-3.6a5.4 5.4 0 0 0-.6-2.8 1.9 1.9 0 0 0-1.7-.9 1.9 1.9 0 0 0-1.8.9 6.8 6.8 0 0 0 0 5.6 1.9 1.9 0 0 0 1.8 1 1.9 1.9 0 0 0 1.7-.9 5.4 5.4 0 0 0 .5-2.9zm11.9-.7v5.5h-1.6V96a3.3 3.3 0 0 1-1.3 1.3 4 4 0 0 1-1.9.4 3.3 3.3 0 0 1-2.4-.8 3.3 3.3 0 0 1 .2-4.7 5.1 5.1 0 0 1 3.2-.8h2.1v-.3a2.2 2.2 0 0 0-.6-1.7 2.7 2.7 0 0 0-1.9-.5l-1.6.2-1.6.7v-1.6l1.7-.5 1.6-.2a5.3 5.3 0 0 1 2.1.4 3.2 3.2 0 0 1 1.4 1.1 2.7 2.7 0 0 1 .5 1.1 9.7 9.7 0 0 1 .1 1.8zm-3.1.7h-.5a3.7 3.7 0 0 0-2.1.5 1.7 1.7 0 0 0-.7 1.5 1.8 1.8 0 0 0 .5 1.4 2.1 2.1 0 0 0 1.5.5 2.5 2.5 0 0 0 2.1-.9 3.9 3.9 0 0 0 .8-2.5v-.4zm12-3.6v-5h1.6v13.4h-1.6v-1.2a2.8 2.8 0 0 1-1.1 1.1 3 3 0 0 1-1.5.4 3.3 3.3 0 0 1-2.8-1.4 6.2 6.2 0 0 1-1-3.8 6 6 0 0 1 1-3.7 3.3 3.3 0 0 1 2.8-1.3 3.1 3.1 0 0 1 1.5.4 2.6 2.6 0 0 1 1.1 1.1zm-4.7 3.6a5.4 5.4 0 0 0 .6 2.8 1.9 1.9 0 0 0 1.7.9 1.9 1.9 0 0 0 1.8-1 6.8 6.8 0 0 0 0-5.6 1.9 1.9 0 0 0-1.8-.9 1.9 1.9 0 0 0-1.7.9 5.3 5.3 0 0 0-.6 2.9zm15.4-3.6v-5h1.6v13.4h-1.6v-1.2a2.8 2.8 0 0 1-1.1 1.1 3 3 0 0 1-1.5.4 3.3 3.3 0 0 1-2.8-1.4 6.2 6.2 0 0 1-1-3.8 6 6 0 0 1 1-3.7 3.3 3.3 0 0 1 2.8-1.3 3.1 3.1 0 0 1 1.5.4 2.6 2.6 0 0 1 1.1 1.1zm-4.7 3.6a5.4 5.4 0 0 0 .6 2.8 1.9 1.9 0 0 0 1.7.9 1.9 1.9 0 0 0 1.8-1 6.8 6.8 0 0 0 0-5.6 1.9 1.9 0 0 0-1.8-.9 1.9 1.9 0 0 0-1.7.9 5.3 5.3 0 0 0-.6 2.9zm11-4.8h4.1v8.4h3.2v1.2h-7.9v-1.2h3.2V89h-2.5zm2.5-3.8h1.6v2h-1.6zm14.6 7.4v6h-1.6v-6a3.2 3.2 0 0 0-.5-1.9 1.7 1.7 0 0 0-1.4-.6 2 2 0 0 0-1.7.8 3.7 3.7 0 0 0-.6 2.3v5.5h-1.6v-9.8h1.6v1.5a3 3 0 0 1 1.2-1.3 3.3 3.3 0 0 1 1.7-.4 2.6 2.6 0 0 1 2.2 1 4.9 4.9 0 0 1 .7 2.9zm10.6 5.4a4.7 4.7 0 0 1-1 3.3 3.9 3.9 0 0 1-3 1.1H260l-1.4-.4v-1.6l1.5.6 1.3.2a2.3 2.3 0 0 0 1.9-.7 3.4 3.4 0 0 0 .6-2.2v-1.2a2.7 2.7 0 0 1-1 1.2 3 3 0 0 1-1.6.4 3.2 3.2 0 0 1-2.7-1.4 7.1 7.1 0 0 1 0-7.3 3.2 3.2 0 0 1 2.7-1.4 3.1 3.1 0 0 1 1.6.4A2.7 2.7 0 0 1 264 89v-1.2h1.6zm-1.6-4.3a5.2 5.2 0 0 0-.6-2.7 1.9 1.9 0 0 0-1.7-.9 2 2 0 0 0-1.8.9 6.3 6.3 0 0 0 0 5.5 2 2 0 0 0 1.8.9 1.9 1.9 0 0 0 1.7-.9 5.2 5.2 0 0 0 .6-2.8zm7-4.8h2.7v3.1h-2.7zm0 6.5h2.7v3.2h-2.7zm19.9 1.8h2.7v-9.8l-3.3 1.6v-1.7l3.2-1.5h1.8V96h2.7v1.5h-7.1zm13.7-11.7a3.5 3.5 0 0 1 3.1 1.7 9.5 9.5 0 0 1 1.1 5 9.5 9.5 0 0 1-1.1 5 3.7 3.7 0 0 1-6.3 0 9.5 9.5 0 0 1-1.1-5 9.5 9.5 0 0 1 1.1-5 3.5 3.5 0 0 1 3.2-1.7zm0 1.4a1.9 1.9 0 0 0-1.8 1.3 10 10 0 0 0-.6 4 15 15 0 0 0 .2 2.3l4-6.4a2 2 0 0 0-1.8-1.2zm0 10.6a1.9 1.9 0 0 0 1.8-1.3 10 10 0 0 0 .6-4 17.5 17.5 0 0 0-.2-2.6l-4.1 6.5a2 2 0 0 0 1.9 1.4zm8.6-.1v4.9h-1.6V87.7h1.6V89a2.8 2.8 0 0 1 1.1-1.1 3 3 0 0 1 1.5-.4 3.2 3.2 0 0 1 2.8 1.4 6.2 6.2 0 0 1 1 3.8 6.1 6.1 0 0 1-1 3.7 3.3 3.3 0 0 1-2.8 1.3 3.1 3.1 0 0 1-1.5-.4 2.7 2.7 0 0 1-1.1-1.1zm4.7-3.6a5.4 5.4 0 0 0-.6-2.8 1.9 1.9 0 0 0-1.7-.9 1.9 1.9 0 0 0-1.8.9 6.8 6.8 0 0 0 0 5.6 1.9 1.9 0 0 0 1.8 1 1.9 1.9 0 0 0 1.7-.9 5.4 5.4 0 0 0 .6-2.9zm12.4-4.9l-3.5 4.6 3.8 5.1h-1.8l-2.8-3.9-2.8 3.9h-1.8l3.8-5.1-3.5-4.6h1.8l2.6 3.5 2.6-3.5zm4.9 6.6h2.7v2.3l-1.7 3.3h-1.9l.9-3.3zm-.1-6.6h2.7v3.1h-2.7zM174 62a2.7 2.7 0 0 1 1.1-1.1 3.1 3.1 0 0 1 1.6-.4 3.3 3.3 0 0 1 2.8 1.3 6.1 6.1 0 0 1 1 3.7 6.2 6.2 0 0 1-1 3.8 3.3 3.3 0 0 1-2.8 1.4 3 3 0 0 1-1.5-.4 2.8 2.8 0 0 1-1.1-1.1v1.2h-1.6V57h1.5zm4.7 3.6a5.3 5.3 0 0 0-.6-2.8 1.9 1.9 0 0 0-1.7-.9 1.9 1.9 0 0 0-1.8.9 5.3 5.3 0 0 0-.6 2.8 5.3 5.3 0 0 0 .6 2.8 1.9 1.9 0 0 0 1.8 1 1.9 1.9 0 0 0 1.7-.9 5.4 5.4 0 0 0 .6-2.9zm8-5.1a3.8 3.8 0 0 1 3.1 1.3 5.9 5.9 0 0 1 1.1 3.8 5.9 5.9 0 0 1-1.1 3.8 4.3 4.3 0 0 1-6.2 0 5.9 5.9 0 0 1-1.1-3.8 5.9 5.9 0 0 1 1.1-3.8 3.7 3.7 0 0 1 3.1-1.3zm0 1.4a2.1 2.1 0 0 0-1.8.9 5.1 5.1 0 0 0-.6 2.8 5.1 5.1 0 0 0 .6 2.8 2.3 2.3 0 0 0 3.7 0 5.1 5.1 0 0 0 .6-2.8 5.1 5.1 0 0 0-.6-2.8 2.1 2.1 0 0 0-1.9-.9zm15.4.8l-1-.6-1.2-.2a2.8 2.8 0 0 0-2.3.9 4.1 4.1 0 0 0-.8 2.7v4.8h-1.6v-9.6h1.6v1.9A3.2 3.2 0 0 1 198 61a3.5 3.5 0 0 1 2-.6h1.1l1 .5zm8.1-.7v-5h1.6v13.4h-1.6v-1.2a2.8 2.8 0 0 1-1.1 1.1 3 3 0 0 1-1.5.4 3.3 3.3 0 0 1-2.8-1.4 6.2 6.2 0 0 1-1-3.8 6 6 0 0 1 1-3.7 3.3 3.3 0 0 1 2.8-1.3 3.1 3.1 0 0 1 1.5.4 2.6 2.6 0 0 1 1.1 1.1zm-4.7 3.6a5.4 5.4 0 0 0 .6 2.8 1.9 1.9 0 0 0 1.7.9 1.9 1.9 0 0 0 1.8-1 6.8 6.8 0 0 0 0-5.6 1.9 1.9 0 0 0-1.8-.9 1.9 1.9 0 0 0-1.7.9 5.3 5.3 0 0 0-.6 2.9zm17.7-.8v.8h-6.9a3.8 3.8 0 0 0 .8 2.9 3.1 3.1 0 0 0 2.3.9l1.6-.2 1.8-.7v1.6l-1.8.6-1.6.2a4.6 4.6 0 0 1-3.5-1.4 5.2 5.2 0 0 1-1.3-3.7 5.3 5.3 0 0 1 1.2-3.7 4.3 4.3 0 0 1 3.3-1.4A3.6 3.6 0 0 1 222 62a4.8 4.8 0 0 1 1.2 2.8zm-1.6-.5a3.1 3.1 0 0 0-.7-1.7 2.3 2.3 0 0 0-1.8-.7 2.5 2.5 0 0 0-1.9.8 2.7 2.7 0 0 0-.8 1.7zm12.5-1.6l-1-.6-1.2-.2a2.8 2.8 0 0 0-2.3.9 4.1 4.1 0 0 0-.8 2.7v4.8h-1.6v-9.6h1.6v1.9A3.2 3.2 0 0 1 230 61a3.5 3.5 0 0 1 2-.6h1.1l1 .5zm1.6 1.5h9.2v1.5h-9.2zm9.8-3.5h1.6l1.7 7.8 1.4-5h1.4l1.4 5 1.7-7.8h1.6l-2.3 9.7h-1.5l-1.6-5.3-1.5 5.3h-1.5zm13.4.1h4.1v8.4h3.2v1.2h-7.9v-1.2h3.2V62H259zm2.5-3.8h1.6v2h-1.6zm12.9 5v-5h1.6v13.4h-1.6v-1.2a2.8 2.8 0 0 1-1.1 1.1 3 3 0 0 1-1.5.4 3.3 3.3 0 0 1-2.8-1.4 6.2 6.2 0 0 1-1-3.8 6 6 0 0 1 1-3.7 3.3 3.3 0 0 1 2.8-1.3 3.1 3.1 0 0 1 1.5.4 2.6 2.6 0 0 1 1.1 1.1zm-4.7 3.6a5.4 5.4 0 0 0 .6 2.8 1.9 1.9 0 0 0 1.7.9 1.9 1.9 0 0 0 1.8-1 5.3 5.3 0 0 0 .6-2.8 5.3 5.3 0 0 0-.6-2.8 2 2 0 0 0-1.8-.9 1.9 1.9 0 0 0-1.7.9 5.4 5.4 0 0 0-.6 2.9zm13.3-7.6v2.8h3.6V62h-3.6v5.3a2.2 2.2 0 0 0 .4 1.5 1.9 1.9 0 0 0 1.4.4h1.8v1.3h-1.9a3.6 3.6 0 0 1-2.5-.7 3.4 3.4 0 0 1-.7-2.5V62h-2.6v-1.3h2.6V58zm14.4 6.4v6h-1.6v-6a3.2 3.2 0 0 0-.5-1.9 1.7 1.7 0 0 0-1.4-.6 2 2 0 0 0-1.7.8 3.7 3.7 0 0 0-.6 2.3v5.5h-1.6V57h1.6v5.2a3 3 0 0 1 1.2-1.3 3.3 3.3 0 0 1 1.7-.4 2.6 2.6 0 0 1 2.2 1 4.9 4.9 0 0 1 .7 2.9zm5.3-3.7h2.7v3.1h-2.7zm0 6.5h2.7v3.2h-2.7zm19.5-9.7h6.5V59h-5v3.2l.7-.2h.8a4.3 4.3 0 0 1 3.2 1.2 4.4 4.4 0 0 1 1.2 3.2 4.2 4.2 0 0 1-1.2 3.2 4.7 4.7 0 0 1-3.4 1.2H323l-1.5-.4v-2l1.6.6 1.6.2a3.1 3.1 0 0 0 2.2-.8 2.9 2.9 0 0 0 .8-2.2 2.8 2.8 0 0 0-.8-2.2 3.1 3.1 0 0 0-2.3-.8l-1.4.2-1.3.5zm12.1 11.7v4.9h-1.6V60.7h1.6V62a2.8 2.8 0 0 1 1.1-1.1 3 3 0 0 1 1.5-.4 3.2 3.2 0 0 1 2.8 1.4 6.2 6.2 0 0 1 1 3.8 6.1 6.1 0 0 1-1 3.7 3.3 3.3 0 0 1-2.8 1.3 3.1 3.1 0 0 1-1.5-.4 2.7 2.7 0 0 1-1.1-1.1zm4.7-3.6a5.4 5.4 0 0 0-.6-2.8 1.9 1.9 0 0 0-1.7-.9 1.9 1.9 0 0 0-1.8.9 5.3 5.3 0 0 0-.6 2.8 5.3 5.3 0 0 0 .6 2.8 1.9 1.9 0 0 0 1.8 1 1.9 1.9 0 0 0 1.7-.9 5.4 5.4 0 0 0 .6-2.9zm12.4-4.9l-3.5 4.6 3.8 5.1h-1.8l-2.8-3.8-2.8 3.9h-1.8l3.8-5.1-3.5-4.6h1.8l2.6 3.5 2.6-3.5zm4.8 6.6h2.7v2.3l-1.7 3.3h-1.9l.9-3.3zm-.1-6.6h2.7v3.1H356z"/><path fill="#63666a" d="M127.5 23.9a3.4 3.4 0 0 1 2.4 1v-4.4h1.3v11.4H130v-1a3.7 3.7 0 0 1-2.5 1.2c-2 0-3.4-1.5-3.4-4.1s1.6-4.1 3.4-4.1zm.1 7.1a3 3 0 0 0 2.2-1.2v-3.9a2.9 2.9 0 0 0-2-.9c-1.3 0-2.4 1.2-2.4 3s.8 3 2.2 3zm10.1-7.1a3.3 3.3 0 0 1 3.5 3.7 4.6 4.6 0 0 1 0 .7h-6.1a2.8 2.8 0 0 0 3 2.7 4.3 4.3 0 0 0 2.4-.7l.5.9a5.4 5.4 0 0 1-3 .9 4.1 4.1 0 0 1-.2-8.2zm2.3 3.5a2.2 2.2 0 0 0-2.3-2.5 2.6 2.6 0 0 0-2.6 2.5zm11.1-5.7a4 4 0 0 0-1.8-.4 1.8 1.8 0 0 0-2 2v.7h3.3v1.1h-3.3v6.7H146v-6.6h-2.2v-1h2.2v-.7a2.8 2.8 0 0 1 3.1-3.2 5.8 5.8 0 0 1 2.2.4zm7.6 5.2a1.8 1.8 0 0 0-2.1-2 5.4 5.4 0 0 0-2.7.9l-.5-.9a6.7 6.7 0 0 1 3.5-1.1 2.9 2.9 0 0 1 3.2 3.2v4.8H159v-1a5.3 5.3 0 0 1-3.1 1.2c-1.5 0-2.6-.8-2.6-2.2s1.4-2.5 5.4-2.9zm-2.6 4.1a4.2 4.2 0 0 0 2.6-1.2v-2c-3.3.3-4.4.9-4.4 2s.9 1.2 1.8 1.2zm13.4.9h-1.1v-1.4h-.1a3.8 3.8 0 0 1-2.9 1.6c-1.9 0-2.7-1.1-2.7-3.1v-4.9h1.3v4.7c0 1.5.5 2.2 1.8 2.2a3.1 3.1 0 0 0 2.4-1.4v-5.5h1.3zm2.8-11.4h4v8.9c0 1.1.6 1.6 1.5 1.6a3.5 3.5 0 0 0 1.5-.4l.3 1a5.5 5.5 0 0 1-2.1.5c-1.6 0-2.5-1-2.5-2.8v-7.8h-2.7zm11.6 4.7h-2.2v-1h2.2l.2-2.2h1.1v2.2h3.8v1.1h-3.8V29c0 1.4.5 2.1 2 2.1a5.1 5.1 0 0 0 1.9-.4l.3 1a7.3 7.3 0 0 1-2.4.5c-2.3 0-3-1.3-3-3.2zm17.4-4.7h1.3v4.6a4 4 0 0 1 2.6-1.2c2.1 0 3.2 1.6 3.2 4s-1.7 4.2-3.5 4.2a3.9 3.9 0 0 1-2.4-1.1v.9h-1.1zm3.4 10.5c1.4 0 2.4-1.2 2.4-3.1s-.6-2.9-2.2-2.9a3.4 3.4 0 0 0-2.3 1.2V30a3.4 3.4 0 0 0 2.1 1zm9.5-7.1A3.8 3.8 0 0 1 218 28a3.8 3.8 0 1 1-7.7 0 3.8 3.8 0 0 1 3.9-4.1zm0 7.1c1.5 0 2.5-1.2 2.5-3s-1-3-2.5-3-2.5 1.2-2.5 3 1 3 2.5 3zm8.8-3.2l-2.7-3.7h1.5l1.2 1.7.9 1.3h.1l.9-1.3 1.2-1.7h1.4l-2.8 3.9 3 3.9h-1.4l-1.4-1.8-1-1.4h-.1l-1 1.4-1.3 1.8H220zm16.2-3.7h1v1a1.9 1.9 0 0 1 1.7-1.2 1.4 1.4 0 0 1 1.5 1.3c.5-.8 1-1.3 1.8-1.3s1.7.8 1.7 2.4v5.6h-1.3v-5.5c0-.9-.3-1.4-.8-1.4s-.9.4-1.3 1.2v5.6h-1.1v-5.4c0-.9-.3-1.4-.9-1.4s-.9.4-1.3 1.2v5.6h-1.3zm13.4-.2a3.8 3.8 0 0 1 3.8 4.1 3.8 3.8 0 1 1-7.7 0 3.8 3.8 0 0 1 3.9-4.1zm0 7.1c1.5 0 2.5-1.2 2.5-3s-1-3-2.5-3-2.5 1.2-2.5 3 1 3 2.5 3zm9.3-7.1a3.4 3.4 0 0 1 2.4 1v-4.4h1.3v11.4h-1.1v-1a3.7 3.7 0 0 1-2.5 1.2c-2 0-3.4-1.5-3.4-4.1s1.5-4.1 3.3-4.1zm.1 7.1a3 3 0 0 0 2.2-1.2v-3.9a2.9 2.9 0 0 0-2-.9c-1.3 0-2.4 1.2-2.4 3s.8 3 2.2 3zm10.1-7.1a3.3 3.3 0 0 1 3.5 3.7 4.6 4.6 0 0 1 0 .7h-6.1a2.8 2.8 0 0 0 3 2.7 4.3 4.3 0 0 0 2.4-.7l.5.9a5.4 5.4 0 0 1-3 .9 4.1 4.1 0 0 1-.2-8.2zm2.3 3.5a2.2 2.2 0 0 0-2.3-2.5 2.6 2.6 0 0 0-2.6 2.5zm3.5-6.9h4v8.9c0 1.1.6 1.6 1.5 1.6a3.5 3.5 0 0 0 1.5-.4l.3 1a5.5 5.5 0 0 1-2.1.5c-1.6 0-2.5-1-2.5-2.8v-7.8h-2.7zm13.1 3.1a1.4 1.4 0 1 1-1.3 1.3 1.3 1.3 0 0 1 1.3-1.3zm0 5.7a1.4 1.4 0 1 1-1.3 1.4 1.3 1.3 0 0 1 1.3-1.3zm20-5.4a4 4 0 0 1 2.8 1.1l-.7.8a3.2 3.2 0 0 0-2.1-.9 2.9 2.9 0 0 0-3 3 2.8 2.8 0 0 0 3 3 3.8 3.8 0 0 0 2.4-1l.6.8a4.6 4.6 0 0 1-3.1 1.2 3.9 3.9 0 0 1-4.3-4.1 4 4 0 0 1 4.4-3.9zm8.8 0a3.8 3.8 0 0 1 3.8 4.1 3.8 3.8 0 1 1-7.7 0 3.8 3.8 0 0 1 3.9-4.1zm0 7.1c1.5 0 2.5-1.2 2.5-3s-1-3-2.5-3-2.5 1.2-2.5 3 1 3 2.5 3zm6.3-6.9h1.1v1.3h.1a4 4 0 0 1 2.9-1.5c1.8 0 2.7 1.1 2.7 3.1v4.8h-1.3v-4.6c0-1.5-.5-2.2-1.8-2.2s-1.6.5-2.5 1.4v5.4H326zm11.4 1.1h-2.2v-1h2.2l.2-2.2h1.1v2.2h3.8v1.1h-3.8V29c0 1.4.5 2.1 2 2.1a5.1 5.1 0 0 0 1.9-.4l.3 1a7.3 7.3 0 0 1-2.4.5c-2.3 0-3-1.3-3-3.2zm11.4-1.3a3.3 3.3 0 0 1 3.5 3.7 4.6 4.6 0 0 1 0 .7h-6.1a2.8 2.8 0 0 0 3 2.7 4.3 4.3 0 0 0 2.4-.7l.5.9a5.4 5.4 0 0 1-3 .9 4.1 4.1 0 0 1-.2-8.2zm2.3 3.5a2.2 2.2 0 0 0-2.3-2.5 2.6 2.6 0 0 0-2.6 2.5zm3.7-3.3h1.1v1.3h.1a4 4 0 0 1 2.9-1.5c1.8 0 2.7 1.1 2.7 3.1v4.8h-1.3v-4.6c0-1.5-.5-2.2-1.8-2.2s-1.6.5-2.5 1.4v5.4h-1.3zm11.4 1.1h-2.2v-1h2.2l.2-2.2h1.1v2.2h3.8v1.1h-3.8V29c0 1.4.5 2.1 2 2.1a5.1 5.1 0 0 0 1.9-.4l.3 1a7.3 7.3 0 0 1-2.4.5c-2.3 0-3-1.3-3-3.2zm8.4 1.4h5.3v1.2h-5.3zm9-6.1h1.3v4.6a4 4 0 0 1 2.6-1.2c2.1 0 3.2 1.6 3.2 4s-1.7 4.2-3.5 4.2a3.9 3.9 0 0 1-2.4-1.1v.9h-1.1zm3.4 10.5c1.4 0 2.4-1.2 2.4-3.1s-.6-2.9-2.2-2.9a3.4 3.4 0 0 0-2.3 1.2V30a3.4 3.4 0 0 0 2.1 1zm9.5-7.1a3.8 3.8 0 0 1 3.8 4.1 3.8 3.8 0 1 1-7.7 0 3.8 3.8 0 0 1 3.9-4.1zm0 7.1c1.5 0 2.5-1.2 2.5-3s-1-3-2.5-3-2.5 1.2-2.5 3 1 3 2.5 3zm8.8-3.2l-2.7-3.7h1.5l1.2 1.7.9 1.3h.1l.9-1.3 1.2-1.7h1.4l-2.9 3.8 3 3.9h-1.4l-1.4-1.8-1-1.4h-.1l-1 1.4-1.3 1.8h-1.4zM174.3 424.4h-2.2v-1h2.2l.2-2.2h1.1v2.2h3.8v1.1h-3.8v3.7c0 1.4.5 2.1 2 2.1a5.1 5.1 0 0 0 1.9-.4l.3 1a7.3 7.3 0 0 1-2.4.5c-2.3 0-3-1.3-3-3.2zm11.1-1.3a4.1 4.1 0 1 1-3.8 4.1 3.8 3.8 0 0 1 3.8-4.1zm0 7.1c1.5 0 2.5-1.2 2.5-3s-1-3-2.5-3-2.5 1.2-2.5 3 1 3 2.5 3zm8.1-5.8h-2.2v-1h2.2l.2-2.2h1.1v2.2h3.8v1.1h-3.8v3.7c0 1.4.5 2.1 2 2.1a5.1 5.1 0 0 0 1.9-.4l.3 1a7.3 7.3 0 0 1-2.4.5c-2.3 0-3-1.3-3-3.2zm13.2 1.7a1.8 1.8 0 0 0-2.1-2 5.4 5.4 0 0 0-2.7.9l-.5-.9a6.7 6.7 0 0 1 3.5-1.1 2.9 2.9 0 0 1 3.2 3.2v4.8H207v-1a5.3 5.3 0 0 1-3.1 1.2c-1.5 0-2.6-.8-2.6-2.2s1.4-2.5 5.4-2.9zm-2.6 4.1a4.2 4.2 0 0 0 2.6-1.2v-2c-3.3.3-4.4.9-4.4 2s.9 1.2 1.8 1.2zm6.6-10.5h4v8.9c0 1.1.6 1.6 1.5 1.6a3.5 3.5 0 0 0 1.5-.4l.3 1a5.5 5.5 0 0 1-2.1.5c-1.6 0-2.5-1-2.5-2.8v-7.7h-2.7zm18 3.6h1.3l1 4.5.4 2.2h.1l.5-2.2 1-4h1l1 4 .5 2.2h.1l.4-2.2.9-4.5h1.2l-1.7 7.8h-1.6l-.9-3.9-.4-2.3h-.1c-.1.7-.2 1.4-.4 2.3l-.9 3.9h-1.6zm10.9 0h4.9v7.8h-1.3v-6.7h-3.6zm3.1-2.6a1.1 1.1 0 1 1 1.1 1 1 1 0 0 1-1.1-1zm9.6 2.4a3.4 3.4 0 0 1 2.4 1v-4.4h1.3v11.4h-1.1v-1a3.7 3.7 0 0 1-2.5 1.2c-2 0-3.4-1.5-3.4-4.1s1.5-4.1 3.3-4.1zm.1 7.1a3 3 0 0 0 2.2-1.2v-3.9a2.9 2.9 0 0 0-2-.9c-1.3 0-2.4 1.2-2.4 3s.8 3 2.2 3zm8.3-5.8h-2.2v-1h2.2l.2-2.2h1.1v2.2h3.8v1.1H262v3.7c0 1.4.5 2.1 2 2.1a5.1 5.1 0 0 0 1.9-.4l.3 1a7.3 7.3 0 0 1-2.4.5c-2.3 0-3-1.3-3-3.2zm7.8-4.7h1.3v4.9a4.1 4.1 0 0 1 2.9-1.5c1.8 0 2.7 1.1 2.7 3.1v4.8h-1.3v-4.7c0-1.5-.5-2.2-1.8-2.2s-1.6.5-2.5 1.4v5.4h-1.3zm19.1 3.6h4.9v7.8h-1.3v-6.7h-3.6zm3.1-2.6a1.1 1.1 0 1 1 1.1 1 1 1 0 0 1-1.1-1zm6.9 8.5a5.1 5.1 0 0 0 3.2 1.1c1.4 0 2.1-.5 2.1-1.2s-.6-1-2.5-1.5-3-1.1-3-2.2 1.1-2.2 3.3-2.2a5.8 5.8 0 0 1 3.1 1l-.6.8a4.3 4.3 0 0 0-2.5-.8c-1.5 0-1.9.5-1.9 1.1s1 1 2.4 1.4 3.1 1.1 3.1 2.3-1.2 2.3-3.5 2.3a6.8 6.8 0 0 1-3.8-1.3zm26 0v1.9h-7.3v-1.9h2.6v-5.9h-2.1v-1.5a7.8 7.8 0 0 0 2.7-.9h1.7v8.3zm2.8-.9a3.8 3.8 0 0 0 2.5 1c1.1 0 1.9-.4 1.9-1.2s-.7-1.5-3.1-1.5V425c2 0 2.7-.5 2.7-1.4s-.6-1.1-1.5-1.1a3.4 3.4 0 0 0-2.2.9l-1.2-1.4a5.4 5.4 0 0 1 3.5-1.3c2.2 0 3.7 1 3.7 2.8s-.7 1.8-1.9 2.3a2.7 2.7 0 0 1 2.3 2.5c0 1.9-1.9 3-4 3a4.9 4.9 0 0 1-3.8-1.4zm8.7-2.4c0-3.5 1.6-5.2 3.9-5.2s3.9 1.8 3.9 5.2-1.6 5.3-3.9 5.3-3.9-1.8-3.9-5.3zm2.1 0c0 2.6.8 3.5 1.8 3.5s1.8-.8 1.8-3.5-.8-3.4-1.8-3.4-1.8.8-1.8 3.4zm.6 0a1.2 1.2 0 1 1 1.2 1.2 1.2 1.2 0 0 1-1.2-1.2zm9.5 5.8v2.3H345v-10.9h1.9l.2.8a3.7 3.7 0 0 1 2.4-1c2 0 3.2 1.6 3.2 4s-1.7 4.3-3.4 4.3a2.9 2.9 0 0 1-2-.9zm1.4-2.4c.9 0 1.6-.7 1.6-2.3s-.5-2.1-1.5-2.1a2 2 0 0 0-1.5.7v3.2a2.1 2.1 0 0 0 1.4.5zm8-2.4l-2.6-3.8h2.5l.8 1.3.8 1.4h.1l.7-1.4.7-1.3h2.5l-2.6 4.1 2.8 3.9h-2.5l-.9-1.3-.9-1.4h-.1l-.7 1.4-.8 1.3H354zm-220.4 15.2a6.7 6.7 0 0 1 2.7-5.4l.5.5a6.4 6.4 0 0 0 0 9.9l-.5.5a6.7 6.7 0 0 1-2.7-5.5zm4.8-2.5h1l.7 3.4.3 1.6.3-1.6.7-3h.8l.7 3 .3 1.6.3-1.6.7-3.4h.9l-1.3 5.8h-1.2l-.7-3-.3-1.7-.3 1.7-.7 2.9h-1.2zm8.2 0h3.7v5.8h-1v-5h-2.7zm2.3-2a.8.8 0 1 1 .8.8.7.7 0 0 1-.8-.7zm7.2 1.9a2.6 2.6 0 0 1 1.8.8V437h1v8.5h-.8v-.8a2.8 2.8 0 0 1-1.9.9c-1.5 0-2.5-1.1-2.5-3a2.8 2.8 0 0 1 2.4-3.1zm.1 5.3a2.2 2.2 0 0 0 1.6-.9V441a2.2 2.2 0 0 0-1.5-.7 2 2 0 0 0-1.8 2.2c-.1 1.4.6 2.3 1.7 2.3zm6.2-4.4h-1.6v-.7h1.7V438h.8v1.6h2.9v.8H166v2.8c0 1 .3 1.6 1.5 1.6a3.8 3.8 0 0 0 1.4-.3l.2.7a5.5 5.5 0 0 1-1.8.3c-1.7 0-2.2-1-2.2-2.4zm5.8-3.5h1v3.7a3 3 0 0 1 2.2-1.1c1.4 0 2 .8 2 2.4v3.6h-1V442c0-1.1-.4-1.6-1.3-1.6s-1.2.3-1.8 1.1v4.1h-1zm16.5 5.2h-2.2v-.7h2.2V439h.8v2.3h2.2v.7h-2.2v2.3h-.8zm13.3 3.9v2h-1v-8.3h.8v.7a3.1 3.1 0 0 1 2-.9c1.6 0 2.4 1.2 2.4 3s-1.2 3.1-2.7 3.1a2.8 2.8 0 0 1-1.8-.8zm1.6-1.2c1 0 1.8-.9 1.8-2.3s-.5-2.1-1.6-2.1a2.5 2.5 0 0 0-1.7.9v2.9a2.5 2.5 0 0 0 1.5.6zm8.7-3a1.4 1.4 0 0 0-1.5-1.5 4.1 4.1 0 0 0-2 .7l-.4-.7a5 5 0 0 1 2.6-.8 2.2 2.2 0 0 1 2.4 2.4v3.6h-.8v-.8a4 4 0 0 1-2.3.9 1.8 1.8 0 0 1-2-1.7c-.2-1.2 1-1.9 4-2.1zm-2 3a3.2 3.2 0 0 0 2-.9v-1.5c-2.5.2-3.3.7-3.3 1.5s.6.9 1.3.9zm7.4-5.3a2.6 2.6 0 0 1 1.8.8V437h1v8.5h-.8v-.8a2.8 2.8 0 0 1-1.9.9c-1.5 0-2.5-1.1-2.5-3a2.8 2.8 0 0 1 2.4-3.1zm.1 5.3a2.2 2.2 0 0 0 1.6-.9V441a2.2 2.2 0 0 0-1.5-.7 2 2 0 0 0-1.8 2.2c-.1 1.4.6 2.3 1.7 2.3zm7.1-5.3a2.6 2.6 0 0 1 1.8.8V437h1v8.5h-.8v-.8a2.8 2.8 0 0 1-1.9.9c-1.5 0-2.5-1.1-2.5-3a2.8 2.8 0 0 1 2.4-3.1zm.1 5.3a2.2 2.2 0 0 0 1.6-.9V441a2.2 2.2 0 0 0-1.5-.7 2 2 0 0 0-1.8 2.2c-.1 1.4.6 2.3 1.7 2.3zm4.8-5.2h3.7v5.8h-1v-5h-2.7zm2.3-2a.8.8 0 1 1 .8.8.7.7 0 0 1-.8-.7zm4.9 2h.8v1a3 3 0 0 1 2.2-1.1c1.4 0 2 .8 2 2.4v3.6h-1V442c0-1.1-.4-1.6-1.3-1.6s-1.2.3-1.8 1.1v4.1h-1zm7.9 5.6a1.1 1.1 0 0 1-.6-1 1.4 1.4 0 0 1 .7-1.1 1.9 1.9 0 0 1-.7-1.5 2.1 2.1 0 0 1 2.3-2.1h3.3v.8H247a1.8 1.8 0 0 1 .5 1.2 2 2 0 0 1-2.3 2l-1-.2a.8.8 0 0 0-.5.7c0 .5.4.7 1.2.7h1.3c1.5 0 2.2.4 2.2 1.4s-1.3 2-3.2 2-2.7-.6-2.7-1.6a1.6 1.6 0 0 1 1.1-1.3zm1.8 2.2c1.4 0 2.2-.6 2.2-1.2s-.4-.7-1.3-.7h-2c-.6.3-.7.6-.7 1s.6 1 1.8 1zm1.2-5.9a1.3 1.3 0 1 0-1.3 1.4 1.3 1.3 0 0 0 1.3-1.3zm4 0h4v.9h-4zm6.6-4.6h3v6.7c0 .9.4 1.2 1.1 1.2l1.1-.3.3.7a4.1 4.1 0 0 1-1.6.3c-1.2 0-1.9-.7-1.9-2.1v-5.8h-2zm10 2.6a2.5 2.5 0 0 1 2.7 2.7 3.4 3.4 0 0 1 0 .5h-4.6a2.1 2.1 0 0 0 2.2 2.1 3.2 3.2 0 0 0 1.8-.5l.3.6a4 4 0 0 1-2.2.7 3.1 3.1 0 0 1-.2-6.1zm1.7 2.6a1.6 1.6 0 0 0-1.7-1.8 2 2 0 0 0-2 1.8zm8.4-4.2a3 3 0 0 0-1.4-.3 1.3 1.3 0 0 0-1.5 1.5v.5h2.4v.8h-2.4v5h-1v-5h-1.7v-.7h1.7v-.5a2.1 2.1 0 0 1 2.4-2.4 4.3 4.3 0 0 1 1.7.3zm3 2.5h-1.6v-.7h1.7V438h.8v1.6h2.9v.8h-2.9v2.8c0 1 .3 1.6 1.5 1.6a3.8 3.8 0 0 0 1.4-.3l.2.7a5.5 5.5 0 0 1-1.8.3c-1.7 0-2.2-1-2.2-2.4zm15.1 1.7h-2.2v-.7h2.2V439h.8v2.3h2.2v.7h-2.2v2.3h-.8zm13.3 3.9v2h-1v-8.3h.8v.7a3.1 3.1 0 0 1 2-.9c1.6 0 2.4 1.2 2.4 3s-1.2 3.1-2.7 3.1a2.8 2.8 0 0 1-1.8-.8zm1.6-1.2c1 0 1.8-.9 1.8-2.3s-.5-2.1-1.6-2.1a2.5 2.5 0 0 0-1.7.9v2.9a2.5 2.5 0 0 0 1.5.6zm8.7-3a1.4 1.4 0 0 0-1.5-1.5 4.1 4.1 0 0 0-2 .7l-.4-.7a5 5 0 0 1 2.6-.8 2.2 2.2 0 0 1 2.4 2.4v3.6h-.8v-.8a4 4 0 0 1-2.3.9 1.8 1.8 0 0 1-2-1.7c-.2-1.2 1-1.9 4-2.1zm-2 3a3.1 3.1 0 0 0 2-.9v-1.5c-2.5.2-3.3.7-3.3 1.5s.6.9 1.3.9zm7.4-5.3a2.6 2.6 0 0 1 1.8.8V437h1v8.5h-.8v-.8a2.8 2.8 0 0 1-1.9.9c-1.5 0-2.5-1.1-2.5-3a2.8 2.8 0 0 1 2.4-3.1zm.1 5.3a2.2 2.2 0 0 0 1.6-.9V441a2.2 2.2 0 0 0-1.5-.7 2 2 0 0 0-1.8 2.2c-.1 1.4.6 2.3 1.7 2.3zm7.1-5.3a2.6 2.6 0 0 1 1.8.8V437h1v8.5h-.8v-.8a2.8 2.8 0 0 1-1.9.9c-1.5 0-2.5-1.1-2.5-3a2.8 2.8 0 0 1 2.4-3.1zm.1 5.3a2.2 2.2 0 0 0 1.6-.9V441a2.2 2.2 0 0 0-1.5-.7 2 2 0 0 0-1.8 2.2c-.1 1.4.6 2.3 1.7 2.3zm4.8-5.2h3.7v5.8h-1v-5h-2.7zm2.3-2a.8.8 0 1 1 .8.8.7.7 0 0 1-.8-.7zm4.9 2h.8v1a3 3 0 0 1 2.2-1.1c1.4 0 2 .8 2 2.4v3.6h-1V442c0-1.1-.4-1.6-1.3-1.6s-1.2.3-1.8 1.1v4.1h-1zm7.9 5.6a1.1 1.1 0 0 1-.6-1 1.4 1.4 0 0 1 .7-1.1 1.9 1.9 0 0 1-.7-1.5 2.1 2.1 0 0 1 2.3-2.1h3.3v.8H355a1.8 1.8 0 0 1 .5 1.2 2 2 0 0 1-2.3 2l-1-.2a.8.8 0 0 0-.5.7c0 .5.4.7 1.2.7h1.3c1.5 0 2.2.4 2.2 1.4s-1.3 2-3.2 2-2.7-.6-2.7-1.6a1.6 1.6 0 0 1 1.1-1.3zm1.8 2.2c1.4 0 2.2-.6 2.2-1.2s-.4-.7-1.3-.7h-2c-.6.3-.7.6-.7 1s.6 1 1.8 1zm1.2-5.9a1.3 1.3 0 1 0-1.3 1.4 1.3 1.3 0 0 0 1.3-1.3zm4 0h4v.9h-4zm7.3-1.9h.8v1.4a3.1 3.1 0 0 1 2.6-1.5 2.4 2.4 0 0 1 1.1.2l-.2.9-1.1-.2a2.8 2.8 0 0 0-2.4 1.7v3.4h-1zm6.6 0h3.7v5.8h-1v-5h-2.7zm2.3-2a.8.8 0 1 1 .8.8.7.7 0 0 1-.8-.7zm5.6 7.6a1.1 1.1 0 0 1-.6-1 1.4 1.4 0 0 1 .7-1.1 1.9 1.9 0 0 1-.7-1.5 2.1 2.1 0 0 1 2.3-2.1h3.3v.8h-1.6a1.8 1.8 0 0 1 .5 1.2 2 2 0 0 1-2.3 2l-1-.2a.8.8 0 0 0-.5.7c0 .5.4.7 1.2.7h1.3c1.5 0 2.2.4 2.2 1.4s-1.3 2-3.2 2-2.7-.6-2.7-1.6a1.6 1.6 0 0 1 1.1-1.3zm1.8 2.2c1.4 0 2.2-.6 2.2-1.2s-.4-.7-1.3-.7h-2c-.6.3-.7.6-.7 1s.6 1 1.8 1zm1.2-5.9a1.3 1.3 0 1 0-1.3 1.4 1.3 1.3 0 0 0 1.3-1.3zm3.5-4.6h1v3.7a3 3 0 0 1 2.2-1.1c1.4 0 2 .8 2 2.4v3.6h-1V442c0-1.1-.4-1.6-1.3-1.6s-1.2.3-1.8 1.1v4.1h-1zm8.6 3.5h-1.6v-.7h1.7V438h.8v1.6h2.9v.8h-2.9v2.8c0 1 .3 1.6 1.5 1.6a3.8 3.8 0 0 0 1.4-.3l.2.7a5.5 5.5 0 0 1-1.8.3c-1.7 0-2.2-1-2.2-2.4zm-229.7 16.1h-2.2v-.7h2.2v-2.3h.8v2.3h2.2v.7h-2.2v2.3h-.8zm12.3-5.2h1v3.5a3 3 0 0 1 2-.9c1.6 0 2.4 1.2 2.4 3s-1.2 3.2-2.6 3.2a2.9 2.9 0 0 1-1.8-.8v.6h-.8zm2.6 7.9c1 0 1.8-.9 1.8-2.3s-.5-2.1-1.6-2.1a2.5 2.5 0 0 0-1.7.9v2.9a2.5 2.5 0 0 0 1.5.6zm7.1-5.3a3.1 3.1 0 1 1-2.9 3.1 2.9 2.9 0 0 1 2.9-3.1zm0 5.3c1.1 0 1.9-.9 1.9-2.2s-.7-2.3-1.9-2.3-1.9.9-1.9 2.3.8 2.2 1.9 2.2zm5.4-5.2h.8v1.4a3.1 3.1 0 0 1 2.6-1.5 2.4 2.4 0 0 1 1.1.2l-.2.9-1.1-.2a2.8 2.8 0 0 0-2.4 1.7v3.4h-1zm8.8-.1a2.6 2.6 0 0 1 1.8.8v-3.3h1v8.5h-.8v-.8a2.8 2.8 0 0 1-1.9.9c-1.5 0-2.5-1.1-2.5-3a2.8 2.8 0 0 1 2.4-3.1zm.1 5.3a2.2 2.2 0 0 0 1.6-.9v-2.9a2.2 2.2 0 0 0-1.5-.7 2 2 0 0 0-1.8 2.2c-.1 1.4.6 2.3 1.7 2.3zm7.5-5.3a2.5 2.5 0 0 1 2.7 2.7 3.4 3.4 0 0 1 0 .5h-4.6a2.1 2.1 0 0 0 2.2 2.1 3.2 3.2 0 0 0 1.8-.5l.3.6a4 4 0 0 1-2.2.7 3.1 3.1 0 0 1-.2-6.1zm1.7 2.6a1.6 1.6 0 0 0-1.7-1.8 2 2 0 0 0-2 1.8zm3.5-2.5h.8v1.4a3.1 3.1 0 0 1 2.6-1.5 2.4 2.4 0 0 1 1.1.2l-.2.9-1.1-.2a2.8 2.8 0 0 0-2.4 1.7v3.4h-1zm7 1.9h4v.9h-4zm6.6-4.6h3v6.7c0 .9.4 1.2 1.1 1.2l1.1-.3.3.7a4.1 4.1 0 0 1-1.6.3c-1.2 0-1.9-.7-1.9-2.1V452h-2zm10 2.6a2.5 2.5 0 0 1 2.7 2.7 3.4 3.4 0 0 1 0 .5h-4.6a2.1 2.1 0 0 0 2.2 2.1 3.2 3.2 0 0 0 1.8-.5l.3.6a4 4 0 0 1-2.2.7 3.1 3.1 0 0 1-.2-6.1zm1.7 2.6a1.6 1.6 0 0 0-1.7-1.8 2 2 0 0 0-2 1.8zm8.4-4.2a3 3 0 0 0-1.4-.3 1.3 1.3 0 0 0-1.5 1.5v.5h2.4v.8h-2.4v5h-1v-5H243v-.7h1.7v-.5a2.1 2.1 0 0 1 2.4-2.4 4.3 4.3 0 0 1 1.7.3zm3 2.5h-1.6v-.7h1.7v-1.6h.8v1.5h2.9v.8h-2.9v2.8c0 1 .3 1.6 1.5 1.6a3.8 3.8 0 0 0 1.4-.3l.2.7a5.5 5.5 0 0 1-1.8.3c-1.7 0-2.2-1-2.2-2.4zm15.1 1.7h-2.2v-.7h2.2v-2.3h.8v2.3h2.2v.7h-2.2v2.3h-.8zm12.3-5.2h1v3.5a3 3 0 0 1 2-.9c1.6 0 2.4 1.2 2.4 3s-1.2 3.2-2.6 3.2a2.9 2.9 0 0 1-1.8-.8v.6h-.8zm2.6 7.9c1 0 1.8-.9 1.8-2.3s-.5-2.1-1.6-2.1a2.5 2.5 0 0 0-1.7.9v2.9a2.5 2.5 0 0 0 1.5.6zm7.1-5.3a3.1 3.1 0 1 1-2.9 3.1 2.9 2.9 0 0 1 2.9-3.1zm0 5.3c1.1 0 1.9-.9 1.9-2.2s-.7-2.3-1.9-2.3-1.9.9-1.9 2.3.8 2.2 1.9 2.2zm5.4-5.2h.8v1.4a3.1 3.1 0 0 1 2.6-1.5 2.4 2.4 0 0 1 1.1.2l-.2.9-1.1-.2a2.8 2.8 0 0 0-2.4 1.7v3.4h-1zm8.8-.1a2.6 2.6 0 0 1 1.8.8v-3.3h1v8.5h-.8v-.8a2.8 2.8 0 0 1-1.9.9c-1.5 0-2.5-1.1-2.5-3a2.8 2.8 0 0 1 2.4-3.1zm.1 5.3a2.2 2.2 0 0 0 1.6-.9v-2.9a2.2 2.2 0 0 0-1.5-.7 2 2 0 0 0-1.8 2.2c-.1 1.4.6 2.3 1.7 2.3zm7.5-5.3a2.5 2.5 0 0 1 2.7 2.7 3.4 3.4 0 0 1 0 .5h-4.6a2.1 2.1 0 0 0 2.2 2.1 3.2 3.2 0 0 0 1.8-.5l.3.6a4 4 0 0 1-2.2.7 3.1 3.1 0 0 1-.2-6.1zm1.7 2.6a1.6 1.6 0 0 0-1.7-1.8 2 2 0 0 0-2 1.8zm3.4-2.5h.8v1.4a3.1 3.1 0 0 1 2.6-1.5 2.4 2.4 0 0 1 1.1.2l-.2.9-1.1-.2a2.8 2.8 0 0 0-2.4 1.7v3.4h-1zm7.1 1.9h4v.9h-4zm7.4-1.9h.8v1.4a3.1 3.1 0 0 1 2.6-1.5 2.4 2.4 0 0 1 1.1.2l-.2.9-1.1-.2a2.8 2.8 0 0 0-2.4 1.7v3.4h-1zm6.5 0h3.7v5.8h-1v-5h-2.7zm2.3-2a.8.8 0 1 1 .8.8.7.7 0 0 1-.8-.7zm5.6 7.6a1.1 1.1 0 0 1-.6-1 1.4 1.4 0 0 1 .7-1.1 1.9 1.9 0 0 1-.7-1.5 2.1 2.1 0 0 1 2.3-2.1h3.3v.8h-1.6a1.8 1.8 0 0 1 .5 1.2 2 2 0 0 1-2.3 2l-1-.2a.8.8 0 0 0-.5.7c0 .5.4.7 1.2.7h1.3c1.5 0 2.2.4 2.2 1.4s-1.3 2-3.2 2-2.7-.6-2.7-1.6a1.6 1.6 0 0 1 1.1-1.3zm1.8 2.2c1.4 0 2.2-.6 2.2-1.2s-.4-.7-1.3-.7h-2c-.6.3-.7.6-.7 1s.6 1 1.8 1zm1.2-5.9a1.3 1.3 0 1 0-1.3 1.4 1.3 1.3 0 0 0 1.3-1.3zm3.5-4.6h1v3.7a3 3 0 0 1 2.2-1.1c1.4 0 2 .8 2 2.4v3.6h-1v-3.5c0-1.1-.4-1.6-1.3-1.6s-1.2.3-1.8 1.1v4.1h-1zm8.6 3.5h-1.6v-.7h1.7v-1.6h.8v1.5h2.9v.8h-2.9v2.8c0 1 .3 1.6 1.5 1.6a3.8 3.8 0 0 0 1.4-.3l.2.7a5.5 5.5 0 0 1-1.8.3c-1.7 0-2.2-1-2.2-2.4zm6.2 6.7a6.4 6.4 0 0 0 0-9.9l.5-.5a6.8 6.8 0 0 1 0 10.9z"/><path fill="none" stroke="#d9d8e3" stroke-miterlimit="10" stroke-width="2" d="M496.4 374.5V392H37.6v-17.5M267 392v23"/><path fill="#9d35af" d="M440 536.8v310H93v-310z"/><path fill="#672373" d="M422 554.8v274H111v-274z"/><path fill="none" stroke="#c883d4" stroke-linecap="round" stroke-linejoin="round" stroke-width="3" d="M384 789.3v1h-1"/><path fill="none" stroke="#c883d4" stroke-dasharray="2.04 9.16" stroke-linecap="round" stroke-linejoin="round" stroke-width="3" d="M373.9 790.3H154.5"/><path fill="none" stroke="#c883d4" stroke-linecap="round" stroke-linejoin="round" stroke-width="3" d="M150 790.3h-1v-1"/><path fill="none" stroke="#c883d4" stroke-dasharray="1.99 8.96" stroke-linecap="round" stroke-linejoin="round" stroke-width="3" d="M149 780.4V598.7"/><path fill="none" stroke="#c883d4" stroke-linecap="round" stroke-linejoin="round" stroke-width="3" d="M149 594.2v-1h1"/><path fill="none" stroke="#c883d4" stroke-dasharray="2.04 9.16" stroke-linecap="round" stroke-linejoin="round" stroke-width="3" d="M159.1 593.2h219.3"/><path fill="none" stroke="#c883d4" stroke-linecap="round" stroke-linejoin="round" stroke-width="3" d="M383 593.2h1v1"/><path fill="none" stroke="#c883d4" stroke-dasharray="1.99 8.96" stroke-linecap="round" stroke-linejoin="round" stroke-width="3" d="M384 603.2v181.6"/><path fill="#fff" d="M173.8 544a2.7 2.7 0 0 1 1.1-1.1 3.1 3.1 0 0 1 1.6-.4 3.3 3.3 0 0 1 2.8 1.3 6.1 6.1 0 0 1 1 3.7 6.2 6.2 0 0 1-1 3.8 3.3 3.3 0 0 1-2.8 1.4 3 3 0 0 1-1.5-.4 2.8 2.8 0 0 1-1.1-1.1v1.2h-1.6V539h1.6zm4.7 3.6a5.3 5.3 0 0 0-.6-2.8 1.9 1.9 0 0 0-1.7-.9 1.9 1.9 0 0 0-1.8.9 6.8 6.8 0 0 0 0 5.6 1.9 1.9 0 0 0 1.8 1 1.9 1.9 0 0 0 1.7-.9 5.3 5.3 0 0 0 .5-2.9zm8-5.1a3.8 3.8 0 0 1 3.1 1.3 7.3 7.3 0 0 1 0 7.6 4.3 4.3 0 0 1-6.2 0 7.3 7.3 0 0 1 0-7.6 3.7 3.7 0 0 1 3.1-1.3zm0 1.4a2.1 2.1 0 0 0-1.8.9 6.6 6.6 0 0 0 0 5.6 2.3 2.3 0 0 0 3.7 0 6.6 6.6 0 0 0 0-5.6 2.1 2.1 0 0 0-1.9-.9zm15.4.8l-1-.6-1.2-.2a2.8 2.8 0 0 0-2.3.9 4.1 4.1 0 0 0-.8 2.7v4.8H195v-9.7h1.6v1.9a3.2 3.2 0 0 1 1.2-1.6 3.5 3.5 0 0 1 2-.5h1.1l1 .5zm8.1-.7v-5h1.6v13.5H210v-1.2a2.8 2.8 0 0 1-1.1 1.1 3 3 0 0 1-1.5.4 3.3 3.3 0 0 1-2.8-1.4 6.2 6.2 0 0 1-1-3.8 6.1 6.1 0 0 1 1-3.7 3.3 3.3 0 0 1 2.8-1.3 3.1 3.1 0 0 1 1.5.4 2.6 2.6 0 0 1 1.1 1zm-4.7 3.6a5.3 5.3 0 0 0 .6 2.8 1.9 1.9 0 0 0 1.7.9 1.9 1.9 0 0 0 1.8-1 6.8 6.8 0 0 0 0-5.6 1.9 1.9 0 0 0-1.8-.9 1.9 1.9 0 0 0-1.7.9 5.3 5.3 0 0 0-.6 2.9zm17.6-.8v.8H216a3.8 3.8 0 0 0 .8 2.8 3.1 3.1 0 0 0 2.3.9l1.6-.2 1.8-.7v1.6l-1.8.6-1.6.2a4.6 4.6 0 0 1-3.5-1.4 5.2 5.2 0 0 1-1.3-3.7 5.3 5.3 0 0 1 1.2-3.7 4.3 4.3 0 0 1 3.3-1.4 3.6 3.6 0 0 1 2.9 1.3 4.8 4.8 0 0 1 1.2 2.9zm-1.6-.5a3.1 3.1 0 0 0-.7-1.7 2.3 2.3 0 0 0-1.8-.7 2.5 2.5 0 0 0-1.9.8 2.7 2.7 0 0 0-.8 1.7zm12.6-1.6l-1-.6-1.2-.2a2.8 2.8 0 0 0-2.3.9 4.1 4.1 0 0 0-.8 2.7v4.8H227v-9.7h1.6v1.9a3.2 3.2 0 0 1 1.2-1.6 3.5 3.5 0 0 1 2-.5h1.1l1 .5zm1.6 1.5h9.2v1.5h-9.2zm9.8-3.5h1.6l1.7 7.8 1.4-5h1.4l1.4 5 1.7-7.8h1.6l-2.3 9.7h-1.5l-1.6-5.3-1.5 5.3h-1.5zm13.4.1h4.1v8.4h3.2v1.2h-8v-1.2h3.2V544h-2.5zm2.5-3.8h1.6v2h-1.6zm12.9 5v-5h1.6v13.5h-1.6v-1.2a2.8 2.8 0 0 1-1.1 1.1 3 3 0 0 1-1.5.4 3.3 3.3 0 0 1-2.8-1.4 6.2 6.2 0 0 1-1-3.8 6.1 6.1 0 0 1 1-3.7 3.3 3.3 0 0 1 2.8-1.3 3.1 3.1 0 0 1 1.5.4 2.6 2.6 0 0 1 1.1 1zm-4.7 3.6a5.4 5.4 0 0 0 .6 2.8 1.9 1.9 0 0 0 1.7.9 1.9 1.9 0 0 0 1.8-1 6.8 6.8 0 0 0 0-5.6 2 2 0 0 0-1.8-.9 1.9 1.9 0 0 0-1.7.9 5.4 5.4 0 0 0-.6 2.9zm13.2-7.6v2.8h3.6v1.2h-3.6v5.3a2.2 2.2 0 0 0 .4 1.5 1.9 1.9 0 0 0 1.4.4h1.8v1.3h-1.9a3.6 3.6 0 0 1-2.5-.7 3.4 3.4 0 0 1-.7-2.5V544h-2.6v-1.2h2.5V540zm14.5 6.4v6h-1.6v-6a3.2 3.2 0 0 0-.5-1.9 1.7 1.7 0 0 0-1.4-.6 2 2 0 0 0-1.7.8 3.7 3.7 0 0 0-.6 2.3v5.5h-1.6V539h1.6v5.2a3 3 0 0 1 1.2-1.3 3.3 3.3 0 0 1 1.7-.4 2.6 2.6 0 0 1 2.2 1 4.9 4.9 0 0 1 .7 2.9zm5.3-3.7h2.7v3.1h-2.7zm0 6.5h2.7v3.2h-2.7zm19.4-9.7h6.5v1.5h-5v3.2l.7-.2h.8a4.3 4.3 0 0 1 3.2 1.2 4.4 4.4 0 0 1 1.2 3.2 4.2 4.2 0 0 1-1.2 3.2 4.7 4.7 0 0 1-3.4 1.2h-1.9l-1.5-.4v-1.8l1.6.6 1.6.2a3.1 3.1 0 0 0 2.2-.8 2.9 2.9 0 0 0 .8-2.2 2.8 2.8 0 0 0-.8-2.2 3.1 3.1 0 0 0-2.3-.8l-1.4.2-1.3.5zm12.2 11.7v4.9h-1.6v-13.4h1.6v1.3a2.8 2.8 0 0 1 1.1-1.1 3 3 0 0 1 1.5-.4 3.2 3.2 0 0 1 2.8 1.4 6.2 6.2 0 0 1 1 3.8 6.1 6.1 0 0 1-1 3.7 3.3 3.3 0 0 1-2.8 1.3 3.1 3.1 0 0 1-1.5-.4 2.7 2.7 0 0 1-1.1-1.1zm4.7-3.6a5.4 5.4 0 0 0-.6-2.8 1.9 1.9 0 0 0-1.7-.9 1.9 1.9 0 0 0-1.8.9 6.8 6.8 0 0 0 0 5.6 1.9 1.9 0 0 0 1.8 1 1.9 1.9 0 0 0 1.7-.9 5.4 5.4 0 0 0 .5-2.9zm12.4-4.9l-3.5 4.6 3.8 5.1h-1.8l-2.8-3.9-2.8 3.9h-1.8l3.8-5.1-3.5-4.6h1.8l2.6 3.5 2.6-3.5zm4.8 6.6h2.7v2.3l-1.7 3.3H355l.9-3.3zm-.1-6.6h2.7v3.1h-2.7zm-161 35.5v4.9h-1.6v-13.4h1.6v1.3a2.8 2.8 0 0 1 1.1-1.1 3 3 0 0 1 1.5-.4 3.2 3.2 0 0 1 2.8 1.4 6.2 6.2 0 0 1 1 3.8 6.1 6.1 0 0 1-1 3.7 3.3 3.3 0 0 1-2.8 1.3 3.1 3.1 0 0 1-1.5-.4 2.7 2.7 0 0 1-1.1-1.1zm4.7-3.6a5.4 5.4 0 0 0-.6-2.8 1.9 1.9 0 0 0-1.7-.9 1.9 1.9 0 0 0-1.8.9 6.8 6.8 0 0 0 0 5.6 1.9 1.9 0 0 0 1.8 1 1.9 1.9 0 0 0 1.7-.9 5.4 5.4 0 0 0 .6-2.9zm11.9-.7v5.5h-1.6V578a3.3 3.3 0 0 1-1.3 1.3 4 4 0 0 1-1.9.4 3.3 3.3 0 0 1-2.4-.8 3.3 3.3 0 0 1 .2-4.7 5.1 5.1 0 0 1 3.2-.8h2.1v-.3a2.2 2.2 0 0 0-.6-1.7 2.7 2.7 0 0 0-1.9-.5l-1.6.2-1.6.7v-1.6l1.7-.5 1.6-.2a5.3 5.3 0 0 1 2.1.4 3.2 3.2 0 0 1 1.4 1.1 2.7 2.7 0 0 1 .5 1.1 9.7 9.7 0 0 1 .1 1.8zm-3.1.7h-.5a3.7 3.7 0 0 0-2.1.5 1.7 1.7 0 0 0-.7 1.5 1.8 1.8 0 0 0 .5 1.4 2.1 2.1 0 0 0 1.5.5 2.5 2.5 0 0 0 2.1-.9 3.9 3.9 0 0 0 .8-2.5v-.4zm12-3.6v-5h1.6v13.5h-1.6v-1.2a2.8 2.8 0 0 1-1.1 1.1 3 3 0 0 1-1.5.4 3.3 3.3 0 0 1-2.8-1.4 6.2 6.2 0 0 1-1-3.8 6.1 6.1 0 0 1 1-3.7 3.3 3.3 0 0 1 2.8-1.3 3.1 3.1 0 0 1 1.5.4 2.6 2.6 0 0 1 1.1 1zm-4.7 3.6a5.3 5.3 0 0 0 .6 2.8 1.9 1.9 0 0 0 1.7.9 1.9 1.9 0 0 0 1.8-1 6.8 6.8 0 0 0 0-5.6 1.9 1.9 0 0 0-1.8-.9 1.9 1.9 0 0 0-1.7.9 5.3 5.3 0 0 0-.6 2.9zM231 571v-5h1.6v13.5H231v-1.2a2.8 2.8 0 0 1-1.1 1.1 3 3 0 0 1-1.5.4 3.3 3.3 0 0 1-2.8-1.4 6.2 6.2 0 0 1-1-3.8 6.1 6.1 0 0 1 1-3.7 3.3 3.3 0 0 1 2.8-1.3 3.1 3.1 0 0 1 1.5.4 2.6 2.6 0 0 1 1.1 1zm-4.7 3.6a5.3 5.3 0 0 0 .6 2.8 1.9 1.9 0 0 0 1.7.9 1.9 1.9 0 0 0 1.8-1 6.8 6.8 0 0 0 0-5.6 1.9 1.9 0 0 0-1.8-.9 1.9 1.9 0 0 0-1.7.9 5.3 5.3 0 0 0-.6 2.9zm11.1-4.8h4.1v8.4h3.2v1.2h-7.9v-1.2h3.2V571h-2.5zm2.5-3.8h1.6v2h-1.6zm14.5 7.4v6h-1.6v-6a3.2 3.2 0 0 0-.5-1.9 1.7 1.7 0 0 0-1.4-.6 2 2 0 0 0-1.7.8 3.7 3.7 0 0 0-.6 2.3v5.5H247v-9.7h1.6v1.5a3 3 0 0 1 1.2-1.3 3.3 3.3 0 0 1 1.7-.4 2.6 2.6 0 0 1 2.2 1 4.9 4.9 0 0 1 .7 2.8zm10.6 5.4a4.7 4.7 0 0 1-1 3.3 3.9 3.9 0 0 1-3 1.1h-1.4l-1.4-.4v-1.6l1.5.6 1.3.2a2.3 2.3 0 0 0 1.9-.7 3.4 3.4 0 0 0 .6-2.2V578a2.7 2.7 0 0 1-1 1.2 3 3 0 0 1-1.6.4 3.2 3.2 0 0 1-2.7-1.4 7.1 7.1 0 0 1 0-7.3 3.2 3.2 0 0 1 2.7-1.4 3.1 3.1 0 0 1 1.6.4 2.7 2.7 0 0 1 1.1 1.2v-1.3h1.4zm-1.6-4.3a5.2 5.2 0 0 0-.6-2.7 1.9 1.9 0 0 0-1.7-.9 2 2 0 0 0-1.8.9 6.3 6.3 0 0 0 0 5.5 2 2 0 0 0 1.8.9 1.9 1.9 0 0 0 1.7-.9 5.2 5.2 0 0 0 .6-2.8zm7-4.8h2.7v3.1h-2.7zm0 6.5h2.7v3.2h-2.7zm20 1.8h2.7v-9.8l-3.3 1.6v-1.7l3.2-1.5h1.8V578h2.7v1.5h-7.1zm13.6-11.7a3.5 3.5 0 0 1 3.1 1.7 12.3 12.3 0 0 1 0 10 3.7 3.7 0 0 1-6.3 0 12.4 12.4 0 0 1 0-10 3.5 3.5 0 0 1 3.2-1.7zm0 1.4a1.9 1.9 0 0 0-1.8 1.3 10 10 0 0 0-.6 4 15.1 15.1 0 0 0 .2 2.3l4-6.4a2 2 0 0 0-1.8-1.2zm0 10.6a1.9 1.9 0 0 0 1.8-1.3 10 10 0 0 0 .6-4 17.5 17.5 0 0 0-.2-2.6l-4.1 6.5a2 2 0 0 0 1.9 1.4zm8.6-.1v4.9H311v-13.4h1.6v1.3a2.8 2.8 0 0 1 1.1-1.1 3 3 0 0 1 1.5-.4 3.2 3.2 0 0 1 2.8 1.4 6.2 6.2 0 0 1 1 3.8 6.1 6.1 0 0 1-1 3.7 3.3 3.3 0 0 1-2.8 1.3 3.1 3.1 0 0 1-1.5-.4 2.7 2.7 0 0 1-1.1-1.1zm4.7-3.6a5.4 5.4 0 0 0-.6-2.8 1.9 1.9 0 0 0-1.7-.9 1.9 1.9 0 0 0-1.8.9 6.8 6.8 0 0 0 0 5.6 1.9 1.9 0 0 0 1.8 1 1.9 1.9 0 0 0 1.7-.9 5.4 5.4 0 0 0 .6-2.9zm12.5-4.9l-3.5 4.6 3.8 5.1h-1.8l-2.8-3.9-2.8 3.9h-1.8l3.8-5.1-3.5-4.6h1.8l2.6 3.5 2.6-3.5zm4.8 6.6h2.7v2.3l-1.7 3.3h-1.9l.9-3.3zm-.1-6.6h2.7v3.1h-2.7zm-137.3 118h1.6l1.7 7.8 1.4-5h1.4l1.4 5 1.7-7.8h1.6l-2.3 9.7h-1.5l-1.6-5.3-1.5 5.3h-1.5zm13.4.1h4.1v8.4h3.2v1.2H210v-1.2h3.2V689h-2.5zm2.5-3.8h1.6v2h-1.6zm12.9 5v-5h1.6v13.5H226v-1.2a2.8 2.8 0 0 1-1.1 1.1 3 3 0 0 1-1.5.4 3.3 3.3 0 0 1-2.8-1.4 6.2 6.2 0 0 1-1-3.8 6.1 6.1 0 0 1 1-3.7 3.3 3.3 0 0 1 2.8-1.3 3.1 3.1 0 0 1 1.5.4 2.6 2.6 0 0 1 1.1 1zm-4.7 3.6a5.3 5.3 0 0 0 .6 2.8 1.9 1.9 0 0 0 1.7.9 1.9 1.9 0 0 0 1.8-1 6.8 6.8 0 0 0 0-5.6 1.9 1.9 0 0 0-1.8-.9 1.9 1.9 0 0 0-1.7.9 5.3 5.3 0 0 0-.6 2.9zm13.3-7.6v2.8h3.6v1.2h-3.6v5.3a2.2 2.2 0 0 0 .4 1.5 1.9 1.9 0 0 0 1.4.4h1.8v1.3h-1.9a3.6 3.6 0 0 1-2.5-.7 3.4 3.4 0 0 1-.7-2.5V689h-2.6v-1.2h2.5V685zm14.4 6.4v6h-1.6v-6a3.2 3.2 0 0 0-.5-1.9 1.7 1.7 0 0 0-1.4-.6 2 2 0 0 0-1.7.8 3.7 3.7 0 0 0-.6 2.3v5.5h-1.6V684h1.6v5.2a3 3 0 0 1 1.2-1.3 3.3 3.3 0 0 1 1.7-.4 2.6 2.6 0 0 1 2.2 1 4.9 4.9 0 0 1 .7 2.9zm5.3-3.7h2.7v3.1h-2.7zm0 6.5h2.7v3.2h-2.7zm20 1.8h2.7v-9.8l-3.3 1.6v-1.7l3.2-1.5h1.8V696h2.7v1.5h-7.1zm13.7-11.7a3.5 3.5 0 0 1 3.1 1.7 12.3 12.3 0 0 1 0 10 3.7 3.7 0 0 1-6.3 0 12.4 12.4 0 0 1 0-10 3.5 3.5 0 0 1 3.2-1.7zm0 1.4a1.9 1.9 0 0 0-1.8 1.3 10 10 0 0 0-.6 4 15.1 15.1 0 0 0 .2 2.3l4-6.4a2 2 0 0 0-1.8-1.2zm0 10.6a1.9 1.9 0 0 0 1.8-1.3 10 10 0 0 0 .6-4 17.5 17.5 0 0 0-.2-2.6l-4.1 6.5a2 2 0 0 0 1.9 1.4zm10.7-12a3.5 3.5 0 0 1 3.1 1.7 12.3 12.3 0 0 1 0 10 3.7 3.7 0 0 1-6.3 0 12.4 12.4 0 0 1 0-10 3.5 3.5 0 0 1 3.2-1.7zm0 1.4a1.9 1.9 0 0 0-1.8 1.3 10 10 0 0 0-.6 4 15.1 15.1 0 0 0 .2 2.3l4-6.4a2 2 0 0 0-1.8-1.2zm0 10.6a1.9 1.9 0 0 0 1.8-1.3 10 10 0 0 0 .6-4 17.5 17.5 0 0 0-.2-2.6l-4.1 6.5a2 2 0 0 0 1.9 1.4zm8.6-.1v4.9h-1.6v-13.4h1.6v1.3a2.8 2.8 0 0 1 1.1-1.1 3 3 0 0 1 1.5-.4 3.2 3.2 0 0 1 2.8 1.4 6.2 6.2 0 0 1 1 3.8 6.1 6.1 0 0 1-1 3.7 3.3 3.3 0 0 1-2.8 1.3 3.1 3.1 0 0 1-1.5-.4 2.7 2.7 0 0 1-1.1-1.1zm4.7-3.6a5.4 5.4 0 0 0-.6-2.8 1.9 1.9 0 0 0-1.7-.9 1.9 1.9 0 0 0-1.8.9 6.8 6.8 0 0 0 0 5.6 1.9 1.9 0 0 0 1.8 1 1.9 1.9 0 0 0 1.7-.9 5.4 5.4 0 0 0 .5-2.9zm12.4-4.9l-3.5 4.6 3.8 5.1h-1.8l-2.8-3.9-2.8 3.9h-1.8l3.8-5.1-3.5-4.6h1.8l2.6 3.5 2.6-3.5zm4.8 6.6h2.7v2.3l-1.7 3.3h-1.9l.9-3.3zm-.1-6.6h2.7v3.1h-2.7z"/><path fill="#63666a" d="M220.1 502.5h1.3v4.6a4 4 0 0 1 2.6-1.2c2.1 0 3.2 1.6 3.2 4s-1.7 4.2-3.5 4.2a3.9 3.9 0 0 1-2.4-1.1v.9h-1.1zm3.4 10.5c1.4 0 2.4-1.2 2.4-3.1s-.6-2.9-2.2-2.9a3.4 3.4 0 0 0-2.3 1.2v3.8a3.4 3.4 0 0 0 2.1 1zm9.5-7.1a4.1 4.1 0 1 1-3.8 4.1 3.8 3.8 0 0 1 3.8-4.1zm0 7.1c1.5 0 2.5-1.2 2.5-3s-1-3-2.5-3-2.5 1.2-2.5 3 1 3 2.5 3zm7.2-6.9h1.1v1.8a4.1 4.1 0 0 1 3.5-2 3.2 3.2 0 0 1 1.5.3l-.3 1.1a3.7 3.7 0 0 0-1.5-.3c-1.2 0-2.3.6-3.2 2.2v4.6H240zm11.7-.2a3.4 3.4 0 0 1 2.4 1v-4.4h1.3v11.4h-1.1v-1a3.7 3.7 0 0 1-2.5 1.2c-2 0-3.4-1.5-3.4-4.1s1.5-4.1 3.3-4.1zm.1 7.1a3 3 0 0 0 2.2-1.2v-3.9a2.9 2.9 0 0 0-2-.9c-1.3 0-2.4 1.2-2.4 3s.8 3 2.2 3zm10.1-7.1a3.3 3.3 0 0 1 3.5 3.7 4.6 4.6 0 0 1 0 .7h-6.1a2.8 2.8 0 0 0 3 2.7 4.3 4.3 0 0 0 2.4-.7l.5.9a5.4 5.4 0 0 1-3 .9 4.1 4.1 0 0 1-.2-8.2zm2.3 3.5a2.2 2.2 0 0 0-2.3-2.5 2.6 2.6 0 0 0-2.6 2.5zm4.6-3.3h1v1.8a4.1 4.1 0 0 1 3.5-2 3.2 3.2 0 0 1 1.5.3l-.3 1.1a3.7 3.7 0 0 0-1.5-.3c-1.2 0-2.3.6-3.2 2.2v4.6h-1zm9.4 2.5h5.3v1.2h-5.3zm8.9-6.1h1.3v4.6a4 4 0 0 1 2.6-1.2c2.1 0 3.2 1.6 3.2 4s-1.7 4.2-3.5 4.2a3.9 3.9 0 0 1-2.4-1.1v.9h-1.1zm3.4 10.5c1.4 0 2.4-1.2 2.4-3.1s-.6-2.9-2.2-2.9a3.4 3.4 0 0 0-2.3 1.2v3.8a3.4 3.4 0 0 0 2.1 1zm9.5-7.1a4.1 4.1 0 1 1-3.8 4.1 3.8 3.8 0 0 1 3.8-4.1zm0 7.1c1.5 0 2.5-1.2 2.5-3s-1-3-2.5-3-2.5 1.2-2.5 3 1 3 2.5 3zm8.8-3.2l-2.7-3.7h1.5l1.2 1.7.9 1.3h.1l.9-1.3 1.2-1.7h1.4l-2.8 3.9 3 3.9h-1.4l-1.4-1.8-1-1.4h-.1l-1 1.4-1.3 1.8H306zM173.9 906.4h-2.2v-1h2.3l.2-2.2h1.1v2.2h3.7v1.1h-3.8v3.7c0 1.4.5 2.1 2 2.1a5.1 5.1 0 0 0 1.9-.4l.3 1a7.3 7.3 0 0 1-2.4.5c-2.3 0-3-1.3-3-3.2zm11.1-1.3a4.1 4.1 0 1 1-3.8 4.1 3.8 3.8 0 0 1 3.8-4.1zm0 7.1c1.5 0 2.5-1.2 2.5-3s-1-3-2.5-3-2.5 1.2-2.5 3 1 3 2.5 3zm8.1-5.8h-2.2v-1h2.2l.2-2.2h1.1v2.2h3.8v1.1h-3.8v3.7c0 1.4.5 2.1 2 2.1a5.1 5.1 0 0 0 1.9-.4l.3 1a7.3 7.3 0 0 1-2.4.5c-2.3 0-3-1.3-3-3.2zm13.3 1.7a1.8 1.8 0 0 0-2.1-2 5.4 5.4 0 0 0-2.7.9l-.5-.9a6.7 6.7 0 0 1 3.5-1.1 2.9 2.9 0 0 1 3.2 3.2v4.8h-1.1v-1a5.3 5.3 0 0 1-3.1 1.2c-1.5 0-2.6-.8-2.6-2.2s1.3-2.5 5.4-2.9zm-2.6 4.1a4.2 4.2 0 0 0 2.6-1.2v-2c-3.3.3-4.4.9-4.4 2s.8 1.2 1.7 1.2zm6.5-10.5h4v8.9c0 1.1.6 1.6 1.5 1.6a3.5 3.5 0 0 0 1.5-.4l.3 1a5.5 5.5 0 0 1-2.1.5c-1.6 0-2.5-1-2.5-2.8v-7.7h-2.7zm18.1 3.6h1.3l1 4.5.4 2.2h.1l.5-2.2 1-4h1.1l1 4 .5 2.2h.1l.4-2.2.9-4.5h1.2l-1.7 7.8h-1.6l-.9-3.9-.4-2.3h-.3c-.1.7-.2 1.4-.4 2.3l-.9 3.9h-1.6zm10.9 0h4.9v7.8h-1.3v-6.7h-3.6zm3.1-2.6a1.1 1.1 0 1 1 1.1 1 1 1 0 0 1-1.2-1zm9.5 2.4a3.4 3.4 0 0 1 2.4 1v-4.4h1.3v11.4h-1.1v-1a3.7 3.7 0 0 1-2.5 1.2c-2 0-3.4-1.5-3.4-4.1s1.5-4.1 3.3-4.1zm.1 7.1a3 3 0 0 0 2.2-1.2v-3.9a2.9 2.9 0 0 0-2-.9c-1.3 0-2.4 1.2-2.4 3s.8 3 2.2 3zm8.3-5.8h-2.2v-1h2.2l.2-2.2h1.1v2.2h3.8v1.1h-3.8v3.7c0 1.4.5 2.1 2 2.1a5.1 5.1 0 0 0 1.9-.4l.3 1a7.3 7.3 0 0 1-2.4.5c-2.3 0-3-1.3-3-3.2zm7.8-4.7h1.3v4.9a4.1 4.1 0 0 1 2.9-1.5c1.8 0 2.7 1.1 2.7 3.1v4.8h-1.3v-4.7c0-1.5-.5-2.2-1.8-2.2s-1.6.5-2.5 1.4v5.4h-1.3zm19.2 3.6h4.9v7.8h-1.3v-6.7h-3.6zm3.1-2.6a1.1 1.1 0 1 1 1.1 1 1 1 0 0 1-1.2-1zm6.8 8.5a5.1 5.1 0 0 0 3.2 1.1c1.4 0 2.1-.5 2.1-1.2s-.6-1-2.5-1.5-3-1.1-3-2.2 1.1-2.2 3.3-2.2a5.8 5.8 0 0 1 3.1 1l-.6.8a4.3 4.3 0 0 0-2.5-.8c-1.5 0-1.9.5-1.9 1.1s1 1 2.4 1.4 3.1 1.1 3.1 2.3-1.2 2.3-3.5 2.3a6.8 6.8 0 0 1-3.8-1.2zm26 0v1.9h-7.3v-1.9h2.6v-5.9h-2.1v-1.5a7.8 7.8 0 0 0 2.7-.9h1.7v8.3zm1.9-3.3c0-3.5 1.6-5.2 3.9-5.2s3.9 1.8 3.9 5.2-1.6 5.3-3.9 5.3-3.9-1.8-3.9-5.3zm2.1 0c0 2.6.8 3.5 1.8 3.5s1.8-.8 1.8-3.5-.8-3.4-1.8-3.4-1.8.8-1.8 3.4zm.6 0a1.2 1.2 0 1 1 1.2 1.2 1.2 1.2 0 0 1-1.2-1.2zm6.9 0c0-3.5 1.6-5.2 3.9-5.2s3.9 1.8 3.9 5.2-1.6 5.3-3.9 5.3-3.9-1.8-3.9-5.3zm2.1 0c0 2.6.8 3.5 1.8 3.5s1.8-.8 1.8-3.5-.8-3.4-1.8-3.4-1.8.8-1.8 3.4zm.6 0a1.2 1.2 0 1 1 1.2 1.2 1.2 1.2 0 0 1-1.2-1.2zm9.5 5.8v2.3h-2.4v-10.9h1.9l.2.8a3.7 3.7 0 0 1 2.4-1c2 0 3.2 1.6 3.2 4s-1.7 4.3-3.4 4.3a2.9 2.9 0 0 1-2-.9zm1.4-2.4c.9 0 1.6-.7 1.6-2.3s-.5-2.1-1.5-2.1a2 2 0 0 0-1.5.7v3.2a2.1 2.1 0 0 0 1.4.5zm8.1-2.4l-2.6-3.8h2.5l.8 1.3.8 1.4h.1l.7-1.4.7-1.3h2.5l-2.6 4.1 2.8 3.9h-2.5l-.9-1.3-.9-1.4h-.1l-.7 1.4-.8 1.3h-2.5zm-141.3 15.2a6.7 6.7 0 0 1 2.7-5.4l.5.5a6.4 6.4 0 0 0 0 9.9l-.5.5a6.7 6.7 0 0 1-2.7-5.5zm6.1 2a3.8 3.8 0 0 0 2.4.8c1 0 1.6-.4 1.6-.9s-.5-.8-1.9-1.1-2.2-.8-2.2-1.7.8-1.7 2.4-1.7a4.4 4.4 0 0 1 2.3.7l-.5.6a3.2 3.2 0 0 0-1.9-.6c-1.1 0-1.4.4-1.4.8s.7.8 1.8 1 2.3.9 2.3 1.7-.9 1.7-2.6 1.7a5.1 5.1 0 0 1-2.9-.9zm11-2.3a1.4 1.4 0 0 0-1.5-1.5 4.1 4.1 0 0 0-2 .7l-.4-.7a5 5 0 0 1 2.6-.8 2.2 2.2 0 0 1 2.4 2.4v3.6h-.8v-.8a4 4 0 0 1-2.3.9 1.8 1.8 0 0 1-2-1.7c-.2-1.2 1-1.9 4-2.1zm-2 3a3.2 3.2 0 0 0 2-.9v-1.5c-2.5.2-3.3.7-3.3 1.5s.7.9 1.3.9zm4.7-5.2h.8v.8a1.4 1.4 0 0 1 1.3-.9 1.1 1.1 0 0 1 1.1 1c.3-.6.7-1 1.4-1s1.3.6 1.3 1.8v4.2h-.9v-4.1c0-.7-.2-1-.6-1s-.7.3-1 .9v4.2h-.8v-4.1c0-.7-.2-1-.7-1s-.7.3-1 .9v4.2h-.9zm10.3-.1a2.5 2.5 0 0 1 2.7 2.7 3.4 3.4 0 0 1 0 .5h-4.6a2.1 2.1 0 0 0 2.2 2.1 3.2 3.2 0 0 0 1.8-.5l.3.6a4 4 0 0 1-2.2.7 3.1 3.1 0 0 1-.2-6.1zm1.7 2.6a1.6 1.6 0 0 0-1.7-1.8 2 2 0 0 0-2 1.8zm14.1-.3a1.4 1.4 0 0 0-1.5-1.5 4.1 4.1 0 0 0-2 .7l-.4-.7a5 5 0 0 1 2.6-.8 2.2 2.2 0 0 1 2.4 2.4v3.6h-.8v-.8a4 4 0 0 1-2.3.9 1.8 1.8 0 0 1-2-1.7c-.2-1.2 1-1.9 4-2.1zm-2 3a3.2 3.2 0 0 0 2-.9v-1.5c-2.5.2-3.3.7-3.3 1.5s.7.9 1.3.9zm5.4-.7a3.8 3.8 0 0 0 2.4.8c1 0 1.6-.4 1.6-.9s-.5-.8-1.9-1.1-2.2-.8-2.2-1.7.8-1.7 2.4-1.7a4.4 4.4 0 0 1 2.3.7l-.5.6a3.2 3.2 0 0 0-1.9-.6c-1.1 0-1.4.4-1.4.8s.7.8 1.8 1 2.3.9 2.3 1.7-.9 1.7-2.6 1.7a5.1 5.1 0 0 1-2.9-.9zm13.1-4.5h1l.7 3.4.3 1.6.3-1.6.7-3h.8l.7 3 .3 1.6.3-1.6.7-3.4h.9l-1.3 5.8h-1.2l-.7-3-.3-1.7-.3 1.7-.7 2.9h-1.2zm8.2 0h3.7v5.8h-1v-5h-2.7zm2.3-2a.8.8 0 1 1 .8.8.7.7 0 0 1-.8-.7zm7.2 1.9a2.6 2.6 0 0 1 1.8.8V919h1v8.5h-.8v-.8a2.8 2.8 0 0 1-1.9.9c-1.5 0-2.5-1.1-2.5-3a2.8 2.8 0 0 1 2.4-3.1zm.1 5.3a2.2 2.2 0 0 0 1.6-.9V923a2.2 2.2 0 0 0-1.5-.7 2 2 0 0 0-1.8 2.2c0 1.4.6 2.3 1.7 2.3zm6.2-4.4h-1.6v-.7h1.7V920h.8v1.6h2.9v.8h-2.9v2.8c0 1 .3 1.6 1.5 1.6a3.8 3.8 0 0 0 1.4-.3l.2.7a5.5 5.5 0 0 1-1.8.3c-1.7 0-2.2-1-2.2-2.4zm5.8-3.5h1v3.7a3 3 0 0 1 2.2-1.1c1.4 0 2 .8 2 2.4v3.6h-1V924c0-1.1-.4-1.6-1.3-1.6s-1.2.3-1.8 1.1v4.1h-1zm7.6 10.2a6.4 6.4 0 0 0 0-9.9l.5-.5a6.8 6.8 0 0 1 0 10.9z"/><path fill="none" stroke="#ccc" stroke-miterlimit="10" stroke-width="2" d="M440 856.5V874H93.2v-17.5M266.6 874v23"/><path fill="none" stroke="#d9d8e3" stroke-dasharray="2 9" stroke-linecap="round" stroke-linejoin="round" stroke-width="3" d="M-233 476.4H767"/><path fill="none" stroke="#00deaf" stroke-linecap="round" stroke-linejoin="round" stroke-width="2" d="M93.3 0v950M440.4 0v950"/></svg>