<svg xmlns="http://www.w3.org/2000/svg" width="558" height="390" viewBox="0 0 558 390"><defs><pattern id="a" width="19.2" height="19.4" patternTransform="matrix(1.27 0 0 1.16 -37.6 -6.9)" patternUnits="userSpaceOnUse" viewBox="0 0 19.2 19.4"><path fill="none" d="M0 0h19.2v19.4H0z"/><path fill="#e8e8e8" d="M0 0h9.7v9.7H0z"/><path fill="none" d="M0 9.7h9.7v9.7H0zM9.5 0h9.7v9.7H9.5z"/><path fill="#e8e8e8" d="M9.5 9.7h9.7v9.7H9.5z"/></pattern></defs><path fill="url(#a)" d="M17 368.8v-347h524v347H17z"/><path d="M497 204.1v1h-6v-1h2.5v-6.6h-1.9v-.7a6.7 6.7 0 0 0 2.2-.7h.9v8zm2 .3c3-2.7 4.7-4.2 4.7-5.7s-.6-1.8-1.9-1.8a3 3 0 0 0-2.1 1.1l-.7-.7a3.9 3.9 0 0 1 2.9-1.4 2.6 2.6 0 0 1 2.9 2.6c0 1.7-1.7 3.3-4.1 5.6h4.6v1H499zm9.9 1.3v2.3h-1.1v-9.7h1v.9a3.6 3.6 0 0 1 2.4-1c1.8 0 2.8 1.4 2.8 3.5s-1.5 3.7-3.1 3.7a3.3 3.3 0 0 1-2-.9zm1.8-1.4c1.2 0 2.1-1 2.1-2.7s-.6-2.5-1.9-2.5a3 3 0 0 0-2 1v3.4a2.9 2.9 0 0 0 1.8.8zm7.6-2.7l-2.4-3.3h1.3l1.1 1.5.8 1.1h.1l.8-1.2 1-1.5h1.2l-2.4 3.4 2.6 3.4h-1.3l-1.2-1.6-.9-1.2h-.1l-.8 1.2-1.1 1.6h-1.2zm-492.8-3.9a2.6 2.6 0 0 0-1.8-.7c-1.4 0-2.7 1-2.7 3.8a3.7 3.7 0 0 1 2.5-1.2 2.5 2.5 0 0 1 2.8 2.8 2.9 2.9 0 0 1-3 2.9c-1.9 0-3.4-1.4-3.4-4.3s1.8-5 3.7-5a3.5 3.5 0 0 1 2.5 1zm-.3 4.7a1.7 1.7 0 0 0-1.9-1.9 3.1 3.1 0 0 0-2.3 1.2c.2 1.7 1 2.6 2.3 2.6a1.9 1.9 0 0 0 1.9-1.9zm4.5 3.3v2.3h-1.2v-9.7h1v.9a3.6 3.6 0 0 1 2.4-1c1.8 0 2.8 1.4 2.8 3.5s-1.5 3.7-3.1 3.7a3.3 3.3 0 0 1-2-.9zm1.8-1.4c1.2 0 2.1-1 2.1-2.7s-.6-2.5-1.9-2.5a3 3 0 0 0-2 1v3.4a2.9 2.9 0 0 0 1.8.8zm7.6-2.7l-2.4-3.3H38l1.1 1.5.8 1.1h.1l.8-1.2 1-1.5H43l-2.4 3.4 2.6 3.4h-1.3l-1.2-1.6-.9-1.2h-.1l-.8 1.2-1.1 1.6h-1.3z"/><path fill="#672373" d="M471 64.8v274H47v-274z"/><path d="M249.6 46.8v1h-6v-1h2.5v-6.6h-1.9v-.7a6.7 6.7 0 0 0 2.2-.7h.9v8zm2-3.5c0-3 1.2-4.6 3.2-4.6s3.2 1.6 3.2 4.6-1.2 4.7-3.2 4.7-3.2-1.8-3.2-4.7zm1.1 0c0 2.6.9 3.7 2.1 3.7s2.1-1.2 2.1-3.7-.9-3.7-2.1-3.7-2.1 1.1-2.1 3.7zm1.3-.1a.9.9 0 1 1 .9.9.9.9 0 0 1-1-.9zm7.5 5.1v2.3h-1.1v-9.7h1v.9a3.6 3.6 0 0 1 2.4-1c1.8 0 2.8 1.4 2.8 3.5s-1.5 3.7-3.1 3.7a3.3 3.3 0 0 1-2-.9zm1.8-1.4c1.2 0 2.1-1 2.1-2.7s-.6-2.5-1.9-2.5a3 3 0 0 0-2 1v3.4a2.9 2.9 0 0 0 1.8.9zm7.6-2.7l-2.4-3.3h1.3l1.1 1.5.8 1.1h.1l.8-1.2 1-1.5h1.2l-2.4 3.4 2.6 3.4h-1.3l-1.2-1.6-.9-1.2h-.1l-.8 1.2-1.1 1.6h-1.2z"/><path fill="#fff" d="M267.2 108.1v1h-6v-1h2.5v-6.6h-1.9v-.7a6.7 6.7 0 0 0 2.2-.7h.9v8zm89 101.7c3-2.7 4.7-4.2 4.7-5.7s-.6-1.8-1.9-1.8a3 3 0 0 0-2.1 1.1l-.7-.7a3.9 3.9 0 0 1 2.9-1.4 2.6 2.6 0 0 1 2.9 2.7c0 1.7-1.7 3.3-4.1 5.6h4.6v1h-6.3zm-100 93.5a3.6 3.6 0 0 0 2.6 1.1c1.2 0 2.1-.6 2.1-1.6s-.9-1.8-3.2-1.8v-.9c2.1 0 2.9-.7 2.9-1.7s-.7-1.4-1.8-1.4a3.3 3.3 0 0 0-2.2.9l-.6-.7a4.3 4.3 0 0 1 2.9-1.1c1.7 0 3 .8 3 2.3s-.8 1.8-1.9 2.1a2.5 2.5 0 0 1 2.2 2.3c0 1.6-1.5 2.5-3.2 2.5a4.4 4.4 0 0 1-3.2-1.3zM161.1 208h-1.4v2.5h-1.1V208H154v-.8l4.5-5.7h1.2v5.5h1.4zm-2.5-.9v-2.8c0-.5 0-1.1.1-1.6h-.1l-.9 1.3-2.4 3.1z"/><path d="M249.3 352.4a2.5 2.5 0 0 1-1.4-2.1c0-1.4 1.2-2.3 2.8-2.3s2.8 1 2.8 2.4a2.8 2.8 0 0 1-1.4 2.1c1 .5 1.8 1.1 1.8 2.3s-1.2 2.4-3.2 2.4-3.3-1-3.3-2.5a2.8 2.8 0 0 1 1.9-2.3zm1.4 4c1.3 0 2.1-.6 2.1-1.6s-1.2-1.6-2.8-2.1-1.5 1.1-1.5 1.9.8 1.8 2.2 1.8zm1.8-6a1.6 1.6 0 0 0-1.8-1.6 1.5 1.5 0 0 0-1.7 1.4c0 1.1 1 1.5 2.4 1.9a2.3 2.3 0 0 0 1.1-1.7zm4.8 7.3v2.3h-1.1v-9.7h1v.9a3.6 3.6 0 0 1 2.4-1c1.8 0 2.8 1.4 2.8 3.5s-1.5 3.7-3.1 3.7a3.3 3.3 0 0 1-2-.9zm1.8-1.4c1.2 0 2.1-1 2.1-2.7s-.6-2.5-1.9-2.5a3 3 0 0 0-2 1v3.4a2.9 2.9 0 0 0 1.8.8zm7.6-2.7l-2.4-3.3h1.3l1.1 1.5.8 1.1h.1l.8-1.2 1-1.5h1.2l-2.4 3.4 2.6 3.4h-1.3l-1.2-1.6-.9-1.2h-.1l-.8 1.2-1.1 1.6h-1.2z"/><path fill="none" stroke="#fff" stroke-miterlimit="10" stroke-width="2" d="M263.3 86.4a115.3 115.3 0 1 1-119.6 118.7"/><circle cx="263.5" cy="86.4" r="4.5" fill="#fff" transform="rotate(-88.3 264.314 85.955)"/><path fill="#fff" d="M149 210.9l-5.2-4.9-5 5.2-.1-4.3 5-5.2 5.2 4.9.1 4.3z"/><circle cx="374.2" cy="205.5" r="5" fill="#fff"/><circle cx="259" cy="316.5" r="5" fill="#fff"/></svg>