<svg xmlns="http://www.w3.org/2000/svg" width="490" height="241" viewBox="0 0 490 241"><style type="text/css">.st0{fill:#9D35AF;} .st1{fill:#FFFFFF;} .st2{fill:#672373;} .st3{fill:none;stroke:#A8A6AF;stroke-width:2;stroke-miterlimit:10;}</style><path class="st0" d="M131 166.5h113v59h-113z"/><path class="st1" d="M157.2 194.4v-8h1.8v8.8c0 .6 0 1.1.1 1.3 0 .3.1.5.2.6.2.3.5.6.8.8.3.2.8.3 1.3.3s.9-.1 1.3-.3c.3-.2.6-.4.8-.8.1-.1.1-.3.2-.6 0-.3.1-.7.1-1.3v-8.8h1.8v8c0 1.3-.1 2.3-.2 2.8-.2.6-.4 1-.9 1.4-.4.3-.8.6-1.3.8-.5.2-1 .3-1.7.3-.6 0-1.2-.1-1.6-.3-.5-.2-.9-.4-1.3-.8s-.7-.8-.8-1.4c-.5-.6-.6-1.5-.6-2.8zM175.7 193.3v6h-1.6v-6c0-.9-.2-1.5-.5-1.9s-.8-.6-1.4-.6c-.7 0-1.3.3-1.7.8-.4.5-.6 1.3-.6 2.3v5.5h-1.6v-9.7h1.6v1.5c.3-.6.7-1 1.2-1.3.5-.3 1.1-.4 1.7-.4 1 0 1.7.3 2.2 1 .5.5.7 1.5.7 2.8zM180.1 189.7h4.1v8.4h3.2v1.2h-7.9v-1.2h3.2v-7.2h-2.5v-1.2zm2.4-3.8h1.6v2h-1.6v-2zM193.3 186.9v2.8h3.6v1.2h-3.6v5.3c0 .7.1 1.2.4 1.5.3.3.7.4 1.4.4h1.8v1.3h-1.9c-1.2 0-2-.2-2.5-.7-.5-.5-.7-1.3-.7-2.5v-5.3h-2.6v-1.2h2.6v-2.8h1.5zM212.6 197.9h5.9v1.5h-7.9v-1.5c1.1-1.1 2-2.1 2.8-3s1.4-1.5 1.7-1.8c.6-.7 1-1.3 1.2-1.7.2-.4.3-.9.3-1.3 0-.7-.2-1.3-.6-1.7-.4-.4-1-.6-1.7-.6-.5 0-1.1.1-1.7.3-.6.2-1.2.5-1.8.9v-2c.6-.3 1.2-.5 1.8-.6.6-.1 1.1-.2 1.7-.2 1.3 0 2.3.3 3.1 1 .8.7 1.2 1.6 1.2 2.6 0 .6-.1 1.1-.4 1.7-.3.6-.7 1.2-1.3 1.8-.3.4-.8.9-1.4 1.6-.7.7-1.6 1.7-2.9 3z"/><path class="st0" d="M358 166.5h114v59h-114z"/><path class="st1" d="M384.7 194.4v-8h1.8v8.8c0 .6 0 1.1.1 1.3 0 .3.1.5.2.6.2.3.5.6.8.8.3.2.8.3 1.3.3s.9-.1 1.3-.3c.3-.2.6-.4.8-.8.1-.1.1-.3.2-.6 0-.3.1-.7.1-1.3v-8.8h1.8v8c0 1.3-.1 2.3-.2 2.8-.2.6-.4 1-.9 1.4-.4.3-.8.6-1.3.8-.5.2-1 .3-1.7.3-.6 0-1.2-.1-1.6-.3-.5-.2-.9-.4-1.3-.8s-.7-.8-.8-1.4c-.5-.6-.6-1.5-.6-2.8zM403.2 193.3v6h-1.6v-6c0-.9-.2-1.5-.5-1.9s-.8-.6-1.4-.6c-.7 0-1.3.3-1.7.8-.4.5-.6 1.3-.6 2.3v5.5h-1.6v-9.7h1.6v1.5c.3-.6.7-1 1.2-1.3.5-.3 1.1-.4 1.7-.4 1 0 1.7.3 2.2 1 .5.5.7 1.5.7 2.8zM407.6 189.7h4.1v8.4h3.2v1.2h-7.9v-1.2h3.2v-7.2h-2.5v-1.2zm2.4-3.8h1.6v2h-1.6v-2zM420.8 186.9v2.8h3.6v1.2h-3.6v5.3c0 .7.1 1.2.4 1.5.3.3.7.4 1.4.4h1.8v1.3h-1.9c-1.2 0-2-.2-2.5-.7-.5-.5-.7-1.3-.7-2.5v-5.3h-2.6v-1.2h2.6v-2.8h1.5zM442.9 186.4h2v8.4h1.7v1.4h-1.6v3.1h-1.7v-3.1h-5.5v-1.7l5.1-8.1zm.3 1.6l-4.1 6.8h4.1v-6.8z"/><path class="st2" d="M17 166.5h114v59h-114z"/><path class="st1" d="M43.7 194.4v-8h1.8v8.8c0 .6 0 1.1.1 1.3 0 .3.1.5.2.6.2.3.5.6.8.8.3.2.8.3 1.3.3s.9-.1 1.3-.3c.3-.2.6-.4.8-.8.1-.1.1-.3.2-.6 0-.3.1-.7.1-1.3v-8.8h1.8v8c0 1.3-.1 2.3-.2 2.8-.2.6-.4 1-.9 1.4-.4.3-.8.6-1.3.8-.5.2-1 .3-1.7.3-.6 0-1.2-.1-1.6-.3-.5-.2-.9-.4-1.3-.8s-.7-.8-.8-1.4c-.5-.6-.6-1.5-.6-2.8zM62.2 193.3v6h-1.6v-6c0-.9-.2-1.5-.5-1.9s-.8-.6-1.4-.6c-.7 0-1.3.3-1.7.8-.4.5-.6 1.3-.6 2.3v5.5h-1.6v-9.7h1.6v1.5c.3-.6.7-1 1.2-1.3.5-.3 1.1-.4 1.7-.4 1 0 1.7.3 2.2 1 .5.5.7 1.5.7 2.8zM66.6 189.7h4.1v8.4h3.2v1.2h-7.9v-1.2h3v-7.2h-2.5v-1.2zm2.4-3.8h1.6v2h-1.6v-2zM79.8 186.9v2.8h3.6v1.2h-3.6v5.3c0 .7.1 1.2.4 1.5.3.3.7.4 1.4.4h1.8v1.3h-1.9c-1.2 0-2-.2-2.5-.7-.5-.5-.7-1.3-.7-2.5v-5.3h-2.6v-1.2h2.6v-2.8h1.5zM98.2 197.9h2.7v-9.8l-3.3 1.6v-1.7l3.2-1.5h1.8v11.4h2.7v1.5h-7.1v-1.5z"/><path class="st2" d="M244 166.5h114v59h-114z"/><path class="st1" d="M270.7 194.4v-8h1.8v8.8c0 .6 0 1.1.1 1.3 0 .3.1.5.2.6.2.3.5.6.8.8.3.2.8.3 1.3.3s.9-.1 1.3-.3c.3-.2.6-.4.8-.8.1-.1.1-.3.2-.6 0-.3.1-.7.1-1.3v-8.8h1.8v8c0 1.3-.1 2.3-.2 2.8-.2.6-.4 1-.9 1.4-.4.3-.8.6-1.3.8-.5.2-1 .3-1.7.3-.6 0-1.2-.1-1.6-.3-.5-.2-.9-.4-1.3-.8s-.7-.8-.8-1.4c-.5-.6-.6-1.5-.6-2.8zM289.2 193.3v6h-1.6v-6c0-.9-.2-1.5-.5-1.9s-.8-.6-1.4-.6c-.7 0-1.3.3-1.7.8-.4.5-.6 1.3-.6 2.3v5.5h-1.6v-9.7h1.6v1.5c.3-.6.7-1 1.2-1.3.5-.3 1.1-.4 1.7-.4 1 0 1.7.3 2.2 1 .5.5.7 1.5.7 2.8zM293.6 189.7h4.1v8.4h3.2v1.2h-7.9v-1.2h3.2v-7.2h-2.5v-1.2zm2.4-3.8h1.6v2h-1.6v-2zM306.8 186.9v2.8h3.6v1.2h-3.6v5.3c0 .7.1 1.2.4 1.5.3.3.7.4 1.4.4h1.8v1.3h-1.9c-1.2 0-2-.2-2.5-.7-.5-.5-.7-1.3-.7-2.5v-5.3h-2.6v-1.2h2.6v-2.8h1.5zM329.6 192.4c.8.2 1.5.6 1.9 1.2.5.6.7 1.3.7 2.2 0 1.2-.4 2.1-1.2 2.8s-1.9 1-3.3 1c-.6 0-1.2-.1-1.8-.2s-1.2-.3-1.8-.5v-1.7c.6.3 1.2.5 1.7.7.6.2 1.1.2 1.7.2 1 0 1.7-.2 2.2-.6.5-.4.8-1.1.8-1.9 0-.8-.3-1.3-.8-1.8-.5-.4-1.2-.7-2.1-.7h-1.3v-1.4h1.3c.8 0 1.4-.2 1.9-.5s.7-.8.7-1.5-.2-1.2-.6-1.5-1-.5-1.8-.5c-.5 0-1 .1-1.6.2s-1.1.3-1.7.5v-1.6c.7-.2 1.3-.3 1.9-.4.5-.1 1-.1 1.5-.1 1.3 0 2.3.3 3 .9.8.6 1.1 1.5 1.1 2.5 0 .7-.2 1.3-.6 1.8-.5.4-1.1.7-1.8.9z"/><path class="st3" d="M7.5 155.9h475v78.3h-475z"/><path class="st0" d="M131 76.5h114v59h-114z"/><path class="st1" d="M157.2 104.9v-8h1.8v8.8c0 .6 0 1.1.1 1.3 0 .3.1.5.2.6.2.3.5.6.8.8.3.2.8.3 1.3.3s.9-.1 1.3-.3c.3-.2.6-.4.8-.8.1-.1.1-.3.2-.6 0-.3.1-.7.1-1.3v-8.8h1.8v8c0 1.3-.1 2.3-.2 2.8-.2.6-.4 1-.9 1.4-.4.3-.8.6-1.3.8-.5.2-1 .3-1.7.3-.6 0-1.2-.1-1.6-.3-.5-.2-.9-.4-1.3-.8s-.7-.8-.8-1.4c-.5-.6-.6-1.5-.6-2.8zM175.7 103.8v6h-1.6v-6c0-.9-.2-1.5-.5-1.9s-.8-.6-1.4-.6c-.7 0-1.3.3-1.7.8-.4.5-.6 1.3-.6 2.3v5.5h-1.6v-9.7h1.6v1.5c.3-.6.7-1 1.2-1.3.5-.3 1.1-.4 1.7-.4 1 0 1.7.3 2.2 1 .5.5.7 1.5.7 2.8zM180.1 100.2h4.1v8.4h3.2v1.2h-7.9v-1.2h3.2v-7.2h-2.5v-1.2zm2.4-3.8h1.6v2h-1.6v-2zM193.3 97.4v2.8h3.6v1.2h-3.6v5.3c0 .7.1 1.2.4 1.5.3.3.7.4 1.4.4h1.8v1.3h-1.9c-1.2 0-2-.2-2.5-.7-.5-.5-.7-1.3-.7-2.5v-5.3h-2.6v-1.2h2.6v-2.8h1.5zM215.4 96.9h2v8.4h1.7v1.4h-1.7v3.1h-1.7v-3.1h-5.5v-1.7l5.2-8.1zm.3 1.6l-4.1 6.8h4.1v-6.8z"/><path class="st0" d="M17 76.5h114v59h-114z"/><path class="st1" d="M43.4 104.4v-8h1.8v8.8c0 .6 0 1.1.1 1.3 0 .3.1.5.2.6.2.3.5.6.8.8.4.2.8.3 1.3.3s.9-.1 1.3-.3c.3-.2.6-.4.8-.8.1-.1.1-.3.2-.6s.1-.7.1-1.3v-8.8h1.8v8c0 1.3-.1 2.3-.2 2.8-.2.6-.5 1-.9 1.4-.4.3-.8.6-1.3.8-.5.2-1 .3-1.7.3-.6 0-1.2-.1-1.7-.3-.5-.2-.9-.4-1.3-.8s-.7-.8-.9-1.4c-.3-.6-.4-1.5-.4-2.8zM62.1 103.3v6h-1.6v-6c0-.9-.2-1.5-.5-1.9s-.8-.6-1.4-.6c-.8 0-1.3.3-1.7.8s-.6 1.3-.6 2.3v5.5h-1.6v-9.7h1.6v1.5c.3-.6.7-1 1.2-1.3.5-.3 1.1-.4 1.7-.4 1 0 1.7.3 2.2 1 .4.5.7 1.5.7 2.8zM66.4 99.7h4.1v8.4h3.2v1.2h-8v-1.2h3.2v-7.2h-2.5v-1.2zm2.5-3.8h1.6v2h-1.6v-2zM79.8 96.9v2.8h3.6v1.2h-3.6v5.3c0 .7.1 1.2.4 1.5.3.3.8.4 1.4.4h1.8v1.3h-2c-1.2 0-2.1-.2-2.5-.7-.5-.5-.7-1.3-.7-2.5v-5.3h-2.6v-1.2h2.6v-2.8h1.6zM99.2 107.9h6v1.5h-7.9v-1.5c1.1-1.1 2-2.1 2.9-3s1.4-1.5 1.7-1.8c.6-.7 1-1.3 1.2-1.7.2-.4.3-.9.3-1.3 0-.7-.2-1.3-.6-1.7s-1-.6-1.8-.6c-.5 0-1.1.1-1.7.3-.6.2-1.2.5-1.8.9v-2c.6-.3 1.2-.5 1.8-.6.6-.1 1.2-.2 1.7-.2 1.3 0 2.3.3 3.1 1s1.2 1.6 1.2 2.6c0 .6-.1 1.1-.4 1.7-.3.6-.7 1.2-1.3 1.8-.3.4-.8.9-1.4 1.6-.8.7-1.7 1.7-3 3z"/><path class="st2" d="M17 17.5h114v59h-114z"/><path class="st1" d="M43.7 45.4v-8h1.8v8.8c0 .6 0 1.1.1 1.3 0 .3.1.5.2.6.2.3.5.6.8.8.3.2.8.3 1.3.3s.9-.1 1.3-.3c.3-.2.6-.4.8-.8.1-.1.1-.3.2-.6 0-.3.1-.7.1-1.3v-8.8h1.8v8c0 1.3-.1 2.3-.2 2.8-.2.6-.4 1-.9 1.4-.4.3-.8.6-1.3.8-.5.2-1 .3-1.7.3-.6 0-1.2-.1-1.6-.3-.5-.2-.9-.4-1.3-.8s-.7-.8-.8-1.4c-.5-.6-.6-1.5-.6-2.8zM62.2 44.3v6h-1.6v-6c0-.9-.2-1.5-.5-1.9s-.8-.6-1.4-.6c-.7 0-1.3.3-1.7.8-.4.5-.6 1.3-.6 2.3v5.5h-1.6v-9.7h1.6v1.5c.3-.6.7-1 1.2-1.3.5-.3 1.1-.4 1.7-.4 1 0 1.7.3 2.2 1 .5.5.7 1.5.7 2.8zM66.6 40.7h4.1v8.4h3.2v1.2h-7.9v-1.2h3v-7.2h-2.5v-1.2zm2.4-3.8h1.6v2h-1.6v-2zM79.8 37.9v2.8h3.6v1.2h-3.6v5.3c0 .7.1 1.2.4 1.5.3.3.7.4 1.4.4h1.8v1.3h-1.9c-1.2 0-2-.2-2.5-.7-.5-.5-.7-1.3-.7-2.5v-5.3h-2.6v-1.2h2.6v-2.8h1.5zM98.2 48.9h2.7v-9.8l-3.3 1.6v-1.7l3.2-1.5h1.8v11.4h2.7v1.5h-7.1v-1.5z"/><path class="st2" d="M131 17.5h114v59h-114z"/><path class="st1" d="M157.7 45.4v-8h1.8v8.8c0 .6 0 1.1.1 1.3 0 .3.1.5.2.6.2.3.5.6.8.8.3.2.8.3 1.3.3s.9-.1 1.3-.3c.3-.2.6-.4.8-.8.1-.1.1-.3.2-.6 0-.3.1-.7.1-1.3v-8.8h1.8v8c0 1.3-.1 2.3-.2 2.8-.2.6-.4 1-.9 1.4-.4.3-.8.6-1.3.8-.5.2-1 .3-1.7.3-.6 0-1.2-.1-1.6-.3-.5-.2-.9-.4-1.3-.8s-.7-.8-.8-1.4c-.5-.6-.6-1.5-.6-2.8zM176.2 44.3v6h-1.6v-6c0-.9-.2-1.5-.5-1.9s-.8-.6-1.4-.6c-.7 0-1.3.3-1.7.8-.4.5-.6 1.3-.6 2.3v5.5h-1.6v-9.7h1.6v1.5c.3-.6.7-1 1.2-1.3.5-.3 1.1-.4 1.7-.4 1 0 1.7.3 2.2 1 .5.5.7 1.5.7 2.8zM180.6 40.7h4.1v8.4h3.2v1.2h-7.9v-1.2h3.2v-7.2h-2.5v-1.2zm2.4-3.8h1.6v2h-1.6v-2zM193.8 37.9v2.8h3.6v1.2h-3.6v5.3c0 .7.1 1.2.4 1.5.3.3.7.4 1.4.4h1.8v1.3h-1.9c-1.2 0-2-.2-2.5-.7-.5-.5-.7-1.3-.7-2.5v-5.3h-2.6v-1.2h2.6v-2.8h1.5zM216.6 43.4c.8.2 1.5.6 1.9 1.2.5.6.7 1.3.7 2.2 0 1.2-.4 2.1-1.2 2.8s-1.9 1-3.3 1c-.6 0-1.2-.1-1.8-.2s-1.2-.3-1.8-.5v-1.7c.6.3 1.2.5 1.7.7.6.2 1.1.2 1.7.2 1 0 1.7-.2 2.2-.6.5-.4.8-1.1.8-1.9 0-.8-.3-1.3-.8-1.8-.5-.4-1.2-.7-2.1-.7h-1.3v-1.4h1.3c.8 0 1.4-.2 1.9-.5s.7-.8.7-1.5-.2-1.2-.6-1.5-1-.5-1.8-.5c-.5 0-1 .1-1.6.2s-1.1.3-1.7.5v-1.6c.7-.2 1.3-.3 1.9-.4.5-.1 1-.1 1.5-.1 1.3 0 2.3.3 3 .9.8.6 1.1 1.5 1.1 2.5 0 .7-.2 1.3-.6 1.8-.5.4-1.1.7-1.8.9z"/><path class="st3" d="M7.5 6.9h246.7v139.2h-246.7z"/></svg>