<svg xmlns="http://www.w3.org/2000/svg" width="490" height="152" viewBox="0 0 490 152"><style type="text/css">.st0{fill:#9D35AF;} .st1{fill:#FFFFFF;} .st2{fill:#672373;} .st3{fill:none;stroke:#A8A6AF;stroke-width:2;stroke-miterlimit:10;} .st4{fill:none;stroke:#D9D8E3;stroke-width:2;stroke-linecap:round;stroke-linejoin:round;stroke-miterlimit:10;}</style><path class="st0" d="M131 77h114v59h-114z"/><path class="st1" d="M157.2 105.9v-8h1.8v8.8c0 .6 0 1.1.1 1.3 0 .3.1.5.2.6.2.3.5.6.8.8.3.2.8.3 1.3.3s.9-.1 1.3-.3c.3-.2.6-.4.8-.8.1-.1.1-.3.2-.6 0-.3.1-.7.1-1.3v-8.8h1.8v8c0 1.3-.1 2.3-.2 2.8-.2.6-.4 1-.9 1.4-.4.3-.8.6-1.3.8-.5.2-1 .3-1.7.3-.6 0-1.2-.1-1.6-.3-.5-.2-.9-.4-1.3-.8s-.7-.8-.8-1.4c-.5-.6-.6-1.5-.6-2.8zm18.5-1.1v6h-1.6v-6c0-.9-.2-1.5-.5-1.9s-.8-.6-1.4-.6c-.7 0-1.3.3-1.7.8-.4.5-.6 1.3-.6 2.3v5.5h-1.6v-9.7h1.6v1.5c.3-.6.7-1 1.2-1.3.5-.3 1.1-.4 1.7-.4 1 0 1.7.3 2.2 1 .5.5.7 1.5.7 2.8zm4.4-3.6h4.1v8.4h3.2v1.2h-7.9v-1.2h3.2v-7.2h-2.5v-1.2zm2.4-3.8h1.6v2h-1.6v-2zm10.8 1v2.8h3.6v1.2h-3.6v5.3c0 .7.1 1.2.4 1.5.3.3.7.4 1.4.4h1.8v1.3h-1.9c-1.2 0-2-.2-2.5-.7-.5-.5-.7-1.3-.7-2.5v-5.3h-2.6v-1.2h2.6v-2.8h1.5zm22.8 5.5c.8.2 1.5.6 1.9 1.2.5.6.7 1.3.7 2.2 0 1.2-.4 2.1-1.2 2.8s-1.9 1-3.3 1c-.6 0-1.2-.1-1.8-.2-.6-.1-1.2-.3-1.8-.5v-1.7c.6.3 1.2.5 1.7.7.6.2 1.1.2 1.7.2 1 0 1.7-.2 2.2-.6s.8-1.1.8-1.9c0-.8-.3-1.3-.8-1.8s-1.2-.7-2.1-.7h-1.3v-1.4h1.3c.8 0 1.4-.2 1.9-.5.5-.4.7-.8.7-1.5s-.2-1.2-.6-1.5c-.4-.4-1-.5-1.8-.5-.5 0-1 .1-1.6.2-.5.1-1.1.3-1.7.5v-1.6c.7-.2 1.3-.3 1.9-.4.5-.1 1-.1 1.5-.1 1.3 0 2.3.3 3 .9.8.6 1.1 1.5 1.1 2.5 0 .7-.2 1.3-.6 1.8-.5.4-1.1.7-1.8.9z"/><path class="st0" d="M245 18h227v59h-227z"/><path class="st2" d="M245 77h227v59h-227z"/><path class="st1" d="M327.7 46.9v-8h1.8v8.8c0 .6 0 1.1.1 1.3 0 .3.1.5.2.6.2.3.5.6.8.8.3.2.8.3 1.3.3s.9-.1 1.3-.3c.3-.2.6-.4.8-.8.1-.1.1-.3.2-.6 0-.3.1-.7.1-1.3v-8.8h1.8v8c0 1.3-.1 2.3-.2 2.8-.2.6-.4 1-.9 1.4-.4.3-.8.6-1.3.8-.5.2-1 .3-1.7.3-.6 0-1.2-.1-1.6-.3-.5-.2-.9-.4-1.3-.8s-.7-.8-.8-1.4c-.5-.6-.6-1.5-.6-2.8zm18.5-1.1v6h-1.6v-6c0-.9-.2-1.5-.5-1.9s-.8-.6-1.4-.6c-.7 0-1.3.3-1.7.8-.4.5-.6 1.3-.6 2.3v5.5h-1.6v-9.7h1.6v1.5c.3-.6.7-1 1.2-1.3.5-.3 1.1-.4 1.7-.4 1 0 1.7.3 2.2 1 .5.5.7 1.5.7 2.8zm4.4-3.6h4.1v8.4h3.2v1.2h-7.9v-1.2h3.2v-7.2h-2.5v-1.2zm2.4-3.8h1.6v2h-1.6v-2zm10.8 1v2.8h3.6v1.2h-3.6v5.3c0 .7.1 1.2.4 1.5.3.3.7.4 1.4.4h1.8v1.3h-1.9c-1.2 0-2-.2-2.5-.7-.5-.5-.7-1.3-.7-2.5v-5.3h-2.6v-1.2h2.6v-2.8h1.5zm19.3 11h5.9v1.5h-7.9v-1.5c1.1-1.1 2-2.1 2.8-3s1.4-1.5 1.7-1.8c.6-.7 1-1.3 1.2-1.7s.3-.9.3-1.3c0-.7-.2-1.3-.6-1.7-.4-.4-1-.6-1.7-.6-.5 0-1.1.1-1.7.3-.6.2-1.2.5-1.8.9v-1.8c.6-.3 1.2-.5 1.8-.6.6-.1 1.1-.2 1.7-.2 1.3 0 2.3.3 3.1 1 .8.7 1.2 1.6 1.2 2.6 0 .6-.1 1.1-.4 1.7s-.7 1.2-1.3 1.8c-.3.4-.8.9-1.4 1.6-.7.5-1.6 1.5-2.9 2.8zm-55.4 55.5v-8h1.8v8.8c0 .6 0 1.1.1 1.3 0 .3.1.5.2.6.2.3.5.6.8.8.3.2.8.3 1.3.3s.9-.1 1.3-.3c.3-.2.6-.4.8-.8.1-.1.1-.3.2-.6 0-.3.1-.7.1-1.3v-8.8h1.8v8c0 1.3-.1 2.3-.2 2.8-.2.6-.4 1-.9 1.4-.4.3-.8.6-1.3.8-.5.2-1 .3-1.7.3-.6 0-1.2-.1-1.6-.3-.5-.2-.9-.4-1.3-.8s-.7-.8-.8-1.4c-.5-.6-.6-1.5-.6-2.8zm18.5-1.1v6h-1.6v-6c0-.9-.2-1.5-.5-1.9s-.8-.6-1.4-.6c-.7 0-1.3.3-1.7.8-.4.5-.6 1.3-.6 2.3v5.5h-1.6v-9.7h1.6v1.5c.3-.6.7-1 1.2-1.3.5-.3 1.1-.4 1.7-.4 1 0 1.7.3 2.2 1 .5.5.7 1.5.7 2.8zm4.4-3.6h4.1v8.4h3.2v1.2h-7.9v-1.2h3.2v-7.2h-2.5v-1.2zm2.4-3.8h1.6v2h-1.6v-2zm10.8 1v2.8h3.6v1.2h-3.6v5.3c0 .7.1 1.2.4 1.5.3.3.7.4 1.4.4h1.8v1.3h-1.9c-1.2 0-2-.2-2.5-.7-.5-.5-.7-1.3-.7-2.5v-5.3h-2.6v-1.2h2.6v-2.8h1.5zm22.1-.5h2v8.4h1.7v1.4h-1.6v3.1h-1.7v-3.1h-5.5v-1.7l5.1-8.1zm.3 1.6l-4.1 6.8h4.1v-6.8z"/><path class="st2" d="M17 18h228v59h-228z"/><path class="st1" d="M100.2 46.9v-8h1.8v8.8c0 .6 0 1.1.1 1.3s.1.5.2.6c.2.3.5.6.8.8.3.2.8.3 1.3.3s.9-.1 1.3-.3c.3-.2.6-.4.8-.8.1-.1.1-.3.2-.6s.1-.7.1-1.3v-8.8h1.8v8c0 1.3-.1 2.3-.2 2.8s-.4 1-.9 1.4c-.4.3-.8.6-1.3.8-.5.2-1 .3-1.7.3-.6 0-1.2-.1-1.6-.3s-.9-.4-1.3-.8-.7-.8-.8-1.4-.6-1.5-.6-2.8zm18.5-1.1v6h-1.6v-6c0-.9-.2-1.5-.5-1.9s-.8-.6-1.4-.6c-.7 0-1.3.3-1.7.8-.4.5-.6 1.3-.6 2.3v5.5h-1.6v-9.7h1.6v1.5c.3-.6.7-1 1.2-1.3.5-.3 1.1-.4 1.7-.4 1 0 1.7.3 2.2 1 .5.5.7 1.5.7 2.8zm4.4-3.6h4.1v8.4h3.2v1.2h-7.9v-1.2h3.2v-7.2h-2.5v-1.2zm2.4-3.8h1.6v2h-1.6v-2zm10.8 1v2.8h3.6v1.2h-3.6v5.3c0 .7.1 1.2.4 1.5.3.3.7.4 1.4.4h1.8v1.3h-1.9c-1.2 0-2-.2-2.5-.7-.5-.5-.7-1.3-.7-2.5v-5.3h-2.6v-1.2h2.6v-2.8h1.5zm18.4 11h2.7v-9.8l-3.3 1.6v-1.7l3.2-1.5h1.8v11.4h2.7v1.5h-7.1v-1.5z"/><path class="st3" d="M7.5 7.7h475v137.4h-475z"/></svg>