<svg xmlns="http://www.w3.org/2000/svg" width="490" height="184" viewBox="0 0 490 184"><style type="text/css">.st0{fill:#9D35AF;} .st1{fill:#FFFFFF;} .st2{fill:#672373;} .st3{fill:none;stroke:#A8A6AF;stroke-width:2;stroke-miterlimit:10;} .st4{fill:none;stroke:#D9D8E3;stroke-width:2;stroke-linecap:round;stroke-linejoin:round;stroke-miterlimit:10;}</style><path class="st2" d="M70.5 146v-.5c0-9.5 7.7-17.2 17.2-17.2h79.5c9.5 0 17.2 7.7 17.2 17.2v.5c0 9.5-7.7 17.2-17.2 17.2h-79.5c-9.5 0-17.2-7.7-17.2-17.2z"/><path class="st1" d="M121.7 149.6c-.4.4-.9.7-1.4.9s-1.1.3-1.7.3c-1.5 0-2.6-.5-3.5-1.6s-1.2-2.5-1.2-4.5c0-1.9.4-3.4 1.2-4.5s2-1.6 3.5-1.6c.5 0 1 .1 1.4.2s.9.3 1.3.6v1.6c-.4-.4-.9-.7-1.3-.9s-.9-.3-1.4-.3c-1 0-1.8.4-2.3 1.2s-.8 2-.8 3.6.2 2.8.7 3.6 1.3 1.2 2.3 1.2c.3 0 .7 0 .9-.1s.5-.2.7-.4v-3.1h-1.7v-1.3h3.2v5.1zm5.8-8c1.2 0 2.1.4 2.8 1.2s1 1.9 1 3.4-.3 2.6-1 3.4-1.6 1.2-2.8 1.2c-1.2 0-2.1-.4-2.8-1.2s-1-1.9-1-3.4.3-2.6 1-3.4 1.6-1.2 2.8-1.2zm0 1.2c-.7 0-1.3.3-1.7.9s-.6 1.4-.6 2.5.2 1.9.6 2.5.9.9 1.7.9c.7 0 1.3-.3 1.7-.9s.6-1.4.6-2.5-.2-2-.6-2.5-1-.9-1.7-.9zm8.8 5.8h2.1v2h-2.1v-2zm.3-9.7h1.6v5.1l-.2 2.4h-1.3l-.2-2.4v-5.1z"/><path class="st2" d="M305.5 146v-.5c0-9.5 7.7-17.2 17.2-17.2h79.5c9.5 0 17.2 7.7 17.2 17.2v.5c0 9.5-7.7 17.2-17.2 17.2h-79.5c-9.5 0-17.2-7.7-17.2-17.2z"/><path class="st1" d="M322.6 138.9c1.8 0 3.1.5 3.9 1.4s1.3 2.4 1.3 4.4c0 2-.4 3.5-1.3 4.4s-2.2 1.4-3.9 1.4h-2.4v-11.7h2.4zm0 10.4c1.3 0 2.3-.3 2.8-1s.8-1.8.8-3.5-.3-2.9-.8-3.6-1.5-1-2.8-1h-.8v9.1h.8zm11-7.7c1.2 0 2.1.4 2.8 1.2s1 1.9 1 3.4-.3 2.6-1 3.4-1.6 1.2-2.8 1.2c-1.2 0-2.1-.4-2.8-1.2s-1-1.9-1-3.4.3-2.6 1-3.4 1.6-1.2 2.8-1.2zm0 1.2c-.7 0-1.3.3-1.7.9s-.6 1.4-.6 2.5.2 1.9.6 2.5.9.9 1.7.9c.7 0 1.3-.3 1.7-.9s.6-1.4.6-2.5-.2-2-.6-2.5-1-.9-1.7-.9zm13 2.3v5.4h-1.4v-5.4c0-.8-.1-1.4-.4-1.7s-.7-.6-1.3-.6c-.7 0-1.2.2-1.6.7s-.5 1.2-.5 2.1v4.9h-1.4v-8.8h1.4v1.3c.3-.5.6-.9 1-1.1s1-.4 1.6-.4c.9 0 1.6.3 2 .9s.6 1.5.6 2.7zm5.8-6.7h2v1.6l-1.5 3h-1.2l.8-3v-1.6zm10.1.9v2.5h3.3v1.1h-3.3v4.8c0 .6.1 1.1.4 1.4s.7.4 1.3.4h1.6v1.1h-1.8c-1.1 0-1.8-.2-2.3-.6s-.7-1.2-.7-2.2v-4.8h-2.3v-1.1h2.3v-2.5h1.5zm22.6 10.7c0 1.3-.3 2.3-.9 3-.6.7-1.5 1-2.7 1-.4 0-.8 0-1.2-.1l-1.3-.3v-1.4c.5.2 1 .4 1.4.5.4.1.8.2 1.1.2.8 0 1.3-.2 1.7-.6s.5-1.1.5-2v-1.1c-.2.5-.5.9-.9 1.1s-.9.4-1.4.4c-1 0-1.8-.4-2.4-1.2s-.9-1.9-.9-3.3.3-2.5.9-3.3 1.4-1.2 2.4-1.2c.6 0 1 .1 1.4.3s.7.6 1 1v-1.1h1.4v8.1zm-1.4-3.9c0-1.1-.2-1.9-.5-2.5s-.9-.8-1.5-.8c-.7 0-1.2.3-1.6.8s-.6 1.4-.6 2.5.2 1.9.6 2.5.9.8 1.6.8c.7 0 1.2-.3 1.5-.9s.5-1.3.5-2.4zm7.7-4.5c1.2 0 2.1.4 2.8 1.2s1 1.9 1 3.4-.3 2.6-1 3.4-1.6 1.2-2.8 1.2c-1.2 0-2.1-.4-2.8-1.2s-1-1.9-1-3.4.3-2.6 1-3.4 1.6-1.2 2.8-1.2zm0 1.2c-.7 0-1.3.3-1.7.9s-.6 1.4-.6 2.5.2 1.9.6 2.5.9.9 1.7.9c.7 0 1.3-.3 1.7-.9s.6-1.4.6-2.5-.2-2-.6-2.5-1-.9-1.7-.9zm8.8 5.8h2.1v2h-2.1v-2zm.3-9.7h1.6v5.1l-.2 2.4h-1.3l-.2-2.4v-5.1z"/><path class="st3" d="M10 7.8h235v168.4h-235zm235 0h235v168.4h-235z"/><path d="M95.9 32.9v-8.3h2.6v8.9c0 .7.2 1.2.5 1.5.3.4.8.6 1.4.6s1.1-.2 1.4-.6c.3-.4.5-.9.5-1.5v-8.9h2.6v8.3c0 1.8-.4 3.1-1.1 3.9s-1.8 1.2-3.4 1.2c-1.6 0-2.7-.4-3.4-1.2-.7-.9-1.1-2.2-1.1-3.9zm19.3-1.6v6.4h-2.6v-6c0-.7-.1-1.2-.3-1.5-.2-.3-.5-.5-1-.5s-.8.2-1.1.6-.4 1-.4 1.7v5.6h-2.6v-9.8h2.6v1.5c.2-.5.5-1 .9-1.3s1-.4 1.6-.4c.9 0 1.6.3 2.1.9.6.7.8 1.6.8 2.8zm3.4-3.4h5.1v7.9h3.2v2h-9v-2h3.2v-5.9h-2.5v-2zm2.5-4.8h2.6v3h-2.6v-3zm12.5 2v2.8h3.4v2h-3.4v4.7c0 .4.1.8.3.9.2.2.6.3 1.1.3h2v2h-2.2c-1.5 0-2.5-.2-3-.7s-.8-1.3-.8-2.6v-4.5h-2.5v-2h2.5v-2.8h2.6zm17.2 10.3h2.9v-8.5l-2.7.7v-2.3l2.7-.7h2.5v10.8h2.9v2.3h-8.3v-2.3zm180.1-2.5v-8.3h2.6v8.9c0 .7.2 1.2.5 1.5.3.4.8.6 1.4.6s1.1-.2 1.4-.6c.3-.4.5-.9.5-1.5v-8.9h2.6v8.3c0 1.8-.4 3.1-1.1 3.9s-1.8 1.2-3.4 1.2c-1.6 0-2.7-.4-3.4-1.2-.7-.9-1.1-2.2-1.1-3.9zm19.3-1.6v6.4h-2.6v-6c0-.7-.1-1.2-.3-1.5-.2-.3-.5-.5-1-.5s-.8.2-1.1.6-.4 1-.4 1.7v5.6h-2.6v-9.8h2.6v1.5c.2-.5.5-1 .9-1.3s1-.4 1.6-.4c.9 0 1.6.3 2.1.9.6.7.8 1.6.8 2.8zm3.4-3.4h5.1v7.9h3.2v2h-9v-2h3.2v-5.9h-2.5v-2zm2.5-4.8h2.6v3h-2.6v-3zm12.5 2v2.8h3.4v2h-3.4v4.7c0 .4.1.8.3.9.2.2.6.3 1.1.3h2v2h-2.2c-1.5 0-2.5-.2-3-.7s-.8-1.3-.8-2.6v-4.5h-2.5v-2h2.5v-2.8h2.6zm19.4 10.3h5.5v2.3h-8.3v-2.2l1.4-1.5c1.7-1.8 2.7-2.9 3-3.3.4-.5.8-1 .9-1.3.2-.4.3-.8.3-1.2 0-.6-.2-1-.5-1.4-.4-.3-.9-.5-1.5-.5-.5 0-1 .1-1.6.3-.6.2-1.2.5-1.8.8v-2.4c.6-.2 1.2-.4 1.8-.5.6-.1 1.2-.2 1.7-.2 1.4 0 2.5.3 3.3 1 .8.6 1.2 1.5 1.2 2.7 0 .5-.1 1-.3 1.5-.2.5-.5 1-.9 1.5-.3.4-1.2 1.3-2.6 2.7-.6.7-1.2 1.3-1.6 1.7z"/><path class="st4" d="M30.3 65.2l10.7-10.8 10.7 10.8 10.8-10.8 10.9 10.8 10.8-10.8 10.8 10.8 10.8-10.8 10.9 10.8 10.8-10.8 10.8 10.8 10.9-10.8 10.8 10.9 10.8-10.8 10.9 11 10.8-10.2 10.8 11.7h-.3l10.8-11.7 10.9 10.1m40.6-.2l10.7-10.8 10.7 10.8 10.8-10.8 10.9 10.8 10.8-10.8 10.8 10.8 10.8-10.8 10.9 10.8 10.8-10.8 10.8 10.8 10.9-10.8 10.8 10.9 10.8-10.8 10.9 11 10.8-10.2 10.8 11.7h-.3l10.8-11.7 10.9 10.1m-194.4 21.8l10.7-10.8 10.7 10.8 10.8-10.8 10.9 10.8 10.8-10.8 10.8 10.8 10.8-10.8 10.9 10.8 10.8-10.8 10.8 10.8 10.9-10.8 10.8 10.9 10.8-10.8 10.9 11 10.8-10.2 10.8 11.7h-.3l10.8-11.7 10.9 10.1m-194.4 21.8l10.7-10.8 10.7 10.8 10.8-10.8 10.9 10.8 10.8-10.8 10.8 10.8 10.8-10.8 10.9 10.8 10.8-10.8 10.8 10.8 10.9-10.8 10.8 10.9 10.8-10.8 10.9 11 10.8-10.2 10.8 11.7h-.3l10.8-11.7 10.9 10.1"/></svg>