<svg xmlns="http://www.w3.org/2000/svg" width="490" height="70" viewBox="0 0 490 70"><style type="text/css">.st0{fill:#9D35AF;} .st1{fill:#FFFFFF;} .st2{fill:#672373;} .st3{fill:none;stroke:#A8A6AF;stroke-width:2;stroke-miterlimit:10;} .st4{fill:none;stroke:#D9D8E3;stroke-width:2;stroke-linecap:round;stroke-linejoin:round;stroke-miterlimit:10;}</style><path d="M45.9 24.5c-1.1 0-1.9.1-2.6.2-.6.1-1.1.4-1.4.7-.3.4-.6.9-.7 1.5-.1.7-.3 1.6-.4 2.7l-3.3.4.2-2.8c.1-.8.1-1.7.1-2.8s.1-2 .1-3l.4-.4 4 .4h12.4l4.1-.4.4.4.1 3s.1 1.9.1 2.7l.2 2.7-3.2.2c-.2-1.2-.3-2.2-.4-2.9s-.4-1.2-.7-1.6c-.3-.4-.8-.6-1.3-.7-.6-.1-1.4-.2-2.4-.2-.1.9-.1 2-.2 3.3-.1 1.3-.1 2.8-.1 4.3s-.1 3.1-.1 4.8v4.7c0 1 .2 1.7.5 2.1.3.4.9.6 1.7.6h1.5l.6-.1.2.2-.4 2.8-2.7-.1c-.7 0-1.5 0-2.3-.1h-4s-1.5.1-2.2.1c-.8.1-1.7.1-2.5.1l.3-2.6c.9-.1 1.6-.2 2.1-.3.5-.1.9-.3 1.2-.6.3-.3.5-.7.6-1.2.1-.5.1-1.2.1-2v-16.1zm8.1 20.2c.7-.1 1.2-.3 1.5-.6.3-.3.4-.8.4-1.6v-19.3c0-.8-.1-1.4-.4-1.7-.2-.3-.7-.5-1.3-.5h-.9l-.2-.2.2-2.1c.9-.1 1.9-.3 2.9-.4 1-.1 1.9-.3 2.7-.4.9-.1 1.8-.3 2.7-.5l.3.8c-.1.2-.3.6-.4 1.3-.1.7-.2 1.6-.3 2.8-.1 1.2-.2 2.5-.3 4.1-.1 1.6-.1 3.3-.2 5.2.3-.3.7-.6 1.2-1s1-.8 1.5-1.1c.5-.4 1-.7 1.5-.9.5-.3.9-.4 1.2-.4 1.9 0 3.4.4 4.5 1.3 1 .9 1.6 2.2 1.6 3.9 0 .4 0 1-.1 1.9s-.2 1.7-.3 2.7c-.1 1-.2 1.9-.3 2.8-.1.9-.1 1.6-.1 2.1 0 .7.1 1.2.3 1.5s.5.4 1 .4h1.2l.1.2-.4 2.5h-1.6c-.5 0-.9 0-1.4-.1h-2.7l-1.5.1-1.6.2.2-2.5c.6-.2 1.1-.4 1.4-.7.3-.3.4-.8.5-1.5l.2-6.8c0-2.3-.9-3.5-2.6-3.5-.4 0-.7.1-1.1.2-.4.1-.7.3-1 .5s-.6.4-.9.5c-.3.2-.5.3-.6.4 0 1.4 0 2.8-.1 4.3v4.5c0 .7.1 1.1.3 1.4.2.3.5.4.9.4h1l.1.2-.4 2.4h-1.6c-.5 0-.9 0-1.4-.1h-2.9s-1 0-1.4.1h-1.5l.1-2.8zm14.9.2c.8-.1 1.4-.4 1.7-.8.4-.4.5-1 .5-1.7v-8.6c0-.9-.1-1.4-.4-1.8-.3-.3-.7-.5-1.3-.5-.1 0-.3 0-.6.1h-.3l.2-2.4 2.7-.4c.9-.1 1.7-.3 2.5-.4.9-.2 1.7-.3 2.5-.5l.4.7c-.1.3-.3.9-.4 1.7-.1.8-.2 1.9-.3 3.1s-.1 2.6-.2 4.2-.1 3.3-.1 5c0 .6.1 1.1.3 1.4.2.3.5.4 1 .4h1.1l.1.2-.4 2.5h-1.6c-.5 0-.9 0-1.4-.1h-1.4c-.5 0-1 0-1.6.1-.6.1-1.1.1-1.6.2-.6.1-1.2.1-1.7.2l.3-2.6zm4.6-20.8c-.9 0-1.6-.3-2.1-.8s-.7-1.2-.7-2.1c0-1 .3-1.7.9-2.3.6-.6 1.3-.9 2.3-.9.9 0 1.5.3 2.1.8.5.5.8 1.2.8 2.1 0 1-.3 1.7-.9 2.3-.7.6-1.5.9-2.4.9zm5.3 23.4c-.8 0-1.6-.1-2.2-.2-.7-.1-1.2-.2-1.7-.4s-1-.3-1.5-.6l-.2-.3c0-.3.1-.6.1-1.1.1-.4.1-.9.2-1.4.1-.5.1-1 .1-1.5s.1-.9.1-1.3l2.3-.2c0 2.7 1.2 4 3.5 4 .7 0 1.4-.2 1.9-.5s.8-.8.8-1.3c0-.3-.1-.5-.2-.7-.1-.2-.3-.4-.6-.7s-.7-.5-1.2-.8c-.5-.3-1.2-.6-2-1-1.6-.7-2.8-1.5-3.5-2.4-.7-.8-1.1-1.8-1.1-3 0-.9.2-1.7.6-2.5s1-1.4 1.7-1.9 1.6-1 2.6-1.3 2.1-.5 3.4-.5c.6 0 1.2 0 1.8.1.5.1 1 .2 1.4.2.5.1.9.2 1.3.4l.2.4c-.1.5-.2 1-.3 1.6-.1.5-.2 1-.3 1.7-.1.6-.2 1.3-.2 1.9l-2.3.1v-.7c0-1.8-1-2.7-2.8-2.7-.7 0-1.3.2-1.7.5-.5.3-.7.7-.7 1.2s.2 1 .6 1.4c.4.4 1.1.9 2.1 1.3 1.2.6 2.1 1.1 2.9 1.5.8.5 1.4.9 1.8 1.4s.8.9.9 1.4c.2.5.3 1 .3 1.6 0 .9-.2 1.6-.6 2.4-.4.7-1 1.4-1.7 1.9s-1.6 1-2.6 1.3c-1 .6-2 .7-3.2.7zm4.9-13.8c0-.9-.1-1.4-.4-1.7-.3-.3-.9-.4-1.7-.5l-.4-.3.3-2c.9-.4 1.7-.8 2.5-1.3s1.6-1 2.2-1.4c.7-.5 1.4-1 2.1-1.6l1.1.6-.2.9c-.1.3-.1.7-.1 1.1 0 .4-.1.9-.1 1.5l4.7-.1.2.2-.4 2.7-4.7-.1c-.1 1.2-.1 2.5-.2 3.9s-.1 3-.1 4.8c0 1.1.2 1.9.6 2.4s1.1.8 2 .8c.6 0 1.1-.1 1.6-.3l.8-.3.5 1.3c-.6.6-1.3 1.1-1.8 1.6-.5.4-1 .8-1.5 1.1-.5.3-.9.5-1.2.5-1.9 0-3.3-.4-4.2-1.2-.9-.8-1.3-2-1.3-3.7v-8.9zm9.6 4v.4c.1 1.8.6 3.2 1.4 4.1.9 1 2.1 1.4 3.6 1.4.6 0 1.2-.1 1.8-.2.6-.1 1.1-.3 1.6-.4.5-.2 1-.4 1.4-.6l.3.1.6 2c-.8.6-1.6 1.1-2.4 1.5-.7.4-1.4.7-2.2 1-.8.3-1.6.5-2.3.5-1.4 0-2.7-.2-3.8-.6s-2.1-1-2.9-1.8c-.8-.8-1.4-1.8-1.8-2.9-.4-1.1-.6-2.4-.6-3.9 0-1.4.2-2.8.7-4 .5-1.3 1.1-2.3 2-3.2.8-.9 1.8-1.6 3-2.1s2.4-.8 3.8-.8c4.5 0 6.7 2.3 6.7 6.9v.8c0 .3-.1.5-.1.7-.1.3-.1.5-.1.7l-.5.4h-10.2zm5.3-2.5c.3-.1.5-.1.6-.2.1-.1.2-.3.2-.7 0-2-.8-3-2.5-3-1 0-1.8.4-2.5 1.1-.6.7-1 1.7-1.1 3.1l5.3-.3zm15.4 11.9h-1.6s-1.3.1-1.9.1c-.7.1-1.5.1-2.2.1l-.1-.2.3-2c.6 0 1-.1 1.2-.2.2-.1.4-.3.4-.5 0-.1 0-.3-.1-.5s-.2-.4-.4-.7l-2.4-3.2c-.3.3-.6.7-.9 1.2l-.9 1.2c-.3.4-.5.8-.7 1.1s-.3.6-.3.7c0 .3.1.5.3.6.2.1.6.2 1.1.2l.1.2-.3 2c-.6 0-1.1-.1-1.6-.1s-.9 0-1.3-.1h-2.1c-.4 0-.7 0-1 .1h-1.1l-.1-.3.3-1.9c.3-.1.5-.3.8-.5.2-.2.5-.4.8-.7s.6-.6.9-1c.3-.4.7-.8 1.2-1.4l3.2-3.8-2.7-3.7c-.4-.5-.7-1-1-1.3l-.9-.9s-.6-.4-1-.5c-.3-.1-.7-.2-1.2-.3l-.1-.2.2-2.2h6.5c.6 0 1.1 0 1.6-.1l1.6-.1.1.2-.2 2.1c-1 0-1.5.3-1.5.8 0 .3.1.6.2.9l.6.9 1.6 2.3 1.8-2.5c.3-.4.5-.7.7-1 .2-.3.3-.5.3-.8 0-.2-.1-.4-.3-.4s-.6-.1-1.1-.1l-.1-.2.2-2.1h5.8l1.2-.1.1.2-.2 2.2c-1.2.6-2.3 1.6-3.4 3l-3.2 4.1 3.1 4.2c.7.9 1.3 1.6 1.9 2 .6.4 1.2.7 2 .7l.1.2-.4 2.1h-2.8c-.4.2-.8.2-1.1.2zm-.2-13.4c0-.9-.1-1.4-.4-1.7-.3-.3-.9-.4-1.7-.5l-.4-.3.3-2c.9-.4 1.7-.8 2.5-1.3s1.6-1 2.2-1.4c.7-.5 1.4-1 2.1-1.6l1.1.6-.2.9c-.1.3-.1.7-.1 1.1 0 .4-.1.9-.1 1.5l4.7-.1.2.2-.4 2.7-4.7-.1c-.1 1.2-.1 2.5-.2 3.9s-.1 3-.1 4.8c0 1.1.2 1.9.6 2.4s1.1.8 2 .8c.6 0 1.1-.1 1.6-.3l.8-.3.5 1.3c-.6.6-1.3 1.1-1.8 1.6-.5.4-1 .8-1.5 1.1-.5.3-.9.5-1.2.5-1.9 0-3.3-.4-4.2-1.2-.9-.8-1.3-2-1.3-3.7v-8.9zm4.5 11.2c.8-.1 1.4-.4 1.7-.8.4-.4.5-1 .5-1.7v-8.6c0-.9-.1-1.4-.4-1.8-.3-.3-.7-.5-1.3-.5-.1 0-.3 0-.6.1h-.3l.2-2.4 2.7-.4c.9-.1 1.7-.3 2.5-.4.9-.2 1.7-.3 2.5-.5l.4.7c-.1.3-.3.9-.4 1.7-.1.8-.2 1.9-.3 3.1s-.1 2.6-.2 4.2-.1 3.3-.1 5c0 .6.1 1.1.3 1.4.2.3.5.4 1 .4h1.1l.1.2-.4 2.5h-1.6c-.5 0-.9 0-1.4-.1h-1.4c-.5 0-1 0-1.6.1-.6.1-1.1.1-1.6.2-.6.1-1.2.1-1.7.2l.3-2.6zm4.5-20.8c-.9 0-1.6-.3-2.1-.8s-.7-1.2-.7-2.1c0-1 .3-1.7.9-2.3.6-.6 1.3-.9 2.3-.9.9 0 1.5.3 2.1.8.5.5.8 1.2.8 2.1 0 1-.3 1.7-.9 2.3-.7.6-1.4.9-2.4.9zm5.4 23.4c-.8 0-1.6-.1-2.2-.2-.7-.1-1.2-.2-1.7-.4s-1-.3-1.5-.6l-.2-.4c0-.3.1-.6.1-1.1.1-.4.1-.9.2-1.4.1-.5.1-1 .1-1.5s.1-.9.1-1.3l2.3-.2c0 2.7 1.2 4 3.5 4 .7 0 1.4-.2 1.9-.5s.8-.8.8-1.3c0-.3-.1-.5-.2-.7-.1-.2-.3-.4-.6-.7s-.7-.5-1.2-.8c-.5-.3-1.2-.6-2-1-1.6-.7-2.8-1.5-3.5-2.4-.7-.8-1.1-1.8-1.1-3 0-.9.2-1.7.6-2.5s1-1.4 1.7-1.9 1.6-1 2.6-1.3 2.1-.5 3.4-.5c.6 0 1.2 0 1.8.1.5.1 1 .2 1.4.2.5.1.9.2 1.3.4l.2.4c-.1.5-.2 1-.3 1.6-.1.5-.2 1-.3 1.7-.1.6-.2 1.3-.2 1.9l-2.3.1v-.7c0-1.8-1-2.7-2.8-2.7-.7 0-1.3.2-1.7.5-.5.3-.7.7-.7 1.2s.2 1 .6 1.4c.4.4 1.1.9 2.1 1.3 1.2.6 2.1 1.1 2.9 1.5.8.5 1.4.9 1.8 1.4s.8.9.9 1.4c.2.5.3 1 .3 1.6 0 .9-.2 1.6-.6 2.4-.4.7-1 1.4-1.7 1.9s-1.6 1-2.6 1.3c-1 .7-2.1.8-3.2.8zm3.9-2.8c.8-.1 1.3-.3 1.6-.6.3-.4.4-1.1.4-2.1v-7.9c0-.9-.1-1.6-.4-1.9-.2-.3-.7-.5-1.4-.5h-.8l-.2-.3.2-2.1 2.6-.4s1.7-.3 2.4-.4l2.4-.5.4.4-.2 1.2-.2 1.2c-.1.4-.1.9-.1 1.3l.2.2c.9-1.3 1.8-2.2 2.8-2.9s1.9-1 2.9-1h.5s.3 0 .4.1l.4.1.2.3-.4 2.4c-.1.7-.2 1.5-.3 2.4s-.1 1.7-.2 2.5l-2.6.2c0-1.3-.1-2.1-.2-2.5-.2-.4-.5-.6-.9-.6s-.9.2-1.3.5-.9.7-1.3 1.3c-.1 1.3-.1 2.5-.2 3.6-.1.9-.1 1.8-.1 2.6v1.5c0 .7.1 1.2.3 1.4.2.3.6.4 1.2.4h.6c.2 0 .5 0 .7-.1l.7-.1.1.2-.4 2.7-1.9-.1c-.5 0-1.1 0-1.7-.1h-3.4c-.6 0-1.1 0-1.6.1-.6 0-1.1.1-1.6.1l.4-2.6zm13.8-7v.4c.1 1.8.6 3.2 1.4 4.1.9 1 2.1 1.4 3.6 1.4.6 0 1.2-.1 1.8-.2.6-.1 1.1-.3 1.6-.4.5-.2 1-.4 1.4-.6l.3.1.6 2c-.8.6-1.6 1.1-2.4 1.5-.7.4-1.4.7-2.2 1-.8.3-1.6.5-2.3.5-1.4 0-2.7-.2-3.8-.6s-2.1-1-2.9-1.8c-.8-.8-1.4-1.8-1.8-2.9-.4-1.1-.6-2.4-.6-3.9 0-1.4.2-2.8.7-4 .5-1.3 1.1-2.3 2-3.2.8-.9 1.8-1.6 3-2.1s2.4-.8 3.8-.8c4.5 0 6.7 2.3 6.7 6.9v.8c0 .3-.1.5-.1.7-.1.3-.1.5-.1.7l-.5.4h-10.2zm5.3-2.5c.3-.1.5-.1.6-.2.1-.1.2-.3.2-.7 0-2-.8-3-2.5-3-1 0-1.8.4-2.5 1.1-.6.7-1 1.7-1.1 3.1l5.3-.3zm10.9.3c0-1.1-.3-2-.9-2.7-.6-.6-1.4-.9-2.5-.9-.6 0-1.2.1-1.7.3-.5.2-1 .4-1.5.7-.5.3-1 .6-1.4.9l-.4-.2-.7-2.4c1-.6 2-1.1 3-1.5.8-.4 1.6-.7 2.5-1.1.8-.3 1.5-.5 2-.5 1.2 0 2.2.1 3 .4.8.3 1.5.7 2.1 1.2.5.5.9 1.1 1.2 1.7.3.7.4 1.4.4 2.2 0 .3 0 .9-.1 1.6-.1.7-.2 1.5-.3 2.3l-.3 2.4c-.1.8-.1 1.4-.1 1.8 0 .5.1.9.4 1.2.3.3.6.4 1.1.4.2 0 .5 0 .7-.1l.6-.2c.2-.1.4-.2.6-.4l.6.8c-.4.7-.8 1.3-1.2 1.8-.4.5-.8.9-1.2 1.3s-.9.7-1.4.9c-2.5 0-3.8-1-4-3.1l-.3-.1c-.8.8-1.6 1.5-2.4 2.1-.8.6-1.5.9-2 .9-.8 0-1.5-.1-2.2-.4-.7-.3-1.2-.7-1.7-1.2s-.9-1.1-1.2-1.9c-.3-.7-.4-1.5-.4-2.3 0-.8.2-1.5.6-2.2s1-1 1.7-1.2l7.7-1.8-.3-.7zm-.1 3.1l-4.2 1.2c-.6.2-.9.6-.9 1.3 0 .7.2 1.3.6 1.7.4.5.9.7 1.6.7.4 0 .9-.1 1.4-.3.5-.2 1-.5 1.5-.8v-3.8zm1.9 6.3c.5-.1.8-.2 1.1-.4s.5-.4.6-.6.2-.5.2-.9v-19.8c0-.7-.1-1.2-.3-1.5-.2-.3-.5-.5-.9-.6-.2-.1-.5-.1-.8 0h-.8l-.1-.5.2-1.8c.9-.1 1.9-.3 2.9-.4 1-.1 1.9-.3 2.7-.4.9-.1 1.8-.3 2.7-.5l.3.8c-.2.2-.4 1-.5 2.3s-.3 3.1-.4 5.3c-.1 2.2-.2 4.8-.3 7.7-.1 2.9-.1 6-.1 9.4 0 .7.1 1.1.3 1.4.2.3.5.4.9.4h1.4l.1.2-.4 2.4h-1.7c-.5 0-1 0-1.5-.1h-1.4c-.5 0-1 0-1.6.1l-1.5.1-1.6.2.5-2.8zm3.4 0c.5-.1.8-.2 1.1-.4s.5-.4.6-.6.2-.5.2-.9v-19.8c0-.7-.1-1.2-.3-1.5-.2-.3-.5-.5-.9-.6-.2-.1-.5-.1-.8 0h-.8l-.1-.5.2-1.8c.9-.1 1.9-.3 2.9-.4 1-.1 1.9-.3 2.7-.4.9-.1 1.8-.3 2.7-.5l.3.8c-.2.2-.4 1-.5 2.3s-.3 3.1-.4 5.3c-.1 2.2-.2 4.8-.3 7.7-.1 2.9-.1 6-.1 9.4 0 .7.1 1.1.3 1.4.2.3.5.4.9.4h1.4l.1.2-.4 2.4h-1.7c-.5 0-1 0-1.5-.1h-1.4c-.5 0-1 0-1.6.1l-1.5.1-1.6.2.5-2.8zm12.4-3.1c.4-1 .8-2.1 1.2-3.2.4-1.1.8-2.1 1.2-3.1.3-.9.6-1.8.9-2.4.2-.7.3-1.1.3-1.3 0-.3-.1-.5-.2-.7s-.5-.2-.9-.2h-1.3l-.1-.2.3-2.3c.5 0 1 .1 1.4.1h6.5l-.3 2.4c-.6.1-1 .3-1.3.6-.3.3-.5.7-.8 1.4l-5.1 12.4c-.9 2-1.7 3.8-2.4 5.2-.8 1.4-1.5 2.6-2.3 3.5s-1.6 1.6-2.4 2c-.8.4-1.6.6-2.5.6-.2 0-.5-.1-.8-.4l-1-.9s-.6-.7-.9-1.1c-.2-.4-.4-.6-.4-.9l.3-.5c1.7-.1 3.3-.7 4.7-1.6 1.4-1 2.5-2.3 3.4-3.9-.3-1-.8-2.2-1.3-3.5s-1-2.7-1.5-4.1c-.5-1.4-1-2.7-1.5-4s-.9-2.2-1.2-3c-.3-.6-.7-1-1-1.3-.4-.3-.8-.4-1.4-.4l-.1-.2.3-2.3h5.2c.7 0 1.4-.1 2-.1.6 0 1.3-.1 2-.2l.1.2-.4 2.4c-.8.1-1.3.1-1.5.3-.3.1-.4.4-.4.7 0 .2 0 .4.1.8s.2.8.3 1.3c.1.5.3 1 .4 1.6.2.6.3 1.2.5 1.7.4 1.4.9 2.9 1.4 4.5h.5zm8 5.7c-.8 0-1.6-.1-2.2-.2-.7-.1-1.2-.2-1.7-.4s-1-.3-1.5-.6l-.2-.4c0-.3.1-.6.1-1.1.1-.4.1-.9.2-1.4.1-.5.1-1 .1-1.5s.1-.9.1-1.3l2.3-.2c0 2.7 1.2 4 3.5 4 .7 0 1.4-.2 1.9-.5s.8-.8.8-1.3c0-.3-.1-.5-.2-.7-.1-.2-.3-.4-.6-.7s-.7-.5-1.2-.8c-.5-.3-1.2-.6-2-1-1.6-.7-2.8-1.5-3.5-2.4-.7-.8-1.1-1.8-1.1-3 0-.9.2-1.7.6-2.5s1-1.4 1.7-1.9 1.6-1 2.6-1.3 2.1-.5 3.4-.5c.6 0 1.2 0 1.8.1.5.1 1 .2 1.4.2.5.1.9.2 1.3.4l.2.4c-.1.5-.2 1-.3 1.6-.1.5-.2 1-.3 1.7-.1.6-.2 1.3-.2 1.9l-2.3.1v-.7c0-1.8-1-2.7-2.8-2.7-.7 0-1.3.2-1.7.5-.5.3-.7.7-.7 1.2s.2 1 .6 1.4c.4.4 1.1.9 2.1 1.3 1.2.6 2.1 1.1 2.9 1.5.8.5 1.4.9 1.8 1.4s.8.9.9 1.4c.2.5.3 1 .3 1.6 0 .9-.2 1.6-.6 2.4-.4.7-1 1.4-1.7 1.9s-1.6 1-2.6 1.3c-1 .7-2.1.8-3.2.8zm15.1-2.6c.6-.2 1.1-.4 1.4-.7.3-.3.4-.8.5-1.5l.1-6.8c0-2.3-.9-3.5-2.6-3.5-.7 0-1.3.2-2 .6-.6.4-1.1.7-1.5 1-.1.7-.1 1.5-.1 2.5s-.1 1.8-.1 2.7c0 .9-.1 1.6-.1 2.3v1.5c0 .7.1 1.2.3 1.4.2.3.5.4.9.4h1.1l.1.2-.4 2.5h-1.5c-.5 0-.9 0-1.4-.1h-2.9c-.6 0-1.1 0-1.5.1h-1.6l.3-2.5c.8-.1 1.3-.2 1.6-.5.3-.3.5-.8.5-1.6v-8.4c0-.9-.1-1.6-.4-1.9-.3-.3-.8-.5-1.6-.5h-.5l-.2-.2.2-2.1 2.7-.4c.9-.2 1.7-.3 2.4-.4l2.4-.4.3.4-.2.9c-.1.5-.2 1.1-.2 1.9l.1.1c.3-.3.8-.6 1.3-1l1.5-1.1s1-.6 1.4-.9c.5-.2.8-.4 1-.4 3.1 0 5 1.1 5.7 3.4.3-.3.7-.6 1.2-1l1.5-1.1c.5-.4 1-.7 1.5-.9.5-.3.8-.4 1.1-.4 1.9 0 3.4.5 4.5 1.4s1.6 2.2 1.6 3.8c0 .4 0 1-.1 1.9s-.2 1.7-.2 2.7c-.1 1-.2 1.9-.2 2.8-.1.9-.1 1.6-.1 2.1 0 .7.1 1.2.3 1.5s.5.4 1 .4h1.2l.1.2-.4 2.5h-1.6c-.5 0-.9 0-1.5-.1h-2.6c-.5 0-1 .1-1.4.1-.5 0-1 .1-1.6.1l.2-2.6c.6-.1 1-.3 1.3-.6.3-.3.4-.8.4-1.5l.1-6.8c0-2.3-.9-3.5-2.6-3.5-.6 0-1.3.2-1.9.5s-1.1.7-1.5.9l-.5 9c0 .7.1 1.2.3 1.5.2.3.5.4.9.4h1.1l.1.2-.4 2.5h-1.6c-.5 0-.9 0-1.4-.1h-2.7l-1.5.1-1.6.2v-3.2zm16.6-11.3c0-1.3-.4-2-1.3-2-.2 0-.5 0-.7.1h-.3l.2-2.4 2.6-.4c.9-.1 1.6-.3 2.3-.4l2.4-.5.4.7c-.2.3-.3.9-.4 1.6s-.2 1.7-.3 2.7c-.1 1-.2 2.2-.2 3.4s-.1 2.4-.1 3.6c0 2.2.8 3.2 2.5 3.2.6 0 1.2-.2 1.7-.5l1.7-1v-8.2c0-.8-.1-1.3-.3-1.5-.2-.3-.7-.4-1.4-.4h-.7l.3-2.3 2.6-.4c.9-.1 1.7-.3 2.4-.4.9-.1 1.7-.3 2.4-.4l.4.7c-.2.3-.3.9-.4 1.7-.1.8-.2 1.8-.3 3-.1 1.2-.2 2.4-.2 3.9-.1 1.4-.1 2.9-.1 4.4 0 .5.1.9.4 1.2.2.3.6.4 1 .4.2 0 .5 0 .7-.1l.6-.2c.2-.1.4-.2.6-.4l.6.8c-.4.7-.9 1.3-1.4 1.8-.4.5-.9.9-1.4 1.3-.5.4-1 .7-1.5.8-2.4 0-3.8-1-4.1-3.1l-.3-.2c-1 1-1.9 1.7-2.8 2.3-.8.6-1.4.9-1.7.9-2.1 0-3.6-.4-4.7-1.3s-1.6-2.1-1.6-3.8l.4-8.6zm18.5 13.9c-.8 0-1.6-.1-2.2-.2-.7-.1-1.2-.2-1.7-.4s-1-.3-1.5-.6l-.2-.4c0-.3.1-.6.1-1.1.1-.4.1-.9.2-1.4.1-.5.1-1 .1-1.5s.1-.9.1-1.3l2.3-.2c0 2.7 1.2 4 3.5 4 .7 0 1.4-.2 1.9-.5s.8-.8.8-1.3c0-.3-.1-.5-.2-.7-.1-.2-.3-.4-.6-.7s-.7-.5-1.2-.8c-.5-.3-1.2-.6-2-1-1.6-.7-2.8-1.5-3.5-2.4-.7-.8-1.1-1.8-1.1-3 0-.9.2-1.7.6-2.5s1-1.4 1.7-1.9 1.6-1 2.6-1.3 2.1-.5 3.4-.5c.6 0 1.2 0 1.8.1.5.1 1 .2 1.4.2.5.1.9.2 1.3.4l.2.4c-.1.5-.2 1-.3 1.6-.1.5-.2 1-.3 1.7-.1.6-.2 1.3-.2 1.9l-2.3.1v-.7c0-1.8-1-2.7-2.8-2.7-.7 0-1.3.2-1.7.5-.5.3-.7.7-.7 1.2s.2 1 .6 1.4c.4.4 1.1.9 2.1 1.3 1.2.6 2.1 1.1 2.9 1.5.8.5 1.4.9 1.8 1.4s.8.9.9 1.4c.2.5.3 1 .3 1.6 0 .9-.2 1.6-.6 2.4-.4.7-1 1.4-1.7 1.9s-1.6 1-2.6 1.3c-1 .7-2.1.8-3.2.8zm3.4-2.8c.7-.1 1.2-.3 1.5-.6.3-.3.4-.8.4-1.6v-19.3c0-.8-.1-1.4-.4-1.7-.2-.3-.7-.5-1.3-.5h-.9l-.2-.2.2-2.1c.9-.1 1.9-.3 2.9-.4 1-.1 1.9-.3 2.7-.4.9-.1 1.8-.3 2.7-.5l.3.8c-.1.2-.3.6-.4 1.3-.1.7-.2 1.6-.3 2.8-.1 1.2-.2 2.5-.3 4.1-.1 1.6-.1 3.3-.2 5.2.3-.3.7-.6 1.2-1s1-.8 1.5-1.1c.5-.4 1-.7 1.5-.9.5-.3.9-.4 1.2-.4 1.9 0 3.4.4 4.5 1.3 1 .9 1.6 2.2 1.6 3.9 0 .4 0 1-.1 1.9s-.2 1.7-.3 2.7c-.1 1-.2 1.9-.3 2.8-.1.9-.1 1.6-.1 2.1 0 .7.1 1.2.3 1.5s.5.4 1 .4h1.2l.1.2-.4 2.5h-1.6c-.5 0-.9 0-1.4-.1h-2.7l-1.5.1-1.6.2.2-2.5c.6-.2 1.1-.4 1.4-.7.3-.3.4-.8.5-1.5l.2-6.8c0-2.3-.9-3.5-2.6-3.5-.4 0-.7.1-1.1.2-.4.1-.7.3-1 .5s-.6.4-.9.5c-.3.2-.5.3-.6.4 0 1.4 0 2.8-.1 4.3v4.5c0 .7.1 1.1.3 1.4.2.3.5.4.9.4h1l.1.2-.4 2.4h-1.6c-.5 0-.9 0-1.4-.1h-2.9s-1 0-1.4.1h-1.5l.1-2.8zm23.4-2.9c.4-1 .8-2.1 1.2-3.2.4-1.1.8-2.1 1.2-3.1.3-.9.6-1.8.9-2.4.2-.7.3-1.1.3-1.3 0-.3-.1-.5-.2-.7s-.5-.2-.9-.2h-1.3l-.1-.2.3-2.3c.5 0 1 .1 1.4.1h6.5l-.3 2.4c-.6.1-1 .3-1.3.6-.3.3-.5.7-.8 1.4l-5.1 12.4c-.9 2-1.7 3.8-2.4 5.2-.8 1.4-1.5 2.6-2.3 3.5s-1.6 1.6-2.4 2c-.8.4-1.6.6-2.5.6-.2 0-.5-.1-.8-.4l-1-.9s-.6-.7-.9-1.1c-.2-.4-.4-.6-.4-.9l.3-.5c1.7-.1 3.3-.7 4.7-1.6 1.4-1 2.5-2.3 3.4-3.9-.3-1-.8-2.2-1.3-3.5s-1-2.7-1.5-4.1c-.5-1.4-1-2.7-1.5-4s-.9-2.2-1.2-3c-.3-.6-.7-1-1-1.3-.4-.3-.8-.4-1.4-.4l-.1-.2.3-2.3h5.2c.7 0 1.4-.1 2-.1.6 0 1.3-.1 2-.2l.1.2-.4 2.4c-.8.1-1.3.1-1.5.3-.3.1-.4.4-.4.7 0 .2 0 .4.1.8s.2.8.3 1.3c.1.5.3 1 .4 1.6.2.6.3 1.2.5 1.7.4 1.4.9 2.9 1.4 4.5h.5zm6.2 5.7c-1 0-1.8-.3-2.3-.8s-.7-1.3-.7-2.2c0-1 .3-1.7.9-2.4.6-.6 1.4-.9 2.4-.9s1.7.3 2.2.8c.5.5.8 1.3.8 2.2 0 1-.3 1.8-.9 2.4s-1.4.9-2.4.9zm3.5-.4c-.9 0-1.8 0-2.6.1-.8 0-1.5.1-2.2.1l-2.1.2.3-2.7c1-.2 1.7-.5 2.1-1 .4-.5.6-1.3.6-2.5v-15.2c0-.9-.1-1.4-.3-1.7-.2-.3-.6-.4-1.2-.4h-1.2l-.2-.3.3-2.4h7.1c.7 0 1.4 0 2-.1l2.4-.2-.3 2.8c-.7.1-1.2.2-1.6.3-.4.1-.7.3-.9.5-.2.2-.3.5-.4.8-.1.3-.1.8-.1 1.3-.1 1.1-.1 2.2-.2 3.4-.1 1.2-.1 2.4-.1 3.7l-.1 3.8v3.7c0 .5 0 .9.1 1.2s.2.5.4.7c.2.2.4.3.7.4s.7.1 1.3.1c.9 0 1.7-.1 2.3-.2.6-.1 1.1-.4 1.5-.9.4-.4.7-1.1.9-1.9.2-.8.4-1.8.5-3.1l3.4-.4.3.4c-.2.9-.3 1.8-.4 2.8-.1.9-.3 1.8-.4 2.9-.1 1.1-.2 2.2-.3 3.4l-.4.4c-1.3-.1-2.6-.1-3.8-.2-1.1-.1-2.3-.1-3.6-.1-1.3.3-2.6.3-3.8.3zm6.9-2.2c.8-.1 1.4-.4 1.7-.8.4-.4.5-1 .5-1.7v-8.6c0-.9-.1-1.4-.4-1.8-.3-.3-.7-.5-1.3-.5-.1 0-.3 0-.6.1h-.3l.2-2.4 2.7-.4c.9-.1 1.7-.3 2.5-.4.9-.2 1.7-.3 2.5-.5l.4.7c-.1.3-.3.9-.4 1.7-.1.8-.2 1.9-.3 3.1s-.1 2.6-.2 4.2-.1 3.3-.1 5c0 .6.1 1.1.3 1.4.2.3.5.4 1 .4h1.1l.1.2-.4 2.5h-1.6c-.5 0-.9 0-1.4-.1h-1.4c-.5 0-1 0-1.6.1-.6.1-1.1.1-1.6.2-.6.1-1.2.1-1.7.2l.3-2.6zm4.6-20.8c-.9 0-1.6-.3-2.1-.8s-.7-1.2-.7-2.1c0-1 .3-1.7.9-2.3.6-.6 1.3-.9 2.3-.9.9 0 1.5.3 2.1.8.5.5.8 1.2.8 2.1 0 1-.3 1.7-.9 2.3-.7.6-1.5.9-2.4.9zm-.5 20.7c.9-.1 1.4-.4 1.6-.8.2-.5.3-1.2.3-2.2v-18.6c0-.7-.1-1.2-.3-1.5-.2-.3-.5-.5-.9-.6-.2-.1-.5-.1-.8 0h-.8l-.1-.5.2-1.8c.9-.1 1.9-.3 2.9-.4 1-.1 1.9-.3 2.7-.4.9-.1 1.8-.3 2.7-.5l.3.8c-.2.2-.4 1-.5 2.3s-.3 3.1-.4 5.3c-.1 2.2-.2 4.8-.3 7.7-.1 2.9-.1 6-.1 9.4 0 .7.1 1.1.3 1.4.2.3.5.4.9.4h1.1l.1.2-.4 2.4c-.6 0-1.1-.1-1.6-.1s-.9 0-1.4-.1h-2.8s-1 .1-1.4.1c-.5.1-1 .1-1.5.1l.2-2.6zm7.3-7.2l.1-.9 3.8-3.8c.3-.3.5-.6.7-.8.1-.2.2-.4.2-.6 0-.3-.2-.5-.5-.6-.3-.1-.8-.2-1.6-.2l-.1-.2.4-2h6.2c.5 0 1 0 1.4-.1l1.5-.1.1.2-.4 2.3c-.6.2-1.3.6-1.9 1-.6.4-1.2.9-1.8 1.4-.6.5-1.2 1.1-1.7 1.6l-1.7 1.7 3.4 5.2c.7 1 1.3 1.7 2 2.2.6.5 1.3.7 2.1.8l.2.3-.3 2c-.4.1-.8.2-1.1.2l-.9.2s-.6.1-.9.1h-1c-.3 0-.6-.1-.7-.1-.7-.2-1.3-.5-1.8-.9-.5-.5-1-1.2-1.6-2.2l-4.1-6.7zm11.5.1v.4c.1 1.8.6 3.2 1.4 4.1.9 1 2.1 1.4 3.6 1.4.6 0 1.2-.1 1.8-.2.6-.1 1.1-.3 1.6-.4.5-.2 1-.4 1.4-.6l.3.1.6 2c-.8.6-1.6 1.1-2.4 1.5-.7.4-1.4.7-2.2 1-.8.3-1.6.5-2.3.5-1.4 0-2.7-.2-3.8-.6s-2.1-1-2.9-1.8c-.8-.8-1.4-1.8-1.8-2.9-.4-1.1-.6-2.4-.6-3.9 0-1.4.2-2.8.7-4 .5-1.3 1.1-2.3 2-3.2.8-.9 1.8-1.6 3-2.1s2.4-.8 3.8-.8c4.5 0 6.7 2.3 6.7 6.9v.8c0 .3-.1.5-.1.7-.1.3-.1.5-.1.7l-.5.4h-10.2zm5.4-2.5c.3-.1.5-.1.6-.2.1-.1.2-.3.2-.7 0-2-.8-3-2.5-3-1 0-1.8.4-2.5 1.1-.6.7-1 1.7-1.1 3.1l5.3-.3zm1.2 9.5c.8-.1 1.3-.3 1.6-.6.3-.4.4-1.1.4-2.1v-7.9c0-.9-.1-1.6-.4-1.9-.2-.3-.7-.5-1.4-.5h-.8l-.2-.3.2-2.1 2.6-.4s1.7-.3 2.4-.4l2.4-.5.4.4-.2 1.2-.2 1.2c-.1.4-.1.9-.1 1.3l.2.2c.9-1.3 1.8-2.2 2.8-2.9s1.9-1 2.9-1h.5s.3 0 .4.1l.4.1.2.3-.4 2.4c-.1.7-.2 1.5-.3 2.4s-.1 1.7-.2 2.5l-2.6.2c0-1.3-.1-2.1-.2-2.5-.2-.4-.5-.6-.9-.6s-.9.2-1.3.5-.9.7-1.3 1.3c-.1 1.3-.1 2.5-.2 3.6-.1.9-.1 1.8-.1 2.6v1.5c0 .7.1 1.2.3 1.4.2.3.6.4 1.2.4h.6c.2 0 .5 0 .7-.1l.7-.1.1.2-.4 2.7-1.9-.1c-.5 0-1.1 0-1.7-.1h-3.4c-.6 0-1.1 0-1.6.1-.6 0-1.1.1-1.6.1l.4-2.6zm13.8-7v.4c.1 1.8.6 3.2 1.4 4.1.9 1 2.1 1.4 3.6 1.4.6 0 1.2-.1 1.8-.2.6-.1 1.1-.3 1.6-.4.5-.2 1-.4 1.4-.6l.3.1.6 2c-.8.6-1.6 1.1-2.4 1.5-.7.4-1.4.7-2.2 1-.8.3-1.6.5-2.3.5-1.4 0-2.7-.2-3.8-.6s-2.1-1-2.9-1.8c-.8-.8-1.4-1.8-1.8-2.9-.4-1.1-.6-2.4-.6-3.9 0-1.4.2-2.8.7-4 .5-1.3 1.1-2.3 2-3.2.8-.9 1.8-1.6 3-2.1s2.4-.8 3.8-.8c4.5 0 6.7 2.3 6.7 6.9v.8c0 .3-.1.5-.1.7-.1.3-.1.5-.1.7l-.5.4h-10.2zm5.4-2.5c.3-.1.5-.1.6-.2.1-.1.2-.3.2-.7 0-2-.8-3-2.5-3-1 0-1.8.4-2.5 1.1-.6.7-1 1.7-1.1 3.1l5.3-.3zm10.9.3c0-1.1-.3-2-.9-2.7-.6-.6-1.4-.9-2.5-.9-.6 0-1.2.1-1.7.3-.5.2-1 .4-1.5.7-.5.3-1 .6-1.4.9l-.4-.2-.7-2.4c1-.6 2-1.1 3-1.5.8-.4 1.6-.7 2.5-1.1.8-.3 1.5-.5 2-.5 1.2 0 2.2.1 3 .4.8.3 1.5.7 2.1 1.2.5.5.9 1.1 1.2 1.7.3.7.4 1.4.4 2.2 0 .3 0 .9-.1 1.6-.1.7-.2 1.5-.3 2.3l-.3 2.4c-.1.8-.1 1.4-.1 1.8 0 .5.1.9.4 1.2.3.3.6.4 1.1.4.2 0 .5 0 .7-.1l.6-.2c.2-.1.4-.2.6-.4l.6.8c-.4.7-.8 1.3-1.2 1.8-.4.5-.8.9-1.2 1.3s-.9.7-1.4.9c-2.5 0-3.8-1-4-3.1l-.3-.1c-.8.8-1.6 1.5-2.4 2.1-.8.6-1.5.9-2 .9-.8 0-1.5-.1-2.2-.4-.7-.3-1.2-.7-1.7-1.2s-.9-1.1-1.2-1.9c-.3-.7-.4-1.5-.4-2.3 0-.8.2-1.5.6-2.2s1-1 1.7-1.2l7.7-1.8-.3-.7zm-.2 3.1l-4.2 1.2c-.6.2-.9.6-.9 1.3 0 .7.2 1.3.6 1.7.4.5.9.7 1.6.7.4 0 .9-.1 1.4-.3.5-.2 1-.5 1.5-.8v-3.8zm1.9 6.3c.5-.1.8-.2 1.1-.4s.5-.4.6-.6.2-.5.2-.9v-19.8c0-.7-.1-1.2-.3-1.5-.2-.3-.5-.5-.9-.6-.2-.1-.5-.1-.8 0h-.8l-.1-.5.2-1.8c.9-.1 1.9-.3 2.9-.4 1-.1 1.9-.3 2.7-.4.9-.1 1.8-.3 2.7-.5l.3.8c-.2.2-.4 1-.5 2.3s-.3 3.1-.4 5.3c-.1 2.2-.2 4.8-.3 7.7-.1 2.9-.1 6-.1 9.4 0 .7.1 1.1.3 1.4.2.3.5.4.9.4h1.4l.1.2-.4 2.4h-1.7c-.5 0-1 0-1.5-.1h-1.4c-.5 0-1 0-1.6.1l-1.5.1-1.6.2.5-2.8zm3.4 0c.5-.1.8-.2 1.1-.4s.5-.4.6-.6.2-.5.2-.9v-19.8c0-.7-.1-1.2-.3-1.5-.2-.3-.5-.5-.9-.6-.2-.1-.5-.1-.8 0h-.8l-.1-.5.2-1.8c.9-.1 1.9-.3 2.9-.4 1-.1 1.9-.3 2.7-.4.9-.1 1.8-.3 2.7-.5l.3.8c-.2.2-.4 1-.5 2.3s-.3 3.1-.4 5.3c-.1 2.2-.2 4.8-.3 7.7-.1 2.9-.1 6-.1 9.4 0 .7.1 1.1.3 1.4.2.3.5.4.9.4h1.4l.1.2-.4 2.4h-1.7c-.5 0-1 0-1.5-.1h-1.4c-.5 0-1 0-1.6.1l-1.5.1-1.6.2.5-2.8zm12.4-3.1c.4-1 .8-2.1 1.2-3.2.4-1.1.8-2.1 1.2-3.1.3-.9.6-1.8.9-2.4.2-.7.3-1.1.3-1.3 0-.3-.1-.5-.2-.7s-.5-.2-.9-.2h-1.3l-.1-.2.3-2.3c.5 0 1 .1 1.4.1h6.5l-.3 2.4c-.6.1-1 .3-1.3.6-.3.3-.5.7-.8 1.4l-5.1 12.4c-.9 2-1.7 3.8-2.4 5.2-.8 1.4-1.5 2.6-2.3 3.5s-1.6 1.6-2.4 2c-.8.4-1.6.6-2.5.6-.2 0-.5-.1-.8-.4l-1-.9s-.6-.7-.9-1.1c-.2-.4-.4-.6-.4-.9l.3-.5c1.7-.1 3.3-.7 4.7-1.6 1.4-1 2.5-2.3 3.4-3.9-.3-1-.8-2.2-1.3-3.5s-1-2.7-1.5-4.1c-.5-1.4-1-2.7-1.5-4s-.9-2.2-1.2-3c-.3-.6-.7-1-1-1.3-.4-.3-.8-.4-1.4-.4l-.1-.2.3-2.3h5.2c.7 0 1.4-.1 2-.1.6 0 1.3-.1 2-.2l.1.2-.4 2.4c-.8.1-1.3.1-1.5.3-.3.1-.4.4-.4.7 0 .2 0 .4.1.8s.2.8.3 1.3c.1.5.3 1 .4 1.6.2.6.3 1.2.5 1.7.4 1.4.9 2.9 1.4 4.5h.5zm8 5.7c-.8 0-1.6-.1-2.2-.2-.7-.1-1.2-.2-1.7-.4s-1-.3-1.5-.6l-.2-.4c0-.3.1-.6.1-1.1.1-.4.1-.9.2-1.4.1-.5.1-1 .1-1.5s.1-.9.1-1.3l2.3-.2c0 2.7 1.2 4 3.5 4 .7 0 1.4-.2 1.9-.5s.8-.8.8-1.3c0-.3-.1-.5-.2-.7-.1-.2-.3-.4-.6-.7s-.7-.5-1.2-.8c-.5-.3-1.2-.6-2-1-1.6-.7-2.8-1.5-3.5-2.4-.7-.8-1.1-1.8-1.1-3 0-.9.2-1.7.6-2.5s1-1.4 1.7-1.9 1.6-1 2.6-1.3 2.1-.5 3.4-.5c.6 0 1.2 0 1.8.1.5.1 1 .2 1.4.2.5.1.9.2 1.3.4l.2.4c-.1.5-.2 1-.3 1.6-.1.5-.2 1-.3 1.7-.1.6-.2 1.3-.2 1.9l-2.3.1v-.7c0-1.8-1-2.7-2.8-2.7-.7 0-1.3.2-1.7.5-.5.3-.7.7-.7 1.2s.2 1 .6 1.4c.4.4 1.1.9 2.1 1.3 1.2.6 2.1 1.1 2.9 1.5.8.5 1.4.9 1.8 1.4s.8.9.9 1.4c.2.5.3 1 .3 1.6 0 .9-.2 1.6-.6 2.4-.4.7-1 1.4-1.7 1.9s-1.6 1-2.6 1.3c-1 .7-2 .8-3.2.8zm15.1-2.6c.6-.2 1.1-.4 1.4-.7.3-.3.4-.8.5-1.5l.1-6.8c0-2.3-.9-3.5-2.6-3.5-.7 0-1.3.2-2 .6-.6.4-1.1.7-1.5 1-.1.7-.1 1.5-.1 2.5s-.1 1.8-.1 2.7c0 .9-.1 1.6-.1 2.3v1.5c0 .7.1 1.2.3 1.4.2.3.5.4.9.4h1.1l.1.2-.4 2.5h-1.5c-.5 0-.9 0-1.4-.1h-2.9c-.6 0-1.1 0-1.5.1h-1.6l.3-2.5c.8-.1 1.3-.2 1.6-.5.3-.3.5-.8.5-1.6v-8.4c0-.9-.1-1.6-.4-1.9-.3-.3-.8-.5-1.6-.5h-.5l-.2-.2.2-2.1 2.7-.4c.9-.2 1.7-.3 2.4-.4l2.4-.4.3.4-.2.9c-.1.5-.2 1.1-.2 1.9l.1.1c.3-.3.8-.6 1.3-1l1.5-1.1s1-.6 1.4-.9c.5-.2.8-.4 1-.4 3.1 0 5 1.1 5.7 3.4.3-.3.7-.6 1.2-1l1.5-1.1c.5-.4 1-.7 1.5-.9.5-.3.8-.4 1.1-.4 1.9 0 3.4.5 4.5 1.4s1.6 2.2 1.6 3.8c0 .4 0 1-.1 1.9s-.2 1.7-.2 2.7c-.1 1-.2 1.9-.2 2.8-.1.9-.1 1.6-.1 2.1 0 .7.1 1.2.3 1.5s.5.4 1 .4h1.2l.1.2-.4 2.5h-1.6c-.5 0-.9 0-1.5-.1h-2.6c-.5 0-1 .1-1.4.1-.5 0-1 .1-1.6.1l.2-2.6c.6-.1 1-.3 1.3-.6.3-.3.4-.8.4-1.5l.1-6.8c0-2.3-.9-3.5-2.6-3.5-.6 0-1.3.2-1.9.5s-1.1.7-1.5.9l-.5 9c0 .7.1 1.2.3 1.5.2.3.5.4.9.4h1.1l.1.2-.4 2.5h-1.6c-.5 0-.9 0-1.4-.1h-2.7l-1.5.1-1.6.2v-3.2zm16.6-11.3c0-1.3-.4-2-1.3-2-.2 0-.5 0-.7.1h-.3l.2-2.4 2.6-.4c.9-.1 1.6-.3 2.3-.4l2.4-.5.4.7c-.2.3-.3.9-.4 1.6s-.2 1.7-.3 2.7c-.1 1-.2 2.2-.2 3.4s-.1 2.4-.1 3.6c0 2.2.8 3.2 2.5 3.2.6 0 1.2-.2 1.7-.5l1.7-1v-8.2c0-.8-.1-1.3-.3-1.5-.2-.3-.7-.4-1.4-.4h-.7l.3-2.3 2.6-.4c.9-.1 1.7-.3 2.4-.4.9-.1 1.7-.3 2.4-.4l.4.7c-.2.3-.3.9-.4 1.7-.1.8-.2 1.8-.3 3-.1 1.2-.2 2.4-.2 3.9-.1 1.4-.1 2.9-.1 4.4 0 .5.1.9.4 1.2.2.3.6.4 1 .4.2 0 .5 0 .7-.1l.6-.2c.2-.1.4-.2.6-.4l.6.8c-.4.7-.9 1.3-1.4 1.8-.4.5-.9.9-1.4 1.3-.5.4-1 .7-1.5.8-2.4 0-3.8-1-4.1-3.1l-.3-.2c-1 1-1.9 1.7-2.8 2.3-.8.6-1.4.9-1.7.9-2.1 0-3.6-.4-4.7-1.3s-1.6-2.1-1.6-3.8l.4-8.6zm18.5 13.9c-.8 0-1.6-.1-2.2-.2-.7-.1-1.2-.2-1.7-.4s-1-.3-1.5-.6l-.2-.3c0-.3.1-.6.1-1.1.1-.4.1-.9.2-1.4.1-.5.1-1 .1-1.5s.1-.9.1-1.3l2.3-.2c0 2.7 1.2 4 3.5 4 .7 0 1.4-.2 1.9-.5s.8-.8.8-1.3c0-.3-.1-.5-.2-.7-.1-.2-.3-.4-.6-.7s-.7-.5-1.2-.8c-.5-.3-1.2-.6-2-1-1.6-.7-2.8-1.5-3.5-2.4-.7-.8-1.1-1.8-1.1-3 0-.9.2-1.7.6-2.5s1-1.4 1.7-1.9 1.6-1 2.6-1.3 2.1-.5 3.4-.5c.6 0 1.2 0 1.8.1.5.1 1 .2 1.4.2.5.1.9.2 1.3.4l.2.4c-.1.5-.2 1-.3 1.6-.1.5-.2 1-.3 1.7-.1.6-.2 1.3-.2 1.9l-2.3.1v-.7c0-1.8-1-2.7-2.8-2.7-.7 0-1.3.2-1.7.5-.5.3-.7.7-.7 1.2s.2 1 .6 1.4c.4.4 1.1.9 2.1 1.3 1.2.6 2.1 1.1 2.9 1.5.8.5 1.4.9 1.8 1.4s.8.9.9 1.4c.2.5.3 1 .3 1.6 0 .9-.2 1.6-.6 2.4-.4.7-1 1.4-1.7 1.9s-1.6 1-2.6 1.3c-1 .6-2 .7-3.2.7zm3.4-2.8c.7-.1 1.2-.3 1.5-.6.3-.3.4-.8.4-1.6v-19.3c0-.8-.1-1.4-.4-1.7-.2-.3-.7-.5-1.3-.5h-.9l-.2-.2.2-2.1c.9-.1 1.9-.3 2.9-.4 1-.1 1.9-.3 2.7-.4.9-.1 1.8-.3 2.7-.5l.3.8c-.1.2-.3.6-.4 1.3-.1.7-.2 1.6-.3 2.8-.1 1.2-.2 2.5-.3 4.1-.1 1.6-.1 3.3-.2 5.2.3-.3.7-.6 1.2-1s1-.8 1.5-1.1c.5-.4 1-.7 1.5-.9.5-.3.9-.4 1.2-.4 1.9 0 3.4.4 4.5 1.3 1 .9 1.6 2.2 1.6 3.9 0 .4 0 1-.1 1.9s-.2 1.7-.3 2.7c-.1 1-.2 1.9-.3 2.8-.1.9-.1 1.6-.1 2.1 0 .7.1 1.2.3 1.5s.5.4 1 .4h1.2l.1.2-.4 2.5h-1.6c-.5 0-.9 0-1.4-.1h-2.7l-1.5.1-1.6.2.2-2.5c.6-.2 1.1-.4 1.4-.7.3-.3.4-.8.5-1.5l.2-6.8c0-2.3-.9-3.5-2.6-3.5-.4 0-.7.1-1.1.2-.4.1-.7.3-1 .5s-.6.4-.9.5c-.3.2-.5.3-.6.4 0 1.4 0 2.8-.1 4.3v4.5c0 .7.1 1.1.3 1.4.2.3.5.4.9.4h1l.1.2-.4 2.4h-1.6c-.5 0-.9 0-1.4-.1h-2.9s-1 0-1.4.1h-1.5l.1-2.8zm23.5-2.9c.4-1 .8-2.1 1.2-3.2.4-1.1.8-2.1 1.2-3.1.3-.9.6-1.8.9-2.4.2-.7.3-1.1.3-1.3 0-.3-.1-.5-.2-.7s-.5-.2-.9-.2h-1.3l-.1-.2.3-2.3c.5 0 1 .1 1.4.1h6.5l-.3 2.4c-.6.1-1 .3-1.3.6-.3.3-.5.7-.8 1.4l-5.1 12.4c-.9 2-1.7 3.8-2.4 5.2-.8 1.4-1.5 2.6-2.3 3.5s-1.6 1.6-2.4 2c-.8.4-1.6.6-2.5.6-.2 0-.5-.1-.8-.4l-1-.9s-.6-.7-.9-1.1c-.2-.4-.4-.6-.4-.9l.3-.5c1.7-.1 3.3-.7 4.7-1.6 1.4-1 2.5-2.3 3.4-3.9-.3-1-.8-2.2-1.3-3.5s-1-2.7-1.5-4.1c-.5-1.4-1-2.7-1.5-4s-.9-2.2-1.2-3c-.3-.6-.7-1-1-1.3-.4-.3-.8-.4-1.4-.4l-.1-.2.3-2.3h5.2c.7 0 1.4-.1 2-.1.6 0 1.3-.1 2-.2l.1.2-.4 2.4c-.8.1-1.3.1-1.5.3-.3.1-.4.4-.4.7 0 .2 0 .4.1.8s.2.8.3 1.3c.1.5.3 1 .4 1.6.2.6.3 1.2.5 1.7.4 1.4.9 2.9 1.4 4.5h.5zm6.1 5.7c-1 0-1.8-.3-2.3-.8s-.7-1.3-.7-2.2c0-1 .3-1.7.9-2.4.6-.6 1.4-.9 2.4-.9s1.7.3 2.2.8c.5.5.8 1.3.8 2.2 0 1-.3 1.8-.9 2.4s-1.4.9-2.4.9z"/></svg>